<svg width="40" height="40" viewBox="0 0 40 40" fill="none" xmlns="http://www.w3.org/2000/svg">
<path d="M16.0312 5.53125H7.24997C5.49997 5.53125 4.06247 6.96875 4.06247 8.75C3.99997 10.4688 5.37497 11.9062 7.09372 11.9688H16.125L16.0312 5.53125Z" fill="#073042"/>
<path d="M35.9375 34.1564H7.25C5.46875 34.1564 4.0625 32.7189 4.0625 30.9376V8.71887C4.0625 10.5001 5.5 11.9376 7.25 11.9689H31.2812C31.2812 11.9689 35.9688 11.5626 35.9688 15.0939V34.1564H35.9375Z" fill="#4285F4"/>
<path d="M22.5624 22.7811C23.8437 21.8124 24.0937 19.9999 23.1249 18.7499C22.5937 18.0624 21.7812 17.6249 20.9062 17.5936H20.9999C21.1562 17.5624 21.3437 17.5624 21.4999 17.5936V15.8124C21.4999 15.5936 21.4062 15.4061 21.2187 15.3124C20.9374 15.1561 20.5937 15.2499 20.4374 15.5311C20.3749 15.6249 20.3437 15.7186 20.3749 15.8436V17.6561C18.8124 17.9061 17.7187 19.3749 17.9687 20.9686V20.9999C18.0937 21.7499 18.4999 22.4374 19.1249 22.8749L13.8437 34.1874H17.2812L19.7187 28.9999C19.9999 28.3749 20.7499 28.0936 21.4062 28.4061C21.6562 28.5311 21.8749 28.7499 21.9999 28.9999L24.5312 34.1874H28.0312L22.5624 22.7811ZM20.7812 22.2811C19.7812 22.2811 18.9999 21.4686 18.9999 20.4686C18.9999 19.4686 19.8124 18.6874 20.8124 18.7186C21.2812 18.7186 21.6874 18.9061 22.0312 19.2186C22.7499 19.9061 22.7499 21.0311 22.0624 21.7499C21.7499 22.0624 21.2812 22.2811 20.7812 22.2811Z" fill="#3870B2"/>
<path d="M14.125 7.09375H26.4375V9.34375H14.125V7.09375Z" fill="white"/>
<path d="M19.8438 18.6875C20.8125 18.6875 21.625 19.5 21.5938 20.5C21.5938 21.4688 20.7813 22.2813 19.7813 22.25C18.8125 22.25 18.0313 21.4375 18.0313 20.4688C18.0313 20 18.2188 19.5625 18.5625 19.2188C18.9063 18.875 19.375 18.6875 19.8438 18.6875ZM20.5313 17.6563V15.7813C20.5313 15.5625 20.4375 15.375 20.25 15.2813C19.9688 15.125 19.625 15.2188 19.4688 15.5C19.4063 15.5938 19.375 15.6875 19.4063 15.8125V17.625C17.8438 17.875 16.75 19.3438 17 20.9375V20.9688C17.125 21.7188 17.5313 22.4063 18.1563 22.8438L11.5 37.125C11.25 37.625 11.2813 38.25 11.625 38.7188C12.125 39.4375 13.0938 39.625 13.8125 39.125C14.0625 38.9688 14.25 38.7188 14.375 38.4688L18.8125 28.9688C19.0938 28.3438 19.8438 28.0625 20.5 28.375C20.75 28.5 20.9688 28.7188 21.0938 28.9688L25.625 38.375C26 39.1563 26.9375 39.4688 27.7188 39.0938C28.5 38.7188 28.8125 37.7813 28.4375 37L21.5938 22.7813C22.8438 21.7813 23.0625 19.9375 22.0625 18.6875C21.6875 18.1875 21.1563 17.8438 20.5313 17.6563Z" fill="#073042"/>
<path d="M24.625 9.09375C24.1562 9.09375 23.7812 8.75 23.7812 8.28125C23.7812 8.0625 23.875 7.8125 24.0312 7.65625C24.375 7.34375 24.875 7.34375 25.2187 7.65625C25.375 7.8125 25.4688 8.03125 25.4688 8.25C25.4375 8.71875 25.0938 9.0625 24.625 9.09375ZM15.375 9.0625C14.9063 9.0625 14.5312 8.6875 14.5312 8.25C14.5312 8.03125 14.625 7.8125 14.7812 7.65625C15.0625 7.3125 15.5938 7.25 15.9375 7.53125H15.9687C16.3125 7.84375 16.3438 8.375 16.0312 8.71875L15.9375 8.84375C15.7812 9 15.5625 9.09375 15.3437 9.09375M24.875 4.03125L26.5312 1.15625C26.625 1 26.5625 0.8125 26.4375 0.6875C26.2812 0.625 26.125 0.65625 26.0312 0.78125L24.3125 3.75C21.5625 2.53125 18.4375 2.53125 15.7188 3.75L14.0313 0.8125C13.9688 0.71875 13.8438 0.625 13.7188 0.625C13.5938 0.625 13.4688 0.6875 13.4063 0.8125C13.3438 0.90625 13.3438 1.0625 13.4063 1.15625L15.0938 4.03125C12.1562 5.625 10.25 8.625 9.96875 11.9375H30.0312C29.7812 8.59375 27.8437 5.625 24.9062 4.03125" fill="#3DDC84"/>
<path d="M33 18.1562H31.6875C31.625 18.1875 31.5625 18.25 31.5625 18.3438V39.125C31.5625 39.2187 31.625 39.2812 31.7188 39.2812H33.0938C34.6875 39.2812 35.9688 37.9687 35.9688 36.4062V15.25C35.9688 16.8437 34.6875 18.125 33.0938 18.125H33V18.1562Z" fill="#073042"/>
</svg>
