<svg width="40" height="40" viewBox="0 0 40 40" fill="none" xmlns="http://www.w3.org/2000/svg">
<g clip-path="url(#clip0_215_479)">
<path d="M6.49172 27.24C5.82505 27.24 5.24505 27.1067 4.75172 26.84C4.27172 26.5733 3.89839 26.2133 3.63172 25.76C3.36505 25.3067 3.23172 24.8 3.23172 24.24C3.23172 23.1333 3.73172 22.2867 4.73172 21.7C5.74505 21.1133 7.42505 20.7533 9.77172 20.62C9.73172 20.3133 9.63172 20.0533 9.47172 19.84C9.31172 19.6267 9.07839 19.4667 8.77172 19.36C8.47839 19.24 8.10505 19.18 7.65172 19.18C7.33172 19.18 7.01172 19.22 6.69172 19.3C6.37172 19.3667 6.03839 19.4733 5.69172 19.62C5.35839 19.7533 5.00505 19.9133 4.63172 20.1L3.59172 18.18C4.04505 17.9133 4.51839 17.68 5.01172 17.48C5.51839 17.28 6.03839 17.1267 6.57172 17.02C7.11839 16.9 7.67172 16.84 8.23172 16.84C9.16505 16.84 9.96505 17.0067 10.6317 17.34C11.2984 17.66 11.8117 18.1533 12.1717 18.82C12.5317 19.4733 12.7117 20.3067 12.7117 21.32V27H10.3117L10.0917 25.88H10.0117C9.51839 26.2533 8.97172 26.5733 8.37172 26.84C7.77172 27.1067 7.14505 27.24 6.49172 27.24ZM7.43172 24.96C7.87172 24.96 8.28505 24.8733 8.67172 24.7C9.05839 24.5133 9.42505 24.2867 9.77172 24.02V22.38C8.79839 22.4333 8.03839 22.5333 7.49172 22.68C6.95839 22.8267 6.58505 23.0133 6.37172 23.24C6.15839 23.4667 6.05172 23.7267 6.05172 24.02C6.05172 24.22 6.10505 24.3933 6.21172 24.54C6.33172 24.6867 6.49172 24.7933 6.69172 24.86C6.90505 24.9267 7.15172 24.96 7.43172 24.96ZM19.9239 27.24C19.0439 27.24 18.1706 27.0933 17.3039 26.8C16.4372 26.4933 15.6906 26.1333 15.0639 25.72L16.3239 23.88C16.9239 24.2667 17.5572 24.56 18.2239 24.76C18.9039 24.96 19.6039 25.06 20.3239 25.06C20.8706 25.06 21.2706 24.98 21.5239 24.82C21.7772 24.6467 21.9039 24.4467 21.9039 24.22C21.9039 24.0733 21.8639 23.9533 21.7839 23.86C21.7172 23.7533 21.5906 23.66 21.4039 23.58C21.2306 23.4867 20.9839 23.4 20.6639 23.32C20.3572 23.24 19.9572 23.1467 19.4639 23.04C18.1172 22.7467 17.1506 22.3467 16.5639 21.84C15.9772 21.3333 15.6839 20.7 15.6839 19.94C15.6839 19.0067 16.0906 18.26 16.9039 17.7C17.7172 17.1267 18.8306 16.84 20.2439 16.84C21.1372 16.84 21.9439 16.9867 22.6639 17.28C23.3972 17.56 24.0239 17.8667 24.5439 18.2L23.2239 19.96C22.7306 19.6533 22.2039 19.42 21.6439 19.26C21.0839 19.1 20.5306 19.02 19.9839 19.02C19.6772 19.02 19.4239 19.0533 19.2239 19.12C19.0239 19.1733 18.8706 19.2667 18.7639 19.4C18.6572 19.52 18.6039 19.6533 18.6039 19.8C18.6039 20.0667 18.7772 20.2667 19.1239 20.4C19.4706 20.52 20.0639 20.6733 20.9039 20.86C21.9172 21.0867 22.7106 21.3467 23.2839 21.64C23.8572 21.9333 24.2506 22.2733 24.4639 22.66C24.6906 23.0333 24.8039 23.4933 24.8039 24.04C24.8039 24.64 24.6172 25.18 24.2439 25.66C23.8839 26.14 23.3372 26.5267 22.6039 26.82C21.8839 27.1 20.9906 27.24 19.9239 27.24ZM26.6961 27V17.08H28.9161L29.1161 18.3H29.1961C29.3828 17.9 29.6428 17.56 29.9761 17.28C30.3094 16.9867 30.7628 16.84 31.3361 16.84C31.7628 16.84 32.1294 16.98 32.4361 17.26C32.7428 17.5267 32.9494 17.9267 33.0561 18.46C33.2428 18.0067 33.5094 17.6267 33.8561 17.32C34.2161 17 34.6828 16.84 35.2561 16.84C35.9628 16.84 36.5094 17.1267 36.8961 17.7C37.2828 18.2733 37.4761 19.0533 37.4761 20.04V27H34.6761V20.24C34.6761 19.64 34.4961 19.34 34.1361 19.34C33.9494 19.34 33.7828 19.42 33.6361 19.58C33.5028 19.7267 33.3694 19.9667 33.2361 20.3V27H30.9361V20.24C30.9361 19.9333 30.8894 19.7067 30.7961 19.56C30.7028 19.4133 30.5628 19.34 30.3761 19.34C30.1894 19.34 30.0294 19.42 29.8961 19.58C29.7628 19.7267 29.6294 19.9667 29.4961 20.3V27H26.6961Z" fill="#55FF39"/>
</g>
<defs>
<clipPath id="clip0_215_479">
<rect width="40" height="40" fill="white"/>
</clipPath>
</defs>
</svg>
