<svg width="40" height="40" viewBox="0 0 40 40" fill="none" xmlns="http://www.w3.org/2000/svg">
<g clip-path="url(#clip0_14_1110)">
<path d="M20.0003 40.0006C31.0462 40.0006 40.0006 31.0462 40.0006 20.0003C40.0006 8.95444 31.0462 0 20.0003 0C8.95444 0 0 8.95444 0 20.0003C0 31.0462 8.95444 40.0006 20.0003 40.0006Z" fill="#60B57D"/>
<path d="M18.4093 9.24116C18.6518 9.43596 18.6905 9.79046 18.4957 10.033C18.3008 10.2755 17.9463 10.3141 17.7038 10.1193C16.2356 8.93994 15.0127 8.55055 14.2584 8.9356C13.3806 9.38327 13.0402 10.8236 13.2173 12.8335L13.244 13.1048C13.2589 13.2421 13.2761 13.3819 13.2955 13.524L13.3375 13.8112C13.3896 14.1471 13.454 14.495 13.5305 14.8533C14.5877 14.6895 15.7257 14.5824 16.9207 14.5377C17.4392 13.8717 17.9662 13.2466 18.4956 12.6677L18.7609 12.3817C19.4244 11.6766 20.0899 11.0454 20.7447 10.4991L21.0061 10.2851C23.396 8.36554 25.6204 7.606 27.0589 8.53995C28.312 9.35291 28.6478 11.1945 28.1824 13.6624C28.1248 13.968 27.8303 14.1691 27.5246 14.1115C27.2189 14.0538 27.0179 13.7593 27.0755 13.4536C27.4653 11.3868 27.2087 9.97985 26.4456 9.48482C25.454 8.84097 23.6111 9.58219 21.5333 11.3132L21.3014 11.5096C21.1851 11.6098 21.0681 11.713 20.9505 11.8192L20.7147 12.0354C20.4782 12.2555 20.2398 12.4872 20.0003 12.7299L19.7605 12.9763C19.7205 13.018 19.6804 13.06 19.6404 13.1023L19.3998 13.3595L19.1591 13.6238L18.9182 13.895C18.838 13.9865 18.7577 14.0792 18.6775 14.173L18.4371 14.4578L18.3903 14.5145C18.9506 14.5175 19.5207 14.5337 20.0984 14.5638L20.3227 14.5761L20.7683 14.6047C21.1381 14.6306 21.5038 14.6619 21.8648 14.6983L22.2956 14.7443C22.3671 14.7524 22.4383 14.7607 22.5093 14.7692L22.933 14.8225C23.284 14.8689 23.6298 14.9202 23.9697 14.9762L24.3747 15.0457L24.7738 15.1196L25.1669 15.1978C26.4669 15.4659 27.6621 15.8053 28.7154 16.2032L29.0271 16.3242C31.7934 17.4296 33.4981 18.9511 33.4107 20.633C33.3381 22.0233 32.0919 23.171 30.0029 23.9935C29.7135 24.1075 29.3865 23.9652 29.2726 23.6758C29.1586 23.3863 29.3009 23.0593 29.5903 22.9454C31.3129 22.2672 32.2421 21.4114 32.2857 20.5744C32.3415 19.5028 31.0594 18.3945 28.9252 17.5006L28.6596 17.3922C28.4798 17.3207 28.2944 17.2507 28.1037 17.1823L27.8138 17.0809C27.7159 17.0476 27.6167 17.0147 27.5162 16.9822L27.211 16.886L26.8985 16.7927C26.8458 16.7773 26.7929 16.7621 26.7396 16.747L26.4165 16.658C26.362 16.6434 26.3073 16.6289 26.2523 16.6146L25.919 16.5301C25.5825 16.4472 25.2361 16.369 24.8808 16.2961L24.5225 16.2248C24.4623 16.2133 24.4019 16.2018 24.3412 16.1906L23.9744 16.1248L23.6022 16.0627C23.5397 16.0527 23.477 16.0428 23.4141 16.0331L23.0341 15.9768C22.9066 15.9587 22.7783 15.9412 22.6491 15.9245L22.2594 15.8763L21.8651 15.8322C21.6669 15.8113 21.467 15.7919 21.2656 15.7743L20.8608 15.7411C20.7253 15.7309 20.589 15.7213 20.4522 15.7126L20.0399 15.6887L19.6273 15.6697L19.2179 15.6557C18.7422 15.6422 18.2733 15.6388 17.8128 15.6449L17.491 15.651L17.3644 15.8188C17.2858 15.9243 17.2073 16.0308 17.1292 16.1383L16.8954 16.4636C16.6237 16.8466 16.3555 17.2414 16.0922 17.6472C16.017 17.7632 15.9427 17.8791 15.8695 17.995L15.6526 18.3426C15.4218 18.7176 15.2013 19.0918 14.9914 19.4639C15.0107 19.5111 15.0302 19.5584 15.0499 19.6058L15.203 19.9674C15.2291 20.0278 15.2553 20.0883 15.2818 20.1489L15.4438 20.5132L15.6116 20.879L15.7853 21.2461L15.9649 21.6143L16.1504 21.9833L16.3402 22.3501L16.5328 22.7117L16.7279 23.0679C16.7607 23.1268 16.7935 23.1855 16.8264 23.244L17.0251 23.5918C17.0917 23.7068 17.1587 23.8209 17.226 23.934L17.4288 24.2703C17.4967 24.3814 17.5649 24.4915 17.6334 24.6005L17.8396 24.9247L18.0473 25.2425C18.2209 25.5047 18.3959 25.7603 18.5717 26.0088L18.7831 26.3035C18.9242 26.4977 19.0658 26.6873 19.2076 26.8722L19.4205 27.1458L19.6335 27.412C19.669 27.4558 19.7045 27.4993 19.74 27.5424L19.9528 27.7974L20.1654 28.0448C20.3778 28.2882 20.5895 28.52 20.7996 28.7394L21.0093 28.9546L21.2178 29.1615C21.3217 29.2628 21.4251 29.3609 21.528 29.4558L21.7328 29.6411C21.8348 29.7316 21.9361 29.8187 22.0366 29.9025L22.2367 30.0654C23.5964 31.1474 24.8013 31.5843 25.6012 31.1763C26.3524 30.7933 26.7109 29.6751 26.6844 28.0892L26.6776 27.8478C26.6743 27.7662 26.6701 27.6835 26.665 27.5997L26.6466 27.3449C26.6395 27.2589 26.6314 27.1718 26.6224 27.0837L26.5926 26.8163C26.5871 26.7712 26.5814 26.7259 26.5755 26.6803L26.537 26.404L26.4927 26.1219L26.4428 25.8344C26.3987 25.5925 26.3488 25.3451 26.2928 25.0927L26.2229 24.7874L26.1472 24.4775C26.1341 24.4255 26.1208 24.3733 26.1072 24.3209L26.023 24.0045L25.9331 23.684C25.9176 23.6302 25.9019 23.5763 25.886 23.5222L25.7876 23.1959L25.6835 22.866C25.63 22.7002 25.5744 22.5331 25.5167 22.3649L25.3985 22.0268L25.2746 21.6859C25.1901 21.4577 25.1018 21.2277 25.0098 20.9962L24.869 20.6477L24.7225 20.2972C24.6976 20.2386 24.6725 20.18 24.6472 20.1212L24.4923 19.7679L24.3318 19.413C24.3046 19.3538 24.2771 19.2944 24.2494 19.235L24.0805 18.8781C24.0519 18.8185 24.023 18.7589 23.994 18.6992C23.8577 18.4196 23.9738 18.0825 24.2534 17.9462C24.533 17.8099 24.8702 17.9261 25.0065 18.2057L25.1933 18.5946C25.2545 18.7241 25.3148 18.8534 25.374 18.9825L25.5485 19.369C25.72 19.7548 25.8822 20.1382 26.0349 20.5184L26.1844 20.8975C26.2088 20.9605 26.233 21.0234 26.2569 21.0862L26.3969 21.4616C26.4197 21.524 26.4423 21.5862 26.4645 21.6484L26.595 22.0197C26.6798 22.2663 26.7603 22.5109 26.8365 22.7532L26.9474 23.1148C28.2756 27.5538 28.1051 31.164 26.113 32.1798C24.5015 33.0017 22.2167 31.8601 19.9168 29.4524L19.6789 29.1989C19.5203 29.0268 19.3617 28.8489 19.2033 28.6653L18.966 28.3857C18.3339 27.6288 17.7075 26.7829 17.1008 25.8626L16.8742 25.514C16.3101 24.634 15.7648 23.6903 15.2496 22.6948L15.1469 22.495C15.0788 22.3614 15.0117 22.2279 14.9456 22.0944L14.7507 21.6946C14.5974 21.3751 14.4502 21.0566 14.3092 20.7395L14.2183 20.9195C14.1903 20.9757 14.1625 21.032 14.1349 21.0881L13.9728 21.4236L13.817 21.7567L13.6674 22.0871C13.643 22.1419 13.6189 22.1967 13.595 22.2513L13.4549 22.5773C13.4321 22.6314 13.4096 22.6853 13.3873 22.7391L13.2568 23.0602C13.2355 23.1135 13.2146 23.1666 13.1939 23.2195L13.073 23.5352C13.0534 23.5875 13.0341 23.6397 13.015 23.6917L12.9038 24.0015L12.7992 24.3072C12.7485 24.4589 12.7003 24.609 12.6545 24.7573L12.5663 25.0514L12.4847 25.3406C12.4717 25.3884 12.4589 25.436 12.4465 25.4833L12.3749 25.7646C12.3181 25.9968 12.2682 26.2232 12.2255 26.4433L12.1776 26.7043C11.8587 28.5527 12.0665 29.9158 12.8564 30.4284C13.652 30.9446 15.1272 30.5519 16.9475 29.2378C17.1997 29.0557 17.5518 29.1125 17.7339 29.3647C17.9159 29.6169 17.8591 29.969 17.6069 30.151C15.4495 31.7086 13.5424 32.2162 12.2433 31.3734C10.6737 30.3547 10.5633 27.6613 11.608 24.3106L11.7163 23.9733C11.7911 23.7471 11.8709 23.5181 11.9558 23.2866L12.0868 22.9376C12.2664 22.4699 12.4659 21.9929 12.6844 21.509L12.8519 21.1449L13.0265 20.7784C13.2489 20.3193 13.4877 19.8553 13.7424 19.3883C13.7086 19.302 13.6751 19.2159 13.6422 19.13L13.4964 18.7432C13.3066 18.2293 13.1348 17.7225 12.9814 17.2256L12.8698 16.8547C12.801 16.6196 12.7364 16.3869 12.676 16.1568C12.6066 16.1707 12.5378 16.1849 12.4696 16.1994L12.1633 16.2667L11.8644 16.3374C11.8152 16.3495 11.7664 16.3617 11.7178 16.374L11.4305 16.4496L11.151 16.5283C11.0592 16.555 10.9688 16.5823 10.8798 16.61L10.6168 16.6948C10.5306 16.7235 10.4458 16.7527 10.3625 16.7824L10.1169 16.8728C8.42893 17.5154 7.40071 18.3587 7.35293 19.2772C7.30927 20.1144 8.14469 21.062 9.78782 21.9152C10.0639 22.0586 10.1715 22.3985 10.0281 22.6746C9.88479 22.9507 9.5448 23.0583 9.26874 22.9149C7.27606 21.8802 6.15551 20.6091 6.22803 19.2187C6.32886 17.2802 8.77572 15.8007 12.4152 15.0536C11.6786 11.534 12.0535 8.79562 13.7465 7.93224C14.9978 7.29345 16.6326 7.81398 18.4093 9.24116ZM21.4958 19.7179C21.6827 20.5828 21.133 21.4349 20.2681 21.6222C19.4032 21.8091 18.551 21.2594 18.3638 20.3945C18.1772 19.5295 18.7266 18.6774 19.5915 18.4901C20.4564 18.3032 21.3086 18.8529 21.4958 19.7179ZM16.0429 15.7168L15.9413 15.7239C15.8637 15.7295 15.7865 15.7354 15.7096 15.7415L15.3432 15.7731L14.9822 15.8088C14.9225 15.8151 14.8631 15.8216 14.8039 15.8282L14.4515 15.8699C14.3932 15.8772 14.3352 15.8846 14.2775 15.8922L13.9341 15.9398L13.7978 15.9605L13.846 16.1403C13.9214 16.4143 14.003 16.6927 14.091 16.9751L14.1994 17.3157C14.218 17.3728 14.2368 17.43 14.2559 17.4874L14.3734 17.8332C14.4057 17.9265 14.4387 18.0202 14.4723 18.1142C14.6508 17.8175 14.8352 17.5202 15.0256 17.2229L15.1473 17.0341C15.4405 16.5823 15.7395 16.1428 16.0429 15.7168Z" fill="white"/>
</g>
<defs>
<clipPath id="clip0_14_1110">
<rect width="40" height="40" fill="white"/>
</clipPath>
</defs>
</svg>
