<svg width="40" height="40" viewBox="0 0 40 40" fill="none" xmlns="http://www.w3.org/2000/svg">
<path d="M8.30814 4.0625C6.02576 4.0625 4.33695 6.06013 4.41254 8.22657C4.48508 10.3079 4.39085 13.0035 3.7122 15.2018C3.03153 17.4066 1.88034 18.8032 0 18.9825V21.0069C1.88034 21.1862 3.03153 22.5828 3.7122 24.7876C4.39085 26.9859 4.48508 29.6815 4.41254 31.7628C4.33695 33.9289 6.02576 35.9269 8.30847 35.9269H31.6949C33.9773 35.9269 35.6658 33.9293 35.5902 31.7628C35.5176 29.6815 35.6119 26.9859 36.2905 24.7876C36.9715 22.5828 38.1197 21.1862 40 21.0069V18.9825C38.1197 18.8032 36.9715 17.4066 36.2905 15.2018C35.6119 13.0039 35.5176 10.3079 35.5902 8.22657C35.6658 6.06047 33.9773 4.0625 31.6949 4.0625H8.3078H8.30814ZM27.1186 23.6771C27.1186 26.6601 24.8936 28.4693 21.201 28.4693H14.9153C14.5408 28.4693 14.2373 28.1657 14.2373 27.7913V12.1981C14.2373 11.8237 14.5408 11.5201 14.9153 11.5201H21.1651C24.2441 11.5201 26.2647 13.1879 26.2647 15.7486C26.2647 17.5459 24.9054 19.155 23.1736 19.4367V19.5306C25.5312 19.7893 27.1186 21.4218 27.1186 23.6771ZM20.5156 13.6693H16.9315V18.7317H19.9502C22.2837 18.7317 23.5705 17.792 23.5705 16.1123C23.5705 14.5384 22.4641 13.6693 20.5156 13.6693ZM16.9315 20.7405V26.3194H20.6475C23.0769 26.3194 24.3641 25.3445 24.3641 23.5123C24.3641 21.6798 23.041 20.7401 20.4912 20.7401H16.9315V20.7405Z" fill="#7E13F8"/>
</svg>
