<svg width="40" height="40" viewBox="0 0 40 40" fill="none" xmlns="http://www.w3.org/2000/svg">
<g clip-path="url(#clip0_208_455)">
<path d="M20 40C31.0457 40 40 31.0457 40 20C40 8.9543 31.0457 0 20 0C8.9543 0 0 8.9543 0 20C0 31.0457 8.9543 40 20 40Z" fill="#05930C"/>
<path d="M6.07853 5.64056L34.3338 33.9479C30.7004 37.6811 25.621 40 20 40C8.9543 40 0 31.0457 0 20C0 14.3658 2.32978 9.27567 6.07853 5.64056Z" fill="white" fill-opacity="0.1"/>
<path d="M19.0187 27.2188C17.6581 27.8807 16.1558 28.1984 14.6437 28.1438C12.6221 28.2324 10.6606 27.4441 9.26247 25.9813C7.87321 24.424 7.14862 22.3848 7.24372 20.3C7.14593 18.0408 7.96655 15.8382 9.51872 14.1938C11.036 12.6414 13.1368 11.7998 15.3062 11.875C16.5735 11.8267 17.8371 12.0394 19.0187 12.5V14.4688C17.8727 13.8318 16.5797 13.5064 15.2687 13.525C13.6173 13.4703 12.0226 14.1309 10.8937 15.3375C9.7234 16.6716 9.11819 18.4088 9.20622 20.1813C9.11965 21.8564 9.68398 23.5001 10.7812 24.7688C11.8458 25.9134 13.3568 26.5365 14.9187 26.475C16.359 26.5108 17.7808 26.1451 19.025 25.4188L19.0187 27.2188ZM32.975 16.5375L32.725 17.7H29.85L29.1625 21H32.25L31.9562 22.1625H28.9312L27.9625 26.5375H26.5812L27.525 22.1625H24.775L23.85 26.5375H22.5L23.425 22.1625H20.525L20.7437 21H23.6562L24.325 17.7063H21.2812L21.5125 16.5438H24.5562L25.4812 12.125H26.875L25.95 16.5438H28.7187L29.6625 12.125H31.0125L30.0875 16.5438L32.975 16.5375ZM28.4937 17.7H25.7187L25 21H27.7875L28.4937 17.7Z" fill="white"/>
</g>
<defs>
<clipPath id="clip0_208_455">
<rect width="40" height="40" fill="white"/>
</clipPath>
</defs>
</svg>
