<svg width="40" height="40" viewBox="0 0 40 40" fill="none" xmlns="http://www.w3.org/2000/svg">
<g clip-path="url(#clip0_13_303)">
<path fill-rule="evenodd" clip-rule="evenodd" d="M37.32 11.9441C37.3197 11.2898 37.1796 10.7117 36.8963 10.2155C36.618 9.7276 36.2012 9.31865 35.6421 8.99532C31.0272 6.33778 26.4077 3.68837 21.7943 1.02812C20.5505 0.311012 19.3446 0.337156 18.1101 1.06456C16.2732 2.14646 7.07655 7.40857 4.33607 8.99383C3.20747 9.64632 2.65828 10.6449 2.65801 11.9429C2.65625 17.2873 2.65801 22.6317 2.65625 27.9763C2.65652 28.6162 2.79066 29.1831 3.06152 29.6718C3.33998 30.1745 3.76261 30.5947 4.33458 30.9253C7.0752 32.5106 16.2731 37.7723 18.1095 38.8544C19.3446 39.5823 20.5505 39.6083 21.7947 38.8909C26.4083 36.2305 31.028 33.5812 35.6436 30.9237C36.2155 30.5932 36.6382 30.1727 36.9166 29.6704C37.1871 29.1817 37.3215 28.6148 37.3218 27.9748C37.3218 27.9748 37.3218 17.2887 37.32 11.9441Z" fill="#5C8DBC"/>
<path fill-rule="evenodd" clip-rule="evenodd" d="M20.042 19.9075L3.06152 29.6718C3.33998 30.1745 3.76261 30.5946 4.33458 30.9253C7.0752 32.5106 16.2731 37.7723 18.1095 38.8544C19.3446 39.5822 20.5505 39.6082 21.7947 38.8909C26.4083 36.2305 31.028 33.5812 35.6436 30.9237C36.2155 30.5932 36.6382 30.1727 36.9166 29.6704L20.042 19.9075Z" fill="#1A4674"/>
<path fill-rule="evenodd" clip-rule="evenodd" d="M15.0126 22.7998C16.0007 24.5225 17.8582 25.6845 19.989 25.6845C22.133 25.6845 24.0011 24.5077 24.9842 22.7666L20.0421 19.9075L15.0126 22.7998Z" fill="#1A4674"/>
<path fill-rule="evenodd" clip-rule="evenodd" d="M37.32 11.9441C37.3197 11.2898 37.1796 10.7117 36.8963 10.2155L20.0421 19.9075L36.9166 29.6704C37.1871 29.1817 37.3215 28.6148 37.3218 27.9748C37.3218 27.9748 37.3218 17.2887 37.32 11.9441Z" fill="#1B598E"/>
<path fill-rule="evenodd" clip-rule="evenodd" d="M36.3921 20.6054H35.0735V21.9226H33.7546V20.6054H32.4361V19.2886H33.7546V17.9717H35.0735V19.2886H36.3921V20.6054Z" fill="#D9D9D9"/>
<path fill-rule="evenodd" clip-rule="evenodd" d="M31.5805 20.6054H30.262V21.9226H28.9434V20.6054H27.6248V19.2886H28.9434V17.9717H30.262V19.2886H31.5805V20.6054Z" fill="#D9D9D9"/>
<path fill-rule="evenodd" clip-rule="evenodd" d="M24.9841 22.7666C24.0011 24.5078 22.133 25.6845 19.989 25.6845C17.8582 25.6845 16.0007 24.5225 15.0126 22.7998C14.5326 21.9627 14.2566 20.9935 14.2566 19.9595C14.2566 16.7978 16.8232 14.2347 19.989 14.2347C22.1061 14.2347 23.9539 15.3821 24.9468 17.0873L29.9573 14.2058C27.9658 10.7725 24.2476 8.46271 19.989 8.46271C13.6311 8.46271 8.47711 13.6101 8.47711 19.9595C8.47711 22.0426 9.03199 23.996 10.0018 25.681C11.9883 29.1324 15.717 31.4564 19.989 31.4564C24.2689 31.4564 28.0035 29.1231 29.9871 25.6614L24.9841 22.7666Z" fill="#D9D9D9"/>
</g>
<defs>
<clipPath id="clip0_13_303">
<rect width="40" height="39.948" fill="white"/>
</clipPath>
</defs>
</svg>
