<svg width="24" height="24" viewBox="0 0 24 24" fill="none" xmlns="http://www.w3.org/2000/svg">
<path d="M8.39199 10.9581L8.14304 11.9266C8.62692 12.051 9.12836 11.7992 9.31753 11.3368L8.39199 10.9581ZM3.92 10.9687C4.13691 11.4766 4.7245 11.7125 5.2324 11.4955C5.7403 11.2786 5.97619 10.691 5.75928 10.1831L3.92 10.9687ZM6.73639 5.85126L6.34362 4.93162L6.73639 5.85126ZM5.58109 5.69224C5.79801 6.20014 6.38559 6.43603 6.89349 6.21911C7.40139 6.00219 7.63728 5.41461 7.42037 4.90671L5.58109 5.69224ZM6.71339 3.25136C6.49647 2.74345 5.90889 2.50757 5.40099 2.72448C4.89308 2.9414 4.65719 3.52898 4.87411 4.03689L6.71339 3.25136ZM9.01658 4.88905C8.81082 5.40157 9.0595 5.98386 9.57203 6.18961C10.0846 6.39537 10.6668 6.14669 10.8726 5.63416L9.01658 4.88905ZM11.5432 3.96374C11.749 3.45122 11.5003 2.86893 10.9877 2.66318C10.4752 2.45742 9.89294 2.7061 9.68718 3.21863L11.5432 3.96374ZM2.79418 6.16253C2.28165 5.95677 1.69937 6.20546 1.49361 6.71798C1.28785 7.23051 1.53654 7.81279 2.04906 8.01855L2.79418 6.16253ZM3.71948 8.68915C4.23201 8.89491 4.81429 8.64622 5.02005 8.1337C5.2258 7.62117 4.97712 7.03889 4.46459 6.83313L3.71948 8.68915ZM10.0652 7.40167C10.4389 7.80826 11.0715 7.83486 11.4781 7.46108C11.8847 7.0873 11.9113 6.4547 11.5375 6.04811L10.0652 7.40167ZM20.6 13.5517C20.6 16.7863 17.978 19.4088 14.7429 19.4088V21.4088C19.0827 21.4088 22.6 17.8907 22.6 13.5517H20.6ZM14.7429 7.69451C17.978 7.69451 20.6 10.317 20.6 13.5517H22.6C22.6 9.21261 19.0827 5.69451 14.7429 5.69451V7.69451ZM9.31753 11.3368C10.1923 9.19848 12.294 7.69451 14.7429 7.69451V5.69451C11.4542 5.69451 8.63809 7.71555 7.46645 10.5795L9.31753 11.3368ZM7.20002 11.8088C7.52882 11.8088 7.84427 11.8499 8.14304 11.9266L8.64094 9.98961C8.17899 9.87087 7.69623 9.8088 7.20002 9.8088V11.8088ZM3.40002 15.6088C3.40002 13.5099 5.10061 11.8088 7.20002 11.8088V9.8088C3.99586 9.8088 1.40002 12.4055 1.40002 15.6088H3.40002ZM7.20002 19.4088C5.10061 19.4088 3.40002 17.7077 3.40002 15.6088H1.40002C1.40002 18.8121 3.99586 21.4088 7.20002 21.4088V19.4088ZM14.7429 19.4088H7.20002V21.4088H14.7429V19.4088ZM5.75928 10.1831C5.19529 8.8626 5.8086 7.33488 7.12915 6.7709L6.34362 4.93162C4.00727 5.92944 2.92218 8.63232 3.92 10.9687L5.75928 10.1831ZM7.42037 4.90671L6.71339 3.25136L4.87411 4.03689L5.58109 5.69224L7.42037 4.90671ZM10.8726 5.63416L11.5432 3.96374L9.68718 3.21863L9.01658 4.88905L10.8726 5.63416ZM2.04906 8.01855L3.71948 8.68915L4.46459 6.83313L2.79418 6.16253L2.04906 8.01855ZM7.12915 6.7709C8.1688 6.32688 9.33931 6.61213 10.0652 7.40167L11.5375 6.04811C10.256 4.65414 8.18698 4.14435 6.34362 4.93162L7.12915 6.7709Z" fill="#D9D9D9"/>
</svg>
