<svg width="300" height="342" viewBox="0 0 300 342" fill="none" xmlns="http://www.w3.org/2000/svg">
<g clip-path="url(#clip0_22_163)">
<path d="M282.023 96.2227L197.439 96.2227C195.832 96.2227 194.29 95.584 193.153 94.4472C192.016 93.3104 191.378 91.7685 191.378 90.1608V28.5856C191.378 26.9786 192.016 25.4375 193.152 24.3012C194.289 23.1649 195.83 22.5266 197.437 22.5266L282.026 22.5266C283.633 22.5266 285.174 23.1649 286.31 24.3012C287.446 25.4375 288.085 26.9786 288.085 28.5856V90.1608C288.085 91.7685 287.446 93.3104 286.309 94.4472C285.172 95.584 283.631 96.2227 282.023 96.2227Z" fill="white"/>
<path d="M191.124 90.1605V28.5852C191.124 26.9111 191.789 25.3055 192.973 24.1218C194.157 22.938 195.763 22.2729 197.437 22.2729H282.026C283.7 22.2729 285.305 22.938 286.489 24.1218C287.673 25.3055 288.338 26.9111 288.338 28.5852V90.1605C288.338 90.9898 288.175 91.811 287.857 92.5772C287.54 93.3433 287.075 94.0395 286.488 94.6259C285.902 95.2123 285.206 95.6775 284.44 95.9949C283.673 96.3122 282.852 96.4756 282.023 96.4756H197.439C196.61 96.4756 195.789 96.3122 195.023 95.9949C194.257 95.6775 193.56 95.2123 192.974 94.6259C192.388 94.0395 191.922 93.3433 191.605 92.5772C191.288 91.811 191.124 90.9898 191.124 90.1605ZM197.437 22.7795C195.897 22.7799 194.421 23.3918 193.332 24.4805C192.244 25.5692 191.633 27.0457 191.633 28.5852V90.1605C191.633 91.701 192.245 93.1784 193.334 94.2677C194.423 95.357 195.901 95.969 197.441 95.969H282.023C283.563 95.969 285.041 95.357 286.13 94.2677C287.219 93.1784 287.831 91.701 287.831 90.1605V28.5852C287.831 27.0454 287.22 25.5687 286.131 24.4799C285.042 23.3912 283.565 22.7795 282.026 22.7795H197.437Z" fill="#292A2E"/>
<path d="M191.378 28.5844V33.715H288.084V28.5844C288.084 26.9774 287.445 25.4363 286.309 24.3C285.173 23.1637 283.632 22.5254 282.025 22.5254H197.437C196.641 22.5254 195.853 22.6821 195.118 22.9866C194.383 23.2911 193.715 23.7374 193.152 24.3C192.59 24.8627 192.144 25.5306 191.839 26.2657C191.535 27.0008 191.378 27.7887 191.378 28.5844Z" fill="#292A2E"/>
<path d="M224.405 42.0084H219.841C219.788 42.0084 219.736 41.987 219.698 41.949C219.66 41.911 219.639 41.8595 219.639 41.8058C219.639 41.752 219.66 41.7005 219.698 41.6625C219.736 41.6245 219.788 41.6031 219.841 41.6031H224.405C224.458 41.6031 224.51 41.6245 224.548 41.6625C224.586 41.7005 224.607 41.752 224.607 41.8058C224.607 41.8595 224.586 41.911 224.548 41.949C224.51 41.987 224.458 42.0084 224.405 42.0084Z" fill="#292A2E"/>
<path d="M216.55 42.0084H214.824C214.77 42.0084 214.719 41.987 214.681 41.949C214.643 41.911 214.621 41.8595 214.621 41.8058C214.621 41.752 214.643 41.7005 214.681 41.6625C214.719 41.6245 214.77 41.6031 214.824 41.6031H216.55C216.604 41.6031 216.656 41.6245 216.694 41.6625C216.732 41.7005 216.753 41.752 216.753 41.8058C216.753 41.8595 216.732 41.911 216.694 41.949C216.656 41.987 216.604 42.0084 216.55 42.0084Z" fill="#367CFF"/>
<path d="M216.55 45.6635H214.824C214.77 45.6635 214.719 45.6422 214.681 45.6042C214.643 45.5662 214.621 45.5147 214.621 45.4609C214.621 45.4072 214.643 45.3556 214.681 45.3176C214.719 45.2796 214.77 45.2583 214.824 45.2583H216.55C216.604 45.2583 216.656 45.2796 216.694 45.3176C216.732 45.3556 216.753 45.4072 216.753 45.4609C216.753 45.5147 216.732 45.5662 216.694 45.6042C216.656 45.6422 216.604 45.6635 216.55 45.6635Z" fill="#367CFF"/>
<path d="M216.55 49.3187H214.824C214.77 49.3187 214.719 49.2973 214.681 49.2593C214.643 49.2213 214.621 49.1698 214.621 49.1161C214.621 49.0623 214.643 49.0108 214.681 48.9728C214.719 48.9348 214.77 48.9135 214.824 48.9135H216.55C216.604 48.9135 216.656 48.9348 216.694 48.9728C216.732 49.0108 216.753 49.0623 216.753 49.1161C216.753 49.1698 216.732 49.2213 216.694 49.2593C216.656 49.2973 216.604 49.3187 216.55 49.3187Z" fill="#367CFF"/>
<path d="M216.55 52.9738H214.824C214.77 52.9738 214.719 52.9525 214.681 52.9145C214.643 52.8765 214.621 52.825 214.621 52.7712C214.621 52.7175 214.643 52.6659 214.681 52.628C214.719 52.59 214.77 52.5686 214.824 52.5686H216.55C216.604 52.5686 216.656 52.59 216.694 52.628C216.732 52.6659 216.753 52.7175 216.753 52.7712C216.753 52.825 216.732 52.8765 216.694 52.9145C216.656 52.9525 216.604 52.9738 216.55 52.9738Z" fill="#367CFF"/>
<path d="M216.55 56.629H214.824C214.77 56.629 214.719 56.6076 214.681 56.5696C214.643 56.5316 214.621 56.4801 214.621 56.4264C214.621 56.3726 214.643 56.3211 214.681 56.2831C214.719 56.2451 214.77 56.2238 214.824 56.2238H216.55C216.604 56.2238 216.656 56.2451 216.694 56.2831C216.732 56.3211 216.753 56.3726 216.753 56.4264C216.753 56.4801 216.732 56.5316 216.694 56.5696C216.656 56.6076 216.604 56.629 216.55 56.629Z" fill="#367CFF"/>
<path d="M216.55 60.2841H214.824C214.77 60.2841 214.719 60.2628 214.681 60.2248C214.643 60.1868 214.621 60.1353 214.621 60.0815C214.621 60.0278 214.643 59.9762 214.681 59.9382C214.719 59.9002 214.77 59.8789 214.824 59.8789H216.55C216.604 59.8789 216.656 59.9002 216.694 59.9382C216.732 59.9762 216.753 60.0278 216.753 60.0815C216.753 60.1353 216.732 60.1868 216.694 60.2248C216.656 60.2628 216.604 60.2841 216.55 60.2841Z" fill="#367CFF"/>
<path d="M216.55 63.9393H214.824C214.77 63.9393 214.719 63.9179 214.681 63.8799C214.643 63.8419 214.621 63.7904 214.621 63.7367C214.621 63.6829 214.643 63.6314 214.681 63.5934C214.719 63.5554 214.77 63.5341 214.824 63.5341H216.55C216.604 63.5341 216.656 63.5554 216.694 63.5934C216.732 63.6314 216.753 63.6829 216.753 63.7367C216.753 63.7904 216.732 63.8419 216.694 63.8799C216.656 63.9179 216.604 63.9393 216.55 63.9393Z" fill="#367CFF"/>
<path d="M216.55 67.5946H214.824C214.77 67.5946 214.719 67.5732 214.681 67.5352C214.643 67.4972 214.621 67.4457 214.621 67.3919C214.621 67.3382 214.643 67.2867 214.681 67.2487C214.719 67.2107 214.77 67.1893 214.824 67.1893H216.55C216.604 67.1893 216.656 67.2107 216.694 67.2487C216.732 67.2867 216.753 67.3382 216.753 67.3919C216.753 67.4457 216.732 67.4972 216.694 67.5352C216.656 67.5732 216.604 67.5946 216.55 67.5946Z" fill="#367CFF"/>
<path d="M216.55 71.2497H214.824C214.77 71.2497 214.719 71.2284 214.681 71.1904C214.643 71.1524 214.621 71.1008 214.621 71.0471C214.621 70.9934 214.643 70.9418 214.681 70.9038C214.719 70.8658 214.77 70.8445 214.824 70.8445H216.55C216.604 70.8445 216.656 70.8658 216.694 70.9038C216.732 70.9418 216.753 70.9934 216.753 71.0471C216.753 71.1008 216.732 71.1524 216.694 71.1904C216.656 71.2284 216.604 71.2497 216.55 71.2497Z" fill="#367CFF"/>
<path d="M216.55 74.9049H214.824C214.77 74.9049 214.719 74.8835 214.681 74.8455C214.643 74.8075 214.621 74.756 214.621 74.7022C214.621 74.6485 214.643 74.597 214.681 74.559C214.719 74.521 214.77 74.4996 214.824 74.4996H216.55C216.604 74.4996 216.656 74.521 216.694 74.559C216.732 74.597 216.753 74.6485 216.753 74.7022C216.753 74.756 216.732 74.8075 216.694 74.8455C216.656 74.8835 216.604 74.9049 216.55 74.9049Z" fill="#367CFF"/>
<path d="M216.55 78.56H214.824C214.77 78.56 214.719 78.5387 214.681 78.5007C214.643 78.4627 214.621 78.4111 214.621 78.3574C214.621 78.3037 214.643 78.2521 214.681 78.2141C214.719 78.1761 214.77 78.1548 214.824 78.1548H216.55C216.604 78.1548 216.656 78.1761 216.694 78.2141C216.732 78.2521 216.753 78.3037 216.753 78.3574C216.753 78.4111 216.732 78.4627 216.694 78.5007C216.656 78.5387 216.604 78.56 216.55 78.56Z" fill="#367CFF"/>
<path d="M216.55 82.2152H214.824C214.77 82.2152 214.719 82.1938 214.681 82.1558C214.643 82.1178 214.621 82.0663 214.621 82.0126C214.621 81.9588 214.643 81.9073 214.681 81.8693C214.719 81.8313 214.77 81.8099 214.824 81.8099H216.55C216.604 81.8099 216.656 81.8313 216.694 81.8693C216.732 81.9073 216.753 81.9588 216.753 82.0126C216.753 82.0663 216.732 82.1178 216.694 82.1558C216.656 82.1938 216.604 82.2152 216.55 82.2152Z" fill="#367CFF"/>
<path d="M216.55 85.8703H214.824C214.77 85.8703 214.719 85.849 214.681 85.811C214.643 85.773 214.621 85.7214 214.621 85.6677C214.621 85.614 214.643 85.5624 214.681 85.5244C214.719 85.4864 214.77 85.4651 214.824 85.4651H216.55C216.604 85.4651 216.656 85.4864 216.694 85.5244C216.732 85.5624 216.753 85.614 216.753 85.6677C216.753 85.7214 216.732 85.773 216.694 85.811C216.656 85.849 216.604 85.8703 216.55 85.8703Z" fill="#367CFF"/>
<path d="M216.55 89.5258H214.824C214.77 89.5258 214.719 89.5045 214.681 89.4665C214.643 89.4285 214.621 89.377 214.621 89.3232C214.621 89.2695 214.643 89.2179 214.681 89.1799C214.719 89.1419 214.77 89.1206 214.824 89.1206H216.55C216.604 89.1206 216.656 89.1419 216.694 89.1799C216.732 89.2179 216.753 89.2695 216.753 89.3232C216.753 89.377 216.732 89.4285 216.694 89.4665C216.656 89.5045 216.604 89.5258 216.55 89.5258Z" fill="#367CFF"/>
<path d="M228.052 45.6635H223.894C223.84 45.6635 223.788 45.6422 223.75 45.6042C223.712 45.5662 223.691 45.5147 223.691 45.4609C223.691 45.4072 223.712 45.3556 223.75 45.3176C223.788 45.2796 223.84 45.2583 223.894 45.2583H228.052C228.105 45.2583 228.157 45.2796 228.195 45.3176C228.233 45.3556 228.254 45.4072 228.254 45.4609C228.254 45.5147 228.233 45.5662 228.195 45.6042C228.157 45.6422 228.105 45.6635 228.052 45.6635Z" fill="#292A2E"/>
<path d="M224.405 67.5946H219.841C219.788 67.5946 219.736 67.5732 219.698 67.5352C219.66 67.4972 219.639 67.4457 219.639 67.3919C219.639 67.3382 219.66 67.2867 219.698 67.2487C219.736 67.2107 219.788 67.1893 219.841 67.1893H224.405C224.458 67.1893 224.51 67.2107 224.548 67.2487C224.586 67.2867 224.607 67.3382 224.607 67.3919C224.607 67.4457 224.586 67.4972 224.548 67.5352C224.51 67.5732 224.458 67.5946 224.405 67.5946Z" fill="#292A2E"/>
<path d="M228.052 71.2497H223.894C223.84 71.2497 223.788 71.2284 223.75 71.1904C223.712 71.1524 223.691 71.1008 223.691 71.0471C223.691 70.9934 223.712 70.9418 223.75 70.9038C223.788 70.8658 223.84 70.8445 223.894 70.8445H228.052C228.105 70.8445 228.157 70.8658 228.195 70.9038C228.233 70.9418 228.254 70.9934 228.254 71.0471C228.254 71.1008 228.233 71.1524 228.195 71.1904C228.157 71.2284 228.105 71.2497 228.052 71.2497Z" fill="#292A2E"/>
<path d="M251.555 49.3187H226.73C226.676 49.3187 226.625 49.2973 226.587 49.2593C226.549 49.2213 226.528 49.1698 226.528 49.1161C226.528 49.0623 226.549 49.0108 226.587 48.9728C226.625 48.9348 226.676 48.9135 226.73 48.9135H251.555C251.609 48.9135 251.66 48.9348 251.698 48.9728C251.736 49.0108 251.758 49.0623 251.758 49.1161C251.758 49.1698 251.736 49.2213 251.698 49.2593C251.66 49.2973 251.609 49.3187 251.555 49.3187Z" fill="#292A2E"/>
<path d="M273.473 49.3187H255.942C255.889 49.3187 255.837 49.2973 255.799 49.2593C255.761 49.2213 255.74 49.1698 255.74 49.1161C255.74 49.0623 255.761 49.0108 255.799 48.9728C255.837 48.9348 255.889 48.9135 255.942 48.9135H273.473C273.526 48.9135 273.578 48.9348 273.616 48.9728C273.654 49.0108 273.675 49.0623 273.675 49.1161C273.675 49.1698 273.654 49.2213 273.616 49.2593C273.578 49.2973 273.526 49.3187 273.473 49.3187Z" fill="#0CBC8B"/>
<path d="M282.88 49.3187H277.507C277.453 49.3187 277.402 49.2973 277.364 49.2593C277.326 49.2213 277.304 49.1698 277.304 49.1161C277.304 49.0623 277.326 49.0108 277.364 48.9728C277.402 48.9348 277.453 48.9135 277.507 48.9135H282.88C282.934 48.9135 282.986 48.9348 283.024 48.9728C283.062 49.0108 283.083 49.0623 283.083 49.1161C283.083 49.1698 283.062 49.2213 283.024 49.2593C282.986 49.2973 282.934 49.3187 282.88 49.3187Z" fill="#292A2E"/>
<path d="M263.712 56.629H226.73C226.676 56.629 226.625 56.6076 226.587 56.5696C226.549 56.5316 226.528 56.4801 226.528 56.4264C226.528 56.3726 226.549 56.3211 226.587 56.2831C226.625 56.2451 226.676 56.2238 226.73 56.2238H263.712C263.766 56.2238 263.817 56.2451 263.855 56.2831C263.893 56.3211 263.914 56.3726 263.914 56.4264C263.914 56.4801 263.893 56.5316 263.855 56.5696C263.817 56.6076 263.766 56.629 263.712 56.629Z" fill="#292A2E"/>
<path d="M273.473 56.629H268.099C268.045 56.629 267.994 56.6076 267.956 56.5696C267.918 56.5316 267.897 56.4801 267.897 56.4264C267.897 56.3726 267.918 56.3211 267.956 56.2831C267.994 56.2451 268.045 56.2238 268.099 56.2238H273.473C273.526 56.2238 273.578 56.2451 273.616 56.2831C273.654 56.3211 273.675 56.3726 273.675 56.4264C273.675 56.4801 273.654 56.5316 273.616 56.5696C273.578 56.6076 273.526 56.629 273.473 56.629Z" fill="#367CFF"/>
<path d="M231.294 52.9738H226.73C226.676 52.9738 226.625 52.9525 226.587 52.9145C226.549 52.8765 226.528 52.825 226.528 52.7712C226.528 52.7175 226.549 52.6659 226.587 52.628C226.625 52.59 226.676 52.5686 226.73 52.5686H231.294C231.347 52.5686 231.399 52.59 231.437 52.628C231.475 52.6659 231.496 52.7175 231.496 52.7712C231.496 52.825 231.475 52.8765 231.437 52.9145C231.399 52.9525 231.347 52.9738 231.294 52.9738Z" fill="#0CBC8B"/>
<path d="M261.316 52.9738H235.681C235.627 52.9738 235.576 52.9525 235.538 52.9145C235.5 52.8765 235.478 52.825 235.478 52.7712C235.478 52.7175 235.5 52.6659 235.538 52.628C235.576 52.59 235.627 52.5686 235.681 52.5686H261.316C261.369 52.5686 261.421 52.59 261.459 52.628C261.497 52.6659 261.518 52.7175 261.518 52.7712C261.518 52.825 261.497 52.8765 261.459 52.9145C261.421 52.9525 261.369 52.9738 261.316 52.9738Z" fill="#367CFF"/>
<path d="M282.916 52.9738H266.195C266.141 52.9738 266.089 52.9525 266.051 52.9145C266.013 52.8765 265.992 52.825 265.992 52.7712C265.992 52.7175 266.013 52.6659 266.051 52.628C266.089 52.59 266.141 52.5686 266.195 52.5686H282.915C282.968 52.5686 283.02 52.59 283.058 52.628C283.096 52.6659 283.117 52.7175 283.117 52.7712C283.117 52.825 283.096 52.8765 283.058 52.9145C283.02 52.9525 282.968 52.9738 282.915 52.9738H282.916Z" fill="#292A2E"/>
<path d="M251.555 60.2841H226.73C226.676 60.2841 226.625 60.2628 226.587 60.2248C226.549 60.1868 226.528 60.1353 226.528 60.0815C226.528 60.0278 226.549 59.9762 226.587 59.9382C226.625 59.9002 226.676 59.8789 226.73 59.8789H251.555C251.609 59.8789 251.66 59.9002 251.698 59.9382C251.736 59.9762 251.758 60.0278 251.758 60.0815C251.758 60.1353 251.736 60.1868 251.698 60.2248C251.66 60.2628 251.609 60.2841 251.555 60.2841Z" fill="#292A2E"/>
<path d="M265.368 60.2841H255.942C255.889 60.2841 255.837 60.2628 255.799 60.2248C255.761 60.1868 255.74 60.1353 255.74 60.0815C255.74 60.0278 255.761 59.9762 255.799 59.9382C255.837 59.9002 255.889 59.8789 255.942 59.8789H265.368C265.422 59.8789 265.473 59.9002 265.511 59.9382C265.549 59.9762 265.571 60.0278 265.571 60.0815C265.571 60.1353 265.549 60.1868 265.511 60.2248C265.473 60.2628 265.422 60.2841 265.368 60.2841Z" fill="#0CBC8B"/>
<path d="M282.88 60.2841H269.402C269.349 60.2841 269.297 60.2628 269.259 60.2248C269.221 60.1868 269.2 60.1353 269.2 60.0815C269.2 60.0278 269.221 59.9762 269.259 59.9382C269.297 59.9002 269.349 59.8789 269.402 59.8789H282.88C282.934 59.8789 282.986 59.9002 283.024 59.9382C283.062 59.9762 283.083 60.0278 283.083 60.0815C283.083 60.1353 283.062 60.1868 283.024 60.2248C282.986 60.2628 282.934 60.2841 282.88 60.2841Z" fill="#292A2E"/>
<path d="M231.294 63.9394H226.73C226.676 63.9394 226.625 63.9181 226.587 63.8801C226.549 63.8421 226.528 63.7905 226.528 63.7368C226.528 63.6831 226.549 63.6315 226.587 63.5935C226.625 63.5555 226.676 63.5342 226.73 63.5342H231.294C231.347 63.5342 231.399 63.5555 231.437 63.5935C231.475 63.6315 231.496 63.6831 231.496 63.7368C231.496 63.7905 231.475 63.8421 231.437 63.8801C231.399 63.9181 231.347 63.9394 231.294 63.9394Z" fill="#367CFF"/>
<path d="M261.316 63.9394H235.681C235.627 63.9394 235.576 63.9181 235.538 63.8801C235.5 63.8421 235.478 63.7905 235.478 63.7368C235.478 63.6831 235.5 63.6315 235.538 63.5935C235.576 63.5555 235.627 63.5342 235.681 63.5342H261.316C261.369 63.5342 261.421 63.5555 261.459 63.5935C261.497 63.6315 261.518 63.6831 261.518 63.7368C261.518 63.7905 261.497 63.8421 261.459 63.8801C261.421 63.9181 261.369 63.9394 261.316 63.9394Z" fill="#0CBC8B"/>
<path d="M250.744 78.56H225.92C225.866 78.56 225.814 78.5387 225.776 78.5007C225.739 78.4627 225.717 78.4111 225.717 78.3574C225.717 78.3037 225.739 78.2521 225.776 78.2141C225.814 78.1761 225.866 78.1548 225.92 78.1548H250.744C250.798 78.1548 250.85 78.1761 250.888 78.2141C250.926 78.2521 250.947 78.3037 250.947 78.3574C250.947 78.4111 250.926 78.4627 250.888 78.5007C250.85 78.5387 250.798 78.56 250.744 78.56Z" fill="#292A2E"/>
<path d="M272.662 78.56H255.132C255.078 78.56 255.027 78.5387 254.989 78.5007C254.951 78.4627 254.929 78.4111 254.929 78.3574C254.929 78.3037 254.951 78.2521 254.989 78.2141C255.027 78.1761 255.078 78.1548 255.132 78.1548H272.662C272.716 78.1548 272.767 78.1761 272.805 78.2141C272.843 78.2521 272.865 78.3037 272.865 78.3574C272.865 78.4111 272.843 78.4627 272.805 78.5007C272.767 78.5387 272.716 78.56 272.662 78.56Z" fill="#367CFF"/>
<path d="M238.588 74.9049H225.92C225.866 74.9049 225.814 74.8835 225.776 74.8455C225.739 74.8075 225.717 74.756 225.717 74.7022C225.717 74.6485 225.739 74.597 225.776 74.559C225.814 74.521 225.866 74.4996 225.92 74.4996H238.588C238.641 74.4996 238.693 74.521 238.731 74.559C238.769 74.597 238.79 74.6485 238.79 74.7022C238.79 74.756 238.769 74.8075 238.731 74.8455C238.693 74.8835 238.641 74.9049 238.588 74.9049Z" fill="#0CBC8B"/>
<path d="M260.505 74.9049H242.975C242.921 74.9049 242.87 74.8835 242.832 74.8455C242.794 74.8075 242.772 74.756 242.772 74.7022C242.772 74.6485 242.794 74.597 242.832 74.559C242.87 74.521 242.921 74.4996 242.975 74.4996H260.505C260.559 74.4996 260.61 74.521 260.648 74.559C260.686 74.597 260.708 74.6485 260.708 74.7022C260.708 74.756 260.686 74.8075 260.648 74.8455C260.61 74.8835 260.559 74.9049 260.505 74.9049Z" fill="#367CFF"/>
<path d="M282.105 74.9049H265.384C265.33 74.9049 265.279 74.8835 265.241 74.8455C265.203 74.8075 265.182 74.756 265.182 74.7022C265.182 74.6485 265.203 74.597 265.241 74.559C265.279 74.521 265.33 74.4996 265.384 74.4996H282.104C282.158 74.4996 282.21 74.521 282.248 74.559C282.286 74.597 282.307 74.6485 282.307 74.7022C282.307 74.756 282.286 74.8075 282.248 74.8455C282.21 74.8835 282.158 74.9049 282.104 74.9049H282.105Z" fill="#292A2E"/>
<path d="M262.901 85.8707H225.92C225.866 85.8707 225.814 85.8493 225.776 85.8113C225.739 85.7733 225.717 85.7218 225.717 85.6681C225.717 85.6143 225.739 85.5628 225.776 85.5248C225.814 85.4868 225.866 85.4655 225.92 85.4655H262.901C262.955 85.4655 263.007 85.4868 263.045 85.5248C263.083 85.5628 263.104 85.6143 263.104 85.6681C263.104 85.7218 263.083 85.7733 263.045 85.8113C263.007 85.8493 262.955 85.8707 262.901 85.8707Z" fill="#367CFF"/>
<path d="M272.662 85.8707H267.289C267.235 85.8707 267.183 85.8493 267.145 85.8113C267.107 85.7733 267.086 85.7218 267.086 85.6681C267.086 85.6143 267.107 85.5628 267.145 85.5248C267.183 85.4868 267.235 85.4655 267.289 85.4655H272.662C272.716 85.4655 272.767 85.4868 272.805 85.5248C272.843 85.5628 272.865 85.6143 272.865 85.6681C272.865 85.7218 272.843 85.7733 272.805 85.8113C272.767 85.8493 272.716 85.8707 272.662 85.8707Z" fill="#292A2E"/>
<path d="M230.483 82.2155H225.92C225.866 82.2155 225.814 82.1942 225.776 82.1562C225.739 82.1182 225.717 82.0667 225.717 82.0129C225.717 81.9592 225.739 81.9076 225.776 81.8697C225.814 81.8317 225.866 81.8103 225.92 81.8103H230.483C230.537 81.8103 230.588 81.8317 230.626 81.8697C230.664 81.9076 230.686 81.9592 230.686 82.0129C230.686 82.0667 230.664 82.1182 230.626 82.1562C230.588 82.1942 230.537 82.2155 230.483 82.2155Z" fill="#367CFF"/>
<path d="M260.505 82.2155H234.87C234.817 82.2155 234.765 82.1942 234.727 82.1562C234.689 82.1182 234.668 82.0667 234.668 82.0129C234.668 81.9592 234.689 81.9076 234.727 81.8697C234.765 81.8317 234.817 81.8103 234.87 81.8103H260.505C260.559 81.8103 260.611 81.8317 260.649 81.8697C260.686 81.9076 260.708 81.9592 260.708 82.0129C260.708 82.0667 260.686 82.1182 260.649 82.1562C260.611 82.1942 260.559 82.2155 260.505 82.2155Z" fill="#292A2E"/>
<path d="M282.105 82.2155H265.384C265.33 82.2155 265.279 82.1942 265.241 82.1562C265.203 82.1182 265.182 82.0667 265.182 82.0129C265.182 81.9592 265.203 81.9076 265.241 81.8697C265.279 81.8317 265.33 81.8103 265.384 81.8103H282.104C282.158 81.8103 282.21 81.8317 282.248 81.8697C282.286 81.9076 282.307 81.9592 282.307 82.0129C282.307 82.0667 282.286 82.1182 282.248 82.1562C282.21 82.1942 282.158 82.2155 282.104 82.2155H282.105Z" fill="#0CBC8B"/>
<path d="M250.744 89.5258H225.92C225.866 89.5258 225.814 89.5045 225.776 89.4665C225.739 89.4285 225.717 89.377 225.717 89.3232C225.717 89.2695 225.739 89.2179 225.776 89.1799C225.814 89.1419 225.866 89.1206 225.92 89.1206H250.744C250.798 89.1206 250.85 89.1419 250.888 89.1799C250.926 89.2179 250.947 89.2695 250.947 89.3232C250.947 89.377 250.926 89.4285 250.888 89.4665C250.85 89.5045 250.798 89.5258 250.744 89.5258Z" fill="#0CBC8B"/>
<path d="M264.557 89.5258H255.132C255.078 89.5258 255.027 89.5045 254.989 89.4665C254.951 89.4285 254.929 89.377 254.929 89.3232C254.929 89.2695 254.951 89.2179 254.989 89.1799C255.027 89.1419 255.078 89.1206 255.132 89.1206H264.557C264.611 89.1206 264.663 89.1419 264.701 89.1799C264.739 89.2179 264.76 89.2695 264.76 89.3232C264.76 89.377 264.739 89.4285 264.701 89.4665C264.663 89.5045 264.611 89.5258 264.557 89.5258Z" fill="#292A2E"/>
<path d="M282.07 89.5258H268.592C268.538 89.5258 268.487 89.5045 268.449 89.4665C268.411 89.4285 268.389 89.377 268.389 89.3232C268.389 89.2695 268.411 89.2179 268.449 89.1799C268.487 89.1419 268.538 89.1206 268.592 89.1206H282.07C282.124 89.1206 282.175 89.1419 282.213 89.1799C282.251 89.2179 282.272 89.2695 282.272 89.3232C282.272 89.377 282.251 89.4285 282.213 89.4665C282.175 89.5045 282.124 89.5258 282.07 89.5258Z" fill="#367CFF"/>
<path d="M212.899 93.4372C212.846 93.4372 212.794 93.4158 212.756 93.3778C212.718 93.3398 212.697 93.2883 212.697 93.2345V35.6277C212.697 35.5739 212.718 35.5224 212.756 35.4844C212.794 35.4464 212.846 35.425 212.899 35.425C212.953 35.425 213.005 35.4464 213.043 35.4844C213.081 35.5224 213.102 35.5739 213.102 35.6277V93.2345C213.102 93.2883 213.081 93.3398 213.043 93.3778C213.005 93.4158 212.953 93.4372 212.899 93.4372Z" fill="#292A2E"/>
<path d="M280.758 31.7768C282.553 31.7768 284.008 30.3213 284.008 28.526C284.008 26.7307 282.553 25.2753 280.758 25.2753C278.962 25.2753 277.507 26.7307 277.507 28.526C277.507 30.3213 278.962 31.7768 280.758 31.7768Z" fill="white"/>
<path d="M203.632 38.1588H194.858C194.804 38.1588 194.753 38.1374 194.715 38.0994C194.677 38.0614 194.656 38.0099 194.656 37.9562C194.656 37.9024 194.677 37.8509 194.715 37.8129C194.753 37.7749 194.804 37.7535 194.858 37.7535H203.632C203.686 37.7535 203.737 37.7749 203.775 37.8129C203.813 37.8509 203.835 37.9024 203.835 37.9562C203.835 38.0099 203.813 38.0614 203.775 38.0994C203.737 38.1374 203.686 38.1588 203.632 38.1588Z" fill="#292A2E"/>
<path d="M200.989 42.1551H194.858C194.804 42.1551 194.753 42.1338 194.715 42.0958C194.677 42.0578 194.656 42.0062 194.656 41.9525C194.656 41.8988 194.677 41.8472 194.715 41.8092C194.753 41.7712 194.804 41.7499 194.858 41.7499H200.989C201.043 41.7499 201.094 41.7712 201.132 41.8092C201.17 41.8472 201.192 41.8988 201.192 41.9525C201.192 42.0062 201.17 42.0578 201.132 42.0958C201.094 42.1338 201.043 42.1551 200.989 42.1551Z" fill="#292A2E"/>
<path d="M206.38 46.1514H194.858C194.804 46.1514 194.753 46.1301 194.715 46.0921C194.677 46.0541 194.656 46.0026 194.656 45.9488C194.656 45.8951 194.677 45.8436 194.715 45.8056C194.753 45.7676 194.804 45.7462 194.858 45.7462H206.38C206.434 45.7462 206.486 45.7676 206.524 45.8056C206.562 45.8436 206.583 45.8951 206.583 45.9488C206.583 46.0026 206.562 46.0541 206.524 46.0921C206.486 46.1301 206.434 46.1514 206.38 46.1514Z" fill="#292A2E"/>
<path d="M208.531 50.1479H198.911C198.857 50.1479 198.805 50.1266 198.767 50.0886C198.729 50.0506 198.708 49.999 198.708 49.9453C198.708 49.8916 198.729 49.84 198.767 49.802C198.805 49.764 198.857 49.7427 198.911 49.7427H208.531C208.584 49.7427 208.636 49.764 208.674 49.802C208.712 49.84 208.733 49.8916 208.733 49.9453C208.733 49.999 208.712 50.0506 208.674 50.0886C208.636 50.1266 208.584 50.1479 208.531 50.1479Z" fill="#292A2E"/>
<path d="M203.879 54.1446H198.91C198.857 54.1446 198.805 54.1233 198.767 54.0853C198.729 54.0473 198.708 53.9957 198.708 53.942C198.708 53.8883 198.729 53.8367 198.767 53.7987C198.805 53.7607 198.857 53.7394 198.91 53.7394H203.879C203.932 53.7394 203.984 53.7607 204.022 53.7987C204.06 53.8367 204.081 53.8883 204.081 53.942C204.081 53.9957 204.06 54.0473 204.022 54.0853C203.984 54.1233 203.932 54.1446 203.879 54.1446Z" fill="#292A2E"/>
<path d="M207.685 58.1409H198.911C198.857 58.1409 198.805 58.1196 198.767 58.0816C198.729 58.0436 198.708 57.9921 198.708 57.9383C198.708 57.8846 198.729 57.8331 198.767 57.7951C198.805 57.7571 198.857 57.7357 198.911 57.7357H207.685C207.738 57.7357 207.79 57.7571 207.828 57.7951C207.866 57.8331 207.887 57.8846 207.887 57.9383C207.887 57.9921 207.866 58.0436 207.828 58.0816C207.79 58.1196 207.738 58.1409 207.685 58.1409Z" fill="#292A2E"/>
<path d="M201.623 62.1374H194.858C194.804 62.1374 194.753 62.1161 194.715 62.0781C194.677 62.0401 194.656 61.9885 194.656 61.9348C194.656 61.8811 194.677 61.8295 194.715 61.7915C194.753 61.7535 194.804 61.7322 194.858 61.7322H201.623C201.677 61.7322 201.729 61.7535 201.767 61.7915C201.805 61.8295 201.826 61.8811 201.826 61.9348C201.826 61.9885 201.805 62.0401 201.767 62.0781C201.729 62.1161 201.677 62.1374 201.623 62.1374Z" fill="#292A2E"/>
<path d="M199.298 66.1333H194.858C194.804 66.1333 194.753 66.1119 194.715 66.0739C194.677 66.0359 194.656 65.9844 194.656 65.9306C194.656 65.8769 194.677 65.8254 194.715 65.7874C194.753 65.7494 194.804 65.728 194.858 65.728H199.298C199.352 65.728 199.403 65.7494 199.441 65.7874C199.479 65.8254 199.501 65.8769 199.501 65.9306C199.501 65.9844 199.479 66.0359 199.441 66.0739C199.403 66.1119 199.352 66.1333 199.298 66.1333Z" fill="#292A2E"/>
<path d="M216.275 37.3012V37.3742L218.808 38.3143C218.844 38.3291 218.875 38.3543 218.896 38.3868C218.918 38.4193 218.929 38.4576 218.929 38.4967V38.5656C218.93 38.596 218.923 38.6261 218.909 38.653C218.894 38.68 218.874 38.7028 218.848 38.7195C218.822 38.7376 218.793 38.749 218.761 38.7525C218.73 38.7561 218.698 38.7517 218.669 38.7398L215.809 37.6214C215.773 37.6071 215.743 37.5825 215.721 37.5508C215.699 37.519 215.688 37.4815 215.687 37.4431V37.2364C215.687 37.1978 215.698 37.1601 215.72 37.1282C215.742 37.0964 215.773 37.0719 215.809 37.0581L218.669 35.9356C218.693 35.9276 218.718 35.9235 218.742 35.9235C218.78 35.9242 218.817 35.9355 218.848 35.9559C218.874 35.9734 218.894 35.9971 218.909 36.0247C218.923 36.0522 218.93 36.0829 218.929 36.1139V36.1828C218.93 36.2215 218.919 36.2595 218.897 36.2914C218.875 36.3234 218.844 36.3478 218.808 36.3611L216.275 37.3012Z" fill="#367CFF"/>
<path d="M221.295 35.109L219.78 39.7489C219.767 39.7876 219.743 39.8214 219.71 39.8454C219.678 39.8694 219.638 39.8825 219.597 39.8826C219.568 39.8831 219.539 39.8763 219.513 39.8628C219.487 39.8494 219.464 39.8298 219.447 39.8056C219.429 39.7817 219.417 39.7538 219.411 39.7243C219.406 39.6947 219.407 39.6643 219.415 39.6354L220.931 34.9996C220.944 34.9601 220.968 34.9257 221.002 34.901C221.035 34.8763 221.075 34.8626 221.117 34.8618C221.146 34.8617 221.175 34.8686 221.201 34.882C221.227 34.8954 221.25 34.9149 221.267 34.9388C221.285 34.9628 221.297 34.9908 221.302 35.0204C221.307 35.0501 221.305 35.0805 221.295 35.109Z" fill="#367CFF"/>
<path d="M225.017 37.2364V37.4431C225.017 37.4812 225.007 37.5185 224.986 37.5503C224.965 37.5821 224.935 37.6069 224.899 37.6214L222.034 38.7398C222.006 38.7516 221.975 38.7559 221.945 38.7524C221.914 38.7488 221.885 38.7375 221.86 38.7196C221.834 38.7031 221.813 38.6803 221.798 38.6534C221.783 38.6265 221.775 38.5963 221.775 38.5656V38.4967C221.775 38.4571 221.787 38.4183 221.809 38.3857C221.832 38.353 221.864 38.3281 221.901 38.3143L224.433 37.3742V37.3013L221.901 36.3611C221.863 36.3487 221.831 36.3247 221.809 36.2927C221.786 36.2606 221.774 36.2221 221.775 36.1828V36.1139C221.775 36.0826 221.783 36.0518 221.798 36.0243C221.813 35.9967 221.834 35.9732 221.86 35.9559C221.892 35.9356 221.928 35.9243 221.966 35.9235C221.989 35.9232 222.012 35.9273 222.034 35.9356L224.899 37.0581C224.935 37.0722 224.965 37.0968 224.986 37.1287C225.007 37.1606 225.018 37.1982 225.017 37.2364Z" fill="#367CFF"/>
<path d="M167.724 0H24.9925V142.732H167.724V0Z" fill="#F4F4F4"/>
<path d="M24.9925 0H23.3566V142.732H24.9925V0Z" fill="#F4F4F4"/>
<path opacity="0.05" d="M24.9925 0H23.3566V142.732H24.9925V0Z" fill="#292A2E"/>
<path opacity="0.05" d="M59.5698 98.3538V61.0104H90.1597V82.7063H137.543V121.121H157.682V142.732H137.543H133.663H31.8586V98.3538H59.5698Z" fill="#292A2E"/>
<path opacity="0.34" d="M86.233 65.0651H63.9572V69.1198H86.233V65.0651Z" fill="#FFFFFA"/>
<path opacity="0.34" d="M86.233 73.467H63.9572V77.5218H86.233V73.467Z" fill="#FFFFFA"/>
<path opacity="0.34" d="M86.233 81.8691H63.9572V85.9239H86.233V81.8691Z" fill="#FFFFFA"/>
<path opacity="0.34" d="M39.9142 102.289H35.8084V106.344H39.9142V102.289Z" fill="#FFFFFA"/>
<path opacity="0.34" d="M39.9142 110.691H35.8084V114.746H39.9142V110.691Z" fill="#FFFFFA"/>
<path opacity="0.34" d="M39.9142 119.094H35.8084V123.149H39.9142V119.094Z" fill="#FFFFFA"/>
<path opacity="0.34" d="M47.5098 102.289H43.404V106.344H47.5098V102.289Z" fill="#FFFFFA"/>
<path opacity="0.34" d="M47.5098 110.691H43.404V114.746H47.5098V110.691Z" fill="#FFFFFA"/>
<path opacity="0.34" d="M47.5098 119.094H43.404V123.149H47.5098V119.094Z" fill="#FFFFFA"/>
<path opacity="0.34" d="M54.9003 102.289H50.7946V106.344H54.9003V102.289Z" fill="#FFFFFA"/>
<path opacity="0.34" d="M54.9003 110.691H50.7946V114.746H54.9003V110.691Z" fill="#FFFFFA"/>
<path opacity="0.34" d="M54.9003 119.094H50.7946V123.149H54.9003V119.094Z" fill="#FFFFFA"/>
<path d="M24.9925 70.5653H53.7127V0H56.0877V70.5653H133.663V0H136.038V70.5653H167.724V72.9403H136.038V142.732H133.663V72.9403H56.0877V142.732H53.7127V72.9403H24.9925V70.5653Z" fill="white"/>
<path d="M173.41 142.559H19.3067V147.306H173.41V142.559Z" fill="#F4F4F4"/>
<path opacity="0.1" d="M173.41 142.559H19.3067V147.306H173.41V142.559Z" fill="#292A2E"/>
<path opacity="0.1" d="M19.3067 142.559H17.0816V147.306H19.3067V142.559Z" fill="#292A2E"/>
<path opacity="0.1" d="M19.3067 142.559H17.0816V147.306H19.3067V142.559Z" fill="#292A2E"/>
<path d="M23.3566 6.0769L167.724 6.0769V2.54777L23.3566 2.54777V6.0769Z" fill="white"/>
<path d="M23.3566 12.6691L167.724 12.6691V9.13993L23.3566 9.13993V12.6691Z" fill="white"/>
<path d="M23.3566 19.261L167.724 19.261V15.7319L23.3566 15.7319V19.261Z" fill="white"/>
<path d="M23.3566 25.8528L167.724 25.8528V22.3236L23.3566 22.3236V25.8528Z" fill="white"/>
<path d="M23.3566 32.4442L167.724 32.4442V28.9151L23.3566 28.9151V32.4442Z" fill="white"/>
<path d="M38.69 36.4248H40.8535L40.8535 3.05176e-05H38.69L38.69 36.4248Z" fill="white"/>
<path d="M39.5884 41.6559C41.23 41.6559 42.5607 40.3251 42.5607 38.6835C42.5607 37.0419 41.23 35.7112 39.5884 35.7112C37.9468 35.7112 36.616 37.0419 36.616 38.6835C36.616 40.3251 37.9468 41.6559 39.5884 41.6559Z" fill="white"/>
<path d="M24.6168 341.128L23.8209 340.975L36.2598 217.367L37.0557 217.52L24.6168 341.128Z" fill="#494949"/>
<path d="M70.9336 341.128L70.1378 340.975L82.5762 217.367L83.3721 217.52L70.9336 341.128Z" fill="#494949"/>
<path d="M173.314 341.128L174.11 340.975L161.671 217.367L160.875 217.52L173.314 341.128Z" fill="#494949"/>
<path d="M126.997 341.128L127.793 340.975L115.354 217.367L114.558 217.52L126.997 341.128Z" fill="#494949"/>
<path d="M110.501 162.967L109.698 163.075L116.965 217.499L117.768 217.391L110.501 162.967Z" fill="#494949"/>
<path d="M27.0954 162.967L26.2921 163.074L33.5586 217.498L34.3619 217.391L27.0954 162.967Z" fill="#494949"/>
<path d="M117.698 213.459H36.1172C33.9161 213.459 32.1318 215.243 32.1318 217.444V217.444C32.1318 219.646 33.9161 221.43 36.1172 221.43H117.698C119.899 221.43 121.683 219.646 121.683 217.444V217.444C121.683 215.243 119.899 213.459 117.698 213.459Z" fill="#292A2E"/>
<path opacity="0.8" d="M117.698 213.459H36.1172C33.9161 213.459 32.1318 215.243 32.1318 217.444V217.444C32.1318 219.646 33.9161 221.43 36.1172 221.43H117.698C119.899 221.43 121.683 219.646 121.683 217.444V217.444C121.683 215.243 119.899 213.459 117.698 213.459Z" fill="white"/>
<path d="M117.698 221.835H36.1176C35.541 221.835 34.9701 221.721 34.4374 221.5C33.9047 221.28 33.4206 220.956 33.0129 220.549C32.6052 220.141 32.2818 219.657 32.0611 219.124C31.8405 218.592 31.7269 218.021 31.7269 217.444C31.7269 216.867 31.8405 216.296 32.0611 215.764C32.2818 215.231 32.6052 214.747 33.0129 214.339C33.4206 213.932 33.9047 213.608 34.4374 213.388C34.9701 213.167 35.541 213.053 36.1176 213.053H117.698C118.274 213.053 118.845 213.167 119.378 213.388C119.911 213.608 120.395 213.932 120.802 214.339C121.21 214.747 121.534 215.231 121.754 215.764C121.975 216.296 122.088 216.867 122.088 217.444C122.088 218.021 121.975 218.592 121.754 219.124C121.534 219.657 121.21 220.141 120.802 220.549C120.395 220.956 119.911 221.28 119.378 221.5C118.845 221.721 118.274 221.835 117.698 221.835ZM36.1176 213.864C35.6474 213.864 35.1819 213.956 34.7475 214.136C34.3131 214.316 33.9185 214.58 33.586 214.912C33.2535 215.245 32.9898 215.64 32.8099 216.074C32.63 216.508 32.5374 216.974 32.5374 217.444C32.5374 217.914 32.63 218.38 32.8099 218.814C32.9898 219.248 33.2535 219.643 33.586 219.976C33.9185 220.308 34.3131 220.572 34.7475 220.752C35.1819 220.932 35.6474 221.024 36.1176 221.024H117.698C118.168 221.024 118.633 220.932 119.068 220.752C119.502 220.572 119.897 220.308 120.229 219.976C120.562 219.643 120.826 219.248 121.005 218.814C121.185 218.38 121.278 217.914 121.278 217.444C121.278 216.974 121.185 216.508 121.005 216.074C120.826 215.64 120.562 215.245 120.229 214.912C119.897 214.58 119.502 214.316 119.068 214.136C118.633 213.956 118.168 213.864 117.698 213.864H36.1176Z" fill="#292A2E"/>
<path d="M162.474 213.459H80.8933C78.6922 213.459 76.9079 215.243 76.9079 217.444V217.444C76.9079 219.646 78.6922 221.43 80.8933 221.43H162.474C164.675 221.43 166.459 219.646 166.459 217.444V217.444C166.459 215.243 164.675 213.459 162.474 213.459Z" fill="white"/>
<path d="M162.474 221.835H80.8933C80.3167 221.835 79.7458 221.721 79.2131 221.5C78.6804 221.28 78.1964 220.956 77.7887 220.549C77.381 220.141 77.0576 219.657 76.8369 219.124C76.6163 218.592 76.5027 218.021 76.5027 217.444C76.5027 216.867 76.6163 216.296 76.8369 215.764C77.0576 215.231 77.381 214.747 77.7887 214.339C78.1964 213.932 78.6804 213.608 79.2131 213.388C79.7458 213.167 80.3167 213.053 80.8933 213.053H162.474C163.051 213.053 163.621 213.167 164.154 213.388C164.687 213.608 165.171 213.932 165.579 214.339C165.986 214.747 166.31 215.231 166.53 215.764C166.751 216.296 166.865 216.867 166.865 217.444C166.865 218.021 166.751 218.592 166.53 219.124C166.31 219.657 165.986 220.141 165.579 220.549C165.171 220.956 164.687 221.28 164.154 221.5C163.621 221.721 163.051 221.835 162.474 221.835ZM80.8933 213.864C80.4232 213.864 79.9576 213.956 79.5233 214.136C79.0889 214.316 78.6942 214.58 78.3618 214.912C78.0293 215.245 77.7656 215.64 77.5857 216.074C77.4057 216.508 77.3131 216.974 77.3131 217.444C77.3131 217.914 77.4057 218.38 77.5857 218.814C77.7656 219.248 78.0293 219.643 78.3618 219.976C78.6942 220.308 79.0889 220.572 79.5233 220.752C79.9576 220.932 80.4232 221.024 80.8933 221.024H162.474C162.944 221.024 163.41 220.932 163.844 220.752C164.278 220.572 164.673 220.308 165.006 219.976C165.338 219.643 165.602 219.248 165.782 218.814C165.962 218.38 166.054 217.914 166.054 217.444C166.054 216.974 165.962 216.508 165.782 216.074C165.602 215.64 165.338 215.245 165.006 214.912C164.673 214.58 164.278 214.316 163.844 214.136C163.41 213.956 162.944 213.864 162.474 213.864H80.8933Z" fill="#292A2E"/>
<path d="M106.032 163.02H26.9124C25.6188 163.02 24.3694 162.549 23.3975 161.696C22.4255 160.842 21.7974 159.664 21.6303 158.381L16.3967 118.191C16.2989 117.44 16.3625 116.676 16.5833 115.951C16.804 115.226 17.1768 114.557 17.6769 113.988C18.1769 113.419 18.7926 112.963 19.4828 112.65C20.1731 112.338 20.9221 112.176 21.6797 112.177H100.799C102.092 112.177 103.341 112.647 104.313 113.501C105.285 114.354 105.914 115.532 106.081 116.815L111.314 157.006C111.412 157.757 111.348 158.52 111.128 159.245C110.907 159.97 110.534 160.639 110.034 161.208C109.534 161.778 108.919 162.234 108.229 162.546C107.539 162.859 106.79 163.02 106.032 163.02Z" fill="#292A2E"/>
<path opacity="0.8" d="M106.032 163.02H26.9124C25.6188 163.02 24.3694 162.549 23.3975 161.696C22.4255 160.842 21.7974 159.664 21.6303 158.381L16.3967 118.191C16.2989 117.44 16.3625 116.676 16.5833 115.951C16.804 115.226 17.1768 114.557 17.6769 113.988C18.1769 113.419 18.7926 112.963 19.4828 112.65C20.1731 112.338 20.9221 112.176 21.6797 112.177H100.799C102.092 112.177 103.341 112.647 104.313 113.501C105.285 114.354 105.914 115.532 106.081 116.815L111.314 157.006C111.412 157.757 111.348 158.52 111.128 159.245C110.907 159.97 110.534 160.639 110.034 161.208C109.534 161.778 108.919 162.234 108.229 162.546C107.539 162.859 106.79 163.02 106.032 163.02Z" fill="white"/>
<path d="M106.032 163.425H26.9124C25.5212 163.422 24.1784 162.915 23.1331 161.997C22.0878 161.079 21.411 159.812 21.2283 158.433L15.9952 118.243C15.8898 117.435 15.9581 116.613 16.1956 115.833C16.433 115.053 16.8342 114.333 17.3722 113.72C17.9103 113.108 18.5728 112.617 19.3156 112.281C20.0584 111.945 20.8644 111.771 21.6797 111.771H100.799C102.19 111.774 103.533 112.282 104.578 113.2C105.623 114.118 106.3 115.384 106.482 116.763L111.716 156.953C111.821 157.762 111.753 158.583 111.515 159.363C111.278 160.143 110.877 160.863 110.339 161.476C109.801 162.088 109.138 162.579 108.396 162.915C107.653 163.252 106.847 163.425 106.032 163.425ZM21.6797 112.581C20.9798 112.581 20.2879 112.731 19.6502 113.019C19.0126 113.308 18.4438 113.729 17.9819 114.255C17.5201 114.781 17.1757 115.4 16.9718 116.069C16.7679 116.739 16.7092 117.444 16.7995 118.138L22.0331 158.329C22.1898 159.513 22.7709 160.6 23.6683 161.388C24.5658 162.176 25.7188 162.612 26.9132 162.615H106.032C106.732 162.615 107.424 162.465 108.061 162.177C108.699 161.888 109.267 161.466 109.729 160.941C110.191 160.415 110.535 159.796 110.739 159.127C110.943 158.457 111.001 157.752 110.911 157.058L105.679 116.868C105.522 115.684 104.941 114.597 104.043 113.809C103.146 113.02 101.993 112.584 100.799 112.582L21.6797 112.581Z" fill="#292A2E"/>
<path d="M110.506 163.02H31.3861C30.0926 163.02 28.8432 162.549 27.8713 161.696C26.8994 160.842 26.2714 159.664 26.1044 158.381L20.8692 118.191C20.7714 117.44 20.835 116.676 21.0557 115.951C21.2764 115.227 21.6491 114.557 22.1491 113.988C22.649 113.419 23.2646 112.963 23.9547 112.651C24.6449 112.338 25.3938 112.177 26.1514 112.177H105.273C106.566 112.177 107.815 112.647 108.787 113.501C109.759 114.354 110.387 115.532 110.554 116.815L115.788 157.006C115.886 157.757 115.822 158.52 115.601 159.245C115.381 159.97 115.008 160.639 114.508 161.208C114.008 161.778 113.393 162.234 112.702 162.546C112.012 162.859 111.263 163.02 110.506 163.02Z" fill="white"/>
<path d="M110.506 163.425H31.3861C29.995 163.422 28.6522 162.915 27.607 161.996C26.5618 161.078 25.885 159.812 25.7024 158.433L20.4689 118.243C20.3636 117.435 20.432 116.613 20.6695 115.833C20.907 115.053 21.3081 114.333 21.8461 113.721C22.3841 113.108 23.0465 112.617 23.7892 112.281C24.5319 111.945 25.3377 111.771 26.153 111.771H105.272C106.663 111.774 108.006 112.282 109.052 113.2C110.097 114.118 110.774 115.384 110.956 116.763L116.19 156.953C116.295 157.762 116.227 158.583 115.989 159.363C115.752 160.143 115.35 160.863 114.812 161.476C114.275 162.088 113.612 162.579 112.869 162.915C112.127 163.251 111.321 163.425 110.506 163.425ZM26.153 112.581C25.4532 112.582 24.7615 112.731 24.124 113.02C23.4865 113.309 22.918 113.73 22.4563 114.256C21.9946 114.782 21.6504 115.4 21.4466 116.07C21.2428 116.739 21.1841 117.445 21.2745 118.139L26.506 158.329C26.6629 159.513 27.244 160.6 28.1414 161.388C29.0388 162.176 30.1917 162.612 31.3861 162.615H110.506C111.206 162.615 111.898 162.466 112.535 162.177C113.173 161.888 113.742 161.467 114.204 160.941C114.665 160.415 115.01 159.797 115.214 159.127C115.418 158.457 115.476 157.752 115.386 157.058L110.152 116.868C109.996 115.684 109.415 114.597 108.517 113.808C107.62 113.02 106.467 112.584 105.272 112.582L26.153 112.581Z" fill="#292A2E"/>
<path d="M172.008 172.197L171.201 172.278L188.285 341.4L189.091 341.318L172.008 172.197Z" fill="#494949"/>
<path d="M101.979 50.4765C101.979 50.4765 107.237 46.5081 108.54 37.3734C109.548 30.301 103.024 34.8829 103.024 34.8829C103.024 34.8829 103.701 29.7831 99.9848 30.2892C96.2689 30.7954 94.1901 36.1525 94.1901 36.1525" fill="#0C0C0C"/>
<path d="M80.7815 30.8861C80.7815 30.8861 62.3456 32.864 69.0104 57.8439L70.6418 57.9533L73.9533 58.1754" fill="#0C0C0C"/>
<path d="M98.8915 83.9334C98.8105 83.9228 97.9109 98.8458 80.5728 97.5462C68.5699 96.647 64.2903 83.9123 64.0151 83.9123C65.3094 83.6375 66.9085 83.2197 67.5443 83.0767C68.9294 82.7551 70.1839 82.0195 71.1407 80.9675C72.0975 79.9156 72.7113 78.5973 72.9006 77.1879C73.2519 75.0726 72.6574 64.2498 72.8394 62.1094L91.2639 66.2216C91.0066 70.7424 89.2045 81.222 95.5188 83.0767C96.5712 83.3835 97.703 83.6655 98.8915 83.9334Z" fill="#E98862"/>
<path opacity="0.52" d="M91.5229 78.7938C91.2343 77.8636 91.0484 76.9047 90.9685 75.9341C90.7663 73.7193 90.8071 71.489 91.0901 69.2831C87.3453 68.7777 83.8173 67.2321 80.9071 64.8219C80.5651 66.0854 78.6836 71.6062 79.2051 72.8069C80.1878 75.077 84.8143 78.7938 91.5229 78.7938Z" fill="#0C0C0C"/>
<path d="M87.7202 75.8401C80.4512 75.1881 71.7514 70.5956 71.6262 60.7287L71.5127 51.8259C71.3875 41.9593 76.4678 33.8949 85.7581 33.7766C95.048 33.6586 102.094 41.5687 102.219 51.4356L102.269 55.3769C102.263 56.7305 102.164 58.0821 101.974 59.4223C101.497 62.968 100.758 68.3588 98.3522 72.0054C96.0797 75.4482 92.3637 76.2563 87.7202 75.8401Z" fill="#E98862"/>
<path d="M91.0925 66.8222C92.5925 66.8902 94.0875 66.6047 95.4568 65.9887C95.4851 65.9766 95.5108 65.959 95.5323 65.937C95.5539 65.915 95.5708 65.889 95.5823 65.8605C95.5938 65.8319 95.5995 65.8014 95.5992 65.7706C95.5989 65.7398 95.5925 65.7094 95.5804 65.6811C95.5683 65.6528 95.5508 65.6271 95.5288 65.6056C95.5068 65.584 95.4808 65.5671 95.4522 65.5556C95.4237 65.5441 95.3931 65.5384 95.3624 65.5387C95.3316 65.539 95.3012 65.5454 95.2729 65.5575C92.3228 66.8157 89.6438 66.6313 87.5261 65.0246C87.4834 64.9907 87.4389 64.9592 87.3928 64.9302C87.3396 64.9055 87.279 64.9017 87.2231 64.9195C87.1672 64.9372 87.12 64.9753 87.0907 65.0261C87.0615 65.077 87.0524 65.1369 87.0651 65.1942C87.0779 65.2514 87.1117 65.3018 87.1598 65.3354C87.1768 65.346 87.2039 65.3674 87.2408 65.397C88.3543 66.2448 89.6954 66.7411 91.0925 66.8222Z" fill="#0C0C0C"/>
<path d="M91.0224 69.0441C91.2934 69.0608 91.5654 69.0543 91.8353 69.0246C91.8971 69.018 91.9538 68.9872 91.9928 68.9389C92.0319 68.8905 92.0501 68.8287 92.0436 68.7669C92.037 68.7051 92.0062 68.6484 91.9579 68.6094C91.9095 68.5703 91.8477 68.552 91.7859 68.5586C90.1621 68.7312 89.3873 67.9872 89.3545 67.9552C89.3106 67.9112 89.251 67.8864 89.1888 67.8864C89.1267 67.8863 89.067 67.9109 89.023 67.9548C88.979 67.9987 88.9542 68.0583 88.9542 68.1205C88.9541 68.1826 88.9787 68.2423 89.0226 68.2863C89.5816 68.7623 90.2883 69.0301 91.0224 69.0441Z" fill="#0C0C0C"/>
<path d="M99.1509 57.2742C99.7829 57.2742 100.295 56.7619 100.295 56.1298C100.295 55.4978 99.7829 54.9855 99.1509 54.9855C98.5189 54.9855 98.0065 55.4978 98.0065 56.1298C98.0065 56.7619 98.5189 57.2742 99.1509 57.2742Z" fill="#0C0C0C"/>
<path d="M87.9715 56.5727C88.6035 56.5727 89.1158 56.0603 89.1158 55.4283C89.1158 54.7963 88.6035 54.2839 87.9715 54.2839C87.3394 54.2839 86.8271 54.7963 86.8271 55.4283C86.8271 56.0603 87.3394 56.5727 87.9715 56.5727Z" fill="#0C0C0C"/>
<path d="M72.2413 63.7274C69.418 63.7635 67.0912 60.7721 67.0543 57.9489C67.0175 55.1256 69.2871 53.5396 72.1104 53.5039L73.589 55.3769L74.6678 63.6966L72.2413 63.7274Z" fill="#E98862"/>
<path d="M75.0483 59.1909C75.0483 59.1909 76.0018 45.2295 80.2352 44.3672C83.0548 43.793 89.8922 47.7926 96.2251 46.5846C98.9961 46.0578 101.626 46.7418 101.894 48.0507C102 48.569 103.726 41.1213 99.3871 35.4708C95.9325 30.9707 84.6275 29.7004 79.4843 31.1754C65.2434 35.2609 71.5277 54.1182 71.5277 54.1182L72.1627 58.9315L75.0483 59.1909Z" fill="#0C0C0C"/>
<path d="M92.7973 63.5264H92.8155C93.7253 63.5171 95.2501 63.4004 95.2441 62.7196C95.238 62.1555 93.6333 56.084 93.4497 55.3935C93.4322 55.3361 93.3931 55.2878 93.3407 55.2587C93.2883 55.2296 93.2266 55.2219 93.1687 55.2372C93.1107 55.2526 93.061 55.2898 93.0299 55.3411C92.9988 55.3924 92.9888 55.4537 93.0019 55.5122C93.7147 58.2013 94.7764 62.3411 94.7809 62.7253C94.693 62.8874 93.7532 63.0543 92.8111 63.064C92.7517 63.0653 92.695 63.0893 92.6528 63.1312C92.6106 63.173 92.5861 63.2295 92.5843 63.2889C92.5826 63.3483 92.6037 63.4061 92.6433 63.4504C92.6829 63.4946 92.7381 63.522 92.7973 63.5268V63.5264Z" fill="#0C0C0C"/>
<path d="M95.903 49.9241C96.8591 49.6609 97.8685 49.6609 98.8247 49.9241C99.2944 50.0503 99.7425 50.2465 100.154 50.506C100.56 50.76 100.933 51.0645 101.264 51.4121C101.327 51.4734 101.364 51.5571 101.366 51.6452C101.369 51.7333 101.336 51.8188 101.276 51.8834C101.216 51.9481 101.134 51.9867 101.046 51.991C100.958 51.9953 100.871 51.9649 100.805 51.9064L100.785 51.8886C100.479 51.6055 100.138 51.3619 99.7717 51.1637C99.4118 50.9666 99.0242 50.8251 98.622 50.7438C97.8303 50.5778 97.0088 50.6238 96.2405 50.8772L96.2081 50.8885C96.0813 50.9333 95.942 50.926 95.8206 50.868C95.6993 50.8101 95.606 50.7063 95.5612 50.5795C95.5163 50.4528 95.5237 50.3134 95.5817 50.1921C95.6396 50.0707 95.7434 49.9774 95.8701 49.9326L95.903 49.9241Z" fill="#0C0C0C"/>
<path d="M89.1324 50.4992C88.4049 50.1456 87.5969 49.9906 86.7902 50.0498C86.3807 50.0764 85.9777 50.1649 85.5947 50.3123C85.2055 50.4602 84.8363 50.6562 84.4958 50.8959L84.4739 50.9105C84.4008 50.9573 84.3125 50.9742 84.2272 50.9576C84.142 50.941 84.0665 50.8922 84.0163 50.8214C83.9661 50.7506 83.9451 50.6631 83.9578 50.5772C83.9704 50.4913 84.0156 50.4136 84.0841 50.3602C84.4578 50.0596 84.8681 49.8074 85.305 49.6097C85.7474 49.4076 86.2175 49.273 86.6998 49.2101C87.6825 49.0761 88.6832 49.2102 89.596 49.5983C89.7196 49.6521 89.8168 49.7527 89.8661 49.8781C89.9155 50.0035 89.9131 50.1434 89.8594 50.267C89.8056 50.3906 89.705 50.4877 89.5796 50.5371C89.4542 50.5865 89.3143 50.5841 89.1907 50.5304L89.1628 50.517L89.1324 50.4992Z" fill="#0C0C0C"/>
<path d="M94.5422 40.3137C96.6319 39.8771 97.805 37.0298 97.1624 33.954C96.5198 30.8783 94.3048 28.7388 92.215 29.1754C90.1253 29.612 88.9522 32.4593 89.5948 35.5351C90.2374 38.6109 92.4524 40.7503 94.5422 40.3137Z" fill="#0C0C0C"/>
<path d="M211.092 320.025C211.092 320.025 213.265 331.287 223.81 331.915C234.355 332.543 232.068 340.943 232.068 340.943H191.771V320.81L211.092 320.025Z" fill="#367CFF"/>
<path d="M134.428 312.914C134.428 312.914 131.406 323.979 140.591 329.197C149.776 334.414 144.016 340.943 144.016 340.943L107.857 323.154L116.744 305.088L134.428 312.914Z" fill="#367CFF"/>
<path d="M112.032 309.788L142.525 213.591H87.2517C76.1485 213.591 71.52 204.176 71.52 193.073C71.52 181.971 82.4352 172.238 93.5376 172.238H168.136C174.908 172.238 182.501 176.379 186.218 182.04C189.935 187.701 188.93 196.473 186.237 202.687L137.407 321.284" fill="#262626"/>
<path opacity="0.8" d="M112.032 309.788L142.525 213.591H87.2517C76.1485 213.591 71.52 204.176 71.52 193.073C71.52 181.971 82.4352 172.238 93.5376 172.238H168.136C174.908 172.238 182.501 176.379 186.218 182.04C189.935 187.701 188.93 196.473 186.237 202.687L137.407 321.284" fill="#0A0A0A"/>
<path d="M189.453 330.484L138.467 213.591L71.5191 213.587C55.8323 212.357 48.648 203.76 48.8766 192.66C49.1019 181.7 54.6511 170.875 65.561 170.875H155.794C163.866 171.041 170.217 179.962 173.212 187.459L215.599 323.328" fill="#262626"/>
<path d="M44.3105 171.01C44.3105 171.01 41.3373 190.398 46.0501 201.178C51.9336 214.635 73.9894 213.587 73.9894 213.587L72.7466 170.875L44.3105 171.01Z" fill="#262626"/>
<path d="M175.13 170.628L127.84 160.829C125.869 160.421 124.034 159.522 122.502 158.216C120.971 156.91 119.794 155.239 119.08 153.357L100.48 104.344C99.914 102.873 99.6439 101.304 99.6854 99.7288C99.727 98.1531 100.079 96.6011 100.723 95.162C101.366 93.723 102.287 92.4251 103.433 91.3431C104.579 90.2611 105.928 89.4162 107.402 88.8569C108.875 88.2976 110.445 88.035 112.02 88.0842C113.596 88.1334 115.146 88.4933 116.582 89.1434C118.018 89.7934 119.312 90.7208 120.388 91.8722C121.465 93.0236 122.303 94.3763 122.855 95.8527L139.126 138.726L179.987 147.193C179.987 147.193 175.95 170.798 175.13 170.628Z" fill="#367CFF"/>
<path d="M120.434 116.79C119.888 123.206 116.017 163.234 115.49 171.136H44.3417C43.9328 164.009 42.6057 133.748 41.0553 119.81C39.5758 106.509 39.0389 98.9195 40.7432 94.7866C43.7492 87.4965 51.2715 84.8734 57.7511 83.9961C61.7073 83.4608 67.6581 83.0767 67.6581 83.0767C67.6581 83.0767 68.1622 93.2694 80.1764 93.8367C96.5311 94.6066 95.439 83.0767 95.52 83.0767C98.1694 83.0767 112.591 85.0035 116.198 87.3539C121.291 90.6739 122.796 95.1979 122.856 99.3543C122.924 104.14 121.053 109.514 120.434 116.79Z" fill="#367CFF"/>
<path d="M117.638 149.497H117.621C117.594 149.495 117.568 149.488 117.545 149.476C117.521 149.463 117.5 149.447 117.483 149.426C117.466 149.406 117.453 149.382 117.444 149.357C117.436 149.332 117.433 149.305 117.436 149.279L119.283 127.091C119.284 127.064 119.291 127.038 119.303 127.014C119.315 126.99 119.332 126.968 119.352 126.951C119.372 126.934 119.396 126.921 119.422 126.913C119.447 126.905 119.474 126.903 119.501 126.905C119.528 126.908 119.553 126.915 119.577 126.927C119.601 126.939 119.622 126.956 119.639 126.976C119.656 126.997 119.669 127.02 119.677 127.046C119.685 127.071 119.688 127.098 119.686 127.124L117.839 149.312C117.835 149.363 117.812 149.41 117.774 149.444C117.737 149.478 117.688 149.497 117.638 149.497Z" fill="#0C0C0C"/>
<path d="M151.523 162.814L167.134 114.825C167.408 113.982 167.942 113.247 168.66 112.726C169.377 112.205 170.241 111.924 171.128 111.924H238.782C239.445 111.924 240.098 112.081 240.689 112.382C241.28 112.683 241.791 113.12 242.18 113.656C242.57 114.192 242.827 114.814 242.931 115.468C243.034 116.123 242.981 116.793 242.776 117.424L223.113 165.414C222.838 166.258 222.304 166.992 221.587 167.513C220.869 168.035 220.005 168.315 219.118 168.315H155.517C154.854 168.315 154.2 168.158 153.609 167.857C153.018 167.556 152.507 167.119 152.117 166.583C151.728 166.046 151.471 165.425 151.367 164.77C151.264 164.115 151.317 163.444 151.523 162.814Z" fill="#292A2E"/>
<path d="M151.523 162.814L167.134 114.825C167.408 113.982 167.942 113.247 168.66 112.726C169.377 112.205 170.241 111.924 171.128 111.924H238.782C239.445 111.924 240.098 112.081 240.689 112.382C241.28 112.683 241.791 113.12 242.18 113.656C242.57 114.192 242.827 114.814 242.931 115.468C243.034 116.123 242.981 116.793 242.776 117.424L223.113 165.414C222.838 166.258 222.304 166.992 221.587 167.513C220.869 168.035 220.005 168.315 219.118 168.315H155.517C154.854 168.315 154.2 168.158 153.609 167.857C153.018 167.556 152.507 167.119 152.117 166.583C151.728 166.046 151.471 165.425 151.367 164.77C151.264 164.115 151.317 163.444 151.523 162.814Z" fill="#292A2E"/>
<path d="M164.257 164.422H121.682C120.622 164.422 119.762 165.282 119.762 166.343V166.392C119.762 167.453 120.622 168.313 121.682 168.313H164.257C165.318 168.313 166.178 167.453 166.178 166.392V166.343C166.178 165.282 165.318 164.422 164.257 164.422Z" fill="#292A2E"/>
<path d="M164.257 164.422H121.682C120.622 164.422 119.762 165.282 119.762 166.343V166.392C119.762 167.453 120.622 168.313 121.682 168.313H164.257C165.318 168.313 166.178 167.453 166.178 166.392V166.343C166.178 165.282 165.318 164.422 164.257 164.422Z" fill="#292A2E"/>
<path d="M195.123 149.13C198.807 149.13 201.794 146.144 201.794 142.46C201.794 138.776 198.807 135.79 195.123 135.79C191.439 135.79 188.453 138.776 188.453 142.46C188.453 146.144 191.439 149.13 195.123 149.13Z" fill="white"/>
<path d="M147.964 151.573L137.338 147.848L138.864 147.743C139.355 147.699 139.812 147.47 140.142 147.102C140.471 146.735 140.649 146.256 140.639 145.762C140.624 145.507 140.559 145.258 140.445 145.03C140.332 144.802 140.173 144.599 139.978 144.434C139.784 144.27 139.558 144.146 139.314 144.071C139.07 143.997 138.814 143.973 138.561 144L119.762 145.998L120.248 152.039C120.4 153.916 121.108 155.704 122.283 157.175C123.457 158.646 125.045 159.732 126.841 160.295L134.982 162.831C135.402 162.971 135.858 162.962 136.273 162.804C136.687 162.647 137.034 162.351 137.255 161.967C137.447 161.616 137.522 161.213 137.469 160.816C137.416 160.42 137.238 160.05 136.96 159.762C136.978 159.749 136.993 159.733 137.005 159.714C137.016 159.695 137.024 159.674 137.027 159.653C137.03 159.631 137.028 159.608 137.022 159.587C137.017 159.566 137.007 159.546 136.993 159.529L138.492 159.999C138.96 160.156 139.47 160.13 139.919 159.925C140.369 159.721 140.724 159.353 140.912 158.897C141.066 158.483 141.07 158.028 140.921 157.612C140.773 157.197 140.483 156.846 140.102 156.623C140.119 156.614 140.135 156.601 140.148 156.586L140.765 156.779C141.185 156.919 141.641 156.91 142.055 156.752C142.469 156.595 142.817 156.299 143.038 155.915C143.271 155.489 143.33 154.99 143.203 154.521C143.076 154.053 142.773 153.652 142.357 153.402C142.36 153.39 142.362 153.377 142.362 153.364L146.788 154.915C147.008 154.994 147.241 155.03 147.475 155.018C147.708 155.007 147.938 154.95 148.149 154.849C148.36 154.749 148.55 154.608 148.706 154.434C148.862 154.26 148.983 154.057 149.06 153.836C149.138 153.615 149.17 153.381 149.157 153.148C149.143 152.914 149.083 152.685 148.981 152.475C148.879 152.265 148.735 152.077 148.56 151.922C148.384 151.768 148.18 151.649 147.958 151.574L147.964 151.573Z" fill="#E98862"/>
<path opacity="0.2" d="M142.195 153.535C142.174 153.535 142.154 153.532 142.134 153.525L137.854 151.968C137.81 151.952 137.775 151.919 137.755 151.877C137.735 151.834 137.733 151.786 137.749 151.742C137.765 151.698 137.798 151.662 137.841 151.642C137.883 151.623 137.932 151.621 137.976 151.637L142.256 153.193C142.295 153.208 142.328 153.235 142.349 153.271C142.37 153.307 142.377 153.349 142.37 153.39C142.363 153.431 142.341 153.468 142.309 153.494C142.278 153.521 142.237 153.535 142.196 153.535H142.195Z" fill="#0A0A0A"/>
<path opacity="0.2" d="M140.03 156.647C140.01 156.647 139.99 156.644 139.971 156.637L136.598 155.44C136.575 155.433 136.555 155.421 136.537 155.406C136.519 155.39 136.505 155.371 136.494 155.35C136.484 155.329 136.478 155.306 136.477 155.283C136.475 155.259 136.479 155.236 136.486 155.214C136.494 155.192 136.506 155.171 136.522 155.154C136.538 155.136 136.557 155.122 136.578 155.113C136.6 155.103 136.623 155.097 136.646 155.096C136.67 155.095 136.693 155.099 136.715 155.108L140.089 156.305C140.128 156.319 140.161 156.346 140.182 156.382C140.203 156.418 140.211 156.46 140.204 156.501C140.197 156.542 140.176 156.579 140.144 156.606C140.112 156.632 140.072 156.647 140.03 156.647Z" fill="#0A0A0A"/>
<path opacity="0.2" d="M136.853 159.805C136.832 159.805 136.811 159.801 136.791 159.793L135.21 159.191C135.166 159.174 135.131 159.141 135.112 159.098C135.093 159.055 135.092 159.007 135.108 158.963C135.125 158.919 135.159 158.884 135.201 158.865C135.244 158.846 135.292 158.845 135.336 158.861L136.917 159.464C136.955 159.479 136.988 159.506 137.008 159.542C137.028 159.578 137.035 159.62 137.028 159.661C137.02 159.701 136.999 159.738 136.967 159.765C136.935 159.791 136.895 159.805 136.854 159.805H136.853Z" fill="#0A0A0A"/>
<path d="M128.082 142.423L83.507 142.393L66.6438 101.257L41.488 111.834L62.5267 160.655L62.7321 161.141C63.7615 163.515 65.4953 165.514 67.6988 166.869C69.9023 168.223 72.4689 168.868 75.0511 168.716L128.755 165.543L128.082 142.423Z" fill="#367CFF"/>
<path d="M74.3132 168.94C71.8142 168.935 69.3707 168.203 67.2812 166.832C65.1917 165.462 63.5467 163.512 62.5473 161.222L62.3415 160.735L44.413 119.137L44.785 118.975L62.9189 161.062C63.9365 163.394 65.6435 165.357 67.8103 166.689C69.9772 168.021 72.4999 168.658 75.0393 168.513L128.547 165.353L127.884 142.626L83.3704 142.596L70.4031 110.967L70.7783 110.814L83.6415 142.191L128.277 142.221L128.963 165.734L128.767 165.746L75.0645 168.917C74.8136 168.932 74.562 168.94 74.3132 168.94Z" fill="#0C0C0C"/>
<path d="M24.7332 172.199L7.63806 341.32L8.44441 341.401L25.5396 172.28L24.7332 172.199Z" fill="#494949"/>
<path d="M95.3638 172.199L78.2687 341.319L79.075 341.401L96.1702 172.28L95.3638 172.199Z" fill="#494949"/>
<path d="M242.638 172.197L241.832 172.278L258.915 341.4L259.721 341.318L242.638 172.197Z" fill="#494949"/>
<path d="M258.043 168.917H10.4472C8.61332 168.917 7.12671 170.404 7.12671 172.238C7.12671 174.071 8.61332 175.558 10.4472 175.558H258.043C259.877 175.558 261.363 174.071 261.363 172.238C261.363 170.404 259.877 168.917 258.043 168.917Z" fill="#292A2E"/>
<path opacity="0.8" d="M258.043 168.917H10.4472C8.61332 168.917 7.12671 170.404 7.12671 172.238C7.12671 174.071 8.61332 175.558 10.4472 175.558H258.043C259.877 175.558 261.363 174.071 261.363 172.238C261.363 170.404 259.877 168.917 258.043 168.917Z" fill="white"/>
<path d="M258.043 175.963H10.4488C9.95629 175.968 9.46765 175.876 9.01115 175.691C8.55465 175.506 8.13935 175.232 7.78926 174.886C7.43918 174.539 7.16126 174.127 6.97159 173.672C6.78192 173.218 6.68427 172.73 6.68427 172.238C6.68427 171.745 6.78192 171.257 6.97159 170.803C7.16126 170.348 7.43918 169.936 7.78926 169.589C8.13935 169.243 8.55465 168.969 9.01115 168.785C9.46765 168.6 9.95629 168.507 10.4488 168.512H258.043C258.536 168.507 259.025 168.6 259.481 168.785C259.938 168.969 260.353 169.243 260.703 169.589C261.053 169.936 261.331 170.348 261.521 170.803C261.71 171.257 261.808 171.745 261.808 172.238C261.808 172.73 261.71 173.218 261.521 173.672C261.331 174.127 261.053 174.539 260.703 174.886C260.353 175.232 259.938 175.506 259.481 175.691C259.025 175.876 258.536 175.968 258.043 175.963ZM10.4488 169.323C10.0631 169.318 9.68033 169.39 9.32268 169.535C8.96502 169.679 8.63959 169.893 8.36524 170.164C8.09089 170.435 7.87307 170.758 7.72441 171.114C7.57575 171.47 7.49921 171.852 7.49921 172.238C7.49921 172.623 7.57575 173.005 7.72441 173.361C7.87307 173.717 8.09089 174.04 8.36524 174.311C8.63959 174.582 8.96502 174.796 9.32268 174.941C9.68033 175.085 10.0631 175.157 10.4488 175.153H258.043C258.429 175.157 258.812 175.085 259.17 174.941C259.527 174.796 259.853 174.582 260.127 174.311C260.401 174.04 260.619 173.717 260.768 173.361C260.916 173.005 260.993 172.623 260.993 172.238C260.993 171.852 260.916 171.47 260.768 171.114C260.619 170.758 260.401 170.435 260.127 170.164C259.853 169.893 259.527 169.679 259.17 169.535C258.812 169.39 258.429 169.318 258.043 169.323H10.4488Z" fill="#292A2E"/>
<path d="M258.043 168.917H83.7778C81.9439 168.917 80.4573 170.404 80.4573 172.238C80.4573 174.071 81.9439 175.558 83.7778 175.558H258.043C259.877 175.558 261.364 174.071 261.364 172.238C261.364 170.404 259.877 168.917 258.043 168.917Z" fill="white"/>
<path d="M258.043 175.963H83.7778C82.7964 175.953 81.8588 175.556 81.1685 174.858C80.4782 174.161 80.0909 173.219 80.0909 172.238C80.0909 171.256 80.4782 170.315 81.1685 169.617C81.8588 168.919 82.7964 168.522 83.7778 168.512H258.043C258.536 168.507 259.025 168.6 259.481 168.785C259.938 168.969 260.353 169.243 260.703 169.589C261.053 169.936 261.331 170.348 261.521 170.803C261.71 171.257 261.808 171.745 261.808 172.238C261.808 172.73 261.71 173.218 261.521 173.672C261.331 174.127 261.053 174.539 260.703 174.886C260.353 175.232 259.938 175.506 259.481 175.691C259.025 175.876 258.536 175.968 258.043 175.963ZM83.7778 169.323C83.0106 169.332 82.2779 169.643 81.7386 170.188C81.1994 170.734 80.8969 171.47 80.8969 172.238C80.8969 173.005 81.1994 173.741 81.7386 174.287C82.2779 174.832 83.0106 175.144 83.7778 175.153H258.043C258.429 175.157 258.812 175.085 259.17 174.941C259.527 174.796 259.853 174.582 260.127 174.311C260.401 174.04 260.619 173.717 260.768 173.361C260.916 173.005 260.993 172.623 260.993 172.238C260.993 171.852 260.916 171.47 260.768 171.114C260.619 170.758 260.401 170.435 260.127 170.164C259.853 169.893 259.527 169.679 259.17 169.535C258.812 169.39 258.429 169.318 258.043 169.323H83.7778Z" fill="#292A2E"/>
<path d="M264.722 287.485C264.668 287.485 264.616 287.475 264.566 287.455C264.517 287.434 264.473 287.404 264.435 287.367C263.864 286.796 262.933 276.321 260.427 245.132C259.401 232.371 258.432 220.317 257.725 212.992C257.675 212.469 257.472 212.408 257.405 212.388C256.437 212.096 253.494 214.417 251.851 216.449C251.783 216.533 251.685 216.586 251.578 216.597C251.471 216.609 251.364 216.577 251.281 216.51C251.197 216.442 251.144 216.344 251.132 216.237C251.121 216.13 251.153 216.023 251.22 215.939C252.307 214.596 255.849 211.073 257.638 211.612C257.999 211.72 258.449 212.034 258.532 212.914C259.24 220.246 260.209 232.303 261.235 245.068C262.758 264.02 264.483 285.492 265.051 286.844C265.094 286.904 265.12 286.976 265.126 287.05C265.131 287.124 265.116 287.199 265.082 287.265C265.048 287.331 264.996 287.387 264.933 287.426C264.869 287.465 264.796 287.485 264.722 287.485Z" fill="#494949"/>
<path d="M256.684 226.434C263.408 221.044 265.637 212.654 261.662 207.695C257.687 202.736 249.013 203.086 242.289 208.476C235.565 213.866 233.336 222.255 237.311 227.214C241.286 232.173 249.96 231.824 256.684 226.434Z" fill="#0CBC8B"/>
<path opacity="0.2" d="M256.684 226.434C263.408 221.044 265.637 212.654 261.662 207.695C257.687 202.736 249.013 203.086 242.289 208.476C235.565 213.866 233.336 222.255 237.311 227.214C241.286 232.173 249.96 231.824 256.684 226.434Z" fill="white"/>
<path d="M239.196 228.475C239.158 228.475 239.12 228.465 239.088 228.444C239.055 228.423 239.029 228.394 239.013 228.359C238.997 228.324 238.99 228.286 238.995 228.247C239 228.209 239.016 228.173 239.04 228.144L258.204 205.034C258.238 204.992 258.288 204.966 258.341 204.961C258.395 204.956 258.448 204.973 258.489 205.007C258.531 205.042 258.557 205.091 258.562 205.145C258.567 205.198 258.55 205.251 258.516 205.293L239.352 228.403C239.333 228.425 239.309 228.444 239.282 228.456C239.255 228.469 239.226 228.476 239.196 228.475Z" fill="white"/>
<path d="M268.901 282.531C268.836 282.531 268.773 282.516 268.715 282.486C268.658 282.457 268.608 282.414 268.571 282.361C268.533 282.308 268.509 282.247 268.5 282.183C268.491 282.119 268.497 282.054 268.519 281.993L275.718 261.291C275.929 260.683 276.291 260.138 276.768 259.705C277.245 259.273 277.823 258.967 278.45 258.816C279.076 258.665 279.73 258.673 280.352 258.84C280.974 259.007 281.544 259.328 282.01 259.773L285.816 263.408C285.894 263.482 285.939 263.584 285.941 263.692C285.944 263.799 285.903 263.903 285.829 263.981C285.755 264.059 285.653 264.104 285.545 264.106C285.438 264.109 285.334 264.068 285.256 263.994L281.45 260.358C281.082 260.008 280.632 259.754 280.141 259.623C279.65 259.491 279.134 259.484 278.639 259.603C278.145 259.723 277.689 259.964 277.312 260.305C276.935 260.647 276.65 261.077 276.483 261.558L269.285 282.259C269.257 282.339 269.205 282.408 269.136 282.457C269.068 282.505 268.985 282.532 268.901 282.531Z" fill="#494949"/>
<path d="M296.448 274.869C301.431 270.925 301.135 262.249 295.786 255.492C290.437 248.735 282.062 246.455 277.078 250.399C272.095 254.344 272.391 263.019 277.74 269.776C283.089 276.534 291.464 278.814 296.448 274.869Z" fill="#0CBC8B"/>
<path d="M261.453 286.165C261.362 286.165 261.274 286.134 261.203 286.078C261.131 286.022 261.081 285.943 261.06 285.854L248.977 235.345C248.895 235 248.719 234.686 248.469 234.435C248.219 234.184 247.905 234.007 247.561 233.923C247.217 233.84 246.856 233.852 246.519 233.96C246.182 234.068 245.881 234.266 245.65 234.534L241.925 238.838C241.891 238.878 241.848 238.912 241.801 238.936C241.753 238.961 241.701 238.975 241.648 238.979C241.594 238.983 241.541 238.977 241.49 238.96C241.439 238.943 241.392 238.917 241.351 238.882C241.311 238.847 241.278 238.804 241.254 238.756C241.23 238.708 241.216 238.656 241.212 238.602C241.209 238.549 241.216 238.495 241.233 238.445C241.25 238.394 241.277 238.347 241.313 238.307L245.036 234.004C245.366 233.623 245.794 233.341 246.273 233.188C246.752 233.035 247.265 233.017 247.754 233.136C248.243 233.256 248.689 233.508 249.044 233.864C249.399 234.221 249.649 234.669 249.766 235.158L261.846 285.667C261.87 285.772 261.852 285.881 261.796 285.972C261.74 286.064 261.65 286.129 261.546 286.154C261.516 286.161 261.485 286.165 261.453 286.165Z" fill="#494949"/>
<path d="M256.996 250.058C258.464 241.566 254.578 233.804 248.315 232.721C242.053 231.639 235.786 237.645 234.317 246.137C232.849 254.628 236.735 262.39 242.998 263.473C249.26 264.556 255.527 258.55 256.996 250.058Z" fill="#0CBC8B"/>
<path d="M264.722 287.485C264.705 287.485 264.689 287.484 264.672 287.482C264.619 287.476 264.568 287.459 264.522 287.433C264.476 287.407 264.435 287.372 264.402 287.33C264.369 287.288 264.345 287.24 264.331 287.188C264.317 287.137 264.313 287.083 264.319 287.031L272.033 224.4C272.117 223.717 272.397 223.074 272.838 222.547C273.279 222.019 273.862 221.631 274.519 221.427C275.176 221.224 275.877 221.214 276.539 221.4C277.201 221.586 277.795 221.958 278.25 222.474L287.067 232.46C287.138 232.54 287.174 232.646 287.168 232.753C287.161 232.861 287.112 232.961 287.031 233.032C286.951 233.103 286.845 233.139 286.738 233.133C286.631 233.126 286.53 233.077 286.459 232.996L277.642 223.01C277.291 222.612 276.831 222.324 276.32 222.18C275.808 222.037 275.266 222.044 274.759 222.201C274.251 222.358 273.8 222.659 273.459 223.066C273.118 223.474 272.902 223.971 272.838 224.499L265.124 287.13C265.112 287.228 265.064 287.318 264.99 287.384C264.916 287.449 264.821 287.485 264.722 287.485Z" fill="#494949"/>
<path d="M296.11 238.009C299.187 232.448 295.567 224.558 288.026 220.387C280.485 216.215 271.878 217.342 268.801 222.903C265.725 228.465 269.345 236.355 276.886 240.526C284.427 244.697 293.034 243.571 296.11 238.009Z" fill="#0CBC8B"/>
<path opacity="0.2" d="M296.448 274.869C301.431 270.925 301.135 262.249 295.786 255.492C290.437 248.735 282.062 246.455 277.078 250.399C272.095 254.344 272.391 263.019 277.74 269.776C283.089 276.534 291.464 278.814 296.448 274.869Z" fill="white"/>
<path opacity="0.5" d="M256.996 250.058C258.464 241.566 254.578 233.804 248.315 232.721C242.053 231.639 235.786 237.645 234.317 246.137C232.849 254.628 236.735 262.39 242.998 263.473C249.26 264.556 255.527 258.55 256.996 250.058Z" fill="white"/>
<path opacity="0.5" d="M296.11 238.009C299.187 232.448 295.567 224.558 288.026 220.387C280.485 216.215 271.878 217.342 268.801 222.903C265.725 228.465 269.345 236.355 276.886 240.526C284.427 244.697 293.034 243.571 296.11 238.009Z" fill="white"/>
<path d="M274.588 340.628H254.855L251.585 277.492H277.858L274.588 340.628Z" fill="#292A2E"/>
<path opacity="0.3" d="M274.588 340.628H254.855L251.585 277.492H277.858L274.588 340.628Z" fill="white"/>
<path d="M296.448 275.069C296.418 275.069 296.387 275.062 296.36 275.049C296.332 275.035 296.308 275.016 296.289 274.992L276.919 250.522C276.886 250.48 276.871 250.426 276.877 250.373C276.883 250.319 276.91 250.271 276.952 250.237C276.995 250.204 277.048 250.189 277.102 250.195C277.155 250.201 277.204 250.228 277.237 250.27L296.607 274.74C296.631 274.77 296.646 274.806 296.65 274.844C296.654 274.882 296.647 274.92 296.631 274.955C296.614 274.989 296.588 275.018 296.556 275.038C296.524 275.058 296.486 275.069 296.448 275.069Z" fill="white"/>
<path d="M294.822 239.97C294.779 239.969 294.737 239.955 294.702 239.929L269.916 221.831C269.873 221.799 269.844 221.752 269.835 221.699C269.827 221.645 269.84 221.591 269.872 221.548C269.904 221.504 269.951 221.475 270.005 221.467C270.058 221.459 270.112 221.472 270.155 221.504L294.942 239.602C294.976 239.628 295.001 239.663 295.013 239.704C295.026 239.745 295.026 239.788 295.012 239.828C294.999 239.869 294.973 239.904 294.938 239.929C294.904 239.954 294.862 239.967 294.82 239.967L294.822 239.97Z" fill="white"/>
<path d="M241.99 263.209C241.973 263.209 241.955 263.207 241.938 263.202C241.886 263.188 241.842 263.154 241.815 263.108C241.788 263.061 241.781 263.006 241.795 262.954L249.685 233.392C249.7 233.341 249.734 233.298 249.78 233.273C249.826 233.247 249.88 233.24 249.931 233.254C249.982 233.267 250.026 233.3 250.053 233.345C250.08 233.391 250.088 233.445 250.076 233.496L242.186 263.059C242.175 263.102 242.149 263.14 242.114 263.167C242.078 263.194 242.035 263.209 241.99 263.209Z" fill="white"/>
<path d="M284.115 341.197H0.28366C0.208429 341.197 0.136279 341.167 0.0830821 341.114C0.0298855 341.06 0 340.988 0 340.913C0 340.838 0.0298855 340.766 0.0830821 340.712C0.136279 340.659 0.208429 340.629 0.28366 340.629H284.114C284.189 340.629 284.261 340.659 284.314 340.712C284.368 340.766 284.397 340.838 284.397 340.913C284.397 340.988 284.368 341.06 284.314 341.114C284.261 341.167 284.189 341.197 284.114 341.197H284.115Z" fill="#292A2E"/>
<g opacity="0.65">
<path d="M284.115 341.197H0.28366C0.208429 341.197 0.136279 341.167 0.0830821 341.114C0.0298855 341.06 0 340.988 0 340.913C0 340.838 0.0298855 340.766 0.0830821 340.712C0.136279 340.659 0.208429 340.629 0.28366 340.629H284.114C284.189 340.629 284.261 340.659 284.314 340.712C284.368 340.766 284.397 340.838 284.397 340.913C284.397 340.988 284.368 341.06 284.314 341.114C284.261 341.167 284.189 341.197 284.114 341.197H284.115Z" fill="#292A2E"/>
</g>
</g>
<defs>
<clipPath id="clip0_22_163">
<rect width="300" height="341.401" fill="white"/>
</clipPath>
</defs>
</svg>
