<svg width="40" height="40" viewBox="0 0 40 40" fill="none" xmlns="http://www.w3.org/2000/svg">
<path fill-rule="evenodd" clip-rule="evenodd" d="M5.55363 35.9545L2.34375 0H37.6152L34.4019 35.9486L19.9581 39.948L5.55363 35.9545Z" fill="#0071BC"/>
<path fill-rule="evenodd" clip-rule="evenodd" d="M20.0091 36.8891L31.6659 33.6865L34.397 2.99426H20.0091V36.8891Z" fill="#29ABE2"/>
<path fill-rule="evenodd" clip-rule="evenodd" d="M9.69116 16.2038L10.0778 20.607L20.0091 16.2038V11.7935L9.69116 16.2038Z" fill="#B3B3B3"/>
<path fill-rule="evenodd" clip-rule="evenodd" d="M31.0083 7.08563L20.0091 11.7934V16.2038L30.6291 11.4888L31.0083 7.08563Z" fill="#E6E6E6"/>
<path fill-rule="evenodd" clip-rule="evenodd" d="M20.0091 27.7246L19.975 27.7297L15.0498 26.4088L14.728 22.8966H10.2953L10.9139 29.8158L19.974 32.3211L20.0091 32.3128V27.7246Z" fill="#E6E6E6"/>
<path fill-rule="evenodd" clip-rule="evenodd" d="M20.0091 16.2037V20.6069H25.4014L24.9113 26.3638L20.0091 27.7284V32.3163L29.0391 29.8109L30.2282 16.2037H20.0091Z" fill="#D9D9D9"/>
<path fill-rule="evenodd" clip-rule="evenodd" d="M20.0091 16.2037H9.69116L10.0778 20.6069H20.0091V16.2037Z" fill="#E6E6E6"/>
<path fill-rule="evenodd" clip-rule="evenodd" d="M20.0091 11.4888V7.08563H19.9643H8.90723L9.29847 11.4888H20.0091Z" fill="#E6E6E6"/>
<path fill-rule="evenodd" clip-rule="evenodd" d="M20.0091 7.08563V11.4336V11.4888H30.6291L31.0083 7.08563H20.0091Z" fill="#D9D9D9"/>
</svg>
