<svg width="40" height="40" viewBox="0 0 40 40" fill="none" xmlns="http://www.w3.org/2000/svg">
<path d="M8.15762 31.8424L1.31451 24.9993C0.502867 24.1671 0 22.9908 0 21.8409C0 21.3087 0.299956 20.4764 0.526393 20L6.84311 6.84314L8.15762 31.8424Z" fill="#01579B"/>
<path d="M31.5807 8.15762L24.7376 1.31451C24.1406 0.714601 22.8967 0 21.8439 0C20.9381 0 20.05 0.182326 19.4766 0.526393L6.84607 6.84311L31.5807 8.15762Z" fill="#40C4FF"/>
<path d="M16.3153 40H32.8952V32.8952L20.5264 28.9457L9.21045 32.8952L16.3153 40Z" fill="#40C4FF"/>
<path d="M6.84314 28.1576C6.84314 30.2691 7.10781 30.7867 8.15765 31.8424L9.21044 32.8952H32.8952L21.3175 19.7383L6.84314 6.84314V28.1576Z" fill="#29B6F6"/>
<path d="M27.8959 6.84015H6.84314L32.8952 32.8922H40V16.577L31.5777 8.15466C30.3956 6.96954 29.3457 6.84015 27.8959 6.84015Z" fill="#01579B"/>
<path opacity="0.2" d="M8.42224 32.1041C7.36945 31.0484 7.10773 30.0074 7.10773 28.1576V7.10487L6.846 6.84314V28.1576C6.84306 30.0074 6.84306 30.5191 8.42224 32.1041L9.21036 32.8923L8.42224 32.1041Z" fill="white"/>
<path opacity="0.2" d="M39.7383 16.3152V32.6305H32.6334L32.8951 32.8952H40V16.577L39.7383 16.3152Z" fill="#263238"/>
<path opacity="0.2" d="M31.5807 8.15765C30.275 6.85196 29.2075 6.84314 27.6342 6.84314H6.84607L7.1078 7.10487H27.6342C28.4194 7.10487 30.4014 6.97253 31.5807 8.15765Z" fill="white"/>
<path opacity="0.2" d="M39.7383 16.3152L31.5807 8.15762L24.7376 1.31451C24.1406 0.714601 22.8967 0 21.8439 0C20.9382 0 20.05 0.182326 19.4766 0.526393L6.8461 6.84311L0.529384 20C0.302947 20.4793 0.00299072 21.3116 0.00299072 21.8409C0.00299072 22.9907 0.508799 24.1641 1.3175 24.9993L7.62246 31.2601C7.77244 31.4454 7.94888 31.6336 8.15767 31.8424L8.4194 32.1041L9.20752 32.8922L16.0506 39.7353L16.3124 39.9971H32.6276H32.8893V32.8922H39.9942V32.8746V16.577L39.7383 16.3152Z" fill="url(#paint0_radial_13_321)"/>
<defs>
<radialGradient id="paint0_radial_13_321" cx="0" cy="0" r="1" gradientUnits="userSpaceOnUse" gradientTransform="translate(19.9986 19.9962) scale(19.9971)">
<stop stop-color="white" stop-opacity="0.1"/>
<stop offset="1" stop-color="white" stop-opacity="0"/>
</radialGradient>
</defs>
</svg>
