<svg width="40" height="44" viewBox="0 0 40 44" fill="none" xmlns="http://www.w3.org/2000/svg">
<g clip-path="url(#clip0_14_511)">
<path d="M14.1124 9.31955C8.44606 8.28755 3.96583 9.36795 2.18027 12.4603C0.84785 14.7679 1.22822 17.8279 3.1034 21.0987C3.14134 21.165 3.19196 21.2231 3.25238 21.2698C3.31279 21.3165 3.38181 21.3508 3.4555 21.3708C3.52919 21.3908 3.60609 21.396 3.68181 21.3863C3.75754 21.3765 3.8306 21.352 3.89682 21.314C4.03054 21.2372 4.12834 21.1105 4.1687 20.9617C4.20906 20.8129 4.18868 20.6542 4.11205 20.5204C2.42273 17.5744 2.09349 14.9336 3.18676 13.0413C4.66985 10.4724 8.66563 9.50871 13.9038 10.4629C13.9984 10.4816 14.0963 10.4765 14.1885 10.4479C14.2807 10.4194 14.3643 10.3683 14.4319 10.2993C14.4994 10.2304 14.5487 10.1457 14.5753 10.0529C14.6019 9.96012 14.605 9.86218 14.5843 9.76791C14.5593 9.65456 14.5009 9.5513 14.4167 9.47141C14.3325 9.39153 14.2263 9.33867 14.1118 9.31966L14.1124 9.31955ZM6.04998 25.074C8.34095 27.5919 11.3176 29.9535 14.7123 31.9136C22.9315 36.6591 31.6818 37.9275 35.994 34.987C36.1182 34.8989 36.2029 34.7656 36.2299 34.6157C36.2568 34.4659 36.2239 34.3114 36.1381 34.1856C36.0523 34.0598 35.9206 33.9727 35.7713 33.943C35.622 33.9132 35.4669 33.9433 35.3396 34.0267C31.4799 36.6585 23.1678 35.4536 15.2935 30.9072C11.9999 29.0054 9.11774 26.7189 6.90968 24.2922C6.8329 24.2051 6.7318 24.143 6.6194 24.1138C6.50701 24.0846 6.38845 24.0898 6.279 24.1286C6.18803 24.1609 6.10654 24.2154 6.0419 24.2871C5.97726 24.3588 5.93151 24.4455 5.90878 24.5393C5.88605 24.6332 5.88706 24.7312 5.91171 24.8245C5.93636 24.9179 5.98389 25.0036 6.04998 25.074Z" fill="#2DD0ED"/>
<path d="M34.6189 24.3672C38.329 19.9844 39.6246 15.5759 37.8429 12.4897C36.5318 10.2189 33.7598 9.01992 30.0764 8.97209C29.9223 8.97012 29.7737 9.02938 29.6633 9.13688C29.5529 9.24437 29.4897 9.39129 29.4875 9.54538C29.4858 9.66034 29.5183 9.77321 29.5809 9.86964C29.6435 9.96608 29.7334 10.0417 29.8391 10.087C29.9092 10.1172 29.9846 10.1332 30.0609 10.1343C33.3738 10.1771 35.7622 11.2102 36.8365 13.0708C38.3162 15.6343 37.1612 19.5656 33.732 23.6166C33.6809 23.6746 33.6419 23.7422 33.6173 23.8154C33.5927 23.8886 33.583 23.966 33.5886 24.0431C33.5943 24.1201 33.6153 24.1952 33.6504 24.2641C33.6855 24.3329 33.7339 24.394 33.7929 24.4439C33.8519 24.4937 33.9202 24.5312 33.9939 24.5543C34.0676 24.5775 34.1451 24.5857 34.222 24.5786C34.2988 24.5714 34.3735 24.5491 34.4417 24.5128C34.5098 24.4765 34.5701 24.427 34.6189 24.3672ZM25.084 9.51315C21.7293 10.2321 18.1588 11.6373 14.7301 13.6169C6.24461 18.5159 0.709483 25.739 1.47853 30.9772C1.48809 31.0539 1.5129 31.1281 1.55149 31.1951C1.59008 31.2622 1.64168 31.3209 1.70326 31.3677C1.76484 31.4146 1.83516 31.4487 1.9101 31.468C1.98503 31.4873 2.06306 31.4915 2.13962 31.4802C2.21618 31.4689 2.28972 31.4425 2.35592 31.4024C2.42212 31.3624 2.47965 31.3095 2.52514 31.2469C2.57063 31.1843 2.60315 31.1132 2.62081 31.0379C2.63846 30.9626 2.64088 30.8845 2.62794 30.8082C1.94567 26.1578 7.19211 19.3104 15.3107 14.6234C18.637 12.7028 22.0946 11.3425 25.3276 10.6491C25.4737 10.6124 25.5998 10.5204 25.6794 10.3925C25.759 10.2646 25.7859 10.1108 25.7543 9.96352C25.7227 9.81623 25.6352 9.68695 25.5101 9.60294C25.3851 9.51892 25.2323 9.48673 25.084 9.51315Z" fill="#2DD0ED"/>
<path d="M11.3375 34.6084C13.2782 40.0245 16.4512 43.3598 20.02 43.3598C22.6223 43.3598 25.0301 41.5859 26.9079 38.4625C26.95 38.3971 26.9786 38.3238 26.9919 38.2472C27.0052 38.1705 27.003 38.092 26.9854 38.0162C26.9634 37.9212 26.9178 37.8334 26.8529 37.7606C26.788 37.6879 26.7059 37.6327 26.6141 37.6C26.5222 37.5674 26.4236 37.5584 26.3274 37.5739C26.2312 37.5893 26.1404 37.6288 26.0634 37.6886C26.0019 37.7363 25.9507 37.7957 25.9126 37.8636C24.2249 40.6707 22.1519 42.1982 20.02 42.1982C17.0561 42.1982 14.2252 39.2232 12.4319 34.2164C12.4073 34.1431 12.3684 34.0754 12.3173 34.0173C12.2663 33.9591 12.2041 33.9118 12.1346 33.8779C12.065 33.8442 11.9894 33.8247 11.9122 33.8204C11.835 33.8164 11.7577 33.8277 11.6849 33.8539C11.6121 33.88 11.5453 33.9204 11.4883 33.9726C11.4313 34.0249 11.3853 34.088 11.353 34.1582C11.3207 34.2285 11.3027 34.3045 11.3001 34.3818C11.2975 34.4591 11.3105 34.5361 11.3381 34.6084H11.3375ZM29.0571 33.5485C30.0613 30.3401 30.6002 26.6378 30.6002 22.7798C30.6002 13.1542 27.2316 4.85607 22.4327 2.72522C22.2925 2.66622 22.1347 2.66457 21.9932 2.72064C21.8518 2.7767 21.738 2.88599 21.6762 3.02505C21.6145 3.16411 21.6097 3.32183 21.663 3.46435C21.7163 3.60687 21.8233 3.72282 21.9611 3.78728C26.2412 5.68798 29.4386 13.5629 29.4386 22.7798C29.4386 26.5221 28.9159 30.1076 27.9484 33.2016C27.9233 33.275 27.9132 33.3526 27.9187 33.4299C27.9242 33.5072 27.9451 33.5827 27.9803 33.6518C28.0331 33.7559 28.1161 33.8416 28.2185 33.8979C28.3208 33.9541 28.4377 33.9783 28.5539 33.9671C28.6701 33.956 28.7803 33.9101 28.8701 33.8354C28.9598 33.7607 29.025 33.6607 29.0571 33.5485ZM39.9999 32.9796C40.0023 32.613 39.9321 32.2494 39.7934 31.91C39.6547 31.5705 39.4502 31.2619 39.1917 31.0018C38.9333 30.7417 38.6259 30.5352 38.2874 30.3944C37.9488 30.2535 37.5857 30.181 37.2191 30.181C36.8524 30.181 36.4893 30.2535 36.1507 30.3944C35.8122 30.5353 35.5049 30.7417 35.2464 31.0019C34.9879 31.262 34.7835 31.5706 34.6448 31.9101C34.5061 32.2495 34.4359 32.6131 34.4383 32.9797C34.443 33.7142 34.7381 34.4169 35.2591 34.9346C35.7801 35.4523 36.4847 35.7428 37.2192 35.7428C37.9536 35.7428 38.6582 35.4522 39.1792 34.9345C39.7002 34.4168 39.9953 33.7141 39.9999 32.9796ZM38.8378 32.9796C38.8377 33.4089 38.6671 33.8206 38.3636 34.1241C38.06 34.4277 37.6483 34.5983 37.2191 34.5984C36.8989 34.5983 36.586 34.5034 36.3198 34.3255C36.0537 34.1477 35.8462 33.8949 35.7238 33.5991C35.6013 33.3034 35.5692 32.9779 35.6317 32.6639C35.6941 32.35 35.8483 32.0616 36.0746 31.8352C36.301 31.6089 36.5894 31.4547 36.9034 31.3922C37.2173 31.3298 37.5428 31.3618 37.8385 31.4843C38.1343 31.6068 38.3871 31.8143 38.5649 32.0804C38.7428 32.3466 38.8377 32.6595 38.8378 32.9796ZM2.78089 35.7605C3.14609 35.7606 3.50773 35.6887 3.84514 35.5489C4.18255 35.4092 4.48913 35.2044 4.74737 34.9461C5.00561 34.6879 5.21045 34.3813 5.35018 34.0439C5.48992 33.7065 5.56182 33.3448 5.56177 32.9796C5.5618 32.6144 5.48989 32.2528 5.35014 31.9154C5.21039 31.578 5.00554 31.2714 4.7473 31.0131C4.48905 30.7549 4.18246 30.5501 3.84504 30.4103C3.50762 30.2706 3.14598 30.1987 2.78077 30.1987C2.41558 30.1987 2.05397 30.2707 1.71657 30.4104C1.37918 30.5501 1.07262 30.755 0.814396 31.0132C0.556173 31.2715 0.351346 31.578 0.211611 31.9154C0.0718757 32.2528 -2.99037e-05 32.6144 9.32972e-09 32.9796C-2.99054e-05 33.3448 0.0718794 33.7065 0.211621 34.0439C0.351364 34.3813 0.556201 34.6879 0.814436 34.9461C1.07267 35.2043 1.37925 35.4092 1.71665 35.5489C2.05406 35.6886 2.41569 35.7606 2.78089 35.7605ZM2.78089 34.5984C2.35148 34.5984 1.93967 34.4278 1.63604 34.1241C1.3324 33.8205 1.16182 33.4087 1.16182 32.9793C1.16182 32.5499 1.3324 32.1381 1.63604 31.8344C1.93967 31.5308 2.35148 31.3602 2.78089 31.3602C3.21029 31.3602 3.6221 31.5308 3.92574 31.8344C4.22937 32.1381 4.39995 32.5499 4.39995 32.9793C4.39995 33.4087 4.22937 33.8205 3.92574 34.1241C3.6221 34.4278 3.21029 34.5984 2.78089 34.5984Z" fill="#2DD0ED"/>
<path d="M20.02 5.56177C20.5701 5.56181 21.1077 5.39873 21.5651 5.09314C22.0224 4.78755 22.3788 4.35318 22.5892 3.845C22.7641 3.42249 22.8321 2.96338 22.7873 2.50831C22.7424 2.05324 22.586 1.61625 22.332 1.23605C22.0779 0.855836 21.734 0.544133 21.3308 0.328534C20.9275 0.112936 20.4773 9.38956e-05 20.02 4.01467e-08C19.47 -9.34052e-05 18.9323 0.162943 18.4749 0.468486C18.0176 0.774029 17.6611 1.20835 17.4506 1.71652C17.2401 2.22468 17.185 2.78386 17.2924 3.32332C17.3997 3.86278 17.6646 4.35829 18.0536 4.74717C18.3119 5.0054 18.6184 5.21024 18.9558 5.34999C19.2932 5.48974 19.6548 5.56166 20.02 5.56165V5.56177ZM20.02 4.39949C19.6999 4.39945 19.387 4.3045 19.1208 4.12665C18.8546 3.9488 18.6471 3.69603 18.5245 3.40029C18.4431 3.20391 18.4012 2.99341 18.4012 2.78083C18.4012 2.56824 18.4431 2.35774 18.5245 2.16136C18.6058 1.96497 18.7251 1.78652 18.8754 1.63621C19.0257 1.48591 19.2041 1.3667 19.4005 1.28539C19.6217 1.19378 19.8604 1.15237 20.0995 1.16412C20.3386 1.17587 20.5721 1.24049 20.7832 1.35334C20.9943 1.46619 21.1778 1.62445 21.3204 1.81672C21.463 2.009 21.5612 2.2305 21.6079 2.46528C21.6546 2.70007 21.6486 2.94228 21.5905 3.17449C21.5323 3.4067 21.4234 3.62312 21.2715 3.80816C21.1196 3.9932 20.9286 4.14227 20.7122 4.24462C20.4958 4.34697 20.2594 4.40005 20.02 4.40006V4.39949ZM20.4448 24.747C19.9231 24.8596 19.3781 24.7604 18.9295 24.4713C18.5949 24.2556 18.3318 23.9456 18.1734 23.5804C18.0151 23.2152 17.9686 22.8113 18.0398 22.4196C18.1111 22.028 18.2969 21.6663 18.5737 21.3803C18.8506 21.0943 19.206 20.8968 19.5951 20.8128C20.1133 20.7093 20.6513 20.8137 21.0931 21.1034C21.535 21.393 21.8452 21.8449 21.9568 22.3613C22.0683 22.8777 21.9722 23.4173 21.6893 23.8635C21.4064 24.3098 20.9595 24.6269 20.4448 24.7464V24.747Z" fill="#2DD0ED"/>
</g>
<defs>
<clipPath id="clip0_14_511">
<rect width="40" height="43.3598" fill="white"/>
</clipPath>
</defs>
</svg>
