<svg width="1161" height="600" viewBox="0 0 1161 600" fill="none" xmlns="http://www.w3.org/2000/svg">
<g clip-path="url(#clip0_120_249)">
<path d="M510.973 131.171H68.7679C66.5606 127.016 65.3348 122.411 65.1846 117.708C65.0344 113.006 65.9639 108.332 67.9015 104.045C69.8391 99.7575 72.7335 95.9714 76.3623 92.977C79.9911 89.9826 84.2578 87.8596 88.8349 86.771C103.271 83.346 119.589 90.371 132.749 83.532C142.96 78.216 147.678 66.22 149.849 54.926C152.02 43.632 152.636 31.701 158.121 21.586C167.339 4.60605 189.221 -2.97995 208.121 1.06705C227.021 5.11405 242.713 18.88 253.045 35.207C257.294 41.92 261.155 49.507 268.16 53.254C276.246 57.576 286.312 55.516 294.617 51.646C302.922 47.776 310.458 42.211 319.159 39.335C336.713 33.526 357.701 40.619 368.138 55.887C375.603 66.801 378.729 81.827 390.451 87.943C395.282 90.463 400.88 90.988 406.317 91.117C428.017 91.642 450.317 86.585 471.081 92.903C489.379 98.47 504.478 113.253 510.973 131.171Z" fill="#F3F5FD"/>
<path d="M1129.44 247.32H779.352C781.333 234.02 788.607 221.693 799.723 215.675C813.471 208.229 830.18 210.427 845.692 212.348C861.204 214.269 878.324 215.348 891.055 206.285C897.462 201.725 901.992 195.079 907.18 189.165C922.005 172.248 945.38 160.675 967.069 166.648C977.984 169.654 987.298 176.681 997.645 181.271C1008.52 186.071 1020.4 188.131 1032.26 187.271C1044.48 186.366 1056.64 182.371 1068.77 184.161C1084.14 186.449 1096.73 197.73 1105.84 210.319C1114.48 222.246 1120.64 233.811 1129.44 247.32Z" fill="#F3F5FD"/>
<path d="M38.1289 599.933H1160.88C1148.58 568.56 1125.86 541.945 1093.83 534.049C1046.98 522.515 997.399 554.232 950.653 542.306C924.095 535.538 903.187 515.814 881.216 499.436C798.33 437.636 684.744 419.374 586.665 452.083C535.397 469.172 488.683 499.057 436.165 511.762C368.255 528.198 297.236 514.568 227.397 512.322C159.382 510.137 61.9289 537.85 38.1289 599.933Z" fill="#F3F5FD"/>
<path d="M116.439 188.507C116.439 188.507 124.172 184.407 122.445 163.35L138.422 160.388C138.422 160.388 136.627 179.267 144.709 185.26L116.439 188.507Z" fill="#E98862"/>
<g opacity="0.15">
<path d="M141.436 181.313L128.163 171.16L138.587 171.052C138.889 174.62 139.855 178.1 141.436 181.313Z" fill="black"/>
</g>
<path d="M113.381 155.185C114.487 161.574 117.973 167.624 123.608 169.685C130.298 172.135 135.253 172.301 142.966 172.301C153.491 172.301 153.143 161.324 153.438 150.262C153.738 139.157 152.852 127.244 148.692 123.374C140.392 115.65 116.019 120.541 113.055 133.461C111.522 140.145 112.328 149.1 113.381 155.185Z" fill="#E98862"/>
<path d="M160.735 118.776C160.735 113.494 154.161 104.839 136.623 116.776L136.606 116.788C132.05 116.66 127.498 117.158 123.077 118.267C115.057 120.667 105 127.39 107.577 143.692C110.457 161.887 117.91 166.743 121.666 168.975C122.623 169.543 122.855 169.075 123.187 168.018C124.229 164.09 124.974 160.089 125.416 156.049C126.072 152.117 126.37 148.134 126.305 144.149C126.305 142.383 126.314 135.949 135.077 135.875C140.006 135.835 138.163 136.031 143.423 136.031C144.173 136.031 144.835 135.997 145.445 135.943H145.452C163.615 135.942 160.735 124.059 160.735 118.776Z" fill="#0F1011"/>
<path d="M138.399 150.265C139.199 150.265 139.848 149.616 139.848 148.816C139.848 148.016 139.199 147.367 138.399 147.367C137.599 147.367 136.95 148.016 136.95 148.816C136.95 149.616 137.599 150.265 138.399 150.265Z" fill="#0F1011"/>
<path d="M149.831 149.327C150.631 149.327 151.28 148.678 151.28 147.878C151.28 147.078 150.631 146.429 149.831 146.429C149.031 146.429 148.382 147.078 148.382 147.878C148.382 148.678 149.031 149.327 149.831 149.327Z" fill="#0F1011"/>
<path d="M152.341 144.79H152.332L148.493 144.742C148.317 144.734 148.151 144.658 148.029 144.531C147.908 144.403 147.841 144.233 147.842 144.057C147.843 143.881 147.913 143.712 148.036 143.586C148.159 143.46 148.326 143.386 148.502 143.381H148.511L152.35 143.429C152.526 143.437 152.692 143.512 152.813 143.64C152.935 143.768 153.002 143.938 153.001 144.114C152.999 144.29 152.93 144.459 152.807 144.585C152.684 144.711 152.517 144.784 152.341 144.79Z" fill="#0F1011"/>
<path d="M135.271 146.191C135.104 146.192 134.942 146.131 134.817 146.02C134.692 145.909 134.612 145.756 134.592 145.589C134.573 145.423 134.615 145.256 134.711 145.119C134.807 144.982 134.95 144.885 135.113 144.847L138.898 143.936C138.986 143.913 139.077 143.907 139.167 143.92C139.257 143.933 139.343 143.963 139.421 144.01C139.499 144.056 139.567 144.118 139.62 144.191C139.674 144.264 139.713 144.347 139.734 144.435C139.755 144.524 139.759 144.615 139.744 144.705C139.729 144.794 139.697 144.88 139.648 144.957C139.6 145.033 139.537 145.1 139.463 145.152C139.388 145.204 139.305 145.241 139.216 145.26L135.431 146.171C135.379 146.184 135.325 146.191 135.271 146.191Z" fill="#0F1011"/>
<path d="M130.861 152.361C130.939 153.171 130.855 153.989 130.614 154.767C130.373 155.544 129.979 156.266 129.457 156.89C128.935 157.515 128.293 158.029 127.57 158.403C126.848 158.777 126.057 159.004 125.246 159.07C124.435 159.137 123.618 159.041 122.844 158.789C122.07 158.537 121.354 158.134 120.737 157.602C120.12 157.071 119.615 156.423 119.251 155.695C118.887 154.966 118.672 154.173 118.617 153.361C118.537 152.554 118.621 151.74 118.862 150.966C119.103 150.193 119.498 149.475 120.022 148.857C120.547 148.239 121.19 147.733 121.914 147.369C122.638 147.005 123.428 146.79 124.237 146.737C128.615 146.6 130.584 148.98 130.861 152.361Z" fill="#E98862"/>
<g opacity="0.15">
<path d="M144.831 156.853C144.711 156.853 144.596 156.81 144.505 156.732C144.414 156.653 144.355 156.545 144.337 156.427C144.319 156.308 144.345 156.188 144.409 156.086C144.472 155.985 144.57 155.91 144.685 155.875L147.631 154.97L145.57 150.379C145.517 150.258 145.515 150.122 145.562 149.999C145.61 149.877 145.703 149.778 145.823 149.724C145.943 149.67 146.08 149.665 146.203 149.711C146.326 149.757 146.426 149.85 146.482 149.969L148.776 155.076C148.805 155.141 148.82 155.211 148.82 155.282C148.82 155.353 148.805 155.423 148.776 155.488C148.747 155.552 148.704 155.61 148.65 155.657C148.597 155.703 148.535 155.738 148.467 155.759L144.979 156.831C144.931 156.846 144.881 156.853 144.831 156.853Z" fill="black"/>
</g>
<path d="M223.287 589.113L202.434 586.634C203.372 578.741 204.434 569.26 204.506 567.706C204.506 567.806 204.506 567.887 204.506 567.95H225.506C225.5 568.58 225.5 570.5 223.287 589.113Z" fill="#E98862"/>
<path d="M129.612 591.624L108.612 591.555C108.612 591.555 108.682 569.871 108.682 567.955H129.682C129.682 569.877 129.612 591.624 129.612 591.624Z" fill="#E98862"/>
<path d="M194.532 586.419L230.541 577.919C207.226 486.391 187.662 392.967 168.713 300.45L168.446 300.529L167.664 295.199L91.5879 290.5C91.5879 290.5 88.6259 327.757 88.6279 340.2C88.6349 401.205 98.3369 502.63 103.157 583.789L140.109 581.896C137.935 503.196 132.062 424.382 132.484 345.661C154.611 425.305 176.678 505.8 194.532 586.419Z" fill="#262626"/>
<path d="M155.14 599.746C155.705 599.743 156.263 599.624 156.78 599.396C157.296 599.168 157.76 598.836 158.143 598.421C158.525 598.005 158.818 597.516 159.003 596.982C159.187 596.448 159.26 595.882 159.216 595.319C159.155 594.538 158.873 593.792 158.402 593.166C157.931 592.541 157.291 592.064 156.557 591.79L132.115 583.6C131.642 583.443 131.14 583.391 130.644 583.446C130.148 583.501 129.671 583.662 129.243 583.919C125.883 586.251 121.863 587.442 117.775 587.319C114.591 587.093 111.534 585.977 108.954 584.097C108.727 583.911 108.452 583.794 108.161 583.758C107.87 583.723 107.575 583.771 107.31 583.897C107.046 584.022 106.822 584.221 106.666 584.469C106.509 584.717 106.426 585.004 106.427 585.297V597.249C106.427 597.602 106.497 597.951 106.632 598.276C106.767 598.602 106.965 598.898 107.215 599.147C107.465 599.395 107.762 599.592 108.088 599.726C108.414 599.86 108.763 599.928 109.116 599.927L155.14 599.746Z" fill="#C1D8ED"/>
<path d="M248.873 599.746C249.438 599.743 249.996 599.624 250.513 599.396C251.029 599.168 251.493 598.836 251.876 598.421C252.259 598.005 252.552 597.516 252.736 596.982C252.921 596.448 252.994 595.882 252.95 595.319C252.889 594.539 252.606 593.792 252.135 593.167C251.664 592.541 251.024 592.064 250.291 591.79L225.848 583.6C225.374 583.443 224.873 583.391 224.377 583.446C223.881 583.501 223.403 583.662 222.976 583.919C219.616 586.251 215.596 587.443 211.508 587.319C208.324 587.093 205.268 585.976 202.688 584.097C202.461 583.911 202.186 583.793 201.895 583.758C201.604 583.722 201.309 583.77 201.044 583.896C200.779 584.021 200.555 584.22 200.398 584.468C200.242 584.716 200.159 585.004 200.16 585.297V597.249C200.16 597.602 200.23 597.951 200.365 598.276C200.5 598.602 200.698 598.898 200.948 599.146C201.198 599.395 201.495 599.592 201.821 599.726C202.147 599.86 202.496 599.928 202.849 599.927L248.873 599.746Z" fill="#C1D8ED"/>
<path d="M222.026 198.38C222.026 198.38 223.626 186.48 232.072 188.132C237.401 189.177 263.092 191.096 263.189 193.471C263.43 199.346 239.889 197.909 237.118 203.016L222.026 198.38Z" fill="#E98862"/>
<path d="M229.008 188.147C229.008 188.147 241.34 185.724 244.171 186.771C246.677 187.698 240.787 191.245 240.787 191.245L229.008 188.147Z" fill="#E98862"/>
<path d="M41.1649 198.38C41.1649 198.38 39.5649 186.48 31.1189 188.132C25.7899 189.177 0.0998844 191.1 -0.000115619 193.471C-0.241116 199.346 23.2999 197.909 26.0709 203.016L41.1649 198.38Z" fill="#E98862"/>
<path d="M34.183 188.147C34.183 188.147 21.851 185.724 19.02 186.771C16.514 187.698 22.404 191.245 22.404 191.245L34.183 188.147Z" fill="#E98862"/>
<path d="M148.947 163.654C148.947 163.654 143.663 162.654 139.819 163.654C139.819 163.654 140.137 160.145 144.383 160.145C148.629 160.145 148.947 163.654 148.947 163.654Z" fill="white"/>
<path d="M221.988 191.378L192.928 235.068L170.128 192.289L169.903 192.408C166.803 187.008 161.203 183.528 151.573 183.113C150.943 183.083 149.933 183.063 148.633 183.043C148.373 188.543 114.313 188.523 113.593 182.913C103.973 182.923 96.0829 185.873 91.5129 190.443C89.6674 192.266 88.1892 194.426 87.1589 196.807L64.3589 236.063L39.3739 190.273L20.2339 200.718L54.4999 263.5C55.4259 265.197 56.7869 266.618 58.4432 267.616C60.0994 268.614 61.9914 269.153 63.9249 269.179H64.0699C65.9789 269.179 67.8545 268.678 69.5089 267.725C71.1633 266.772 72.5385 265.402 73.4969 263.751L91.1529 233.351C93.2439 240.47 95.0979 247.532 95.0979 254.034C95.0979 275.044 85.5979 284.454 86.2979 295.234C87.3979 312.174 169.728 308.174 173.918 298.544C178.238 288.624 169.468 282.504 169.858 250.044C169.898 246.611 170.158 243.024 170.515 239.372L182.273 261.438C183.16 263.103 184.464 264.509 186.058 265.519C187.651 266.529 189.479 267.108 191.364 267.2C191.542 267.209 191.719 267.213 191.895 267.213C193.691 267.213 195.46 266.769 197.044 265.92C198.627 265.071 199.976 263.844 200.971 262.348L240.143 203.454L221.988 191.378Z" fill="#367CFF"/>
<path d="M148.637 183.043C148.377 188.543 145.387 196.633 136.157 197.243C123.857 198.053 114.317 188.523 113.597 182.913H113.627C125.737 182.913 141.577 182.933 148.637 183.043Z" fill="#E98862"/>
<path d="M1043.85 593.583C1063.66 587.445 1082.87 579.424 1100.38 556.975C1103.97 552.375 1107.35 546.481 1105.38 540.975C1103.9 536.831 1099.61 534.175 1095.26 533.499C1093.64 533.263 1091.99 533.218 1090.36 533.364C1090.35 533.364 1090.34 533.37 1090.34 533.364C1087.83 533.622 1085.35 534.109 1082.93 534.819L1082.23 535.019C1070.68 538.304 1059.67 543.275 1049.56 549.774C1048.65 550.357 1047.56 550.614 1046.48 550.502C1045.4 550.39 1044.39 549.916 1043.62 549.157C1042.84 548.398 1042.34 547.398 1042.21 546.321C1042.07 545.244 1042.3 544.153 1042.86 543.224C1043.9 541.54 1045.1 539.965 1046.44 538.524C1048.44 536.442 1050.62 534.551 1052.96 532.875C1056.07 530.604 1059.4 528.575 1062.65 526.502C1074.73 518.805 1086.18 510.152 1096.89 500.626C1104.53 493.82 1112 486.267 1115.63 476.699C1117.3 472.299 1118.06 467.226 1116.07 462.961C1112.78 455.961 1103.48 453.999 1095.87 455.452C1082.54 458.005 1071.89 467.776 1062.45 477.516C1054.62 485.609 1045.85 494.569 1034.59 495.067C1032.68 495.246 1030.75 494.859 1029.05 493.954C1025.84 492.01 1025.01 487.506 1026.16 483.93C1027.3 480.354 1029.95 477.497 1032.5 474.753C1047.35 458.82 1061.97 442.246 1071.61 422.724C1081.26 403.202 1085.53 380.153 1078.83 359.424C1076.86 353.364 1073.91 347.468 1069.31 343.066C1064.7 338.664 1058.24 335.903 1051.92 336.746C1043.31 337.88 1036.82 345.146 1032.46 352.654C1017.46 378.408 1018.37 409.963 1014.15 439.463C1012.96 447.722 1011.25 456.192 1006.33 462.99C1005.87 463.644 1005.29 464.193 1004.6 464.6C1000.55 466.944 996.921 462.217 995.402 458.206C989.402 442.337 987.902 424.189 977.159 411.055C973.059 406.055 967.259 401.877 960.794 401.918C952.9 401.972 946.139 408.566 943.836 416.118C941.533 423.67 942.91 431.874 945.378 439.373C949.96 453.279 958.178 465.773 967.85 476.752C972.95 482.552 978.721 488.408 980.25 495.971C980.719 498.542 980.522 501.19 979.68 503.663C978.838 506.137 977.377 508.354 975.437 510.105C974.53 510.895 973.473 511.494 972.33 511.868C971.187 512.241 969.98 512.382 968.782 512.281C966.191 512.043 963.846 510.721 961.582 509.437C960.634 508.897 959.682 508.348 958.725 507.811C954.952 505.663 951.179 503.512 947.404 501.359C937.804 495.885 926.223 490.292 916.228 495.006C911.128 497.416 907.787 502.154 906.215 507.592C904.808 512.527 904.808 517.757 906.215 522.692C909.193 532.955 927.956 561.514 935.696 568.879C944.738 577.478 976.083 614.586 1043.85 593.583Z" fill="#8DDBE0"/>
<path d="M384.743 156.529C384.43 157.158 384.108 157.785 383.788 158.413C382.918 160.117 382.021 161.814 381.096 163.505C380.796 164.052 380.504 164.605 380.196 165.149C378.98 167.323 377.72 169.486 376.416 171.637C376.268 171.879 376.116 172.12 375.966 172.362C374.596 174.593 373.188 176.813 371.719 179.017L322.989 252.747H365.515L414.245 179.017C415.712 176.817 417.119 174.595 418.488 172.366C418.638 172.122 418.794 171.879 418.942 171.634C419.042 171.477 419.142 171.322 419.233 171.165C420.44 169.171 421.595 167.165 422.722 165.147C423.022 164.603 423.317 164.054 423.616 163.508C424.542 161.816 425.442 160.116 426.316 158.408C426.635 157.783 426.955 157.158 427.267 156.531C428.361 154.331 429.426 152.117 430.428 149.89H387.9C386.9 152.117 385.836 154.327 384.743 156.529Z" fill="#9EBCEA"/>
<path d="M484.441 85.447H441.916V252.747H473.907V296.45H441.916V351.608H484.441V296.45H516.433V252.747H484.441V85.447Z" fill="#9EBCEA"/>
<path d="M598.186 309.781C598.527 309.809 598.873 309.829 599.219 309.847C599.455 309.859 599.685 309.884 599.919 309.891C600.3 309.903 600.685 309.909 601.072 309.909H643.6C642.971 309.909 642.358 309.878 641.746 309.847C641.398 309.829 641.052 309.809 640.71 309.781C640.276 309.746 639.848 309.698 639.423 309.646C639.093 309.606 638.761 309.566 638.437 309.516C637.969 309.444 637.509 309.357 637.052 309.265C636.811 309.216 636.567 309.173 636.329 309.119C635.736 308.983 635.155 308.826 634.582 308.655C634.482 308.626 634.382 308.605 634.287 308.574C633.606 308.363 632.939 308.126 632.287 307.863C632.099 307.788 631.919 307.698 631.733 307.618C631.283 307.426 630.833 307.229 630.4 307.013C629.676 306.653 628.967 306.265 628.28 305.838C628.216 305.798 628.156 305.751 628.093 305.711C627.472 305.317 626.866 304.895 626.275 304.446C625.955 304.202 625.645 303.941 625.334 303.681C625.095 303.481 624.851 303.29 624.617 303.081C624.29 302.788 623.975 302.473 623.657 302.162C623.446 301.954 623.228 301.756 623.021 301.54C622.675 301.178 622.343 300.791 622.009 300.406C621.844 300.215 621.672 300.037 621.509 299.841C621.02 299.247 620.545 298.63 620.084 297.984C619.624 297.339 619.184 296.665 618.747 295.968C618.603 295.734 618.468 295.483 618.327 295.244C618.046 294.767 617.764 294.291 617.494 293.791C617.335 293.491 617.184 293.177 617.029 292.871C616.793 292.405 616.555 291.943 616.329 291.458C616.169 291.116 616.019 290.758 615.864 290.405C615.618 289.845 615.364 289.291 615.135 288.705C614.822 287.919 614.52 287.093 614.224 286.249C614.157 286.054 614.091 285.857 614.024 285.66C613.736 284.815 613.454 283.948 613.183 283.047C613.15 282.938 613.119 282.823 613.083 282.713C612.836 281.883 612.598 281.027 612.366 280.151C612.31 279.938 612.253 279.727 612.198 279.512C611.95 278.547 611.71 277.556 611.478 276.539C611.435 276.351 611.394 276.157 611.352 275.968C611.152 275.05 610.955 274.11 610.762 273.147C610.72 272.94 610.678 272.737 610.637 272.528C610.504 271.828 610.379 271.103 610.251 270.384C610.151 269.805 610.041 269.237 609.943 268.643C609.823 267.92 609.713 267.166 609.6 266.42C609.508 265.82 609.412 265.232 609.326 264.62C609.214 263.833 609.113 263.015 609.008 262.205C608.93 261.598 608.847 261.005 608.773 260.385C608.673 259.528 608.578 258.636 608.483 257.754C608.417 257.145 608.347 256.554 608.283 255.932C608.183 254.955 608.099 253.942 608.01 252.932C607.96 252.375 607.91 251.832 607.86 251.27C607.76 250.086 607.677 248.864 607.592 247.641C607.562 247.219 607.528 246.814 607.5 246.388C607.391 244.726 607.293 243.029 607.206 241.297C607.189 240.952 607.176 240.588 607.16 240.24C607.093 238.84 607.029 237.431 606.976 235.985C606.976 235.823 606.967 235.655 606.961 235.492C606.908 234.004 606.863 232.49 606.826 230.951C606.814 230.422 606.803 229.887 606.791 229.351C606.765 228.097 606.743 226.827 606.726 225.542C606.719 225.007 606.712 224.476 606.706 223.936C606.688 222.157 606.676 220.357 606.676 218.519C606.676 216.605 606.688 214.729 606.707 212.878C606.714 212.278 606.725 211.69 606.734 211.094C606.752 209.856 606.771 208.624 606.797 207.414C606.812 206.728 606.831 206.055 606.849 205.379C606.878 204.279 606.91 203.186 606.949 202.111C606.973 201.425 606.998 200.747 607.024 200.072C607.066 199.024 607.111 197.988 607.16 196.965C607.191 196.311 607.221 195.657 607.255 195.013C607.311 193.96 607.373 192.928 607.437 191.902C607.473 191.328 607.506 190.747 607.544 190.181C607.627 188.948 607.719 187.742 607.814 186.548C607.84 186.22 607.863 185.881 607.89 185.557C608.017 184.039 608.153 182.553 608.3 181.1C608.32 180.9 608.343 180.706 608.363 180.507C608.485 179.321 608.615 178.16 608.751 177.017C608.79 176.688 608.829 176.359 608.869 176.033C609.028 174.747 609.193 173.482 609.369 172.251C609.39 172.108 609.412 171.971 609.433 171.828C609.594 170.723 609.763 169.641 609.939 168.583C609.989 168.283 610.039 167.983 610.089 167.683C610.289 166.522 610.489 165.383 610.709 164.274C610.726 164.188 610.744 164.107 610.761 164.022C610.961 162.992 611.178 161.991 611.397 161.009C611.457 160.739 611.518 160.469 611.579 160.203C611.745 159.482 611.919 158.786 612.093 158.092C612.199 157.671 612.304 157.242 612.413 156.83C612.598 156.13 612.791 155.462 612.985 154.794C613.085 154.458 613.176 154.11 613.276 153.782C613.552 152.87 613.838 151.986 614.133 151.131C614.156 151.065 614.177 150.994 614.199 150.931C614.532 149.972 614.877 149.048 615.232 148.16C615.55 147.36 615.884 146.594 616.226 145.841C616.326 145.625 616.426 145.414 616.526 145.202C616.796 144.629 617.073 144.069 617.358 143.522C617.452 143.343 617.543 143.159 617.637 142.983C618.007 142.295 618.387 141.626 618.78 140.983C618.88 140.821 618.98 140.671 619.08 140.512C619.396 140.012 619.716 139.52 620.046 139.047C620.197 138.83 620.346 138.622 620.505 138.411C620.8 138.007 621.1 137.613 621.405 137.23C621.571 137.023 621.736 136.818 621.905 136.617C622.229 136.232 622.561 135.861 622.897 135.498C623.049 135.333 623.197 135.162 623.354 134.998C624.317 134 625.353 133.075 626.454 132.231C626.626 132.099 626.803 131.978 626.978 131.852C627.357 131.576 627.741 131.308 628.133 131.052C628.339 130.919 628.547 130.791 628.756 130.664C629.139 130.432 629.529 130.21 629.924 129.999C630.131 129.888 630.337 129.775 630.547 129.67C631.005 129.44 631.473 129.228 631.947 129.026C632.097 128.962 632.247 128.89 632.394 128.826C633.019 128.573 633.657 128.343 634.307 128.136C634.465 128.086 634.628 128.047 634.787 127.999C635.287 127.85 635.793 127.711 636.308 127.59C636.544 127.534 636.784 127.49 637.023 127.436C637.48 127.341 637.943 127.254 638.411 127.18C638.664 127.14 638.919 127.101 639.175 127.066C639.667 127.001 640.166 126.95 640.669 126.907C640.9 126.887 641.128 126.862 641.361 126.847C642.097 126.8 642.842 126.771 643.602 126.771H601.076C600.316 126.771 599.576 126.8 598.835 126.847C598.601 126.862 598.374 126.887 598.143 126.907C597.643 126.95 597.143 127.001 596.649 127.066C596.392 127.101 596.138 127.14 595.885 127.18C595.417 127.254 594.954 127.341 594.497 127.436C594.258 127.486 594.018 127.536 593.782 127.59C593.267 127.711 592.761 127.85 592.261 127.999C592.102 128.046 591.939 128.086 591.78 128.136C591.131 128.343 590.494 128.573 589.869 128.826C589.716 128.888 589.569 128.96 589.418 129.026C588.947 129.226 588.481 129.439 588.024 129.668C587.813 129.774 587.607 129.887 587.399 129.999C587.004 130.21 586.615 130.432 586.23 130.664C586.023 130.79 585.815 130.918 585.61 131.051C585.218 131.304 584.834 131.572 584.454 131.851C584.28 131.978 584.101 132.1 583.93 132.231C583.39 132.643 582.861 133.073 582.347 133.531L582.338 133.538C581.822 133.999 581.321 134.489 580.829 134.997C580.673 135.159 580.522 135.33 580.369 135.497C580.035 135.859 579.705 136.228 579.382 136.612C579.213 136.812 579.046 137.022 578.882 137.23C578.578 137.611 578.278 138.003 577.982 138.406C577.829 138.618 577.672 138.827 577.522 139.045C577.192 139.517 576.873 140.006 576.558 140.506C576.458 140.666 576.353 140.818 576.258 140.981C576.235 141.018 576.212 141.051 576.189 141.088C575.82 141.698 575.464 142.332 575.116 142.981C575.021 143.158 574.93 143.342 574.836 143.522C574.552 144.068 574.275 144.627 574.006 145.2C573.906 145.412 573.806 145.623 573.706 145.839C573.364 146.592 573.03 147.36 572.706 148.158C572.672 148.243 572.639 148.329 572.606 148.416C572.287 149.225 571.977 150.063 571.676 150.931C571.656 150.985 571.639 151.045 571.62 151.1C571.322 151.967 571.033 152.861 570.752 153.782C570.652 154.109 570.56 154.456 570.463 154.79C570.269 155.46 570.075 156.134 569.889 156.833C569.781 157.241 569.677 157.666 569.572 158.085C569.456 158.546 569.335 158.991 569.222 159.465C569.166 159.707 569.112 159.965 569.055 160.208C568.994 160.471 568.934 160.737 568.875 161.003C568.654 161.992 568.44 163.003 568.235 164.038C568.219 164.116 568.202 164.191 568.187 164.27C567.97 165.379 567.765 166.524 567.565 167.69C567.515 167.983 567.465 168.28 567.417 168.576C567.241 169.639 567.072 170.723 566.91 171.83C566.889 171.973 566.867 172.11 566.846 172.253C566.67 173.485 566.504 174.753 566.346 176.041C566.306 176.361 566.269 176.686 566.23 177.01C566.097 178.151 565.968 179.312 565.843 180.495C565.821 180.701 565.798 180.9 565.777 181.107L565.753 181.333C565.615 182.712 565.487 184.12 565.368 185.558C565.341 185.882 565.318 186.222 565.292 186.549C565.192 187.743 565.105 188.949 565.022 190.182C564.984 190.746 564.95 191.325 564.915 191.896C564.851 192.928 564.789 193.965 564.733 195.023C564.699 195.66 564.669 196.307 564.633 196.953C564.584 197.982 564.539 199.023 564.497 200.076C564.47 200.75 564.445 201.429 564.422 202.112C564.385 203.187 564.354 204.279 564.322 205.38C564.304 206.056 564.285 206.73 564.27 207.415C564.244 208.625 564.224 209.857 564.207 211.095C564.198 211.695 564.187 212.277 564.18 212.879C564.161 214.73 564.149 216.606 564.149 218.52C564.149 220.358 564.161 222.158 564.178 223.937C564.184 224.477 564.192 225.009 564.199 225.543C564.216 226.828 564.237 228.097 564.264 229.352C564.275 229.887 564.286 230.422 564.299 230.952C564.337 232.489 564.382 234.003 564.434 235.494C564.44 235.656 564.443 235.824 564.449 235.986C564.449 236.023 564.449 236.061 564.449 236.097C564.501 237.509 564.564 238.883 564.629 240.252C564.646 240.596 564.658 240.952 564.675 241.298C564.762 243.031 564.86 244.728 564.969 246.389C564.998 246.836 565.034 247.261 565.069 247.703C565.153 248.903 565.236 250.103 565.332 251.266C565.382 251.873 565.441 252.452 565.493 253.048C565.578 254.013 565.662 254.986 565.755 255.923C565.82 256.57 565.893 257.187 565.962 257.823C566.055 258.68 566.144 259.546 566.244 260.379C566.32 261.017 566.405 261.626 566.485 262.25C566.585 263.042 566.685 263.844 566.796 264.615C566.884 265.237 566.981 265.832 567.073 266.441C567.186 267.179 567.295 267.927 567.414 268.641C567.514 269.241 567.62 269.807 567.723 270.39C567.826 270.973 567.923 271.597 568.039 272.176C568.061 272.294 568.086 272.407 568.108 272.525C568.149 272.736 568.192 272.94 568.233 273.148C568.423 274.108 568.62 275.046 568.823 275.963C568.865 276.153 568.906 276.348 568.949 276.537C569.18 277.557 569.42 278.549 569.669 279.512C569.724 279.726 569.781 279.936 569.837 280.147C570.069 281.024 570.307 281.881 570.553 282.711C570.586 282.821 570.617 282.936 570.653 283.045C570.924 283.945 571.206 284.813 571.494 285.659C571.562 285.859 571.63 286.051 571.694 286.246C571.994 287.09 572.294 287.916 572.606 288.703C572.68 288.89 572.755 289.076 572.831 289.259C572.993 289.653 573.168 290.023 573.337 290.407C573.491 290.756 573.637 291.114 573.799 291.454C574.026 291.941 574.265 292.405 574.499 292.873C574.654 293.173 574.799 293.491 574.962 293.787C575.233 294.287 575.518 294.771 575.802 295.252C575.94 295.487 576.073 295.734 576.214 295.963C576.642 296.653 577.083 297.32 577.536 297.963L577.556 297.992C578.015 298.636 578.49 299.251 578.977 299.843C579.141 300.043 579.314 300.221 579.477 300.414C579.808 300.797 580.14 301.182 580.485 301.543C580.691 301.758 580.907 301.955 581.118 302.163C581.436 302.475 581.753 302.791 582.08 303.084C582.314 303.293 582.557 303.484 582.796 303.684C583.053 303.899 583.304 304.126 583.567 304.33C583.622 304.372 583.682 304.406 583.737 304.448C584.329 304.898 584.936 305.32 585.557 305.714C585.619 305.754 585.679 305.801 585.742 305.841C586.43 306.268 587.142 306.656 587.863 307.016C587.912 307.04 587.957 307.071 588.007 307.095C588.394 307.285 588.795 307.45 589.193 307.62C589.38 307.7 589.561 307.791 589.751 307.867C590.393 308.124 591.051 308.36 591.715 308.567L591.748 308.576C591.848 308.607 591.948 308.629 592.048 308.658C592.621 308.829 593.202 308.985 593.794 309.121C594.032 309.175 594.276 309.221 594.516 309.266C594.847 309.334 595.173 309.411 595.516 309.466C595.644 309.487 595.778 309.497 595.906 309.517C596.231 309.567 596.562 309.607 596.893 309.647C597.325 309.7 597.752 309.746 598.186 309.781Z" fill="#9EBCEA"/>
<path d="M735.836 244.034C735.949 242.416 736.036 240.755 736.127 239.1C736.187 238.008 736.259 236.935 736.309 235.827C736.392 233.96 736.446 232.046 736.503 230.135C736.53 229.194 736.572 228.277 736.593 227.324C736.656 224.438 736.69 221.505 736.693 218.524C736.693 215.957 736.66 213.436 736.609 210.94C736.593 210.161 736.567 209.396 736.546 208.624C736.517 207.538 736.497 206.439 736.458 205.368C736.43 204.625 736.39 203.899 736.358 203.162C736.333 202.599 736.309 202.034 736.282 201.475C736.17 199.16 736.038 196.87 735.882 194.621C735.862 194.326 735.835 194.038 735.814 193.744C735.664 191.734 735.494 189.751 735.305 187.796C735.255 187.269 735.205 186.741 735.152 186.218C734.932 184.057 734.693 181.918 734.425 179.826C734.387 179.52 734.341 179.221 734.301 178.916C734.058 177.062 733.795 175.234 733.512 173.433C733.437 172.947 733.362 172.459 733.284 171.977C732.978 170.098 732.658 168.237 732.311 166.415C732.287 166.284 732.259 166.158 732.234 166.027C732.179 165.744 732.119 165.467 732.064 165.185C731.719 163.434 731.354 161.711 730.97 160.014C730.883 159.629 730.799 159.24 730.71 158.858C730.279 157.007 729.825 155.188 729.349 153.4C729.249 153.036 729.149 152.678 729.049 152.316C728.606 150.702 728.145 149.114 727.664 147.553C727.585 147.295 727.51 147.032 727.429 146.775C726.891 145.06 726.328 143.38 725.739 141.733C725.606 141.357 725.469 140.986 725.333 140.614C724.744 138.994 724.133 137.397 723.501 135.841C723.48 135.791 723.461 135.741 723.439 135.686C723.439 135.671 723.428 135.654 723.421 135.638C722.999 134.613 722.546 133.632 722.104 132.638C721.781 131.907 721.474 131.153 721.14 130.438C720.64 129.373 720.113 128.353 719.592 127.321C719.279 126.7 718.982 126.055 718.66 125.446C718.06 124.312 717.427 123.224 716.798 122.132C716.527 121.661 716.272 121.168 715.998 120.705C715.08 119.167 714.131 117.671 713.151 116.217C712.278 114.917 711.373 113.673 710.451 112.448C710.24 112.168 710.029 111.887 709.816 111.61C708.9 110.421 707.966 109.259 707.006 108.139C706.881 107.994 706.752 107.856 706.627 107.712C705.745 106.7 704.845 105.719 703.927 104.768C703.709 104.541 703.493 104.311 703.273 104.088C702.261 103.063 701.228 102.072 700.173 101.115C699.973 100.93 699.76 100.754 699.555 100.572C698.603 99.7279 697.633 98.9116 696.644 98.1229C696.444 97.9649 696.252 97.801 696.053 97.646C695.948 97.564 695.848 97.477 695.743 97.396C694.689 96.582 693.611 95.8049 692.517 95.0519C692.247 94.8659 691.968 94.6939 691.696 94.5119C690.747 93.8779 689.783 93.2659 688.805 92.6759C688.405 92.4373 688.005 92.2039 687.605 91.9759C686.659 91.4319 685.699 90.9089 684.725 90.4069C684.378 90.2279 684.036 90.0399 683.686 89.8659C683.545 89.7959 683.408 89.7179 683.266 89.6479C682.166 89.1089 681.035 88.6049 679.897 88.1169C679.641 88.0079 679.384 87.9009 679.126 87.7939C677.79 87.2399 676.438 86.7119 675.057 86.2279C674.921 86.1799 674.781 86.138 674.645 86.091C673.921 85.842 673.198 85.5909 672.462 85.3649C671.822 85.1649 671.172 84.9829 670.523 84.7979C670.346 84.7469 670.172 84.6919 669.994 84.6429C668.566 84.2429 667.111 83.8909 665.638 83.5639C665.367 83.5039 665.096 83.4439 664.824 83.3859C663.572 83.1209 662.31 82.8709 661.024 82.6559C660.818 82.6219 660.607 82.597 660.401 82.563C660.092 82.514 659.779 82.471 659.467 82.424C658.067 82.2126 656.646 82.0299 655.203 81.8759C654.997 81.8539 654.794 81.8269 654.587 81.8059C653.009 81.6489 651.403 81.5339 649.779 81.4469C649.412 81.4279 649.042 81.4109 648.672 81.3949C648.221 81.3749 647.772 81.3449 647.322 81.3309C646.096 81.2923 644.858 81.2729 643.607 81.2729H601.076C602.791 81.2729 604.476 81.3219 606.141 81.3949C606.511 81.4109 606.881 81.4279 607.248 81.4469C608.871 81.5339 610.477 81.6469 612.055 81.8059C612.263 81.8269 612.465 81.8539 612.672 81.8759C614.113 82.0286 615.535 82.2113 616.937 82.424C617.247 82.471 617.56 82.514 617.87 82.563C619.365 82.8036 620.838 83.0779 622.291 83.3859C622.564 83.4439 622.834 83.5039 623.104 83.5639C624.579 83.8909 626.035 84.2459 627.464 84.6439C627.639 84.6919 627.81 84.7439 627.985 84.7959C629.385 85.1959 630.761 85.6276 632.112 86.091C632.248 86.138 632.387 86.1799 632.524 86.2279C633.905 86.7119 635.258 87.2399 636.594 87.7949C636.851 87.9009 637.108 88.0079 637.363 88.1169C638.648 88.6669 639.912 89.2499 641.153 89.8659C641.503 90.0409 641.845 90.2279 642.193 90.4069C643.166 90.9096 644.126 91.4329 645.073 91.9769C645.473 92.2079 645.873 92.4409 646.273 92.6769C647.254 93.2669 648.22 93.8806 649.173 94.5179C649.443 94.6979 649.72 94.8689 649.988 95.0529C651.192 95.8809 652.372 96.7476 653.527 97.6529C653.727 97.8079 653.916 97.9699 654.113 98.1259C655.102 98.9153 656.073 99.7319 657.025 100.576C657.231 100.759 657.441 100.937 657.646 101.122C658.701 102.077 659.734 103.067 660.746 104.094C660.966 104.317 661.182 104.546 661.4 104.773C662.318 105.727 663.218 106.709 664.1 107.719C664.225 107.863 664.355 108 664.479 108.145C665.439 109.264 666.372 110.426 667.288 111.615C667.502 111.893 667.713 112.174 667.924 112.455C668.844 113.679 669.748 114.926 670.624 116.223C671.603 117.677 672.552 119.173 673.471 120.711C673.771 121.211 674.05 121.751 674.343 122.264C674.948 123.316 675.557 124.364 676.134 125.45C676.499 126.141 676.834 126.871 677.192 127.578C677.668 128.529 678.157 129.463 678.613 130.442C678.977 131.22 679.313 132.042 679.663 132.835C680.081 133.785 680.513 134.718 680.914 135.693C680.936 135.75 680.958 135.808 680.981 135.864C681.615 137.414 682.219 139.006 682.807 140.619C682.944 140.994 683.08 141.368 683.215 141.747C683.8 143.395 684.363 145.074 684.903 146.783C684.985 147.042 685.061 147.308 685.141 147.569C685.622 149.126 686.082 150.71 686.522 152.322C686.622 152.686 686.722 153.046 686.822 153.413C687.298 155.199 687.752 157.017 688.183 158.867C688.272 159.251 688.356 159.641 688.444 160.028C688.826 161.724 689.19 163.445 689.536 165.192C689.592 165.476 689.652 165.753 689.707 166.037C690.082 167.986 690.432 169.969 690.756 171.986C690.835 172.47 690.909 172.959 690.986 173.447C691.266 175.247 691.528 177.069 691.773 178.914C691.813 179.225 691.859 179.529 691.899 179.841C692.166 181.933 692.405 184.065 692.624 186.222C692.678 186.75 692.724 187.283 692.779 187.814C692.966 189.765 693.134 191.741 693.285 193.74C693.308 194.04 693.335 194.334 693.356 194.64C693.516 196.886 693.647 199.172 693.756 201.483C693.783 202.048 693.808 202.617 693.832 203.183C693.91 204.977 693.969 206.797 694.019 208.629C694.04 209.404 694.066 210.171 694.082 210.953C694.133 213.453 694.166 215.969 694.166 218.536C694.166 221.521 694.133 224.455 694.066 227.336C694.045 228.289 694.003 229.206 693.975 230.147C693.919 232.058 693.866 233.972 693.781 235.839C693.732 236.947 693.659 238.019 693.599 239.112C693.509 240.767 693.423 242.428 693.309 244.046C693.229 245.189 693.127 246.299 693.037 247.425C692.913 248.943 692.793 250.467 692.649 251.952C692.539 253.09 692.409 254.197 692.286 255.315C692.13 256.744 691.975 258.175 691.799 259.573C691.658 260.691 691.499 261.781 691.347 262.879C691.157 264.228 690.968 265.579 690.761 266.894C690.589 267.98 690.403 269.044 690.219 270.11C689.997 271.391 689.773 272.667 689.533 273.917C689.333 274.966 689.118 275.996 688.903 277.024C688.649 278.244 688.389 279.455 688.115 280.645C687.848 281.809 687.573 282.958 687.288 284.093C687.103 284.828 686.921 285.566 686.73 286.288C686.384 287.588 686.021 288.863 685.652 290.126C685.478 290.726 685.312 291.326 685.132 291.914C684.575 293.74 683.996 295.533 683.386 297.276C683.369 297.324 683.35 297.369 683.333 297.417C682.737 299.115 682.115 300.772 681.468 302.387C681.278 302.864 681.077 303.323 680.883 303.793C680.407 304.943 679.923 306.079 679.421 307.193C679.173 307.742 678.921 308.282 678.666 308.821C678.181 309.851 677.683 310.862 677.174 311.855C676.916 312.355 676.661 312.866 676.397 313.361C675.797 314.484 675.182 315.581 674.551 316.654C674.369 316.965 674.195 317.288 674.011 317.595C673.151 319.025 672.266 320.418 671.351 321.761C656.137 344.094 632.711 355.261 601.074 355.261H643.6C675.239 355.261 698.665 344.094 713.876 321.761C714.748 320.483 715.594 319.165 716.414 317.808C716.457 317.739 716.495 317.664 716.537 317.595C716.721 317.288 716.895 316.965 717.077 316.654C717.706 315.579 718.322 314.481 718.923 313.361C719.187 312.861 719.442 312.361 719.701 311.855C720.209 310.862 720.706 309.851 721.192 308.821C721.446 308.282 721.7 307.742 721.947 307.193C722.447 306.083 722.934 304.947 723.409 303.793C723.603 303.323 723.804 302.863 723.994 302.386C724.055 302.235 724.121 302.086 724.181 301.939C724.759 300.472 725.316 298.972 725.851 297.439C725.871 297.382 725.893 297.329 725.913 297.273C726.522 295.529 727.102 293.736 727.659 291.91C727.838 291.329 728.002 290.726 728.174 290.135C728.545 288.868 728.91 287.59 729.257 286.284C729.448 285.564 729.629 284.83 729.812 284.099C729.99 283.393 730.179 282.706 730.349 281.988C730.454 281.55 730.541 281.088 730.642 280.641C730.915 279.452 731.175 278.241 731.429 277.022C731.644 275.995 731.857 274.967 732.058 273.922C732.299 272.667 732.524 271.387 732.746 270.103C732.93 269.041 733.115 267.981 733.286 266.903C733.494 265.581 733.686 264.229 733.874 262.877C734.027 261.777 734.184 260.694 734.325 259.577C734.501 258.177 734.656 256.747 734.813 255.318C734.907 254.456 735.02 253.618 735.107 252.748C735.133 252.489 735.15 252.215 735.175 251.955C735.319 250.47 735.439 248.946 735.563 247.428C735.655 246.287 735.756 245.177 735.836 244.034Z" fill="#9EBCEA"/>
<path d="M840.16 156.533C839.845 157.166 839.521 157.797 839.198 158.433C838.331 160.127 837.439 161.813 836.522 163.491C836.214 164.054 835.914 164.619 835.6 165.181C834.384 167.354 833.125 169.516 831.823 171.667C831.688 171.89 831.546 172.111 831.409 172.334C830.036 174.576 828.616 176.805 827.15 179.022L778.419 252.752H820.944L869.674 179.022C871.148 176.805 872.562 174.573 873.938 172.329C874.073 172.108 874.213 171.889 874.347 171.669C874.431 171.53 874.52 171.393 874.603 171.255C875.821 169.242 876.987 167.215 878.126 165.18C878.439 164.619 878.739 164.055 879.047 163.493C879.966 161.812 880.859 160.124 881.725 158.43C882.047 157.8 882.371 157.171 882.684 156.54C883.784 154.34 884.847 152.124 885.854 149.896H843.328C842.323 152.118 841.256 154.33 840.16 156.533Z" fill="#9EBCEA"/>
<path d="M971.859 252.747H939.854V85.447H897.329V252.747H929.334V296.45H897.329V351.608H939.854V296.45H971.859V252.747Z" fill="#9EBCEA"/>
<path d="M441.916 252.747H473.907V296.447H441.916V351.605H387V296.45H273.542V257.3L390.1 85.447H441.921L441.916 252.747ZM387.9 174.831C388.513 160.513 388.999 152.2 389.357 149.891H387.9C383.317 160.028 377.906 169.77 371.72 179.017L322.991 252.747H387V207.6C387 200.087 387.3 189.165 387.9 174.833" fill="#DEE8F5"/>
<path d="M670.617 116.21C686.319 139.514 694.168 173.618 694.164 218.521C694.164 265.006 686.56 299.414 671.352 321.745C656.144 344.076 632.719 355.243 601.076 355.245C570.409 355.245 547.284 343.712 531.701 320.645C516.118 297.578 508.332 263.537 508.343 218.521C508.343 171.558 515.916 136.941 531.061 114.669C546.218 92.4023 569.556 81.2663 601.076 81.261C631.734 81.261 654.914 92.9107 670.617 116.21ZM629.432 288.433C635.261 274.115 638.171 250.811 638.162 218.521C638.162 185.876 635.225 162.422 629.35 148.159C623.475 133.896 614.051 126.769 601.076 126.778C587.853 126.778 578.397 133.905 572.708 148.159C567.002 162.422 564.151 185.876 564.155 218.521C564.155 251.179 566.974 274.574 572.613 288.705C578.252 302.836 587.739 309.903 601.076 309.905C614.165 309.905 623.617 302.746 629.432 288.429" fill="#DEE8F5"/>
<path d="M897.329 252.747H929.329V296.447H897.329V351.605H842.416V296.45H728.954V257.3L845.508 85.447H897.329V252.747ZM843.329 174.831C843.929 160.513 844.415 152.2 844.786 149.891H843.329C838.736 160.023 833.325 169.764 827.149 179.017L778.419 252.747H842.419V207.6C842.419 200.087 842.723 189.165 843.332 174.833" fill="#DEE8F5"/>
</g>
<defs>
<clipPath id="clip0_120_249">
<rect width="1160.88" height="599.933" fill="white"/>
</clipPath>
</defs>
</svg>
