<svg width="40" height="40" viewBox="0 0 40 40" fill="none" xmlns="http://www.w3.org/2000/svg">
<g clip-path="url(#clip0_14_1101)">
<path d="M13.3854 39.948C17.0654 39.948 20.0521 36.9652 20.0521 33.29V26.632H13.3854C9.70542 26.632 6.71875 29.6147 6.71875 33.29C6.71875 36.9652 9.70542 39.948 13.3854 39.948Z" fill="#0ACF83"/>
<path d="M6.71875 19.974C6.71875 16.2988 9.70542 13.316 13.3854 13.316H20.0521V26.632H13.3854C9.70542 26.632 6.71875 23.6493 6.71875 19.974Z" fill="#A259FF"/>
<path d="M6.71875 6.658C6.71875 2.98278 9.70542 0 13.3854 0H20.0521V13.316H13.3854C9.70542 13.316 6.71875 10.3332 6.71875 6.658Z" fill="#F24E1E"/>
<path d="M20.0521 0H26.7187C30.3987 0 33.3854 2.98278 33.3854 6.658C33.3854 10.3332 30.3987 13.316 26.7187 13.316H20.0521V0Z" fill="#FF7262"/>
<path d="M33.3854 19.974C33.3854 23.6493 30.3987 26.632 26.7187 26.632C23.0387 26.632 20.0521 23.6493 20.0521 19.974C20.0521 16.2988 23.0387 13.316 26.7187 13.316C30.3987 13.316 33.3854 16.2988 33.3854 19.974Z" fill="#1ABCFE"/>
</g>
<defs>
<clipPath id="clip0_14_1101">
<rect width="40" height="39.948" fill="white"/>
</clipPath>
</defs>
</svg>
