<svg width="30" height="40" viewBox="0 0 30 40" fill="none" xmlns="http://www.w3.org/2000/svg">
<path d="M0 32.2867L0.242153 31.9476L11.6971 10.2123L11.7213 9.9822L6.67173 0.49727C6.24867 -0.297264 5.05767 -0.0963782 4.91883 0.793041L0 32.2867Z" fill="#FFC24A"/>
<path d="M0.142807 32.0282L0.325988 31.671L11.661 10.1634L6.62399 0.639856C6.20536 -0.146353 5.1423 0.054068 5.00492 0.934168L0.142807 32.0282Z" fill="#FFA712"/>
<path d="M15.4025 17.1565L19.1623 13.3059L15.4014 6.12634C15.0444 5.44674 14.0476 5.44478 13.6944 6.12634L11.6851 9.95842V10.2848L15.4025 17.1565Z" fill="#F4BD62"/>
<path d="M15.3355 16.9961L18.9907 13.2526L15.3355 6.29238C14.9884 5.63169 14.1452 5.56246 13.8018 6.22507L11.7819 10.1165L11.7215 10.3155L15.3355 16.9961Z" fill="#FFA50E"/>
<path d="M0 32.2868L0.109764 32.1765L0.508572 32.0144L15.1663 17.4111L15.352 16.9056L11.6955 9.93781L0 32.2868Z" fill="#F6820C"/>
<path d="M15.872 39.6515L29.1376 32.2532L25.3494 8.92283C25.2309 8.19288 24.3354 7.9043 23.8129 8.4277L0 32.2868L13.1895 39.6509C14.0231 40.1163 15.0382 40.1165 15.872 39.6515Z" fill="#FDE068"/>
<path d="M29.0187 32.1911L25.2593 9.03783C25.1417 8.31342 24.397 8.01366 23.8785 8.53308L0.147076 32.2414L13.1917 39.5326C14.0189 39.9945 15.0264 39.9947 15.8539 39.5332L29.0187 32.1911Z" fill="#FCCA3F"/>
<path d="M15.872 39.4335C15.0382 39.8985 14.0231 39.8983 13.1895 39.4329L0.106234 32.1745L0 32.2867L13.1895 39.6508C14.0231 40.1163 15.0382 40.1165 15.872 39.6515L29.1376 32.2532L29.1051 32.0533L15.872 39.4335Z" fill="#EEAB37"/>
</svg>
