<svg width="40" height="40" viewBox="0 0 40 40" fill="none" xmlns="http://www.w3.org/2000/svg">
<path fill-rule="evenodd" clip-rule="evenodd" d="M39.2463 18.2181L21.7814 0.75446C20.7763 -0.251487 19.1449 -0.251487 18.1385 0.75446L14.5119 4.38105L19.1124 8.98154C20.1816 8.62033 21.4074 8.8626 22.2598 9.71494C23.116 10.5725 23.3566 11.8089 22.9866 12.8816L27.4203 17.3153C28.4929 16.9457 29.7306 17.1849 30.5874 18.043C31.7847 19.2398 31.7847 21.1797 30.5874 22.3775C29.3896 23.5752 27.4497 23.5752 26.2515 22.3775C25.3509 21.476 25.1284 20.1532 25.5844 19.0436L21.4496 14.9088L21.4491 25.7899C21.741 25.9347 22.0166 26.1274 22.2598 26.3697C23.4571 27.5665 23.4571 29.5065 22.2598 30.7051C21.062 31.9024 19.1212 31.9024 17.9252 30.7051C16.7279 29.5065 16.7279 27.5665 17.9252 26.3697C18.221 26.0743 18.5634 25.8509 18.9285 25.7008V14.7183C18.5634 14.5691 18.2215 14.347 17.9252 14.0495C17.018 13.1436 16.7999 11.8124 17.2647 10.6985L12.73 6.16296L0.754789 18.1373C-0.251597 19.1442 -0.251597 20.7755 0.754789 21.7815L18.2197 39.2455C19.2252 40.2515 20.8562 40.2515 21.863 39.2455L39.2463 21.8627C40.2523 20.8563 40.2523 19.224 39.2463 18.2181Z" fill="#DE4C36"/>
</svg>
