<svg width="40" height="40" viewBox="0 0 40 40" fill="none" xmlns="http://www.w3.org/2000/svg">
<g clip-path="url(#clip0_14_1108)">
<path fill-rule="evenodd" clip-rule="evenodd" d="M20.0002 0.9375C9.21468 0.9375 0.46875 9.68181 0.46875 20.4689C0.46875 29.0984 6.06509 36.4196 13.8255 39.0022C14.8016 39.183 15.16 38.5785 15.16 38.0626C15.16 37.5969 15.1419 36.0583 15.1335 34.4263C9.69982 35.6078 8.55326 32.1218 8.55326 32.1218C7.66479 29.8643 6.38464 29.264 6.38464 29.264C4.61256 28.0518 6.51822 28.0767 6.51822 28.0767C8.47951 28.2145 9.51223 30.0894 9.51223 30.0894C11.2542 33.0753 14.0814 32.2121 15.1959 31.713C15.3712 30.4507 15.8774 29.589 16.4359 29.1013C12.0977 28.6074 7.53736 26.9327 7.53736 19.4488C7.53736 17.3164 8.30033 15.5741 9.54975 14.2063C9.34696 13.7144 8.67842 11.7278 9.73896 9.03753C9.73896 9.03753 11.3791 8.5126 15.1115 11.0396C16.6695 10.6068 18.3403 10.3898 20.0002 10.3824C21.66 10.3898 23.3322 10.6068 24.893 11.0396C28.6209 8.5126 30.2588 9.03753 30.2588 9.03753C31.3219 11.7278 30.653 13.7144 30.4502 14.2063C31.7026 15.5741 32.4604 17.3164 32.4604 19.4488C32.4604 26.9505 27.8913 28.6023 23.5421 29.0858C24.2426 29.6919 24.8668 30.8805 24.8668 32.7027C24.8668 35.3161 24.8442 37.4193 24.8442 38.0626C24.8442 38.5824 25.1958 39.1914 26.1858 38.9996C33.942 36.4141 39.5312 29.0955 39.5312 20.4689C39.5312 9.68181 30.7866 0.9375 20.0002 0.9375ZM7.7839 28.7604C7.74088 28.8574 7.58822 28.8865 7.44915 28.8199C7.30748 28.7562 7.22792 28.6239 7.27385 28.5266C7.31589 28.4266 7.46888 28.3988 7.61022 28.4658C7.7522 28.5295 7.83306 28.6631 7.7839 28.7604ZM8.74463 29.6177C8.65148 29.704 8.46939 29.6639 8.34584 29.5274C8.21808 29.3913 8.19415 29.2092 8.28859 29.1215C8.38465 29.0352 8.56124 29.0756 8.68932 29.2117C8.81708 29.3495 8.84198 29.5303 8.74463 29.6177ZM9.40372 30.7145C9.28405 30.7976 9.08838 30.7196 8.96741 30.546C8.84774 30.3723 8.84774 30.164 8.97 30.0805C9.09129 29.9971 9.28405 30.0721 9.40663 30.2445C9.52598 30.4211 9.52598 30.6294 9.40372 30.7145ZM10.5184 31.9847C10.4113 32.1028 10.1833 32.0711 10.0164 31.91C9.84566 31.7525 9.79811 31.529 9.90549 31.411C10.0138 31.2926 10.2432 31.3259 10.4113 31.4857C10.5808 31.6429 10.6326 31.868 10.5184 31.9847ZM11.959 32.4136C11.9118 32.5665 11.6922 32.6361 11.4709 32.5711C11.25 32.5041 11.1055 32.3249 11.1501 32.1703C11.196 32.0164 11.4166 31.9439 11.6395 32.0135C11.86 32.0801 12.0049 32.258 11.959 32.4136ZM13.5985 32.5955C13.604 32.7565 13.4164 32.8901 13.1842 32.893C12.9506 32.8982 12.7618 32.7679 12.7592 32.6094C12.7592 32.4467 12.9426 32.3144 13.1761 32.3105C13.4083 32.306 13.5985 32.4354 13.5985 32.5955ZM15.2091 32.5337C15.2369 32.6909 15.0755 32.8523 14.8449 32.8953C14.6182 32.9367 14.4082 32.8397 14.3795 32.6838C14.3513 32.5227 14.5156 32.3613 14.742 32.3196C14.973 32.2795 15.1796 32.374 15.2091 32.5337Z" fill="#161614"/>
</g>
<defs>
<clipPath id="clip0_14_1108">
<rect width="40" height="40" fill="white"/>
</clipPath>
</defs>
</svg>
