<svg width="24" height="24" viewBox="0 0 24 24" fill="none" xmlns="http://www.w3.org/2000/svg">
<path d="M20.9999 13C21.5522 13 21.9999 12.5523 21.9999 12C21.9999 11.4477 21.5522 11 20.9999 11V13ZM20.5999 12C20.5999 16.7497 16.7495 20.6 11.9999 20.6V22.6C17.8541 22.6 22.5999 17.8542 22.5999 12H20.5999ZM11.9999 20.6C7.25025 20.6 3.3999 16.7497 3.3999 12H1.3999C1.3999 17.8542 6.14568 22.6 11.9999 22.6V20.6ZM3.3999 12C3.3999 7.25037 7.25025 3.40002 11.9999 3.40002V1.40002C6.14568 1.40002 1.3999 6.14581 1.3999 12H3.3999ZM11.9999 3.40002C16.7495 3.40002 20.5999 7.25037 20.5999 12H22.5999C22.5999 6.14581 17.8541 1.40002 11.9999 1.40002V3.40002ZM11.9999 20.6C11.7509 20.6 11.4348 20.4889 11.0601 20.1267C10.6807 19.7598 10.2932 19.1807 9.94621 18.3874C9.25343 16.8039 8.7999 14.5464 8.7999 12H6.7999C6.7999 14.7556 7.28657 17.298 8.1139 19.1891C8.52691 20.1331 9.04452 20.9598 9.67001 21.5646C10.3003 22.1739 11.0891 22.6 11.9999 22.6V20.6ZM8.7999 12C8.7999 9.45362 9.25343 7.19611 9.94621 5.61262C10.2932 4.81939 10.6807 4.24025 11.0601 3.87339C11.4348 3.51118 11.7509 3.40002 11.9999 3.40002V1.40002C11.0891 1.40002 10.3003 1.82613 9.67001 2.43549C9.04452 3.0402 8.52691 3.86695 8.1139 4.81098C7.28657 6.70201 6.7999 9.24449 6.7999 12H8.7999ZM11.9999 22.6C12.9107 22.6 13.6995 22.1739 14.3298 21.5646C14.9553 20.9598 15.4729 20.1331 15.8859 19.1891C16.7132 17.298 17.1999 14.7556 17.1999 12H15.1999C15.1999 14.5464 14.7464 16.8039 14.0536 18.3874C13.7066 19.1807 13.3191 19.7598 12.9397 20.1267C12.565 20.4889 12.2489 20.6 11.9999 20.6V22.6ZM17.1999 12C17.1999 9.24449 16.7132 6.70201 15.8859 4.81098C15.4729 3.86695 14.9553 3.0402 14.3298 2.43549C13.6995 1.82613 12.9107 1.40002 11.9999 1.40002V3.40002C12.2489 3.40002 12.565 3.51118 12.9397 3.87339C13.3191 4.24025 13.7066 4.81939 14.0536 5.61262C14.7464 7.19611 15.1999 9.45362 15.1999 12H17.1999ZM2.3999 13L20.9999 13V11L2.3999 11L2.3999 13Z" fill="#272727"/>
</svg>
