<svg width="40" height="40" viewBox="0 0 40 40" fill="none" xmlns="http://www.w3.org/2000/svg">
<path d="M5.69009 21.6539C5.74747 22.8359 6.92943 22.2851 7.45729 21.9178C7.9622 21.5621 8.11138 21.8605 8.15729 21.1719C8.19171 20.7129 8.23761 20.2654 8.21466 19.8064C7.44582 19.7375 6.61959 19.9211 5.98845 20.3801C5.65567 20.6097 5.05895 21.367 5.69009 21.6539Z" fill="#F6D2A2"/>
<path d="M29.249 36.1817C30.1555 36.744 31.8194 38.4423 30.4539 39.2686C29.1457 40.462 28.4113 37.9489 27.2637 37.6046C27.7572 36.9276 28.3768 36.3079 29.249 36.1817Z" fill="#F6D2A2"/>
<path d="M13.0228 38.0981C11.9556 38.2587 11.3589 39.2226 10.4638 39.7161C9.62613 40.2095 9.30482 39.5554 9.23597 39.4177C9.10974 39.3603 9.12122 39.4751 8.91466 39.2685C8.13434 38.0407 9.71793 37.1456 10.5442 36.5374C11.6917 36.3079 12.4146 37.3063 13.0228 38.0981Z" fill="#F6D2A2"/>
<path d="M34.2866 21.5047C34.2292 22.6867 33.0473 22.1359 32.5194 21.7687C32.0145 21.4129 31.8653 21.7113 31.8194 21.0228C31.785 20.5638 31.7391 20.1162 31.762 19.6572C32.5309 19.5884 33.3571 19.772 33.9882 20.231C34.3096 20.4605 34.9177 21.2179 34.2866 21.5047Z" fill="#F6D2A2"/>
<path d="M31.1538 7.09174C35.2505 5.64585 32.0489 0.0344175 28.4801 2.51309C26.1391 0.504906 22.9145 0.137695 19.5293 0.137695C16.213 0.401628 13.0572 1.00982 10.854 2.93767C7.29664 0.64261 4.01469 6.15076 8.19171 7.53928C7.02123 12.0835 8.35237 16.7195 8.16876 21.3441C7.99663 25.4982 6.90647 31.0637 9.21301 34.7932C11.1753 37.9833 15.3982 39.1194 18.8752 39.2456C23.3162 39.4062 28.6981 38.3161 30.8555 34.0128C32.921 29.9162 32.3473 24.8096 32.0833 20.3916C31.8194 15.9277 32.3128 11.395 31.1538 7.09174Z" fill="#69D7E2"/>
<path d="M34.5964 20.8048C34.4817 20.5638 34.2637 20.2884 34.0571 20.1392C33.5292 19.7605 32.8522 19.5539 32.1522 19.531C32.1293 18.8195 32.1063 18.0392 32.1063 17.0523V16.1573C32.0948 13.3343 32.0604 12.095 31.8997 10.5458C31.7735 9.32944 31.5784 8.20485 31.303 7.14912C32.2325 6.79339 32.8407 6.20815 33.0817 5.45078C33.3112 4.75078 33.1965 3.95899 32.8063 3.25899C32.4047 2.57047 31.762 2.05408 31.0161 1.84753C30.2129 1.6295 29.3407 1.79015 28.5031 2.35244C27.7572 1.7213 26.8965 1.23933 25.9326 0.872124C24.2228 0.240982 22.2375 0 19.5408 0V0.114753L19.5293 0C16.649 0.229506 14.5146 0.677044 12.7474 1.53769C12.036 1.88195 11.4048 2.29506 10.854 2.77703C10.0048 2.24916 9.12123 2.12293 8.30648 2.37539C7.54911 2.6049 6.89502 3.14424 6.50486 3.84423C6.1147 4.54423 6.0229 5.3475 6.28683 6.03602C6.55076 6.72454 7.15895 7.26388 8.0655 7.59666C7.77862 8.75567 7.62944 9.98353 7.60649 11.3376C7.58354 12.6573 7.64092 13.713 7.84747 16.0999C7.99665 17.8785 8.05403 18.6933 8.07698 19.6802C7.29666 19.6457 6.51633 19.8523 5.93109 20.2769C5.72454 20.4261 5.49503 20.69 5.39175 20.9425C5.24257 21.2638 5.29995 21.5507 5.59831 21.7228C5.64421 22.2736 5.95404 22.5261 6.42453 22.4802C6.76879 22.4457 7.1819 22.2621 7.53764 22.0097C7.61797 21.9523 7.69829 21.9064 7.77862 21.872C7.81305 21.8605 7.836 21.849 7.87042 21.8375C7.87042 21.8375 7.93927 21.8146 7.96223 21.8031C7.99665 21.7916 8.03108 21.7802 8.05403 21.7572C8.03108 22.2965 7.98518 22.8588 7.8819 24.1441C7.76714 25.59 7.70977 26.3818 7.68682 27.2654C7.58354 30.5473 7.9737 32.9342 9.14418 34.8276C9.51139 35.4243 9.95893 35.9522 10.4868 36.4341C10.3835 36.503 9.94746 36.8243 9.80975 36.9276C9.32779 37.2948 8.995 37.6046 8.79992 37.9489C8.54747 38.3964 8.54747 38.844 8.83435 39.3144L8.84582 39.3259L8.8573 39.3374C8.98353 39.4636 9.05238 39.4981 9.14418 39.4981H9.15566H9.17861C9.19008 39.521 9.20156 39.5325 9.21304 39.5554C9.24746 39.6128 9.28189 39.6587 9.31631 39.7046C9.6032 40.0374 10.0048 40.1177 10.5442 39.7964C10.8311 39.6472 11.0376 39.4751 11.4737 39.1079C11.4851 39.0964 11.4851 39.0964 11.4966 39.0849C12.1966 38.4882 12.5409 38.2702 13.0573 38.1899L13.2409 38.1554C13.3097 38.1899 13.3786 38.2128 13.4589 38.2472C15.0884 38.9013 16.9818 39.2571 18.8982 39.3259C21.3769 39.4177 23.7637 39.1079 25.7834 38.3735C26.3227 38.1784 26.8277 37.9489 27.3096 37.6964C27.608 37.8112 27.8604 38.0522 28.3424 38.6145C28.3653 38.6374 28.3653 38.6374 28.3768 38.6604C28.3998 38.6833 28.3998 38.6948 28.4112 38.7063C28.4342 38.7407 28.4686 38.7636 28.4916 38.7981C28.8703 39.2456 29.1227 39.4636 29.4096 39.5899C29.7883 39.7505 30.1555 39.6702 30.5342 39.3259C31.1998 38.9128 31.2457 38.2702 30.8096 37.5358C30.4998 37.0194 29.9604 36.48 29.4555 36.1358C30.0522 35.5505 30.5686 34.8505 30.9702 34.0588C32.0719 31.8555 32.4965 29.285 32.4735 25.9801C32.462 24.8096 32.4161 23.7883 32.2899 21.8375V21.7802C32.3473 21.8031 32.4047 21.8375 32.462 21.8834C32.8178 22.1244 33.2309 22.3195 33.5751 22.3539C34.0456 22.3998 34.3555 22.1474 34.4014 21.5966C34.6882 21.4129 34.7456 21.1261 34.5964 20.8048ZM30.9473 2.08851C31.6358 2.27211 32.2325 2.75408 32.5997 3.39669C32.9669 4.03931 33.0702 4.76226 32.8637 5.40488C32.6456 6.08192 32.0948 6.62126 31.2342 6.94257C31.062 6.3229 30.8555 5.71471 30.626 5.12947C30.9588 4.84259 31.1194 4.48685 30.8555 3.98194C30.5916 3.47702 30.1325 3.41965 29.6621 3.56882C29.3637 3.17866 29.0309 2.8344 28.6867 2.5131C29.444 2.03113 30.2243 1.89343 30.9473 2.08851ZM6.48191 5.96717C6.24093 5.3475 6.32125 4.61308 6.68846 3.97046C7.05567 3.32784 7.65239 2.82293 8.36386 2.61637C9.09828 2.39834 9.89008 2.50162 10.6704 2.96063C10.2229 3.36227 9.82123 3.82128 9.47697 4.3262C8.88025 4.01636 8.27206 3.95899 7.9278 4.59013C7.57206 5.26717 7.98518 5.69176 8.57042 6.01307C8.49009 6.20815 8.40976 6.4147 8.34091 6.62126C8.26058 6.87372 8.18026 7.13765 8.1114 7.40158C7.27371 7.08027 6.72289 6.58683 6.48191 5.96717ZM7.87042 21.608C7.85895 21.608 7.7901 21.631 7.7901 21.6425C7.75567 21.6539 7.72124 21.6654 7.68682 21.6884C7.59501 21.7228 7.50321 21.7802 7.41141 21.849C7.0901 22.0785 6.69994 22.2506 6.40158 22.2736C6.05732 22.308 5.86224 22.1588 5.82782 21.7457C6.0688 21.6654 6.17208 21.608 6.26388 21.4703L6.08027 21.3326C6.01142 21.4244 5.94257 21.4588 5.73601 21.5277C5.72454 21.5277 5.72454 21.5277 5.71306 21.5392C5.52946 21.4359 5.49503 21.2752 5.59831 21.0457C5.69011 20.8392 5.89667 20.5982 6.0688 20.472C6.61961 20.0703 7.35403 19.8753 8.08845 19.9212C8.08845 20.208 8.09993 20.4949 8.08845 20.7703C8.08845 20.8048 8.08845 20.8277 8.07698 20.8621C8.0655 21.0228 8.0655 21.0916 8.05403 21.172C8.0196 21.5048 7.99665 21.5507 7.87042 21.608ZM11.336 38.9243C11.3245 38.9358 11.3245 38.9358 11.313 38.9472C10.8884 39.3144 10.6819 39.4636 10.4179 39.6128C9.98188 39.8767 9.68352 39.8194 9.47697 39.5669C9.44254 39.5325 9.41959 39.4866 9.39664 39.4522C9.38517 39.4407 9.37369 39.4177 9.36221 39.4062C9.36221 39.4062 9.36221 39.4062 9.36221 39.3948C9.38517 39.1882 9.46549 39.039 9.67205 38.7177C9.68352 38.7063 9.68352 38.7063 9.68352 38.6948C9.80975 38.5112 9.86713 38.4079 9.92451 38.2817L9.71795 38.1899C9.67205 38.2931 9.61467 38.3849 9.49992 38.5686C9.48844 38.58 9.48844 38.58 9.48844 38.5915C9.28189 38.8899 9.19008 39.0735 9.14418 39.28H9.13271C9.13271 39.28 9.13271 39.28 9.12123 39.28H9.09828C9.07533 39.2685 9.04091 39.2456 8.995 39.1997C8.54747 38.4882 8.9032 37.88 9.91303 37.1227C10.0393 37.0309 10.4638 36.7325 10.5786 36.6407C10.6015 36.6407 10.6245 36.6292 10.6475 36.6177C11.2671 37.1456 11.9901 37.6046 12.7933 37.9833C12.7933 37.9948 12.8048 38.0063 12.8163 38.0177C12.3458 38.1325 11.9786 38.3735 11.336 38.9243ZM30.603 37.6735C30.9588 38.2702 30.9473 38.7522 30.4998 39.0849C30.4653 39.0161 30.4424 38.9358 30.3965 38.821C30.3965 38.8095 30.3965 38.8095 30.385 38.7981C30.2243 38.362 30.1211 38.1784 29.926 37.9718L29.7653 38.1325C29.9375 38.2931 30.0178 38.4653 30.1784 38.8669C30.1784 38.8784 30.1784 38.8784 30.1899 38.8899C30.2473 39.039 30.2817 39.1308 30.3162 39.2112C30.0178 39.4636 29.7539 39.5095 29.4785 39.3833C29.2375 39.28 29.008 39.062 28.6408 38.6489C28.6178 38.6259 28.5949 38.5915 28.5719 38.5571C28.5604 38.5456 28.549 38.5341 28.5375 38.5112C28.5145 38.4882 28.5145 38.4882 28.5031 38.4653C28.0785 37.9718 27.826 37.7079 27.5506 37.5587C28.1932 37.1915 28.767 36.7784 29.2834 36.2964C29.7653 36.6522 30.3047 37.18 30.603 37.6735ZM30.7637 33.9555C29.7768 35.9407 28.0326 37.3407 25.6916 38.1899C23.6949 38.9128 21.331 39.2112 18.8867 39.1194C14.6753 38.9702 11.0261 37.5013 9.31631 34.7243C8.16878 32.8768 7.7901 30.5244 7.89337 27.2883C7.9278 26.4047 7.9737 25.6129 8.08845 24.167C8.21468 22.5375 8.24911 22.067 8.28353 21.3326C8.30648 20.8048 8.30648 20.2654 8.29501 19.6917C8.27206 18.6818 8.21468 17.8785 8.0655 16.0769C7.85895 13.6901 7.80157 12.6458 7.82452 11.3376C7.85895 9.61632 8.08845 8.10158 8.57042 6.66716C9.35074 4.33767 10.7852 2.76555 12.8507 1.74425C14.5835 0.895075 16.6835 0.459013 19.5408 0.229506C22.2146 0.229506 24.1654 0.470488 25.8523 1.09016C27.8719 1.83605 29.3752 3.14424 30.408 5.15242C31.0735 6.78191 31.4637 8.53764 31.6702 10.5573C31.8309 12.095 31.8653 13.3343 31.8768 16.1458V17.0409C31.8883 18.4294 31.9112 19.4048 31.9686 20.3802C31.9915 20.7589 32.003 20.9195 32.0604 21.8261C32.1866 23.7769 32.2325 24.7867 32.244 25.9572C32.267 29.2506 31.8538 31.7866 30.7637 33.9555ZM34.2751 21.39C34.2637 21.39 34.2522 21.3785 34.2407 21.3785C34.0342 21.3097 33.9653 21.2638 33.8965 21.1834L33.7128 21.3211C33.8161 21.4588 33.9194 21.5162 34.1489 21.5966C34.103 22.0097 33.9079 22.1588 33.5751 22.1244C33.2768 22.1015 32.8866 21.9179 32.5653 21.6998C32.4735 21.631 32.3817 21.5851 32.2899 21.5392C32.2784 21.5392 32.267 21.5277 32.2555 21.5277C32.2096 20.8966 32.2096 20.7359 32.1866 20.4031C32.1752 20.1966 32.1637 19.99 32.1522 19.7835C32.7948 19.7949 33.426 19.99 33.9079 20.3457C34.0801 20.472 34.2866 20.713 34.3784 20.9195C34.4932 21.1146 34.4702 21.2867 34.2751 21.39Z" fill="black"/>
<path d="M21.2691 11.9721C21.2805 12.5574 21.3953 13.2 21.292 13.8197C21.1314 14.118 20.833 14.1524 20.5691 14.2672C20.2019 14.2098 19.892 13.9688 19.7428 13.6246C19.651 12.9246 19.7658 12.259 19.8002 11.559C19.8002 11.5361 20.2363 11.5705 20.6264 11.6852C20.9592 11.7885 21.2691 11.9607 21.2691 11.9721Z" fill="white"/>
<path d="M18.0216 12.018C17.7002 13.2344 18.4461 15.2196 19.674 13.5901C19.5822 12.9016 19.6855 12.2361 19.7199 11.559C19.7314 11.5016 18.033 11.9377 18.0216 12.018Z" fill="white"/>
<path d="M21.4068 12.5115C21.3838 12.1672 21.3723 12.0295 21.3723 11.8574V11.7771L21.292 11.7541L19.8461 11.3066V11.2263L19.6969 11.2607H19.6855V11.2722L18.056 11.6853L17.9986 11.6967L17.9756 11.7541C17.7232 12.3623 17.7806 13.2803 18.1019 13.8426C18.4691 14.4852 19.0658 14.4967 19.674 13.7623C19.8461 14.0951 20.1674 14.3246 20.5346 14.382H20.5691L20.6035 14.3705C20.6494 14.3475 20.6953 14.3361 20.7756 14.3016C20.7871 14.3016 20.7871 14.3016 20.7986 14.2902C21.1314 14.1754 21.2691 14.0836 21.3838 13.8656L21.3953 13.8541V13.8312C21.4297 13.6246 21.4412 13.4066 21.4412 13.1656C21.4412 12.9935 21.4297 12.8328 21.4068 12.5115ZM19.5707 12.0869C19.5592 12.2935 19.5478 12.3738 19.5363 12.4885C19.5133 12.9131 19.5133 13.2344 19.5478 13.5557C19.0084 14.2443 18.5838 14.2443 18.297 13.7279C18.0215 13.2459 17.9642 12.4312 18.1707 11.8918L19.6166 11.5246C19.6051 11.6738 19.5937 11.823 19.5707 12.0869ZM21.1773 13.7853C21.0969 13.923 20.9937 13.9918 20.7182 14.0836C20.7068 14.0836 20.7068 14.0836 20.6953 14.0951C20.6264 14.118 20.5805 14.141 20.5461 14.1525C20.2363 14.0951 19.9724 13.8885 19.8461 13.6016C19.8117 13.2918 19.8117 12.9705 19.8346 12.5459C19.8461 12.4312 19.8461 12.3508 19.8691 12.1443C19.892 11.8804 19.9035 11.7197 19.9035 11.5705L21.1543 11.9492C21.1543 12.0984 21.1658 12.2361 21.1887 12.5344C21.2117 12.8443 21.2232 13.0049 21.2232 13.1885C21.2232 13.4066 21.2117 13.6016 21.1773 13.7853Z" fill="black"/>
<path d="M11.1139 6.97254C12.1696 11.0807 18.745 10.025 18.4925 5.90534C18.1942 0.970952 10.1041 1.9234 11.1139 6.97254Z" fill="white"/>
<path d="M18.6073 5.89386C18.5384 4.70043 18.0105 3.77093 17.1384 3.18568C16.3581 2.65782 15.3253 2.45126 14.304 2.57749C13.2827 2.7152 12.3417 3.17421 11.7221 3.89715C11.0336 4.70043 10.7696 5.75616 11.0106 6.97254L11.1139 6.94959L11.0106 6.97254C12.0893 11.1955 18.8597 10.1742 18.6073 5.89386ZM11.2172 6.94959C10.9877 5.79058 11.2401 4.8037 11.8827 4.05781C12.468 3.38076 13.3516 2.93323 14.327 2.807C15.3024 2.68077 16.2778 2.87585 17.0122 3.38076C17.8269 3.93158 18.3204 4.79223 18.3892 5.92829C18.6302 9.93317 12.2385 10.8971 11.2172 6.94959Z" fill="black"/>
<path d="M12.927 7.50039C13.5417 7.50039 14.0401 6.96094 14.0401 6.29548C14.0401 5.63003 13.5417 5.09058 12.927 5.09058C12.3122 5.09058 11.8139 5.63003 11.8139 6.29548C11.8139 6.96094 12.3122 7.50039 12.927 7.50039Z" fill="black"/>
<path d="M13.4319 6.88071C13.5776 6.88071 13.6958 6.742 13.6958 6.57088C13.6958 6.39976 13.5776 6.26105 13.4319 6.26105C13.2861 6.26105 13.1679 6.39976 13.1679 6.57088C13.1679 6.742 13.2861 6.88071 13.4319 6.88071Z" fill="white"/>
<path d="M20.3354 6.20449C21.1501 10.9208 28.8615 9.67004 27.7484 4.91925C26.7501 0.650435 20.0599 1.83239 20.3354 6.20449Z" fill="white"/>
<path d="M27.8517 4.8963C26.8304 0.501256 19.9452 1.70617 20.2206 6.21597V6.22744C20.5993 8.45365 22.5845 9.58971 24.7763 9.2225C25.7747 9.05037 26.6698 8.56841 27.255 7.85694C27.8976 7.06514 28.1271 6.04384 27.8517 4.8963ZM27.0829 7.71923C26.5321 8.3848 25.6944 8.84381 24.7419 9.00447C22.6649 9.34873 20.8059 8.28152 20.4387 6.19302C20.1862 1.94715 26.6812 0.81109 27.6452 4.94221C27.8976 6.03236 27.6911 6.98481 27.0829 7.71923Z" fill="black"/>
<path d="M22.2288 7.20285C22.8309 7.20285 23.319 6.66339 23.319 5.99794C23.319 5.33249 22.8309 4.79303 22.2288 4.79303C21.6267 4.79303 21.1386 5.33249 21.1386 5.99794C21.1386 6.66339 21.6267 7.20285 22.2288 7.20285Z" fill="black"/>
<path d="M22.7337 6.58317C22.8732 6.58317 22.9862 6.44445 22.9862 6.27333C22.9862 6.10222 22.8732 5.9635 22.7337 5.9635C22.5943 5.9635 22.4813 6.10222 22.4813 6.27333C22.4813 6.44445 22.5943 6.58317 22.7337 6.58317Z" fill="white"/>
<path d="M18.2585 9.53901C17.3519 9.61934 16.6175 10.6865 17.088 11.5357C17.7077 12.6603 19.0962 11.4324 19.9568 11.5472C20.9552 11.5701 21.7699 12.6029 22.5617 11.7308C23.4453 10.7669 22.183 9.82589 21.1847 9.41278L18.2585 9.53901Z" fill="#F6D2A2"/>
<path d="M22.6765 10.3079C22.3667 9.9177 21.8273 9.56197 21.2421 9.32098L21.2191 9.30951H21.1962L18.2585 9.42426C17.2372 9.51607 16.5028 10.698 16.9962 11.5931C17.1913 11.9374 17.4552 12.1095 17.811 12.1324C18.0749 12.1439 18.3503 12.0865 18.7749 11.9374C18.8093 11.9259 18.8552 11.9144 18.9126 11.8915C19.4864 11.6964 19.7159 11.639 19.9454 11.6734H19.9568C20.2323 11.6734 20.4618 11.7538 20.8978 11.9259C21.3798 12.121 21.529 12.1783 21.7699 12.2013C22.1027 12.2242 22.3896 12.1095 22.6535 11.8226C23.1011 11.3292 23.0781 10.8013 22.6765 10.3079ZM22.4814 11.6619C22.2634 11.9029 22.0454 11.9833 21.7814 11.9718C21.5749 11.9603 21.4372 11.9029 20.9781 11.7193C20.5191 11.5242 20.2667 11.4554 19.9683 11.4439C19.6814 11.4095 19.4405 11.4669 18.8323 11.6734C18.7749 11.6964 18.729 11.7079 18.6946 11.7193C17.8569 12.0062 17.4552 11.9833 17.1798 11.4783C16.7667 10.7324 17.3978 9.72262 18.2585 9.64229L21.1618 9.52754C21.7126 9.75705 22.206 10.0898 22.4929 10.4456C22.8371 10.8587 22.8486 11.2718 22.4814 11.6619Z" fill="#231F20"/>
<path d="M21.4142 9.04557C21.0585 7.73738 18.0749 7.93246 18.1438 9.4931C18.2929 10.6521 21.7585 10.3423 21.4142 9.04557Z" fill="black"/>
</svg>
