<svg width="40" height="40" viewBox="0 0 40 40" fill="none" xmlns="http://www.w3.org/2000/svg">
<g clip-path="url(#clip0_13_307)">
<path fill-rule="evenodd" clip-rule="evenodd" d="M5.55353 35.9546L2.34375 0H37.6137L34.4005 35.949L19.9571 39.948L5.55353 35.9546Z" fill="#E44D26"/>
<path fill-rule="evenodd" clip-rule="evenodd" d="M19.9787 36.8913L31.6497 33.6599L34.3956 2.93982H19.9787V36.8913Z" fill="#F16529"/>
<path d="M14.136 16.2749H19.9787V20.6845H10.0978L8.90692 7.34955H19.9787V11.7593H13.7324L14.136 16.2749Z" fill="#EBEBEB"/>
<path d="M19.9594 27.7325L19.9787 27.7273V32.3152L19.9584 32.3209L10.9137 29.8133L10.2951 22.8894H14.7275L15.0419 26.4064L19.9594 27.7325Z" fill="#EBEBEB"/>
<path d="M19.9635 7.34955H31.0242L30.6288 11.7593H19.9635V7.34955Z" fill="#D9D9D9"/>
<path d="M19.9635 20.6845V16.2749H30.2271L30.1193 17.459L29.0153 29.8133L19.9635 32.3187V27.731L24.8881 26.4035L25.4006 20.6845H19.9635Z" fill="#D9D9D9"/>
</g>
<defs>
<clipPath id="clip0_13_307">
<rect width="40" height="39.948" fill="white"/>
</clipPath>
</defs>
</svg>
