<svg width="40" height="40" viewBox="0 0 40 40" fill="none" xmlns="http://www.w3.org/2000/svg">
<path d="M20.0237 0.00018525C23.2701 0.00018525 26.327 0.758666 29.1943 2.22786L29.5735 2.41743L29.2417 2.6781C28.436 3.31791 27.7962 4.14729 27.3934 5.09516L27.2749 5.35582L27.0379 5.23734C24.8341 4.19468 22.4882 3.64966 20.0474 3.64966C11.019 3.64966 3.69668 10.9956 3.69668 20.0004C3.69668 29.0051 10.9953 36.3511 20.0237 36.3511C29.0521 36.3511 36.3744 29.0051 36.3744 20.0004C36.3744 17.844 35.9716 15.735 35.1185 13.7444L35 13.4838L35.2607 13.3653C36.2322 13.0099 37.0853 12.4174 37.7725 11.6591L38.0332 11.3274L38.1991 11.7065C39.4076 14.3369 40 17.1331 40 19.953C40 30.9719 31.019 39.953 20 39.953C8.98104 39.953 0 30.9719 0 19.953C0 8.93402 8.98104 -0.0470214 20.0237 0.00018525ZM20.0237 10.9008C25.0237 10.9008 29.1232 14.9767 29.1469 20.0241C29.1469 25.0715 25.0711 29.1473 20.0237 29.1473C14.9763 29.1473 10.9005 25.0715 10.9005 20.0241C10.9005 14.9767 15 10.9008 20.0237 10.9008ZM33.0806 3.3653C35.3839 3.3653 37.2512 5.23255 37.2512 7.53592C37.2512 9.83928 35.3839 11.7065 33.0806 11.7065C30.7772 11.7065 28.91 9.83928 28.91 7.53592C28.91 5.23255 30.7772 3.3653 33.0806 3.3653Z" fill="#3880FF"/>
</svg>
