<svg width="40" height="40" viewBox="0 0 40 40" fill="none" xmlns="http://www.w3.org/2000/svg">
<g clip-path="url(#clip0_13_305)">
<path d="M14.8135 30.894C14.8135 30.894 13.2849 31.7817 15.9013 32.0821C19.071 32.4433 20.691 32.3915 24.1841 31.7312C24.1841 31.7312 25.1024 32.3063 26.3849 32.8044C18.5545 36.156 8.6631 32.6103 14.8135 30.894Z" fill="#5382A1"/>
<path d="M13.8569 26.5203C13.8569 26.5203 12.1424 27.7877 14.7608 28.0582C18.1468 28.4071 20.8207 28.4356 25.4477 27.5458C25.4477 27.5458 26.0877 28.1938 27.094 28.5481C17.6266 31.3129 7.08149 28.7662 13.8569 26.5203Z" fill="#5382A1"/>
<path d="M21.9232 19.1011C23.8526 21.3196 21.4163 23.316 21.4163 23.316C21.4163 23.316 26.3154 20.7902 24.0654 17.6273C21.9641 14.6777 20.3526 13.2122 29.0765 8.15924C29.0765 8.15924 15.3828 11.5748 21.9232 19.1011Z" fill="#E76F00"/>
<path d="M32.2796 34.129C32.2796 34.129 33.4108 35.0598 31.0338 35.78C26.514 37.1474 12.2218 37.5603 8.25145 35.8344C6.82423 35.2144 9.50068 34.3538 10.3426 34.1733C11.2206 33.9831 11.7224 34.0185 11.7224 34.0185C10.1352 32.9019 1.46323 36.2112 7.31747 37.1589C23.2828 39.7447 36.4208 35.9945 32.2796 34.129Z" fill="#5382A1"/>
<path d="M15.5488 21.9887C15.5488 21.9887 8.27891 23.7132 12.9744 24.3394C14.9569 24.6045 18.9091 24.5445 22.5905 24.2365C25.5991 23.983 28.6202 23.4441 28.6202 23.4441C28.6202 23.4441 27.5593 23.8978 26.7918 24.4212C19.4093 26.3603 5.1477 25.4582 9.25343 23.4748C12.7256 21.7985 15.5488 21.9887 15.5488 21.9887Z" fill="#5382A1"/>
<path d="M28.59 29.2688C36.0947 25.3742 32.6248 21.6315 30.2029 22.1357C29.6093 22.2591 29.3446 22.3661 29.3446 22.3661C29.3446 22.3661 29.565 22.0213 29.9859 21.8721C34.7772 20.1898 38.462 26.8337 28.4392 29.4651C28.4392 29.4652 28.5553 29.3615 28.59 29.2688Z" fill="#5382A1"/>
<path d="M24.0656 0C24.0656 0 28.2218 4.15218 20.1237 10.5371C13.6298 15.6588 18.6429 18.5791 20.121 21.9157C16.3304 18.5001 13.5486 15.4933 15.4149 12.6949C18.1541 8.58711 25.7426 6.59549 24.0656 0Z" fill="#E76F00"/>
<path d="M16.286 39.8224C23.4895 40.2829 34.5514 39.5669 34.8133 36.1628C34.8133 36.1628 34.3097 37.4533 28.86 38.4781C22.7117 39.6337 15.1285 39.4988 10.6309 38.7582C10.631 38.7581 11.5516 39.5192 16.286 39.8224Z" fill="#5382A1"/>
</g>
<defs>
<clipPath id="clip0_13_305">
<rect width="40" height="39.948" fill="white"/>
</clipPath>
</defs>
</svg>
