<svg width="40" height="40" viewBox="0 0 40 40" fill="none" xmlns="http://www.w3.org/2000/svg">
<g clip-path="url(#clip0_209_479)">
<path d="M34.4299 14.901C35.8536 14.5978 39.0779 12.172 39.638 10.8877C35.0017 14.0428 32.0538 13.1581 30.5676 12.7121C30.5043 12.6931 30.4437 12.6749 30.3857 12.6578C30.0729 12.5683 29.349 12.2432 28.6745 11.8379C28.6278 11.8098 28.5818 11.7821 28.5365 11.7549C27.13 10.9106 26.4006 10.4727 25.2707 8.82976C24.6298 7.89885 23.9894 6.41926 23.7793 5.57135C23.4324 4.16952 23.5285 2.01283 24.1877 0.15625C21.9996 2.10894 21.6623 5.88107 22.3958 8.375C22.4888 8.69084 23.0087 9.93147 23.29 10.3862C25.1811 13.4284 28.792 16.1019 34.4299 14.901Z" fill="#21609B"/>
<path d="M30.4074 23.3827C34.0096 23.4076 37.7721 21.724 40 19.3603C38.0508 24.3084 32.4068 27.489 24.8376 26.4773C18.5004 25.6294 12.4632 19.2519 11.8411 12.8618C11.3864 8.21119 13.0075 5.43549 15.6784 2.06874C14.7501 3.82966 14.4032 5.1878 14.3167 6.05406C13.3019 16.1141 22.3529 23.3303 30.4074 23.3827Z" fill="#21609B"/>
<path d="M39.0717 29.5719L38.8926 30.0358C35.8412 35.9769 30.4353 39.6223 22.7242 39.7831C19.1193 39.8573 15.6845 38.9325 13.4408 37.9265C8.59844 35.751 4.52575 31.7163 2.30135 27.4056C-0.889346 21.226 -1.46467 12.6298 5.16966 6.20911C5.22077 6.20911 5.0196 6.55717 4.81844 6.90522C4.61727 7.25328 4.41611 7.60133 4.46722 7.60133L4.28462 8.19544C-0.496187 23.163 14.2328 35.9895 28.5508 34.5226C31.9918 34.1701 36.3799 32.2856 39.0717 29.5719Z" fill="#21609B"/>
</g>
<defs>
<clipPath id="clip0_209_479">
<rect width="40" height="40" fill="white"/>
</clipPath>
</defs>
</svg>
