<svg width="40" height="40" viewBox="0 0 40 40" fill="none" xmlns="http://www.w3.org/2000/svg">
<path fill-rule="evenodd" clip-rule="evenodd" d="M38.6755 7.03193C38.0728 7.05119 38.2634 7.22485 36.961 7.54535C35.6459 7.86899 34.0395 7.76975 32.6233 8.36369C28.3957 10.1367 27.5475 16.1964 23.7042 18.3671C20.8314 19.9898 17.9331 20.1192 15.3273 20.9358C13.6148 21.4728 11.7416 22.574 10.19 23.9111C8.98572 24.9493 8.95427 25.8621 7.69595 27.1642C6.35001 28.557 2.34662 27.1878 0.532227 29.3194C1.11671 29.9104 1.37295 30.076 2.52478 29.9226C2.28631 30.3746 0.880572 30.7555 1.15575 31.4204C1.44529 32.1201 4.84378 32.5943 7.93316 30.7291C9.37192 29.8605 10.5179 28.6085 12.7587 28.3096C15.6583 27.9231 18.9987 28.5575 22.3555 29.0416C21.8577 30.5257 20.8584 31.5126 20.0579 32.6946C19.8101 32.9616 20.5558 32.9915 21.4066 32.8301C22.9371 32.4517 24.0401 32.147 25.1952 31.4747C26.6142 30.6486 26.8293 28.5307 28.5704 28.0724C29.5405 29.5634 32.1789 29.9156 33.8161 28.723C32.3795 28.3164 31.9824 25.2585 32.4674 23.9111C32.9267 22.6356 33.3806 20.5953 33.8432 18.9093C34.3398 17.0986 34.5231 14.8164 35.1241 13.8941C36.0284 12.5064 37.0276 12.0298 37.8951 11.2473C38.7626 10.4648 39.5567 9.70312 39.5306 7.9126C39.5222 7.33588 39.224 7.0144 38.6755 7.03193Z" fill="#002B64"/>
<path d="M7.08475 30.5267C5.31807 31.2929 3.98015 31.608 1.78015 31.2929C1.65703 31.1271 1.95524 30.94 2.31761 30.7126C2.77739 30.4242 3.34044 30.0709 3.27725 29.6141C2.96764 29.5798 2.70472 29.5849 2.46015 29.5896C2.02459 29.5979 1.64721 29.6052 1.16791 29.3874C1.25054 29.2352 1.37199 29.1083 1.52489 29.0027C2.19385 28.5396 3.46325 28.4749 4.70929 28.4113C6.01832 28.3446 7.30157 28.2791 7.83579 27.7546C8.41381 27.1874 8.81327 26.5966 9.20535 26.0166C9.2499 25.9507 9.29436 25.8849 9.33897 25.8194C9.76296 25.1958 10.2013 24.5897 10.869 24.0434C11.1156 23.8417 11.3837 23.6423 11.6682 23.4478C12.8062 22.669 14.2139 21.9626 15.5993 21.4757C16.4849 21.1644 17.376 20.9872 18.2804 20.8073C19.3032 20.6038 20.3429 20.397 21.4106 19.9891C22.6533 19.5141 24.0046 18.9274 25.1062 18.1066C25.3677 17.9114 25.6152 17.7034 25.844 17.4804C26.9527 16.3996 27.748 15.0278 28.5281 13.6823C29.9612 11.2106 31.3426 8.82787 34.5201 8.50151C34.938 8.45859 35.3025 8.45568 35.636 8.45302C35.7761 8.45191 35.9107 8.45083 36.0415 8.44685C36.5512 8.43167 37.0023 8.37247 37.4929 8.09595C37.6377 8.58978 37.8644 8.81641 38.8442 8.90707C38.7011 10.1493 37.8724 10.8288 36.9433 11.4807C36.8472 11.5481 36.7501 11.6152 36.6525 11.6826C35.9196 12.1887 35.1623 12.7116 34.6544 13.502C34.3242 14.0158 34.0616 15.2262 33.7339 16.7364C33.4763 17.9237 33.1785 19.2963 32.776 20.6614C31.9857 23.3411 30.7922 25.9907 28.708 27.1516C28.6197 26.9293 28.6076 26.6307 28.5955 26.3321C28.5778 25.8946 28.5601 25.4572 28.3027 25.2596C28.0225 26.0588 27.7056 26.8213 27.3346 27.5301C26.1116 29.8676 24.3009 31.6178 21.275 32.1522C22.7107 30.2094 24.0836 28.2031 24.1133 24.8545C23.5905 24.9676 23.3439 25.6611 23.0839 26.3926C22.8414 27.0748 22.5872 27.79 22.0861 28.0979C21.4205 28.1703 20.7463 28.1699 20.0677 28.1291C19.2674 28.0811 18.4612 27.9779 17.6568 27.8749C15.6597 27.6191 13.6733 27.3647 11.8148 27.961C10.7941 28.2886 9.88031 28.8722 9.00216 29.4331C8.35313 29.8476 7.72358 30.2496 7.08475 30.5267Z" fill="white"/>
<path d="M32.5936 28.6559C32.1132 28.2039 31.5691 26.3442 31.5105 25.4069C31.3917 25.5325 31.2493 25.6702 31.0964 25.818C30.5166 26.3782 29.7853 27.0849 29.6163 27.843C30.0321 28.5067 31.6528 28.8847 32.5936 28.6559Z" fill="white"/>
<path d="M37.2248 8.57325C36.9298 8.8849 35.9667 9.91789 35.663 10.8565C35.6092 11.017 35.4524 11.0886 35.5312 10.8392C35.8374 9.92483 36.6808 8.93999 37.1076 8.50277C37.2961 8.32775 37.3399 8.43944 37.2248 8.57325Z" fill="#002B64"/>
<path d="M36.151 10.9214C36.2871 10.138 36.8381 9.45989 37.1769 9.0429C37.2586 8.94239 37.3279 8.85704 37.3761 8.78905C37.4713 8.64049 37.4121 8.53617 37.2503 8.73592C37.1893 8.81928 37.1186 8.90987 37.0425 9.00744C36.6686 9.4868 36.1633 10.1347 36.018 10.9227C35.9753 11.1806 36.1206 11.0877 36.151 10.9214Z" fill="#002B64"/>
<path d="M37.4282 9.17144C37.4727 9.10147 37.5127 9.03849 37.5457 8.9825C37.6286 8.82657 37.5607 8.72767 37.4163 8.94C37.3884 8.98569 37.3597 9.03199 37.3306 9.07908C37.0269 9.5699 36.6702 10.1466 36.5839 11.022C36.5631 11.2825 36.7001 11.1782 36.7162 11.0097C36.7898 10.1756 37.1789 9.5636 37.4282 9.17144Z" fill="#002B64"/>
<path d="M37.6363 9.31688C37.4465 9.68149 37.1933 10.1677 37.1933 11.0023C37.1918 11.1717 37.0647 11.2877 37.0625 11.0266C37.0712 10.1468 37.2845 9.72275 37.5277 9.23912C37.551 9.19267 37.5747 9.14567 37.5984 9.09766C37.7244 8.87319 37.8003 8.9658 37.7318 9.12846C37.7034 9.18814 37.6709 9.25051 37.6363 9.31688Z" fill="#002B64"/>
<path d="M32.8887 10.5308C33.5834 11.1339 35.041 10.6499 34.7806 9.44987C33.7012 9.36052 33.0759 9.72683 32.8887 10.5308Z" fill="#002B64"/>
</svg>
