<svg width="40" height="40" viewBox="0 0 40 40" fill="none" xmlns="http://www.w3.org/2000/svg">
<path d="M37.2455 32.3269H2.87425C1.31737 32.3269 0 31.0095 0 29.4527V10.5305C0 8.97362 1.31737 7.65625 2.87425 7.65625H37.1257C38.6826 7.65625 40 8.97362 40 10.5305V29.4527C40 31.0095 38.8024 32.3269 37.2455 32.3269ZM2.87425 9.57242C2.39521 9.57242 1.91617 10.0515 1.91617 10.5305V29.4527C1.91617 30.0515 2.39521 30.4107 2.87425 30.4107H37.1257C37.7246 30.4107 38.0838 29.9317 38.0838 29.4527V10.5305C38.0838 9.9317 37.6048 9.57242 37.1257 9.57242C37.2455 9.57242 2.87425 9.57242 2.87425 9.57242ZM5.7485 26.5784V13.4048H9.58084L13.4132 18.1952L17.2455 13.4048H21.0778V26.5784H17.2455V19.0335L13.4132 23.8239L9.58084 19.0335V26.5784H5.7485ZM29.8204 26.5784L24.0719 20.2311H27.9042V13.4048H31.7365V20.1113H35.5689L29.8204 26.5784Z" fill="black"/>
</svg>
