<svg width="24" height="24" viewBox="0 0 24 24" fill="none" xmlns="http://www.w3.org/2000/svg">
<path d="M18.9 11.7002V8.70022M18.9 8.70022V5.70022M18.9 8.70022L21.9 8.70022M18.9 8.70022H15.9M14.1 5.70022V3.90022M14.1 3.90022V2.10022M14.1 3.90022L15.9 3.90022M14.1 3.90022L12.3 3.90022M21.2999 14.9396C20.3976 15.2133 19.4403 15.3604 18.4487 15.3604C13.0307 15.3604 8.63851 10.9682 8.63851 5.55025C8.63851 4.55903 8.78552 3.60215 9.05892 2.70022C5.03148 3.9216 2.09998 7.66326 2.09998 12.0896C2.09998 17.5076 6.49213 21.8998 11.9101 21.8998C16.3369 21.8998 20.0789 18.9677 21.2999 14.9396Z" stroke="#D9D9D9" stroke-width="2" stroke-linecap="round" stroke-linejoin="round"/>
</svg>
