<svg width="40" height="40" viewBox="0 0 40 40" fill="none" xmlns="http://www.w3.org/2000/svg">
<path d="M33.7143 26.3448C34.0582 26.1473 34.2708 25.7814 34.2721 25.3848L34.2921 18.9546C34.2933 18.558 34.5059 18.1921 34.8499 17.9946L38.3355 15.9923C38.6793 15.7949 39.1023 15.7956 39.4455 15.9942C39.7886 16.1928 40 16.5592 40 16.9557V28.646C40 29.0438 39.7872 29.4113 39.4422 29.6094L26.2874 37.1651C25.9455 37.3614 25.5252 37.3618 25.1829 37.1662L14.8593 31.2616C14.5131 31.0639 14.2994 30.6958 14.2993 30.2972V24.4026C14.2993 24.3959 14.3071 24.3914 14.3137 24.3948C14.3193 24.3981 14.3271 24.3948 14.3271 24.387V24.3803C14.3271 24.3759 14.3293 24.3714 14.3337 24.3692L22.8362 19.4846C22.844 19.4802 22.8406 19.468 22.8317 19.468C22.8268 19.468 22.8229 19.464 22.8229 19.4591L22.8395 13.68C22.8411 13.2823 22.6299 12.914 22.2859 12.7144C21.9418 12.5149 21.5173 12.5145 21.1728 12.7133L14.8537 16.3546C14.5105 16.5522 14.0881 16.5522 13.7448 16.3546L7.40576 12.7045C7.06205 12.5065 6.6389 12.5068 6.29547 12.7052C5.95203 12.9037 5.7404 13.2701 5.74016 13.6667V24.1114C5.74043 24.5076 5.52972 24.874 5.18713 25.073C4.84455 25.272 4.42192 25.2735 4.07789 25.077L0.560019 23.0659C0.213149 22.8677 -0.000666653 22.4986 1.56166e-06 22.0992L0.0311151 3.8431C0.0319768 3.44702 0.243616 3.08134 0.586621 2.88328C0.929627 2.68521 1.35213 2.68471 1.69561 2.88196L13.7459 9.80326C14.0886 10 14.51 10 14.8526 9.80326L26.8996 2.88196C27.2436 2.68442 27.6668 2.68524 28.0101 2.88411C28.3533 3.08299 28.5645 3.44975 28.5641 3.84643V22.1069C28.5643 22.5045 28.352 22.8719 28.0074 23.0703L21.6984 26.7037C21.3534 26.9026 21.1413 27.2708 21.1422 27.6689C21.1431 28.0671 21.357 28.4343 21.7028 28.6316L25.1829 30.6127C25.5251 30.8076 25.9449 30.8067 26.2863 30.6105L33.7143 26.3448ZM34.4443 9.96438C34.4446 10.3644 34.6599 10.7334 35.0081 10.9305C35.3562 11.1275 35.7834 11.1223 36.1266 10.9166L39.46 8.91657C39.7947 8.716 39.9997 8.35454 40 7.96432V3.88866C39.9993 3.48881 39.7838 3.12019 39.4357 2.9234C39.0877 2.72661 38.6607 2.732 38.3177 2.93752L34.9843 4.93757C34.6496 5.13815 34.4446 5.4996 34.4443 5.88982V9.96549V9.96438Z" fill="#007FFF"/>
</svg>
