<svg width="40" height="40" viewBox="0 0 40 40" fill="none" xmlns="http://www.w3.org/2000/svg">
<g clip-path="url(#clip0_14_508)">
<path fill-rule="evenodd" clip-rule="evenodd" d="M20.0354 39.4075C19.4981 39.4075 18.9966 39.2644 18.531 39.014L13.7669 36.1879C13.0505 35.7943 13.4087 35.6513 13.6236 35.5797C14.5908 35.2577 14.7699 35.1862 15.7728 34.6138C15.8803 34.5423 16.0236 34.5781 16.131 34.6496L19.7847 36.8318C19.928 36.9033 20.1071 36.9033 20.2145 36.8318L34.5067 28.5681C34.65 28.4966 34.7216 28.3535 34.7216 28.1746V11.6831C34.7216 11.5042 34.65 11.3611 34.5067 11.2896L20.2145 3.06171C20.0712 2.99016 19.8921 2.99016 19.7847 3.06171L5.49251 11.2896C5.34923 11.3611 5.27759 11.54 5.27759 11.6831V28.1746C5.27759 28.3177 5.34923 28.4966 5.49251 28.5681L9.39689 30.8218C11.5103 31.8951 12.8356 30.643 12.8356 29.3909V13.114C12.8356 12.8994 13.0147 12.6847 13.2654 12.6847H15.0923C15.3072 12.6847 15.5221 12.8636 15.5221 13.114V29.3909C15.5221 32.217 13.9818 33.8626 11.2953 33.8626C10.4715 33.8626 9.82673 33.8626 7.99991 32.9683L4.23881 30.8218C3.30749 30.2852 2.73438 29.2836 2.73438 28.2104V11.7189C2.73438 10.6457 3.30749 9.64401 4.23881 9.10741L18.531 0.84376C19.4265 0.342933 20.6444 0.342933 21.5399 0.84376L35.832 9.10741C36.7633 9.64401 37.3365 10.6457 37.3365 11.7189V28.2104C37.3365 29.2836 36.7633 30.2852 35.832 30.8218L21.5399 39.0855C21.0742 39.3001 20.5369 39.4075 20.0354 39.4075ZM24.4413 28.0673C18.1728 28.0673 16.8833 25.2054 16.8833 22.7728C16.8833 22.5582 17.0624 22.3436 17.3131 22.3436H19.1757C19.3907 22.3436 19.5698 22.4867 19.5698 22.7013C19.8563 24.5973 20.6802 25.5274 24.4771 25.5274C27.486 25.5274 28.7755 24.8477 28.7755 23.2379C28.7755 22.3078 28.4173 21.6281 23.7249 21.163C19.8205 20.7695 17.3847 19.911 17.3847 16.7987C17.3847 13.901 19.8205 12.1839 23.904 12.1839C28.4889 12.1839 30.7456 13.7579 31.0321 17.1922C31.0321 17.2995 30.9963 17.4068 30.9247 17.5142C30.853 17.5857 30.7456 17.6572 30.6381 17.6572H28.7755C28.5964 17.6572 28.4173 17.5142 28.3815 17.3353C27.9516 15.3678 26.8412 14.7238 23.904 14.7238C20.6085 14.7238 20.2145 15.8686 20.2145 16.7271C20.2145 17.7646 20.6802 18.0865 25.1218 18.6589C29.5277 19.2313 31.6053 20.0541 31.6053 23.1306C31.5694 26.2786 28.9904 28.0673 24.4413 28.0673Z" fill="#539E43"/>
</g>
<defs>
<clipPath id="clip0_14_508">
<rect width="40" height="39.948" fill="white"/>
</clipPath>
</defs>
</svg>
