<svg width="40" height="40" viewBox="0 0 40 40" fill="none" xmlns="http://www.w3.org/2000/svg">
<ellipse cx="20" cy="19.9307" rx="19.5312" ry="10.2558" fill="url(#paint0_radial_13_302)"/>
<ellipse cx="20" cy="19.9307" rx="18.7683" ry="9.49386" fill="#6181B6"/>
<path fill-rule="evenodd" clip-rule="evenodd" d="M23.7994 23.009L24.7302 18.2239C24.9439 17.142 24.7608 16.3343 24.2114 15.8314C23.6774 15.3438 22.7619 15.0999 21.4191 15.0999H19.8016L20.2594 12.7227C20.2747 12.6312 20.2594 12.5398 20.1984 12.4636C20.1373 12.3874 20.061 12.3569 19.9695 12.3569H17.7417C17.5891 12.3569 17.4671 12.4636 17.4365 12.6008L16.4447 17.6753C16.3532 17.0962 16.1395 16.6086 15.7733 16.2124C15.1172 15.4657 14.0949 15.0847 12.7063 15.0847H8.41859C8.266 15.0847 8.14393 15.1914 8.11341 15.3285L6.11451 25.6301C6.09925 25.7215 6.11451 25.8129 6.17555 25.8891C6.23658 25.9653 6.31288 25.9958 6.40443 25.9958H8.64747C8.80006 25.9958 8.92213 25.8891 8.95265 25.752L9.44093 23.268H11.1041C11.9739 23.268 12.7216 23.1766 13.2861 22.9937C13.8812 22.7956 14.4153 22.4756 14.8883 22.0337C15.2698 21.6832 15.5902 21.287 15.8344 20.8603L15.4376 22.9175C15.4224 23.009 15.4376 23.1004 15.4987 23.1766C15.5597 23.2528 15.636 23.2833 15.7275 23.2833H17.9553C18.1079 23.2833 18.23 23.1766 18.2605 23.0394L19.3591 17.401H20.885C21.5411 17.401 21.7243 17.5229 21.7853 17.5839C21.8311 17.6296 21.9226 17.8125 21.8158 18.3763L20.9308 22.9328C20.9155 23.0242 20.9308 23.1156 20.9918 23.1918C21.0529 23.268 21.1292 23.2985 21.2207 23.2985H23.5095C23.6469 23.2528 23.7689 23.1461 23.7994 23.009ZM13.4845 19.0468C13.3472 19.7631 13.0878 20.2812 12.7063 20.5707C12.3248 20.8603 11.6992 21.0127 10.8753 21.0127H9.88343L10.6006 17.3248H11.8823C12.8284 17.3248 13.2098 17.5229 13.3624 17.6906C13.5608 17.9344 13.6066 18.4068 13.4845 19.0468Z" fill="#2C2C2C"/>
<path fill-rule="evenodd" clip-rule="evenodd" d="M33.3209 16.2124C32.6648 15.4657 31.6425 15.0847 30.2539 15.0847H25.9357C25.7831 15.0847 25.661 15.1914 25.6305 15.3285L23.6316 25.6148C23.6163 25.7063 23.6316 25.7977 23.6926 25.8739C23.7537 25.9501 23.83 25.9806 23.9215 25.9806H26.1646C26.3171 25.9806 26.4392 25.8739 26.4697 25.7367L26.958 23.2528H28.6212C29.491 23.2528 30.2387 23.1614 30.8032 22.9785C31.3983 22.7804 31.9324 22.4604 32.4054 22.0184C32.8021 21.6527 33.1378 21.2413 33.382 20.7993C33.6261 20.3574 33.8092 19.8697 33.916 19.3364C34.1754 18.0106 33.9771 16.9743 33.3209 16.2124ZM30.9863 19.0468C30.849 19.7631 30.5896 20.2812 30.2081 20.5707C29.8267 20.8603 29.201 21.0127 28.3771 21.0127H27.3853L28.1024 17.3248H29.3842C30.3302 17.3248 30.7117 17.523 30.8643 17.6906C31.0779 17.9344 31.1237 18.4068 30.9863 19.0468Z" fill="#2C2C2C"/>
<path fill-rule="evenodd" clip-rule="evenodd" d="M11.8823 17.0201C12.7368 17.0201 13.3014 17.1725 13.5913 17.4925C13.8812 17.8125 13.9423 18.3459 13.7897 19.1078C13.6371 19.9003 13.3319 20.4793 12.8894 20.8146C12.4469 21.1498 11.7755 21.3175 10.8752 21.3175H9.51721L10.3564 17.0201H11.8823ZM6.41968 25.6758H8.66272L9.19678 22.948H11.1194C11.9739 22.948 12.6605 22.8566 13.2098 22.6737C13.7592 22.4909 14.2474 22.2013 14.7052 21.7746C15.0867 21.4241 15.3918 21.0432 15.6207 20.6317C15.8496 20.2203 16.0175 19.7631 16.109 19.2602C16.3531 18.0411 16.17 17.0963 15.575 16.4105C14.9799 15.7248 14.0338 15.3895 12.7368 15.3895H8.41858L6.41968 25.6758Z" fill="#000004"/>
<path fill-rule="evenodd" clip-rule="evenodd" d="M17.757 12.6617H19.9847L19.4507 15.3895H21.4343C22.6855 15.3895 23.54 15.6029 24.0131 16.0448C24.4861 16.4867 24.6234 17.1877 24.4403 18.163L23.5095 22.948H21.2512L22.1362 18.3916C22.243 17.8735 22.1973 17.523 22.0294 17.3401C21.8616 17.1572 21.4801 17.0506 20.9155 17.0506H19.1302L17.9858 22.948H15.7581L17.757 12.6617Z" fill="#000004"/>
<path fill-rule="evenodd" clip-rule="evenodd" d="M29.3842 17.0201C30.2386 17.0201 30.8032 17.1725 31.0931 17.4925C31.3831 17.8125 31.4441 18.3459 31.2915 19.1078C31.1389 19.9003 30.8337 20.4793 30.3912 20.8146C29.9487 21.1498 29.2773 21.3175 28.3771 21.3175H27.019L27.8583 17.0201H29.3842ZM23.9215 25.6758H26.1646L26.6986 22.948H28.6212C29.4757 22.948 30.1624 22.8566 30.7117 22.6737C31.261 22.4909 31.7493 22.2013 32.207 21.7746C32.5885 21.4241 32.8937 21.0432 33.1226 20.6317C33.3514 20.2203 33.5193 19.7631 33.6108 19.2602C33.855 18.0411 33.6719 17.0963 33.0768 16.4105C32.4817 15.7248 31.5356 15.3895 30.2386 15.3895H25.9204L23.9215 25.6758Z" fill="#000004"/>
<defs>
<radialGradient id="paint0_radial_13_302" cx="0" cy="0" r="1" gradientUnits="userSpaceOnUse" gradientTransform="translate(12.1954 13.2816) scale(55.398 29.0894)">
<stop stop-color="white"/>
<stop offset="0.5" stop-color="#4C6B97"/>
<stop offset="1" stop-color="#231F20"/>
</radialGradient>
</defs>
</svg>
