<svg width="40" height="40" viewBox="0 0 40 40" fill="none" xmlns="http://www.w3.org/2000/svg">
<path d="M29.3153 28.785C29.5606 26.7435 29.4872 26.4438 31.0078 26.7747L31.3937 26.8085C32.5631 26.8616 34.0928 26.6203 34.9915 26.2028C36.9262 25.305 38.0731 23.8066 36.1659 24.2C31.8147 25.0978 31.5156 23.6244 31.5156 23.6244C36.1103 16.8072 38.0309 8.15315 36.3728 6.03471C31.8509 0.256898 24.0237 2.98909 23.8928 3.05971L23.8509 3.06752C22.9912 2.88909 22.029 2.78252 20.9481 2.76502C18.979 2.73252 17.485 3.28127 16.3515 4.14065C16.3515 4.14065 2.38811 -1.61216 3.0378 11.3753C3.17592 14.1381 6.9978 32.281 11.5565 26.801C13.2228 24.7972 14.8328 23.1028 14.8328 23.1028C15.6322 23.6338 16.5897 23.905 17.5934 23.8075L17.6712 23.7413C17.6469 23.99 17.6575 24.2335 17.7022 24.5216C16.5281 25.8338 16.8731 26.0641 14.5253 26.5472C12.1497 27.0366 13.5453 27.9081 14.4562 28.136C15.5609 28.4122 18.1162 28.8035 19.8431 26.3866L19.7744 26.6622C20.235 27.031 20.204 29.3113 20.269 30.9403C20.3344 32.5697 20.4434 34.09 20.7756 34.9866C21.1078 35.8828 21.4997 38.1916 24.5853 37.5303C27.164 36.9791 29.1356 36.1838 29.3153 28.785Z" fill="black"/>
<path d="M23.5806 39.1425C22.2159 39.1425 21.3272 38.6147 20.7875 38.105C19.9728 37.3363 19.6497 36.3459 19.4565 35.7544L19.3731 35.5075C18.9843 34.4581 18.8525 32.9472 18.7743 31.0016C18.7625 30.7094 18.7543 30.4084 18.7453 30.0894C18.7387 29.8559 18.7306 29.5631 18.7187 29.2569C18.2271 29.4913 17.7052 29.6562 17.1681 29.7469C16.2059 29.9113 15.1715 29.8581 14.0931 29.5884C13.3322 29.3981 12.5415 29.0038 12.0909 28.3947C10.7775 29.545 9.52466 29.3891 8.84216 29.1613C7.6381 28.7597 6.5606 27.6313 5.54779 25.7122C4.82622 24.345 4.12841 22.5638 3.47341 20.4175C2.33279 16.68 1.6081 12.7434 1.54372 11.4509C1.34122 7.40563 2.43029 4.5125 4.77997 2.85282C8.48654 0.23469 14.1025 1.77438 16.15 2.47344C17.5256 1.64438 19.144 1.24094 20.9728 1.27C21.955 1.28594 22.8903 1.37219 23.759 1.52719C24.6653 1.24219 26.4553 0.833128 28.5043 0.858753C32.2797 0.903753 35.4081 2.375 37.5509 5.11344C39.0803 7.06719 38.324 11.17 37.7375 13.4419C36.9118 16.6375 35.4653 20.0363 33.6884 22.995C34.1709 22.9984 34.87 22.9406 35.8637 22.7353C37.8243 22.3306 38.3978 23.3819 38.5534 23.8525C39.1768 25.7406 36.4668 27.1675 35.6215 27.56C34.5384 28.0628 32.7725 28.3691 31.3262 28.3028L31.2631 28.2988L30.8831 28.2653L30.8456 28.5822L30.8093 28.8919C30.7122 32.6416 30.1765 35.0163 29.0743 36.5853C27.919 38.2303 26.3134 38.6913 24.899 38.9944C24.4165 39.0975 23.9781 39.1425 23.5806 39.1425ZM20.7087 25.4953C21.5897 26.2003 21.6668 27.5269 21.7359 30.0059C21.7447 30.3153 21.7528 30.6081 21.7637 30.8816C21.7968 31.7097 21.8747 33.6488 22.1784 34.4681C22.2212 34.5841 22.2597 34.7016 22.3003 34.8263C22.6387 35.8625 22.8084 36.3822 24.2718 36.0694C25.5003 35.8059 26.1318 35.5697 26.6262 34.8659C27.3447 33.8428 27.7465 31.7847 27.8203 28.7488L29.315 28.785L27.8306 28.6069L27.8743 28.2363C28.0165 27.0144 28.119 26.1319 28.9356 25.5481C29.5909 25.08 30.3375 25.1253 30.9322 25.2325C30.2787 24.7388 30.0981 24.1597 30.05 23.9222L29.9253 23.3081L30.2756 22.7884C32.2934 19.7947 33.9572 16.1153 34.8409 12.6934C35.749 9.1775 35.4722 7.31032 35.1953 6.95719C31.53 2.27375 25.174 4.2075 24.5103 4.42688L24.3981 4.4875L23.8356 4.59219L23.5475 4.5325C22.7531 4.3675 21.8706 4.27625 20.9247 4.26094C19.4384 4.23594 18.2393 4.58719 17.2562 5.33313L16.574 5.85032L15.7825 5.52438C14.0912 4.83282 9.12372 3.4425 6.50247 5.29907C5.04747 6.32969 4.38466 8.34907 4.53216 11.3013C4.58091 12.2759 5.2431 15.9656 6.3356 19.5441C7.84529 24.4894 9.21716 26.1322 9.78997 26.3231C9.88997 26.3569 10.1493 26.1553 10.4075 25.8453C11.4837 24.5551 12.5982 23.2973 13.7493 22.0734L14.615 21.1625L15.6615 21.8578C16.0834 22.1381 16.5487 22.2972 17.0265 22.3272L19.5225 20.1984L19.1609 23.8884C19.1528 23.9713 19.1487 24.0841 19.1812 24.2934L19.29 24.9928L18.8181 25.5203L18.7637 25.5816L20.135 26.2144L20.7087 25.4953Z" fill="black"/>
<path d="M36.1659 24.2C31.8144 25.0978 31.5153 23.6244 31.5153 23.6244C36.11 16.8069 38.0306 8.15251 36.3731 6.0347C31.8512 0.257198 24.0234 2.98939 23.8928 3.06032L23.8506 3.06782C22.9909 2.88939 22.0287 2.78314 20.9472 2.76564C18.9781 2.73345 17.4847 3.28189 16.3512 4.14126C16.3512 4.14126 2.38748 -1.61124 3.03686 11.3759C3.17498 14.1391 6.99686 32.2819 11.5556 26.8019C13.2219 24.7981 14.8315 23.1038 14.8315 23.1038C15.6312 23.6347 16.5884 23.9059 17.5919 23.8084L17.67 23.7422C17.6456 23.9909 17.6569 24.2344 17.7012 24.5225C16.5269 25.8347 16.8719 26.065 14.524 26.5481C12.1484 27.0375 13.544 27.9091 14.4553 28.1369C15.5597 28.4131 18.1153 28.8044 19.8419 26.3875L19.7728 26.6631C20.2331 27.0319 20.5562 29.0606 20.5022 30.8997C20.4478 32.7388 20.4115 34.0016 20.7744 34.9878C21.1369 35.9741 21.4981 38.1928 24.5844 37.5316C27.1631 36.9791 28.4994 35.5469 28.6856 33.1581C28.8175 31.4597 29.1159 31.7109 29.135 30.1925L29.3747 29.4738C29.6509 27.1716 29.4184 26.4291 31.0075 26.7744L31.3934 26.8081C32.5628 26.8613 34.0931 26.62 34.9915 26.2025C36.9259 25.3053 38.0731 23.8066 36.1659 24.2Z" fill="#336791"/>
<path d="M23.7366 38.2209C21.1641 38.2209 20.3491 36.1838 20.0156 35.3506C19.5275 34.1297 19.4222 29.3916 19.5309 25.5059C19.5325 25.4404 19.5471 25.3759 19.5738 25.316C19.6005 25.2561 19.6387 25.2021 19.6864 25.1571C19.734 25.1121 19.7901 25.0769 19.8513 25.0536C19.9126 25.0304 19.9779 25.0195 20.0434 25.0216C20.1089 25.0233 20.1733 25.038 20.2331 25.0647C20.2929 25.0914 20.3468 25.1297 20.3918 25.1772C20.4368 25.2248 20.472 25.2808 20.4953 25.342C20.5186 25.4031 20.5297 25.4683 20.5278 25.5338C20.4025 30.0153 20.5803 34.0766 20.9416 34.9803C21.5053 36.3894 22.3603 37.6219 24.7775 37.1041C27.0722 36.6119 27.9316 35.7419 28.3144 33.5228C28.6081 31.82 29.1891 26.9756 29.2606 26.0197C29.2654 25.9544 29.283 25.8906 29.3125 25.8321C29.342 25.7736 29.3827 25.7215 29.4323 25.6788C29.482 25.636 29.5396 25.6035 29.6018 25.5831C29.664 25.5627 29.7297 25.5547 29.795 25.5597C29.9268 25.5697 30.0493 25.6316 30.1355 25.7317C30.2217 25.8319 30.2647 25.9622 30.255 26.0941C30.1803 27.0894 29.6022 31.9244 29.2972 33.6925C28.8453 36.3134 27.6769 37.5022 24.9866 38.0791C24.5294 38.1769 24.114 38.2206 23.7366 38.2209ZM9.7878 28.2706C9.56294 28.2699 9.33968 28.2329 9.12655 28.1613C7.45561 27.6038 5.86405 24.8825 4.39593 20.0722C3.27843 16.4106 2.5703 12.5887 2.50811 11.3466C2.32405 7.66406 3.27218 5.05875 5.32686 3.60344C9.39155 0.723437 16.2294 3.46594 16.5184 3.58406C16.6409 3.63408 16.7385 3.7307 16.7897 3.85265C16.8409 3.97461 16.8416 4.11192 16.7916 4.23437C16.7415 4.35683 16.6449 4.4544 16.523 4.50562C16.401 4.55684 16.2637 4.55752 16.1412 4.5075C16.0753 4.48062 9.51843 1.85375 5.90124 4.41844C4.14436 5.66406 3.3378 7.97844 3.50374 11.2969C3.55593 12.3434 4.21749 16.0734 5.34936 19.7809C6.65999 24.0753 8.15155 26.785 9.44186 27.2153C9.64436 27.2828 10.2606 27.4881 11.1416 26.4288C12.1689 25.195 13.2347 23.9937 14.3375 22.8269C14.4298 22.7348 14.5544 22.6826 14.6847 22.6813C14.815 22.68 14.9407 22.7297 15.0348 22.8199C15.1289 22.9101 15.1839 23.0335 15.1882 23.1638C15.1924 23.294 15.1455 23.4208 15.0575 23.5169C15.0425 23.5325 13.5428 25.1003 11.9084 27.0666C11.1344 27.9975 10.3925 28.2706 9.7878 28.2706ZM31.4844 24.0691C31.394 24.0689 31.3053 24.0443 31.2278 23.9976C31.1504 23.951 31.0871 23.8842 31.0446 23.8044C31.0022 23.7246 30.9823 23.6347 30.9869 23.5445C30.9916 23.4542 31.0208 23.3669 31.0712 23.2919C35.7159 16.3997 37.3462 8.07188 35.95 6.2875C34.1925 4.04188 31.7109 2.86906 28.5737 2.80125C26.2509 2.75125 24.4047 3.34437 24.1028 3.44781L24.0269 3.47875C23.7234 3.57406 23.4906 3.40781 23.4028 3.21344C23.3527 3.10207 23.3451 2.97624 23.3815 2.85966C23.4178 2.74309 23.4955 2.64384 23.6 2.58062C23.6144 2.57219 23.66 2.55281 23.7341 2.52562L23.7275 2.5275L23.7341 2.52531C24.2469 2.3375 26.1212 1.77531 28.4428 1.80187C31.914 1.83875 34.7816 3.17719 36.7347 5.67312C37.6587 6.85406 37.6609 9.57469 36.7406 13.1378C35.8025 16.7706 34.0372 20.6747 31.8978 23.8494C31.8022 23.9922 31.6447 24.0691 31.4844 24.0691ZM31.7219 27.2597C30.9287 27.2597 30.2178 27.1478 29.7922 26.8928C29.3547 26.6306 29.2712 26.2744 29.2603 26.0853C29.1409 23.9884 30.2978 23.6234 30.8878 23.4569C30.8056 23.3325 30.6887 23.1863 30.5678 23.0353C30.2237 22.6053 29.7525 22.0166 29.3894 21.1359C29.3325 20.9984 29.1544 20.6788 28.9481 20.3084C27.8297 18.3028 25.5025 14.1294 26.9975 11.9922C27.6894 11.0031 29.0672 10.6138 31.0972 10.8309C30.5 9.01156 27.6562 3.32031 20.9084 3.20969C18.879 3.17594 17.2147 3.8 15.9641 5.06281C13.1641 7.89062 13.2653 13.0072 13.2669 13.0584C13.2686 13.1239 13.2574 13.189 13.2339 13.2502C13.2105 13.3113 13.1752 13.3672 13.1302 13.4147C13.0851 13.4622 13.0311 13.5004 12.9713 13.527C12.9115 13.5537 12.847 13.5683 12.7816 13.57C12.7161 13.5717 12.6509 13.5605 12.5898 13.5371C12.5287 13.5136 12.4728 13.4784 12.4253 13.4333C12.3778 13.3882 12.3396 13.3342 12.313 13.2744C12.2863 13.2146 12.2717 13.1501 12.27 13.0847C12.2637 12.8575 12.1594 7.48813 15.2556 4.36094C16.7047 2.8975 18.6122 2.175 20.925 2.21281C25.2419 2.28375 28.0206 4.47844 29.5912 6.30687C31.3034 8.29969 32.1428 10.4978 32.2119 11.2316C32.2634 11.7772 31.8719 11.8863 31.7928 11.9025L31.6128 11.9066C29.6206 11.5875 28.3425 11.8091 27.814 12.5641C26.6769 14.1894 28.8784 18.1372 29.8184 19.8231C30.0584 20.2531 30.2316 20.5641 30.3109 20.7559C30.6197 21.5047 31.0225 22.0078 31.3459 22.4122C31.6306 22.7678 31.8772 23.0763 31.9653 23.4381C32.0062 23.51 32.5872 24.3694 36.0344 23.6578C36.8984 23.4797 37.4165 23.6319 37.575 24.1109C37.8866 25.0531 36.1384 26.1522 35.1706 26.6016C34.3034 27.0047 32.9194 27.2597 31.7219 27.2597ZM30.2544 26.0031C30.3637 26.1134 30.9109 26.3038 32.0441 26.255C33.0515 26.2119 34.1141 25.9928 34.7516 25.6969C35.5669 25.3181 36.1112 24.8947 36.3931 24.6056L36.2369 24.6344C34.0328 25.0894 32.4737 25.0288 31.6031 24.4541C31.5446 24.4154 31.4883 24.3736 31.4344 24.3288C31.34 24.3659 31.2528 24.3903 31.1906 24.4078C30.6969 24.5463 30.1862 24.6897 30.2544 26.0031ZM16.0162 28.7891C15.4687 28.7891 14.8925 28.7144 14.3041 28.5672C13.6944 28.4147 12.6666 27.9556 12.6822 27.2016C12.7 26.3556 13.9303 26.1019 14.3934 26.0066C16.0666 25.6619 16.1756 25.5238 16.6984 24.8597C16.8509 24.6663 17.0406 24.4253 17.2994 24.1366C17.6834 23.7066 18.1031 23.4888 18.5469 23.4888C18.8559 23.4888 19.1094 23.5934 19.2769 23.6631C19.8106 23.8844 20.2559 24.4194 20.4391 25.0591C20.6044 25.6363 20.5253 26.1919 20.2172 26.6234C19.2056 28.04 17.7528 28.7891 16.0162 28.7891ZM13.7594 27.2444C13.9097 27.3606 14.2109 27.5159 14.5462 27.5997C15.0559 27.7272 15.5503 27.7919 16.0166 27.7919C17.4372 27.7919 18.5778 27.2038 19.4062 26.0438C19.5791 25.8019 19.5272 25.4947 19.4809 25.3331C19.3841 24.9947 19.1434 24.6869 18.8956 24.5841C18.7612 24.5284 18.6497 24.4859 18.5472 24.4859C18.4922 24.4859 18.3247 24.4859 18.0428 24.8013C17.8483 25.02 17.6613 25.2454 17.4822 25.4769C16.8309 26.3038 16.5325 26.5844 14.595 26.9834C14.1222 27.0803 13.8797 27.1791 13.7594 27.2444ZM17.5934 24.9444C17.4744 24.9442 17.3594 24.9014 17.2691 24.8238C17.1788 24.7462 17.1193 24.6389 17.1012 24.5213C17.0888 24.4385 17.0805 24.3552 17.0762 24.2716C15.8062 24.2478 14.5809 23.7028 13.6506 22.7322C12.4744 21.505 11.9391 19.8047 12.1822 18.0675C12.4462 16.1809 12.3475 14.5156 12.2944 13.6209C12.2797 13.3722 12.2691 13.1925 12.2697 13.0681C12.2706 12.9103 12.2737 12.4919 13.6725 11.7828C14.17 11.5306 15.1675 11.0906 16.2572 10.9778C18.0625 10.7913 19.2525 11.5953 19.6087 13.2422C20.5703 17.6884 19.685 19.655 19.0384 21.0912C18.9181 21.3587 18.8044 21.6113 18.7134 21.8559L18.6331 22.0716C18.2916 22.9875 17.9962 23.7788 18.0869 24.3697C18.0968 24.4344 18.0939 24.5005 18.0783 24.5641C18.0627 24.6277 18.0348 24.6876 17.996 24.7403C17.9573 24.7931 17.9085 24.8378 17.8525 24.8717C17.7965 24.9056 17.7344 24.9282 17.6697 24.9381L17.5934 24.9444ZM13.27 13.2063L13.2894 13.5622C13.3444 14.4916 13.4469 16.2209 13.1694 18.2059C12.9691 19.6388 13.4066 21.0372 14.3703 22.0422C15.1319 22.8366 16.1341 23.275 17.1641 23.275H17.1853C17.3006 22.7891 17.4922 22.2759 17.6984 21.7231L17.7781 21.5088C17.8809 21.2325 18.0012 20.965 18.1287 20.6819C18.7509 19.2994 19.5256 17.5784 18.6334 13.4531C18.4569 12.6359 18.0284 12.1631 17.3244 12.0072C15.8781 11.6878 13.7228 12.7756 13.27 13.2063ZM16.2794 12.9947C16.2544 13.1709 16.6022 13.6416 17.0559 13.7044C17.5087 13.7678 17.8962 13.3997 17.9209 13.2234C17.9456 13.0472 17.5981 12.8528 17.1444 12.7897C16.6909 12.7266 16.3034 12.8184 16.2794 12.9947ZM17.16 13.8778L17.0328 13.8691C16.7516 13.83 16.4672 13.6528 16.2725 13.3947C16.2041 13.3041 16.0925 13.1284 16.1147 12.9716C16.1462 12.7416 16.4269 12.6038 16.8647 12.6038C16.9625 12.6038 17.0644 12.6109 17.1669 12.6253C17.4062 12.6584 17.6284 12.7275 17.7925 12.8191C18.0769 12.9778 18.0978 13.155 18.085 13.2466C18.05 13.5006 17.6459 13.8778 17.16 13.8778ZM16.4447 13.0241C16.4587 13.1328 16.7281 13.4916 17.0787 13.54L17.1603 13.5456C17.484 13.5456 17.7259 13.2909 17.7544 13.2075C17.7244 13.1506 17.5162 13.0094 17.1216 12.9544C17.0366 12.9422 16.9508 12.936 16.865 12.9359C16.6112 12.9359 16.4766 12.9931 16.4447 13.0241ZM30.0712 12.635C30.0959 12.8112 29.7484 13.2819 29.295 13.345C28.8419 13.4081 28.4541 13.0403 28.4291 12.8641C28.4053 12.6878 28.7528 12.4931 29.2059 12.4303C29.659 12.3669 30.0462 12.4591 30.0712 12.635ZM29.1903 13.435C28.754 13.435 28.3775 13.0956 28.3465 12.8753C28.3106 12.6109 28.7459 12.41 29.194 12.3478C29.2928 12.3341 29.3906 12.3272 29.4847 12.3272C29.8715 12.3272 30.1278 12.4406 30.1534 12.6238C30.17 12.7422 30.0791 12.925 29.9225 13.09C29.819 13.1984 29.6019 13.3863 29.3059 13.4272L29.1903 13.435ZM29.485 12.4934C29.3987 12.4934 29.3087 12.5 29.2175 12.5125C28.7672 12.5753 28.4984 12.7559 28.5116 12.8528C28.5266 12.9594 28.8141 13.2691 29.1906 13.2691L29.2834 13.2625C29.5294 13.2284 29.7141 13.0678 29.8022 12.9753C29.9406 12.83 29.9956 12.6931 29.989 12.6466C29.9803 12.5847 29.8141 12.4934 29.485 12.4934ZM30.7241 22.7569C30.6337 22.7569 30.5451 22.7324 30.4676 22.686C30.3901 22.6395 30.3267 22.5728 30.2842 22.4931C30.2417 22.4134 30.2217 22.3236 30.2263 22.2334C30.2309 22.1432 30.2599 22.0559 30.3103 21.9809C31.3722 20.395 31.1778 18.7778 30.99 17.2138C30.9097 16.5475 30.8272 15.8584 30.8484 15.1972C30.8703 14.5169 30.9569 13.9556 31.0403 13.4128C31.1394 12.7697 31.2331 12.1622 31.1944 11.4409C31.1908 11.3756 31.2002 11.3101 31.222 11.2484C31.2437 11.1866 31.2774 11.1298 31.3212 11.0811C31.3649 11.0323 31.4178 10.9927 31.4768 10.9644C31.5359 10.9362 31.5999 10.9198 31.6653 10.9163C31.7307 10.9127 31.7961 10.9221 31.8579 10.9439C31.9196 10.9656 31.9765 10.9993 32.0252 11.0431C32.0739 11.0868 32.1135 11.1397 32.1418 11.1987C32.1701 11.2578 32.1865 11.3218 32.19 11.3872C32.2344 12.2116 32.1284 12.8991 32.0259 13.5644C31.9469 14.0778 31.865 14.6088 31.8453 15.2291C31.8262 15.8147 31.9009 16.4366 31.98 17.0947C32.18 18.7578 32.4065 20.6428 31.139 22.5356C31.0934 22.6038 31.0317 22.6596 30.9593 22.6982C30.8869 22.7368 30.8061 22.757 30.7241 22.7569Z" fill="white"/>
</svg>
