<svg width="40" height="40" viewBox="0 0 40 40" fill="none" xmlns="http://www.w3.org/2000/svg">
<g clip-path="url(#clip0_13_304)">
<path d="M19.808 0.156067C9.67797 0.156068 10.3106 4.54335 10.3106 4.54335L10.3219 9.08853H19.9887V10.4532H6.48221C6.48221 10.4532 0 9.71903 0 19.927C-7.225e-07 30.1351 5.65782 29.7731 5.65782 29.7731H9.03444V25.0361C9.03444 25.0361 8.85244 19.3857 14.6019 19.3857H24.1897C24.1897 19.3857 29.5765 19.4727 29.5765 14.1864V5.44562C29.5765 5.44562 30.3944 0.156067 19.808 0.156067ZM14.4777 3.2125C15.4395 3.2125 16.2168 3.98884 16.2168 4.94937C16.2168 5.9099 15.4395 6.68624 14.4777 6.68624C13.5159 6.68624 12.7386 5.9099 12.7386 4.94937C12.7386 3.98884 13.5159 3.2125 14.4777 3.2125Z" fill="url(#paint0_linear_13_304)"/>
<path d="M20.0957 39.8004C30.2257 39.8004 29.5932 35.4131 29.5932 35.4131L29.5819 30.8679H19.915V29.5032H33.4215C33.4215 29.5032 39.9037 30.2374 39.9037 20.0294C39.9037 9.82135 34.2459 10.1834 34.2459 10.1834H30.8693V14.9203C30.8693 14.9203 31.0513 20.5707 25.3018 20.5707H15.714C15.714 20.5707 10.3272 20.4838 10.3272 25.7701V34.5108C10.3272 34.5108 9.50935 39.8004 20.0957 39.8004ZM25.426 36.7439C24.4642 36.7439 23.6869 35.9676 23.6869 35.007C23.6869 34.0465 24.4642 33.2702 25.426 33.2702C26.3878 33.2702 27.1652 34.0465 27.1652 35.007C27.1652 35.9676 26.3878 36.7439 25.426 36.7439Z" fill="url(#paint1_linear_13_304)"/>
</g>
<defs>
<linearGradient id="paint0_linear_13_304" x1="3.83482" y1="3.72197" x2="23.5842" y2="23.2998" gradientUnits="userSpaceOnUse">
<stop stop-color="#387EB8"/>
<stop offset="1" stop-color="#366994"/>
</linearGradient>
<linearGradient id="paint1_linear_13_304" x1="15.9726" y1="16.277" x2="37.1826" y2="36.3536" gradientUnits="userSpaceOnUse">
<stop stop-color="#FFE052"/>
<stop offset="1" stop-color="#FFC331"/>
</linearGradient>
<clipPath id="clip0_13_304">
<rect width="40" height="39.948" fill="white"/>
</clipPath>
</defs>
</svg>
