<svg width="40" height="40" viewBox="0 0 40 40" fill="none" xmlns="http://www.w3.org/2000/svg">
<path d="M32.888 13.7046C32.4731 13.5619 32.0431 13.427 31.6004 13.2993C31.6732 13.0027 31.7399 12.71 31.7993 12.4222C32.774 7.69697 32.1367 3.89026 29.9605 2.63693C27.8738 1.43515 24.4611 2.6882 21.0145 5.68379C20.6831 5.97184 20.3507 6.27682 20.0185 6.59645C19.7972 6.38497 19.5762 6.18061 19.3557 5.98514C15.7436 2.78206 12.1229 1.43224 9.94884 2.6892C7.86412 3.89446 7.24675 7.47312 8.12414 11.9513C8.20887 12.3838 8.30791 12.8256 8.41991 13.2747C7.90748 13.4199 7.41279 13.5748 6.93946 13.7396C2.70458 15.2141 0 17.5251 0 19.9222C0 22.3979 2.90337 24.8811 7.31432 26.3868C7.66242 26.5056 8.02361 26.6179 8.39584 26.7246C8.27501 27.2103 8.16992 27.6863 8.08171 28.1506C7.24511 32.551 7.89844 36.0451 9.97761 37.2428C12.1252 38.4796 15.7295 37.2083 19.2391 34.1445C19.5165 33.9023 19.7949 33.6454 20.0738 33.3762C20.4352 33.7239 20.7962 34.0529 21.1551 34.3615C24.5546 37.283 27.9122 38.4628 29.9894 37.2618C32.1349 36.0214 32.8321 32.2679 31.9269 27.7011C31.8578 27.3523 31.7773 26.996 31.687 26.6334C31.9401 26.5586 32.1886 26.4815 32.4309 26.4013C37.0165 24.8839 40 22.431 40 19.9222C40 17.5164 37.2082 15.1899 32.888 13.7046ZM31.8934 24.7814C31.6747 24.8537 31.4503 24.9236 31.2216 24.9914C30.7154 23.3908 30.0321 21.6889 29.1961 19.9305C29.9939 18.214 30.6507 16.5338 31.1428 14.9436C31.552 15.0619 31.9491 15.1866 32.3318 15.3182C36.0333 16.5908 38.2912 18.4724 38.2912 19.9222C38.2912 21.4665 35.8528 23.4712 31.8934 24.7814ZM30.2506 28.0325C30.6509 30.0519 30.708 31.8776 30.4429 33.3049C30.2047 34.5874 29.7256 35.4424 29.1332 35.7849C27.8726 36.5136 25.1768 35.5664 22.2696 33.0678C21.9363 32.7814 21.6006 32.4756 21.2638 32.1519C22.3909 30.9208 23.5173 29.4897 24.6167 27.9002C26.5504 27.7288 28.3773 27.4487 30.0341 27.0662C30.1157 27.3949 30.1881 27.7173 30.2506 28.0325ZM13.6369 35.659C12.4053 36.0934 11.4244 36.1058 10.8314 35.7643C9.56971 35.0376 9.04518 32.2321 9.76066 28.4688C9.84261 28.0379 9.94016 27.5952 10.0526 27.1426C11.6912 27.5045 13.5047 27.7649 15.443 27.9218C16.5498 29.4771 17.7088 30.9067 18.8768 32.1585C18.6216 32.4045 18.3674 32.6388 18.1146 32.8595C16.5627 34.2143 15.0075 35.1755 13.6369 35.659ZM7.86697 24.7719C5.91653 24.1062 4.30579 23.2409 3.2017 22.2966C2.2096 21.4481 1.70872 20.6057 1.70872 19.9222C1.70872 18.4675 3.88023 16.6121 7.50193 15.3511C7.94137 15.198 8.40139 15.0538 8.87879 14.9184C9.37932 16.5444 10.0359 18.2445 10.8283 19.9637C10.0257 21.7084 9.35974 23.4356 8.85429 25.0807C8.51396 24.983 8.18424 24.8802 7.86697 24.7719ZM9.8011 11.6236C9.04938 7.78678 9.54863 4.89244 10.8049 4.16616C12.1431 3.39244 15.1023 4.49559 18.2211 7.2613C18.4204 7.43807 18.6206 7.62309 18.8213 7.81451C17.6591 9.0608 16.5107 10.4797 15.4138 12.0258C13.5325 12.2 11.7317 12.4797 10.0761 12.8543C9.97198 12.4361 9.87978 12.0252 9.8011 11.6236ZM27.0553 15.8785C26.6595 15.1958 26.2532 14.5291 25.8389 13.8807C27.1152 14.0418 28.338 14.2557 29.4863 14.5175C29.1415 15.6209 28.7118 16.7746 28.206 17.9573C27.8432 17.2694 27.4594 16.5757 27.0553 15.8785ZM20.0191 9.03413C20.8073 9.88692 21.5966 10.839 22.3729 11.8721C21.5906 11.8352 20.7986 11.816 20 11.816C19.209 11.816 18.4228 11.8347 17.6453 11.871C18.4224 10.8476 19.2186 9.89673 20.0191 9.03413ZM12.9378 15.8903C12.5424 16.575 12.1658 17.2649 11.8086 17.9561C11.311 16.7775 10.8853 15.6185 10.5376 14.4994C11.6788 14.2443 12.8959 14.0358 14.164 13.8777C13.7439 14.5321 13.3342 15.2036 12.9378 15.8902V15.8903ZM14.2005 26.0883C12.8903 25.9424 11.655 25.7445 10.514 25.4965C10.8673 24.3575 11.3024 23.1737 11.8106 21.9698C12.1686 22.6604 12.5468 23.3506 12.9446 24.0368H12.9446C13.3498 24.7358 13.7696 25.4206 14.2005 26.0883ZM20.0664 30.9305C19.2565 30.0578 18.4486 29.0925 17.6597 28.0541C18.4256 28.0841 19.2064 28.0994 20 28.0994C20.8153 28.0994 21.6213 28.0811 22.4146 28.0458C21.6357 29.1029 20.8492 30.0697 20.0664 30.9305ZM28.2223 21.9084C28.757 23.1254 29.2077 24.3029 29.5655 25.4226C28.4057 25.6868 27.1536 25.8996 25.8342 26.0578C26.2495 25.4006 26.6594 24.7225 27.0621 24.025C27.4696 23.3194 27.8565 22.6126 28.2223 21.9084ZM25.582 23.1725C24.9567 24.2552 24.3148 25.2888 23.6631 26.2645C22.4761 26.3492 21.2498 26.3929 20 26.3929C18.7552 26.3929 17.5444 26.3543 16.3784 26.2787C15.7005 25.2902 15.0446 24.2536 14.4233 23.1818H14.4234C13.8038 22.1129 13.2335 21.035 12.7167 19.9631C13.2333 18.8888 13.8022 17.8096 14.4182 16.7427L14.4181 16.7429C15.0358 15.6731 15.686 14.6415 16.3576 13.6592C17.5473 13.5694 18.7671 13.5225 19.9999 13.5225H20C21.2384 13.5225 22.4598 13.5698 23.649 13.6603C24.3105 14.6354 24.9562 15.6637 25.5763 16.7337C26.2035 17.8156 26.7797 18.8876 27.3007 19.9389C26.7813 21.0082 26.2064 22.091 25.582 23.1725ZM29.107 4.11539C30.4465 4.88682 30.9674 7.99803 30.1258 12.0778C30.0721 12.3381 30.0116 12.6033 29.946 12.872C28.2865 12.4896 26.4844 12.205 24.5977 12.0282C23.4986 10.4651 22.3596 9.04402 21.2164 7.81373C21.5237 7.51842 21.8307 7.23684 22.1363 6.97111C25.0894 4.40451 27.8495 3.39116 29.107 4.11539ZM20 16.3549C21.9727 16.3549 23.5719 17.952 23.5719 19.9222C23.5719 21.8922 21.9727 23.4894 20 23.4894C18.0273 23.4894 16.4281 21.8922 16.4281 19.9222C16.4281 17.952 18.0273 16.3549 20 16.3549Z" fill="#00D8FF"/>
</svg>
