<svg width="40" height="40" viewBox="0 0 40 40" fill="none" xmlns="http://www.w3.org/2000/svg">
<g clip-path="url(#clip0_13_313)">
<path d="M39.726 19.5093L38.0467 18.4698C38.0326 18.3062 38.0165 18.143 37.999 17.9806L39.442 16.6346C39.5888 16.4978 39.6545 16.2953 39.6148 16.0992C39.5762 15.9024 39.4382 15.7404 39.2506 15.6704L37.4058 14.9806C37.3596 14.8209 37.3111 14.6623 37.2614 14.5044L38.4121 12.9062C38.5294 12.7438 38.5535 12.5324 38.4771 12.3471C38.4006 12.1625 38.2336 12.0303 38.036 11.9978L36.0908 11.6813C36.0151 11.5338 35.9364 11.3886 35.8569 11.2445L36.6744 9.45025C36.7581 9.26758 36.7409 9.05509 36.6293 8.88923C36.5181 8.7226 36.3297 8.62515 36.1286 8.63279L34.1544 8.70158C34.0523 8.57394 33.9484 8.44744 33.8425 8.32324L34.2961 6.40017C34.342 6.20488 34.2843 6.00042 34.1421 5.85864C34.0011 5.71723 33.7963 5.65876 33.601 5.70462L31.6783 6.15787C31.5537 6.0524 31.4272 5.94806 31.2992 5.84602L31.3684 3.87174C31.376 3.67187 31.2785 3.48193 31.1119 3.3711C30.9449 3.25951 30.7336 3.2427 30.5513 3.32563L28.7574 4.14347C28.6125 4.06397 28.4673 3.98525 28.3206 3.9092L28.0034 1.96358C27.9713 1.76638 27.839 1.59899 27.6541 1.52256C27.4695 1.44574 27.2578 1.47058 27.0953 1.58753L25.496 2.73823C25.3385 2.68817 25.1803 2.64002 25.0205 2.59416L24.3307 0.749049C24.2608 0.561023 24.0988 0.42306 23.9019 0.384079C23.7055 0.34548 23.5033 0.410831 23.3669 0.556819L22.0209 2.00103C21.8585 1.98307 21.6949 1.96664 21.5317 1.95326L20.4922 0.273632C20.3871 0.103568 20.201 0 20.0008 0C19.8005 0 19.6144 0.103568 19.5097 0.273632L18.4702 1.95326C18.3066 1.96664 18.143 1.98307 17.9806 2.00103L16.6342 0.556819C16.4978 0.410831 16.2953 0.34548 16.0992 0.384079C15.9024 0.423442 15.7404 0.561023 15.6704 0.749049L14.9806 2.59416C14.8209 2.64002 14.6626 2.68855 14.5048 2.73823L12.9058 1.58753C12.7434 1.4702 12.5317 1.44536 12.3467 1.52256C12.1621 1.59899 12.0295 1.76638 11.9974 1.96358L11.6802 3.9092C11.5335 3.98525 11.3882 4.06359 11.2434 4.14347L9.44949 3.32563C9.26719 3.24231 9.05471 3.25951 8.88885 3.3711C8.72222 3.48193 8.62477 3.67187 8.63241 3.87174L8.7012 5.84602C8.57356 5.94806 8.44706 6.0524 8.32209 6.15787L6.3994 5.70462C6.20412 5.65914 5.99927 5.71723 5.85787 5.85864C5.71571 6.00042 5.658 6.20488 5.70386 6.40017L6.15673 8.32324C6.05163 8.44783 5.94768 8.57394 5.84564 8.70158L3.87136 8.63279C3.67225 8.62706 3.48193 8.7226 3.37072 8.88923C3.25913 9.05509 3.24231 9.26758 3.32524 9.45025L4.14308 11.2445C4.06359 11.3886 3.98487 11.5338 3.90881 11.6813L1.96358 11.9978C1.766 12.0299 1.59937 12.1621 1.52256 12.3471C1.44612 12.5324 1.47096 12.7438 1.58753 12.9062L2.73823 14.5044C2.68817 14.6623 2.63963 14.8209 2.59377 14.9806L0.748667 15.6704C0.561405 15.7404 0.423442 15.9024 0.384461 16.0992C0.34548 16.2956 0.410831 16.4978 0.557201 16.6346L2.00065 17.9806C1.98269 18.143 1.96664 18.3066 1.95288 18.4698L0.273632 19.5093C0.103568 19.6144 0 19.8001 0 20.0008C0 20.2014 0.103568 20.3871 0.273632 20.4918L1.95288 21.5313C1.96664 21.6949 1.98269 21.8581 2.00065 22.0205L0.557201 23.3669C0.410831 23.5033 0.34548 23.7059 0.384461 23.9019C0.423442 24.0988 0.561405 24.2604 0.748667 24.3307L2.59377 25.0205C2.63963 25.1803 2.68817 25.3389 2.73823 25.4967L1.58753 27.0953C1.47058 27.2581 1.44574 27.4695 1.52256 27.6541C1.59937 27.8394 1.76638 27.9716 1.96396 28.0034L3.90881 28.3198C3.98487 28.4673 4.06283 28.6125 4.14308 28.7574L3.32524 30.5509C3.24193 30.7332 3.25913 30.9453 3.37072 31.1119C3.48232 31.2789 3.67225 31.3764 3.87136 31.3684L5.84488 31.2992C5.94768 31.4276 6.05125 31.5533 6.15673 31.6783L5.70386 33.6017C5.658 33.7966 5.71571 34.0003 5.85787 34.1421C5.99889 34.2847 6.20412 34.3416 6.3994 34.2958L8.32209 33.8429C8.44706 33.9491 8.57356 34.0523 8.7012 34.154L8.63241 36.1286C8.62477 36.3285 8.72222 36.5181 8.88885 36.6297C9.05471 36.7409 9.26719 36.7577 9.44949 36.6744L11.2434 35.8569C11.3878 35.9372 11.5331 36.0151 11.6802 36.0912L11.9974 38.0357C12.0295 38.2336 12.1617 38.401 12.3467 38.4771C12.5313 38.5539 12.7434 38.529 12.9058 38.4125L14.504 37.261C14.6619 37.3111 14.8205 37.36 14.9802 37.4058L15.67 39.2502C15.74 39.4375 15.902 39.5762 16.0988 39.6144C16.2953 39.6541 16.4974 39.5884 16.6339 39.4417L17.9802 37.9982C18.1427 38.0169 18.3062 38.0326 18.4698 38.0471L19.5093 39.7264C19.614 39.8957 19.8001 40 20.0004 40C20.2006 40 20.3868 39.8961 20.4918 39.7264L21.5313 38.0471C21.6949 38.0326 21.8581 38.0169 22.0205 37.9982L23.3665 39.4417C23.503 39.5884 23.7055 39.6541 23.9016 39.6144C24.0984 39.5758 24.2604 39.4375 24.3303 39.2502L25.0202 37.4058C25.1799 37.36 25.3385 37.3111 25.4963 37.261L27.095 38.4125C27.2574 38.529 27.4691 38.5539 27.6537 38.4771C27.8386 38.401 27.9709 38.2332 28.003 38.0357L28.3202 36.0912C28.4669 36.0151 28.6122 35.936 28.757 35.8569L30.5509 36.6744C30.7332 36.7577 30.9453 36.7409 31.1115 36.6297C31.2782 36.5181 31.3752 36.3289 31.368 36.1286L31.2992 34.154C31.4268 34.0519 31.5533 33.9491 31.6779 33.8429L33.6006 34.2958C33.7959 34.3416 34.0007 34.2847 34.1417 34.1421C34.2839 34.0003 34.3416 33.7966 34.2958 33.6017L33.8429 31.6783C33.9484 31.5533 34.0523 31.4276 34.154 31.2992L36.1283 31.3684C36.3274 31.3764 36.5177 31.2789 36.6289 31.1119C36.7405 30.9453 36.7577 30.7332 36.674 30.5509L35.8565 28.7574C35.9364 28.6125 36.0148 28.4673 36.0904 28.3198L38.0357 28.0034C38.2336 27.9716 38.4002 27.8394 38.4767 27.6541C38.5531 27.4695 38.529 27.2581 38.4117 27.0953L37.261 25.4967C37.3107 25.3389 37.3592 25.1803 37.4055 25.0205L39.2502 24.3307C39.4378 24.2604 39.5762 24.0988 39.6144 23.9019C39.6541 23.7055 39.5884 23.5033 39.4417 23.3669L37.9986 22.0205C38.0162 21.8581 38.0322 21.6945 38.0464 21.5313L39.7256 20.4918C39.8957 20.3871 39.9992 20.201 39.9992 20.0008C39.9992 19.8005 39.896 19.6144 39.726 19.5093ZM28.4868 33.4397C27.8455 33.3014 27.4378 32.6693 27.5753 32.0261C27.7125 31.3836 28.3443 30.9747 28.9852 31.1131C29.6264 31.2503 30.035 31.8835 29.8974 32.5256C29.7598 33.1676 29.1277 33.5769 28.4868 33.4397ZM27.9162 29.5806C27.3311 29.4552 26.7556 29.8275 26.6302 30.4137L26.0341 33.1959C24.1943 34.0309 22.1512 34.4949 19.9996 34.4949C17.7987 34.4949 15.7113 34.008 13.8387 33.1374L13.2429 30.3552C13.1175 29.7697 12.542 29.3967 11.9573 29.5225L9.50108 30.0499C9.04515 29.5806 8.62095 29.0807 8.23114 28.5529H20.1823C20.3176 28.5529 20.4078 28.5285 20.4078 28.4054V24.1779C20.4078 24.0548 20.3176 24.0303 20.1823 24.0303H16.687V21.3506H20.4674C20.8125 21.3506 22.3125 21.4492 22.7921 23.3665C22.9423 23.9562 23.2721 25.8743 23.4976 26.4884C23.7223 27.1771 24.6372 28.5529 25.6121 28.5529H31.5675C31.6351 28.5529 31.7073 28.5453 31.7834 28.5315C31.3703 29.0929 30.917 29.6241 30.429 30.1206L27.9162 29.5806ZM11.3867 33.3816C10.7454 33.52 10.1141 33.111 9.97612 32.4686C9.83892 31.825 10.2467 31.1933 10.888 31.055C11.5292 30.9178 12.161 31.3267 12.2985 31.9691C12.4357 32.6112 12.0276 33.244 11.3867 33.3816ZM6.85304 14.9974C7.11903 15.5978 6.84845 16.3014 6.24883 16.567C5.64921 16.8334 4.94755 16.5624 4.68156 15.9616C4.41557 15.3609 4.68614 14.6584 5.28577 14.3921C5.88577 14.1261 6.58705 14.3967 6.85304 14.9974ZM5.45965 18.3005L8.01827 17.1635C8.56477 16.9209 8.81165 16.2804 8.56897 15.7327L8.04196 14.5411H10.1145V23.8828H5.93316C5.57048 22.6079 5.37596 21.2623 5.37596 19.8716C5.37596 19.3408 5.40462 18.816 5.45965 18.3005ZM16.6877 17.3932V14.6397H21.6231C21.878 14.6397 23.4231 14.9344 23.4231 16.0897C23.4231 17.0489 22.238 17.3929 21.2634 17.3929H16.6877V17.3932ZM34.6237 19.8716C34.6237 20.2369 34.6103 20.5985 34.5835 20.9573H33.0831C32.9329 20.9573 32.8726 21.0559 32.8726 21.2031V21.8921C32.8726 23.514 31.958 23.8668 31.1566 23.9566C30.3934 24.0426 29.5473 23.6371 29.443 23.1701C28.9928 20.6378 28.2426 20.0971 27.0579 19.1627C28.5281 18.229 30.0579 16.8517 30.0579 15.0081C30.0579 13.0174 28.6932 11.7635 27.763 11.1486C26.4579 10.2883 25.0129 10.116 24.6231 10.116H9.10592C11.2101 7.76757 14.0619 6.10399 17.2874 5.49863L19.1164 7.4175C19.5299 7.8505 20.2148 7.86655 20.6474 7.45266L22.6939 5.49519C26.9822 6.29354 30.6128 8.96299 32.7052 12.6253L31.3041 15.7897C31.0622 16.3373 31.3091 16.9778 31.8552 17.2205L34.5526 18.4186C34.5992 18.8974 34.6237 19.3813 34.6237 19.8716ZM19.1172 3.86639C19.5911 3.41238 20.3428 3.43034 20.7964 3.90499C21.2493 4.38079 21.2321 5.13328 20.7571 5.58691C20.2832 6.04093 19.5315 6.02335 19.0778 5.54793C18.6253 5.0729 18.6425 4.32041 19.1172 3.86639ZM33.0205 15.0551C33.2861 14.4547 33.9877 14.1838 34.5874 14.4502C35.187 14.7161 35.4576 15.4193 35.1916 16.0197C34.926 16.6205 34.2243 16.8914 33.6243 16.6251C33.0254 16.3591 32.7549 15.6563 33.0205 15.0551Z" fill="black"/>
</g>
<defs>
<clipPath id="clip0_13_313">
<rect width="40" height="40" fill="white"/>
</clipPath>
</defs>
</svg>
