<svg width="31" height="40" viewBox="0 0 31 40" fill="none" xmlns="http://www.w3.org/2000/svg">
<path d="M3.21584 5.13397C3.21584 10.4936 6.54447 13.7094 13.2017 15.402L20.2539 17.0381C26.5727 18.5049 30.4091 22.1156 30.4091 27.9831C30.4655 30.5218 29.6192 33.0042 28.0959 35.0352C28.0959 29.1678 25.0494 26.0084 17.7715 24.0902L10.8322 22.5106C5.24687 21.2694 0.959137 18.2792 0.959137 11.9041C0.959137 9.47812 1.74898 7.05217 3.21584 5.13397Z" fill="#F04939"/>
<path d="M23.7518 26.5162C26.7419 28.4344 28.0959 31.1425 28.0959 35.0353C25.5571 38.2511 21.213 40 16.079 40C7.44711 40 1.2976 35.7123 0 28.3216H8.29337C9.3653 31.7066 12.1862 33.2863 16.0226 33.2863C20.5924 33.3427 23.6953 30.8604 23.7518 26.5162ZM3.2158 5.07757C5.64175 1.91819 9.81664 0 14.8942 0C23.7518 0 28.8293 4.68265 30.1269 11.2271H22.1157C21.213 8.63188 19.0127 6.60085 15.0071 6.60085C10.6629 6.65726 7.7292 9.13963 7.55994 13.0889C4.65276 11.4856 3.10296 8.34979 3.2158 5.07757Z" fill="#F37368"/>
</svg>
