<svg width="35" height="40" viewBox="0 0 35 40" fill="none" xmlns="http://www.w3.org/2000/svg">
<path fill-rule="evenodd" clip-rule="evenodd" d="M10.7558 24.4767C10.12 24.8743 9.16218 25.5183 8.42116 26.2189C7.20464 27.3677 6.95007 28.9613 7.59183 29.3336C8.18546 29.6777 9.57138 29.2683 10.5633 28.1864C11.6043 27.0506 12.0336 25.6106 11.5902 23.976C11.5381 24.0071 11.4869 24.0382 11.4368 24.0672L11.4379 24.0694L11.3706 24.1075C11.1118 24.262 10.9003 24.3895 10.7558 24.4767ZM28.6209 23.9609C28.2608 24.7435 28.2427 24.9953 28.3521 25.0737C28.8746 24.886 29.7391 24.4335 29.7459 23.2213C29.747 23.0397 29.707 22.8449 29.6427 22.6413C29.0841 23.136 28.7621 23.6538 28.6209 23.9609ZM34.2277 21.5947C32.8318 21.432 31.7426 21.6278 30.8973 21.98C31.0538 22.3874 31.1741 22.8118 31.1911 23.2393C31.2303 24.1776 30.5844 24.872 29.9114 25.3677C29.5183 25.6567 29.1001 25.8494 28.749 25.9657C28.4683 26.0841 28.0952 26.2065 27.8304 26.1525C27.2466 26.0338 26.9358 25.5152 27.333 24.3713C27.5475 23.7523 28.1663 22.8098 29.1652 21.9981C28.9375 21.5295 28.6838 21.0519 28.5544 20.6132C28.2996 19.7483 28.2226 19.2255 28.2226 19.2255C28.2226 19.2255 27.3993 20.9324 26.3371 22.4847C26.2759 22.575 26.2148 22.6634 26.1535 22.7516C26.3621 23.2364 26.5265 23.7491 26.5488 24.266C26.5879 25.2042 26.1817 25.9136 25.5077 26.4083C25.1428 26.6774 24.7535 26.8632 24.4195 26.9814C24.206 27.0747 23.7716 27.2281 23.1539 27.2693C22.8161 27.2925 22.4911 27.2715 22.3097 27.134C22.0599 26.9453 22.0298 26.7125 22.1591 26.3943C22.2685 26.1243 23.0868 25.1903 23.7728 24.3724C23.9623 24.1465 24.1428 23.9158 24.3043 23.7021L24.3003 23.6929C24.3003 23.6931 24.4246 23.5325 24.6262 23.2525C24.3755 22.7126 24.0576 22.1506 23.9082 21.6409C23.6533 20.776 23.5762 20.2531 23.5762 20.2531C23.5762 20.2531 22.7417 22.3926 21.8723 24.1005C21.1995 25.4232 20.7501 26.2248 20.5476 26.576L20.5456 26.5901C20.5456 26.5901 20.5154 26.6414 20.4633 26.7217L20.4243 26.7867L20.4232 26.7807C20.1975 27.114 19.6911 27.7671 19.1877 27.7671C17.8057 27.7671 18.3131 24.9604 18.3131 24.9604C18.3131 24.9604 17.9091 26 17.4537 26.8921C17.0828 27.6196 16.7448 28.236 16.0057 28.236C15.7931 28.236 15.4561 28.2298 15.1762 27.9637C14.5414 27.3607 14.0561 25.8293 14.1512 24.6433C14.2324 23.6348 14.3879 22.9363 14.6005 22.3535C14.2214 22.5601 13.7832 22.8051 13.3369 23.067L12.6509 23.4713L12.673 23.5115C13.2405 24.6093 13.392 27.0146 12.1545 28.861C10.917 30.7084 8.61343 31.8323 6.36905 31.2082C5.64485 31.0064 4.55083 29.5083 5.49446 27.42C6.32681 25.5785 9.65332 23.8376 10.53 23.4031L10.7706 23.2706C9.02277 21.7413 4.65815 19.6782 4.04647 16.5092C3.87393 15.6171 4.29216 13.4837 6.91155 11.0312C9.11478 8.96911 12.1796 7.38959 15.0108 6.38307C19.7672 4.69226 24.7928 5.68963 25.5659 8.72219C26.3261 11.7046 23.7388 15.272 20.4253 16.5544C17.4668 17.6993 15.0208 17.5177 14.0159 17.1877C12.8736 16.8124 12.2037 16.0587 12.0403 15.6332C11.976 15.4667 11.8656 15.1868 12.0403 15.0904C12.1475 15.0312 12.1905 15.0453 12.4774 15.3624C12.7503 15.6634 13.8473 16.4713 15.9313 16.2374C21.4001 15.6243 24.6943 11.3725 23.6533 9.0845C22.9244 7.48297 18.7093 6.76041 13.4432 9.38651C7.01478 12.5916 6.66587 15.2338 6.61077 16.2374C6.46024 18.9979 10.0153 20.4499 11.939 22.5029L12.0131 22.5843C12.3731 22.3856 12.7533 22.1759 13.1263 21.9712C14.0961 21.4383 15.0108 20.9384 15.4369 20.7056C16.114 19.7215 17.4877 18.6355 18.4796 18.6355C20.0651 18.6355 19.5206 20.9145 19.5206 20.9145C19.5206 20.9145 19.5527 20.8102 19.5958 20.8092C19.6409 20.808 19.8155 20.509 20.305 20.6876C20.8084 20.8723 20.6939 21.2255 20.6971 21.2616C20.7031 21.3318 20.1023 23.3578 19.8527 24.6573C19.7332 25.2775 19.8024 25.7292 19.8376 25.7292C19.8867 25.7292 19.9871 25.5716 20.0803 25.402L20.0783 25.397C20.0783 25.397 20.1484 25.2686 20.2659 25.0378L20.289 24.9896L20.2899 24.9917C20.4284 24.7208 20.6228 24.3224 20.8475 23.8287C21.2877 22.8584 22.9674 19.1123 23.1099 18.6979C23.2522 18.2835 23.3264 17.855 23.3967 17.6713C23.4659 17.4877 24.0597 17.3492 24.7535 17.3542C25.4475 17.3593 25.5179 17.6553 25.5227 17.7165C25.5278 17.7776 25.1928 18.5996 25.1155 19.1805C25.0394 19.7616 25.1127 20.0514 25.1758 20.5392C25.217 20.8582 25.4165 21.2627 25.6523 21.7213C26.3704 20.5471 27.6338 18.3014 27.7552 17.6722C27.8383 17.2418 27.9717 16.8294 28.042 16.6456C28.1122 16.462 28.705 16.3236 29.3988 16.3285C30.0928 16.3336 30.1629 16.6296 30.168 16.6909C30.1731 16.7521 29.837 17.5739 29.7608 18.155C29.6846 18.7349 29.758 19.026 29.821 19.5137C29.8753 19.9311 30.1981 20.4921 30.5181 21.1301C31.3915 20.6996 32.4195 20.4107 33.623 20.4047C34.1214 20.4018 34.7001 20.4519 34.999 20.5451V10.9448C34.999 10.2675 34.6518 9.6434 34.0653 9.3053L18.4046 0.253682C17.819 -0.0845607 17.1019 -0.0845607 16.5162 0.253682L0.898654 9.30092C0.31295 9.63916 0 10.2644 0 10.9406V29.0516C0 29.7278 0.314864 30.353 0.899611 30.6911L16.5423 39.7455C17.1279 40.0848 17.838 40.0848 18.4236 39.7455L34.0734 30.6911C34.6589 30.3519 35.0001 29.7277 35.0001 29.0516V21.7322C34.8014 21.6737 34.5106 21.6276 34.2277 21.5947ZM17.3795 20.6462C17.0436 21.0225 16.471 21.9928 16.2032 22.8049C15.6707 24.4173 15.9013 26.0561 16.2784 26.1545C16.7186 26.2697 17.4408 24.1144 17.7865 23.2714C18.0032 22.7435 18.8457 20.4005 18.6611 20.0875C18.517 19.8426 17.9201 20.0403 17.3795 20.6462ZM23.4721 26.0812C23.4721 26.0812 23.3659 26.1817 23.4118 26.2097C23.474 26.2469 23.6084 26.1986 23.7549 26.1223C24.1691 25.8616 25.0987 25.2112 25.1007 24.2489C25.1007 24.2208 25.0996 24.1938 25.0977 24.1646C24.8821 24.4477 24.6835 24.6995 24.512 24.9132C24.2192 25.2774 23.4721 26.0812 23.4721 26.0812Z" fill="#CD6799"/>
</svg>
