<svg width="24" height="24" viewBox="0 0 24 24" fill="none" xmlns="http://www.w3.org/2000/svg">
<path d="M8.81144 21.2447L11.9992 18.0568M11.9992 18.0568L15.1871 21.2447M11.9992 18.0568V5.94318M15.1871 2.75537L11.9992 5.94318M11.9992 5.94318L8.81144 2.75537M2.40002 13.8616L6.75465 15.0285M6.75465 15.0285L5.58783 19.3831M6.75465 15.0285L17.2454 8.97163M21.6 10.1384L17.2454 8.97163M17.2454 8.97163L18.4122 4.617M5.58783 4.617L6.75465 8.97163M6.75465 8.97163L2.40003 10.1384M6.75465 8.97163L17.2454 15.0285M18.4122 19.3831L17.2454 15.0285M17.2454 15.0285L21.6 13.8616" stroke="#D9D9D9" stroke-width="2" stroke-linecap="round" stroke-linejoin="round"/>
</svg>
