<svg width="40" height="40" viewBox="0 0 40 40" fill="none" xmlns="http://www.w3.org/2000/svg">
<path d="M35.323 20.118C35.323 19.6492 34.9766 19.3789 34.5514 19.5132L5.30286 28.7879C4.87685 28.9231 4.53125 29.4133 4.53125 29.8812V39.3604C4.53125 39.8292 4.87685 40.1004 5.30286 39.9652L34.5514 30.6913C34.9766 30.5562 35.323 30.066 35.323 29.5972V20.118Z" fill="url(#paint0_linear_14_1124)"/>
<path d="M4.53125 19.8161C4.53125 20.2849 4.87685 20.775 5.30286 20.9102L34.5557 30.1858C34.9817 30.321 35.3273 30.0498 35.3273 29.5818V20.1018C35.3273 19.6339 34.9817 19.1437 34.5557 19.0085L5.30286 9.73294C4.87685 9.59778 4.53125 9.8681 4.53125 10.3369V19.8161Z" fill="#FF9800"/>
<path d="M35.323 0.639547C35.323 0.170762 34.9766 -0.100414 34.5514 0.0347466L5.30286 9.30864C4.87685 9.4438 4.53125 9.93397 4.53125 10.4028V19.8819C4.53125 20.3507 4.87685 20.6211 5.30286 20.4867L34.5514 11.212C34.9766 11.0768 35.323 10.5867 35.323 10.1187V0.639547Z" fill="#FF9800"/>
<defs>
<linearGradient id="paint0_linear_14_1124" x1="21.5028" y1="31.5205" x2="22.7942" y2="27.2022" gradientUnits="userSpaceOnUse">
<stop stop-color="#FF9700"/>
<stop offset="0.53" stop-color="#F48E00"/>
<stop offset="1" stop-color="#D06F00"/>
</linearGradient>
</defs>
</svg>
