<svg width="40" height="40" viewBox="0 0 40 40" fill="none" xmlns="http://www.w3.org/2000/svg">
<path d="M20 7.96875C14.6667 7.96875 11.3333 10.6354 10 15.9688C12 13.3021 14.3333 12.3021 17 12.9688C18.5215 13.3491 19.609 14.4529 20.8127 15.6748C22.7736 17.6651 25.043 19.9688 30 19.9688C35.3333 19.9688 38.6667 17.3021 40 11.9688C38 14.6354 35.6667 15.6354 33 14.9688C31.4785 14.5884 30.391 13.4846 29.1873 12.2628C27.2264 10.2724 24.957 7.96875 20 7.96875ZM10 19.9688C4.66667 19.9688 1.33333 22.6354 0 27.9688C2 25.3021 4.33333 24.3021 7 24.9688C8.52148 25.3491 9.60896 26.4529 10.8127 27.6747C12.7736 29.6651 15.043 31.9688 20 31.9688C25.3333 31.9688 28.6667 29.3021 30 23.9688C28 26.6354 25.6667 27.6354 23 26.9688C21.4785 26.5884 20.391 25.4846 19.1873 24.2628C17.2264 22.2724 14.957 19.9688 10 19.9688Z" fill="url(#paint0_linear_13_322)"/>
<defs>
<linearGradient id="paint0_linear_13_322" x1="-1.11111" y1="15.6488" x2="33.4354" y2="35.5675" gradientUnits="userSpaceOnUse">
<stop stop-color="#2298BD"/>
<stop offset="1" stop-color="#0ED7B5"/>
</linearGradient>
</defs>
</svg>
