<svg width="40" height="40" viewBox="0 0 40 40" fill="none" xmlns="http://www.w3.org/2000/svg">
<g clip-path="url(#clip0_14_1129)">
<mask id="mask0_14_1129" style="mask-type:alpha" maskUnits="userSpaceOnUse" x="0" y="0" width="40" height="40">
<path d="M28.2543 39.4695C28.8819 39.7141 29.5975 39.6983 30.231 39.3936L38.4342 35.4464C39.2962 35.0316 39.8444 34.159 39.8444 33.202V6.43703C39.8444 5.47996 39.2962 4.60757 38.4342 4.19279L30.231 0.245394C29.3997 -0.154597 28.4268 -0.0566242 27.6973 0.473778C27.593 0.549548 27.4937 0.634146 27.4006 0.727375L11.6963 15.0546L4.85591 9.86219C4.21913 9.37882 3.32845 9.41842 2.73704 9.9564L0.543091 11.9521C-0.180316 12.6102 -0.181146 13.7482 0.541299 14.4074L6.47356 19.8194L0.541299 25.2316C-0.181146 25.8907 -0.180316 27.0288 0.543091 27.6868L2.73704 29.6825C3.32845 30.2205 4.21913 30.2601 4.85591 29.7768L11.6963 24.5843L27.4006 38.9116C27.649 39.1601 27.9407 39.3474 28.2543 39.4695ZM29.8893 10.7743L17.9734 19.8194L29.8893 28.8646V10.7743Z" fill="white"/>
</mask>
<g mask="url(#mask0_14_1129)">
<path d="M38.4586 4.19897L30.2489 0.246144C29.2987 -0.211395 28.163 -0.0183948 27.4172 0.727379L0.541628 25.2316C-0.181256 25.8908 -0.180425 27.0288 0.543421 27.6869L2.7387 29.6825C3.33048 30.2206 4.2217 30.2601 4.85886 29.7768L37.2232 5.22443C38.309 4.40075 39.8685 5.17516 39.8685 6.53802V6.44271C39.8685 5.48605 39.3205 4.61398 38.4586 4.19897Z" fill="#0065A9"/>
<path d="M38.4586 35.44L30.2489 39.3929C29.2987 39.8503 28.163 39.6573 27.4172 38.9116L0.541628 14.4074C-0.181256 13.7483 -0.180425 12.6102 0.543421 11.9521L2.7387 9.95641C3.33048 9.41844 4.2217 9.37883 4.85886 9.8622L37.2232 34.4145C38.309 35.2382 39.8685 34.4638 39.8685 33.1009V33.1963C39.8685 34.1529 39.3205 35.0249 38.4586 35.44Z" fill="#007ACC"/>
<path d="M30.2232 39.3959C29.2727 39.853 28.137 39.6599 27.3911 38.9141C28.31 39.833 29.8814 39.1821 29.8814 37.8825V1.76132C29.8814 0.461702 28.31 -0.189153 27.3911 0.729817C28.137 -0.0160263 29.2727 -0.209298 30.2232 0.247836L38.4314 4.19523C39.294 4.61002 39.8425 5.48241 39.8425 6.43948V33.2045C39.8425 34.1615 39.294 35.0339 38.4314 35.4487L30.2232 39.3959Z" fill="#1F9CF0"/>
<path d="M28.2544 39.4695C28.8819 39.7138 29.5975 39.6982 30.2309 39.3935L38.4341 35.4461C39.2962 35.0313 39.8444 34.1589 39.8444 33.2019V6.43691C39.8444 5.47983 39.2962 4.60744 38.4343 4.19266L30.2309 0.245273C29.3997 -0.154719 28.4268 -0.0567465 27.6972 0.473656C27.593 0.549425 27.4937 0.634023 27.4005 0.727252L11.6963 15.0545L4.8559 9.86206C4.21914 9.3787 3.32844 9.41831 2.73703 9.95627L0.543091 11.952C-0.180316 12.61 -0.181146 13.7481 0.541299 14.4072L6.47356 19.8193L0.541299 25.2315C-0.181146 25.8906 -0.180316 27.0287 0.543091 27.6867L2.73703 29.6824C3.32844 30.2204 4.21914 30.26 4.8559 29.7767L11.6963 24.5842L27.4005 38.9115C27.6489 39.16 27.9407 39.3473 28.2544 39.4695ZM29.8894 10.7742L17.9734 19.8193L29.8894 28.8645V10.7742Z" fill="url(#paint0_linear_14_1129)" fill-opacity="0.25"/>
</g>
</g>
<defs>
<linearGradient id="paint0_linear_14_1129" x1="19.9222" y1="-0.000122226" x2="19.9222" y2="39.6388" gradientUnits="userSpaceOnUse">
<stop stop-color="white"/>
<stop offset="1" stop-color="white" stop-opacity="0"/>
</linearGradient>
<clipPath id="clip0_14_1129">
<rect width="40" height="39.6875" fill="white"/>
</clipPath>
</defs>
</svg>
