<svg width="40" height="41" viewBox="0 0 40 41" fill="none" xmlns="http://www.w3.org/2000/svg">
<path d="M39.8677 6.03061L21.0776 40.2127C20.6897 40.9184 19.6929 40.9226 19.2992 40.2203L0.136669 6.03379C-0.292395 5.26856 0.350888 4.34152 1.20339 4.49666L20.0136 7.91697C20.1336 7.93878 20.2564 7.93857 20.3764 7.91633L38.7931 4.50143C39.6428 4.3439 40.2891 5.26379 39.8677 6.03061Z" fill="url(#paint0_linear_14_527)"/>
<path d="M28.9738 0.0100316L15.0687 2.78195C14.9576 2.8041 14.8569 2.86317 14.7824 2.9499C14.7079 3.03662 14.6638 3.14608 14.6572 3.26105L13.8018 17.9577C13.7971 18.0383 13.811 18.1189 13.8422 18.1932C13.8735 18.2674 13.9214 18.3332 13.982 18.3853C14.0426 18.4374 14.1143 18.4744 14.1915 18.4934C14.2686 18.5124 14.349 18.5128 14.4264 18.4947L18.2978 17.5858C18.66 17.5007 18.9873 17.8253 18.9128 18.1958L17.7626 23.9258C17.6853 24.3115 18.0411 24.6411 18.4112 24.5267L20.8025 23.7877C21.1731 23.6732 21.5294 24.0039 21.4509 24.3898L19.6231 33.3902C19.5087 33.9533 20.2448 34.2602 20.5517 33.7776L20.7569 33.4552L32.0875 10.4508C32.2774 10.0656 31.95 9.62639 31.5344 9.7081L27.5492 10.4905C27.1749 10.5639 26.8563 10.2091 26.9619 9.83653L29.5628 0.663828C29.6686 0.290276 29.3488 -0.064679 28.9739 0.0100316H28.9738Z" fill="url(#paint1_linear_14_527)"/>
<defs>
<linearGradient id="paint0_linear_14_527" x1="-0.3312" y1="7.25449" x2="20.3875" y2="34.913" gradientUnits="userSpaceOnUse">
<stop stop-color="#41D1FF"/>
<stop offset="1" stop-color="#BD34FE"/>
</linearGradient>
<linearGradient id="paint1_linear_14_527" x1="21.7569" y1="0.762663" x2="26.0684" y2="29.8348" gradientUnits="userSpaceOnUse">
<stop stop-color="#FFEA83"/>
<stop offset="0.083" stop-color="#FFDD35"/>
<stop offset="1" stop-color="#FFA800"/>
</linearGradient>
</defs>
</svg>
