<svg width="40" height="40" viewBox="0 0 40 40" fill="none" xmlns="http://www.w3.org/2000/svg">
<g clip-path="url(#clip0_435_2279)">
<path d="M20.0003 40.0006C31.0462 40.0006 40.0006 31.0462 40.0006 20.0003C40.0006 8.95444 31.0462 0 20.0003 0C8.95444 0 0 8.95444 0 20.0003C0 31.0462 8.95444 40.0006 20.0003 40.0006Z" fill="#60B57D"/>
<path d="M18.4092 9.24104C18.6517 9.43584 18.6903 9.79034 18.4955 10.0328C18.3007 10.2753 17.9462 10.314 17.7037 10.1192C16.2355 8.93982 15.0126 8.55043 14.2583 8.93548C13.3805 9.38315 13.04 10.8235 13.2172 12.8334L13.2439 13.1047C13.2588 13.242 13.2759 13.3818 13.2954 13.5239L13.3374 13.8111C13.3895 14.147 13.4539 14.4949 13.5304 14.8532C14.5876 14.6894 15.7256 14.5822 16.9206 14.5376C17.4391 13.8716 17.9661 13.2465 18.4955 12.6676L18.7608 12.3816C19.4243 11.6764 20.0898 11.0453 20.7446 10.4989L21.006 10.285C23.3959 8.36541 25.6203 7.60587 27.0588 8.53983C28.3119 9.35279 28.6477 11.1944 28.1823 13.6623C28.1247 13.9679 27.8302 14.169 27.5245 14.1113C27.2188 14.0537 27.0178 13.7592 27.0754 13.4535C27.4652 11.3867 27.2086 9.97972 26.4455 9.4847C25.4539 8.84085 23.611 9.58206 21.5331 11.3131L21.3013 11.5095C21.185 11.6097 21.068 11.7129 20.9504 11.819L20.7146 12.0353C20.4781 12.2554 20.2397 12.4871 20.0002 12.7298L19.7604 12.9762C19.7203 13.0179 19.6803 13.0599 19.6403 13.1021L19.3997 13.3594L19.1589 13.6236L18.9181 13.8949C18.8379 13.9864 18.7576 14.0791 18.6774 14.1729L18.437 14.4577L18.3902 14.5144C18.9505 14.5174 19.5206 14.5336 20.0983 14.5636L20.3225 14.576L20.7682 14.6046C21.138 14.6305 21.5037 14.6618 21.8646 14.6981L22.2955 14.7442C22.367 14.7523 22.4382 14.7606 22.5092 14.7691L22.9329 14.8224C23.2839 14.8688 23.6297 14.9201 23.9695 14.9761L24.3746 15.0455L24.7737 15.1194L25.1668 15.1977C26.4668 15.4657 27.662 15.8052 28.7153 16.203L29.027 16.3241C31.7933 17.4295 33.498 18.951 33.4105 20.6329C33.338 22.0232 32.0918 23.1709 30.0028 23.9934C29.7134 24.1073 29.3864 23.9651 29.2724 23.6757C29.1585 23.3862 29.3007 23.0592 29.5902 22.9453C31.3127 22.267 32.242 21.4113 32.2856 20.5743C32.3414 19.5026 31.0592 18.3944 28.9251 17.5004L28.6595 17.3921C28.4797 17.3206 28.2943 17.2505 28.1036 17.1822L27.8137 17.0808C27.7158 17.0475 27.6165 17.0145 27.5161 16.982L27.2109 16.8859L26.8984 16.7925C26.8457 16.7772 26.7927 16.762 26.7395 16.7469L26.4164 16.6579C26.3619 16.6433 26.3072 16.6288 26.2522 16.6145L25.9189 16.53C25.5823 16.4471 25.236 16.3689 24.8806 16.2959L24.5224 16.2247C24.4622 16.2131 24.4018 16.2017 24.3411 16.1904L23.9743 16.1246L23.6021 16.0626C23.5396 16.0525 23.4769 16.0427 23.414 16.033L23.034 15.9767C22.9065 15.9586 22.7782 15.9411 22.649 15.9244L22.2593 15.8761L21.865 15.8321C21.6668 15.8111 21.4669 15.7918 21.2655 15.7741L20.8607 15.741C20.7252 15.7307 20.5889 15.7212 20.4521 15.7125L20.0398 15.6886L19.6272 15.6695L19.2178 15.6556C18.7421 15.6421 18.2732 15.6387 17.8127 15.6448L17.4909 15.6509L17.3643 15.8187C17.2857 15.9242 17.2072 16.0307 17.129 16.1381L16.8953 16.4635C16.6236 16.8465 16.3554 17.2413 16.0921 17.6471C16.0169 17.7631 15.9426 17.879 15.8694 17.9949L15.6525 18.3424C15.4216 18.7174 15.2012 19.0916 14.9913 19.4638C15.0105 19.5109 15.0301 19.5583 15.0498 19.6056L15.2029 19.9672C15.2289 20.0277 15.2552 20.0882 15.2817 20.1488L15.4437 20.5131L15.6115 20.8789L15.7852 21.246L15.9648 21.6141L16.1503 21.9832L16.3401 22.35L16.5327 22.7116L16.7278 23.0678C16.7606 23.1267 16.7934 23.1854 16.8263 23.2438L17.025 23.5917C17.0916 23.7067 17.1586 23.8208 17.2258 23.9339L17.4287 24.2701C17.4966 24.3812 17.5648 24.4913 17.6333 24.6004L17.8395 24.9246L18.0472 25.2424C18.2208 25.5046 18.3958 25.7602 18.5716 26.0086L18.783 26.3034C18.9241 26.4976 19.0657 26.6872 19.2075 26.872L19.4204 27.1456L19.6334 27.4119C19.6689 27.4557 19.7044 27.4991 19.7398 27.5423L19.9527 27.7973L20.1653 28.0446C20.3777 28.2881 20.5893 28.5198 20.7995 28.7392L21.0092 28.9545L21.2177 29.1614C21.3216 29.2627 21.425 29.3608 21.5279 29.4557L21.7327 29.641C21.8347 29.7315 21.936 29.8186 22.0365 29.9023L22.2366 30.0653C23.5963 31.1472 24.8012 31.5842 25.6011 31.1762C26.3523 30.7932 26.7108 29.6749 26.6843 28.0891L26.6775 27.8477C26.6742 27.7661 26.67 27.6834 26.6649 27.5996L26.6465 27.3448C26.6394 27.2588 26.6313 27.1717 26.6223 27.0836L26.5925 26.8162C26.587 26.7711 26.5813 26.7258 26.5754 26.6802L26.5369 26.4039L26.4926 26.1218L26.4427 25.8342C26.3986 25.5924 26.3486 25.3449 26.2927 25.0925L26.2227 24.7873L26.1471 24.4774C26.134 24.4254 26.1207 24.3732 26.1071 24.3208L26.0229 24.0044L25.933 23.6839C25.9175 23.6301 25.9018 23.5762 25.8859 23.5221L25.7875 23.1958L25.6834 22.8659C25.6299 22.7001 25.5743 22.533 25.5166 22.3648L25.3984 22.0267L25.2744 21.6858C25.19 21.4576 25.1017 21.2276 25.0097 20.996L24.8689 20.6476L24.7224 20.2971C24.6975 20.2385 24.6724 20.1798 24.6471 20.1211L24.4922 19.7678L24.3317 19.4129C24.3045 19.3536 24.277 19.2943 24.2493 19.2349L24.0804 18.878C24.0518 18.8184 24.0229 18.7588 23.9938 18.6991C23.8576 18.4195 23.9737 18.0824 24.2533 17.9461C24.5329 17.8098 24.8701 17.926 25.0064 18.2056L25.1932 18.5945C25.2544 18.724 25.3147 18.8533 25.3739 18.9824L25.5484 19.3689C25.7199 19.7546 25.882 20.1381 26.0348 20.5183L26.1843 20.8974C26.2087 20.9604 26.2329 21.0233 26.2567 21.0861L26.3968 21.4615C26.4196 21.5239 26.4422 21.5861 26.4644 21.6483L26.5949 22.0196C26.6797 22.2662 26.7602 22.5107 26.8364 22.753L26.9473 23.1147C28.2755 27.5536 28.105 31.1639 26.1128 32.1797C24.5014 33.0016 22.2166 31.86 19.9167 29.4523L19.6788 29.1987C19.5202 29.0267 19.3616 28.8488 19.2032 28.6652L18.9659 28.3856C18.3338 27.6287 17.7074 26.7828 17.1007 25.8625L16.8741 25.5139C16.31 24.6339 15.7647 23.6902 15.2494 22.6947L15.1468 22.4949C15.0787 22.3613 15.0116 22.2277 14.9455 22.0943L14.7506 21.6945C14.5973 21.375 14.4501 21.0564 14.3091 20.7394L14.2182 20.9193C14.1901 20.9756 14.1624 21.0318 14.1348 21.0879L13.9727 21.4235L13.8169 21.7566L13.6673 22.087C13.6429 22.1418 13.6188 22.1965 13.5949 22.2511L13.4548 22.5772C13.432 22.6312 13.4095 22.6852 13.3872 22.739L13.2567 23.0601C13.2354 23.1134 13.2145 23.1664 13.1938 23.2194L13.0729 23.5351C13.0533 23.5874 13.034 23.6396 13.0149 23.6915L12.9037 24.0014L12.7991 24.307C12.7484 24.4588 12.7002 24.6088 12.6544 24.7571L12.5662 25.0513L12.4846 25.3405C12.4716 25.3883 12.4588 25.4358 12.4463 25.4832L12.3748 25.7645C12.3179 25.9967 12.2681 26.2231 12.2253 26.4432L12.1775 26.7042C11.8586 28.5525 12.0664 29.9157 12.8563 30.4283C13.6519 30.9445 15.1271 30.5518 16.9474 29.2376C17.1996 29.0556 17.5517 29.1124 17.7337 29.3646C17.9158 29.6168 17.859 29.9689 17.6068 30.1509C15.4493 31.7085 13.5423 32.2161 12.2432 31.3732C10.6736 30.3546 10.5632 27.6612 11.6079 24.3104L11.7162 23.9732C11.791 23.747 11.8708 23.518 11.9557 23.2865L12.0867 22.9375C12.2663 22.4698 12.4658 21.9928 12.6843 21.5089L12.8518 21.1448L13.0263 20.7783C13.2488 20.3192 13.4876 19.8552 13.7423 19.3882C13.7085 19.3018 13.675 19.2158 13.6421 19.1299L13.4963 18.7431C13.3065 18.2291 13.1347 17.7224 12.9813 17.2254L12.8697 16.8546C12.8009 16.6195 12.7362 16.3868 12.6759 16.1567C12.6065 16.1706 12.5377 16.1848 12.4695 16.1993L12.1632 16.2666L11.8643 16.3373C11.8151 16.3494 11.7663 16.3616 11.7177 16.3739L11.4304 16.4495L11.1509 16.5282C11.0591 16.5549 10.9687 16.5822 10.8797 16.6099L10.6167 16.6946C10.5305 16.7234 10.4457 16.7526 10.3624 16.7822L10.1168 16.8727C8.42882 17.5153 7.4006 18.3586 7.35283 19.2771C7.30916 20.1143 8.14459 21.0619 9.78771 21.9151C10.0638 22.0584 10.1714 22.3984 10.028 22.6745C9.88468 22.9505 9.54469 23.0581 9.26863 22.9148C7.27595 21.8801 6.1554 20.609 6.22793 19.2185C6.32875 17.2801 8.77561 15.8005 12.4151 15.0535C11.6785 11.5339 12.0534 8.7955 13.7463 7.93211C14.9977 7.29333 16.6325 7.81385 18.4092 9.24104ZM21.4957 19.7177C21.6826 20.5827 21.1329 21.4348 20.268 21.6221C19.403 21.8089 18.5509 21.2593 18.3637 20.3943C18.1771 19.5294 18.7265 18.6773 19.5914 18.49C20.4563 18.3031 21.3085 18.8528 21.4957 19.7177ZM16.0428 15.7167L15.9412 15.7238C15.8636 15.7294 15.7864 15.7353 15.7095 15.7414L15.3431 15.773L14.9821 15.8087C14.9224 15.815 14.863 15.8214 14.8038 15.8281L14.4514 15.8698C14.3931 15.8771 14.3351 15.8845 14.2774 15.8921L13.934 15.9396L13.7977 15.9604L13.8459 16.1402C13.9213 16.4142 14.0029 16.6926 14.0908 16.975L14.1993 17.3156C14.2179 17.3727 14.2367 17.4299 14.2558 17.4873L14.3733 17.8331C14.4056 17.9264 14.4386 18.0201 14.4722 18.1141C14.6506 17.8174 14.8351 17.5201 15.0255 17.2227L15.1472 17.034C15.4404 16.5822 15.7394 16.1427 16.0428 15.7167Z" fill="white"/>
</g>
<defs>
<clipPath id="clip0_435_2279">
<rect width="40" height="40" fill="white"/>
</clipPath>
</defs>
</svg>
