<svg width="40" height="41" viewBox="0 0 40 41" fill="none" xmlns="http://www.w3.org/2000/svg">
<g clip-path="url(#clip0_30_375)">
<path fill-rule="evenodd" clip-rule="evenodd" d="M37.32 12.9375C37.3197 12.2832 37.1796 11.7051 36.8963 11.2089C36.618 10.721 36.2012 10.3121 35.6421 9.98872C31.0272 7.33119 26.4077 4.68178 21.7943 2.02153C20.5505 1.30442 19.3446 1.33056 18.1101 2.05797C16.2732 3.13987 7.07655 8.40198 4.33607 9.98723C3.20747 10.6397 2.65828 11.6383 2.65801 12.9363C2.65625 18.2807 2.65801 23.6251 2.65625 28.9697C2.65652 29.6096 2.79066 30.1765 3.06152 30.6652C3.33998 31.1679 3.76261 31.5881 4.33458 31.9187C7.0752 33.504 16.2731 38.7657 18.1095 39.8479C19.3446 40.5757 20.5505 40.6017 21.7947 39.8843C26.4083 37.2239 31.028 34.5746 35.6436 31.9171C36.2155 31.5866 36.6382 31.1661 36.9166 30.6638C37.1871 30.1751 37.3215 29.6082 37.3218 28.9682C37.3218 28.9682 37.3218 18.2821 37.32 12.9375Z" fill="#5C8DBC"/>
<path fill-rule="evenodd" clip-rule="evenodd" d="M20.042 20.9009L3.06152 30.6652C3.33998 31.1679 3.76261 31.5881 4.33458 31.9187C7.0752 33.504 16.2731 38.7657 18.1095 39.8478C19.3446 40.5756 20.5505 40.6017 21.7947 39.8843C26.4083 37.2239 31.028 34.5746 35.6436 31.9171C36.2155 31.5866 36.6382 31.1661 36.9166 30.6638L20.042 20.9009Z" fill="#1A4674"/>
<path fill-rule="evenodd" clip-rule="evenodd" d="M15.0127 23.7932C16.0008 25.5159 17.8583 26.6779 19.9891 26.6779C22.1331 26.6779 24.0011 25.5011 24.9842 23.76L20.0421 20.9009L15.0127 23.7932Z" fill="#1A4674"/>
<path fill-rule="evenodd" clip-rule="evenodd" d="M37.32 12.9376C37.3197 12.2833 37.1796 11.7052 36.8962 11.209L20.042 20.901L36.9166 30.6639C37.187 30.1752 37.3215 29.6083 37.3217 28.9682C37.3217 28.9682 37.3217 18.2822 37.32 12.9376Z" fill="#1B598E"/>
<path fill-rule="evenodd" clip-rule="evenodd" d="M36.3921 21.5988H35.0734V22.916H33.7545V21.5988H32.436V20.282H33.7545V18.9651H35.0734V20.282H36.3921V21.5988Z" fill="#2C2C2C"/>
<path fill-rule="evenodd" clip-rule="evenodd" d="M31.5805 21.5988H30.262V22.916H28.9434V21.5988H27.6248V20.282H28.9434V18.9651H30.262V20.282H31.5805V21.5988Z" fill="#2C2C2C"/>
<path fill-rule="evenodd" clip-rule="evenodd" d="M24.9841 23.7599C24.001 25.5011 22.1329 26.6778 19.989 26.6778C17.8582 26.6778 16.0007 25.5159 15.0126 23.7931C14.5326 22.956 14.2565 21.9868 14.2565 20.9529C14.2565 17.7911 16.8231 15.228 19.989 15.228C22.1061 15.228 23.9538 16.3755 24.9468 18.0806L29.9572 15.1992C27.9657 11.7659 24.2476 9.45605 19.989 9.45605C13.631 9.45605 8.47705 14.6034 8.47705 20.9529C8.47705 23.0359 9.03193 24.9893 10.0017 26.6743C11.9882 30.1258 15.7169 32.4498 19.989 32.4498C24.2689 32.4498 28.0034 30.1164 29.9871 26.6548L24.9841 23.7599Z" fill="#2C2C2C"/>
</g>
<defs>
<clipPath id="clip0_30_375">
<rect width="40" height="39.948" fill="white" transform="translate(0 0.993408)"/>
</clipPath>
</defs>
</svg>
