<svg width="40" height="41" viewBox="0 0 40 41" fill="none" xmlns="http://www.w3.org/2000/svg">
<path fill-rule="evenodd" clip-rule="evenodd" d="M5.55363 36.9481L2.34375 0.993652H37.6152L34.4019 36.9422L19.9581 40.9416L5.55363 36.9481Z" fill="#0071BC"/>
<path fill-rule="evenodd" clip-rule="evenodd" d="M20.009 37.8826L31.6658 34.68L34.3969 3.98779H20.009V37.8826Z" fill="#29ABE2"/>
<path fill-rule="evenodd" clip-rule="evenodd" d="M9.69116 17.1974L10.0778 21.6006L20.0091 17.1974V12.7871L9.69116 17.1974Z" fill="#B3B3B3"/>
<path fill-rule="evenodd" clip-rule="evenodd" d="M31.0082 8.07935L20.009 12.7872V17.1975L30.629 12.4825L31.0082 8.07935Z" fill="#E6E6E6"/>
<path fill-rule="evenodd" clip-rule="evenodd" d="M20.0092 28.7184L19.975 28.7235L15.0498 27.4025L14.7281 23.8904H10.2954L10.914 30.8096L19.9741 33.3149L20.0092 33.3066V28.7184Z" fill="#E6E6E6"/>
<path fill-rule="evenodd" clip-rule="evenodd" d="M20.009 17.1975V21.6007H25.4013L24.9112 27.3575L20.009 28.7222V33.31L29.039 30.8047L30.2281 17.1975H20.009Z" fill="#2C2C2C"/>
<path fill-rule="evenodd" clip-rule="evenodd" d="M20.0091 17.1975H9.69116L10.0778 21.6007H20.0091V17.1975Z" fill="#E6E6E6"/>
<path fill-rule="evenodd" clip-rule="evenodd" d="M20.0091 12.4825V8.07935H19.9643H8.90723L9.29847 12.4825H20.0091Z" fill="#E6E6E6"/>
<path fill-rule="evenodd" clip-rule="evenodd" d="M20.009 8.07935V12.4273V12.4825H30.629L31.0082 8.07935H20.009Z" fill="#2C2C2C"/>
</svg>
