<svg width="40" height="40" viewBox="0 0 40 40" fill="none" xmlns="http://www.w3.org/2000/svg">
<path d="M8.15762 31.8423L1.31451 24.9992C0.502867 24.1669 0 22.9906 0 21.8408C0 21.3085 0.299956 20.4763 0.526393 19.9999L6.84311 6.84302L8.15762 31.8423Z" fill="#01579B"/>
<path d="M31.5807 8.15762L24.7376 1.31451C24.1406 0.714601 22.8967 0 21.8439 0C20.9381 0 20.05 0.182326 19.4766 0.526393L6.84607 6.84311L31.5807 8.15762Z" fill="#40C4FF"/>
<path d="M16.3153 40.0001H32.8952V32.8952L20.5264 28.9458L9.21045 32.8952L16.3153 40.0001Z" fill="#40C4FF"/>
<path d="M6.84314 28.1575C6.84314 30.269 7.10781 30.7866 8.15765 31.8423L9.21044 32.8951H32.8952L21.3175 19.7382L6.84314 6.84302V28.1575Z" fill="#29B6F6"/>
<path d="M27.8959 6.84009H6.84314L32.8952 32.8921H40V16.5769L31.5777 8.1546C30.3956 6.96948 29.3457 6.84009 27.8959 6.84009Z" fill="#01579B"/>
<path opacity="0.2" d="M8.4223 32.104C7.36952 31.0483 7.10779 30.0073 7.10779 28.1575V7.10474L6.84606 6.84302V28.1575C6.84312 30.0073 6.84312 30.5189 8.4223 32.104L9.21042 32.8921L8.4223 32.104Z" fill="white"/>
<path opacity="0.2" d="M39.7383 16.3152V32.6304H32.6334L32.8951 32.8951H40V16.5769L39.7383 16.3152Z" fill="#263238"/>
<path opacity="0.2" d="M31.5807 8.15753C30.275 6.85184 29.2075 6.84302 27.6342 6.84302H6.84607L7.1078 7.10474H27.6342C28.4194 7.10474 30.4014 6.97241 31.5807 8.15753Z" fill="white"/>
<path opacity="0.2" d="M39.7383 16.3152L31.5806 8.15762L24.7375 1.31451C24.1406 0.714601 22.8966 0 21.8438 0C20.9381 0 20.05 0.182326 19.4765 0.526393L6.84604 6.84311L0.529323 20C0.302886 20.4793 0.00292969 21.3116 0.00292969 21.8409C0.00292969 22.9907 0.508738 24.1641 1.31744 24.9993L7.6224 31.2601C7.77238 31.4454 7.94882 31.6336 8.15761 31.8424L8.41934 32.1041L9.20746 32.8922L16.0506 39.7353L16.3123 39.9971H32.6275H32.8893V32.8922H39.9941V32.8746V16.577L39.7383 16.3152Z" fill="url(#paint0_radial_490_744)"/>
<defs>
<radialGradient id="paint0_radial_490_744" cx="0" cy="0" r="1" gradientUnits="userSpaceOnUse" gradientTransform="translate(19.9985 19.9962) scale(19.9971)">
<stop stop-color="white" stop-opacity="0.1"/>
<stop offset="1" stop-color="white" stop-opacity="0"/>
</radialGradient>
</defs>
</svg>
