<svg width="50" height="50" viewBox="0 0 50 50" fill="none" xmlns="http://www.w3.org/2000/svg">
<path d="M42.1698 10.8035C39.0119 9.35451 35.6255 8.28697 32.0848 7.67554C32.0203 7.66374 31.9559 7.69323 31.9227 7.75221C31.4872 8.52681 31.0048 9.53735 30.667 10.3316C26.8587 9.76149 23.0701 9.76149 19.3399 10.3316C19.002 9.51969 18.5021 8.52681 18.0646 7.75221C18.0314 7.6952 17.967 7.66571 17.9025 7.67554C14.3638 8.28501 10.9774 9.35256 7.81757 10.8035C7.79021 10.8153 7.76676 10.835 7.7512 10.8605C1.32795 20.4567 -0.431642 29.817 0.431557 39.0613C0.435462 39.1065 0.46085 39.1498 0.496004 39.1773C4.73388 42.2895 8.83899 44.1789 12.8679 45.4312C12.9323 45.4509 13.0007 45.4273 13.0417 45.3742C13.9947 44.0727 14.8443 42.7004 15.5727 41.2573C15.6157 41.1728 15.5746 41.0725 15.4868 41.0391C14.1392 40.5279 12.8561 39.9047 11.6219 39.197C11.5243 39.14 11.5164 39.0003 11.6062 38.9335C11.866 38.7388 12.1258 38.5363 12.3738 38.3319C12.4187 38.2945 12.4812 38.2866 12.5339 38.3102C20.6425 42.0123 29.421 42.0123 37.4339 38.3102C37.4866 38.2847 37.5491 38.2926 37.596 38.3299C37.844 38.5344 38.1038 38.7388 38.3655 38.9335C38.4553 39.0003 38.4494 39.14 38.3518 39.197C37.1175 39.9185 35.8344 40.5279 34.4849 41.0372C34.3971 41.0706 34.358 41.1728 34.401 41.2573C35.145 42.6984 35.9946 44.0707 36.93 45.3722C36.9691 45.4273 37.0394 45.4509 37.1038 45.4312C41.1523 44.1789 45.2573 42.2895 49.4952 39.1773C49.5323 39.1498 49.5558 39.1085 49.5597 39.0633C50.5928 28.3759 47.8293 19.0923 42.2342 10.8625C42.2205 10.835 42.1971 10.8153 42.1698 10.8035ZM16.7835 33.4325C14.3423 33.4325 12.3308 31.1913 12.3308 28.4388C12.3308 25.6863 14.3033 23.4451 16.7835 23.4451C19.2833 23.4451 21.2753 25.706 21.2362 28.4388C21.2362 31.1913 19.2637 33.4325 16.7835 33.4325ZM33.2468 33.4325C30.8056 33.4325 28.7941 31.1913 28.7941 28.4388C28.7941 25.6863 30.7665 23.4451 33.2468 23.4451C35.7466 23.4451 37.7385 25.706 37.6995 28.4388C37.6995 31.1913 35.7466 33.4325 33.2468 33.4325Z" fill="#5865F2"/>
</svg>
