<svg width="40" height="40" viewBox="0 0 40 40" fill="none" xmlns="http://www.w3.org/2000/svg">
<path fill-rule="evenodd" clip-rule="evenodd" d="M17.8965 5.41675C16.6072 5.41675 15.5317 6.40213 15.4191 7.68656C15.1837 10.372 15.1241 13.0695 15.2405 15.7616C15.1 15.771 14.9594 15.7809 14.8189 15.7911L12.3364 15.9721C10.7497 16.0877 9.86266 17.857 10.7193 19.1977C12.5463 22.0568 14.9003 24.5425 17.6561 26.522L18.6506 27.2365C19.457 27.8157 20.5431 27.8157 21.3495 27.2365L22.344 26.522C25.0998 24.5425 27.4538 22.0568 29.2808 19.1977C30.1374 17.857 29.2504 16.0877 27.6637 15.9721L25.1812 15.7911C25.0407 15.7809 24.9001 15.771 24.7596 15.7616C24.876 13.0695 24.8164 10.372 24.581 7.68655C24.4684 6.40213 23.3929 5.41675 22.1036 5.41675H17.8965ZM17.8025 16.858C17.613 13.8793 17.6484 10.8904 17.9085 7.91675H22.0916C22.3517 10.8904 22.3871 13.8793 22.1976 16.858C22.1763 17.1919 22.2899 17.5204 22.5128 17.77C22.7357 18.0196 23.0493 18.1694 23.3835 18.1858C23.9224 18.2124 24.4611 18.2453 24.9994 18.2845L26.8024 18.4159C25.2031 20.7714 23.2007 22.8285 20.8855 24.4916L20.0001 25.1277L19.1146 24.4916C16.7994 22.8285 14.797 20.7714 13.1977 18.4159L15.0007 18.2845C15.539 18.2453 16.0777 18.2124 16.6166 18.1858C16.9508 18.1694 17.2644 18.0196 17.4873 17.77C17.7102 17.5204 17.8238 17.1919 17.8025 16.858Z" fill="#373737"/>
<path d="M9.58325 28.3334C9.58325 27.6431 9.02361 27.0834 8.33325 27.0834C7.6429 27.0834 7.08325 27.6431 7.08325 28.3334V31.6667C7.08325 33.2776 8.38909 34.5834 9.99992 34.5834H29.9999C31.6107 34.5834 32.9166 33.2776 32.9166 31.6667V28.3334C32.9166 27.6431 32.3569 27.0834 31.6666 27.0834C30.9762 27.0834 30.4166 27.6431 30.4166 28.3334V31.6667C30.4166 31.8969 30.23 32.0834 29.9999 32.0834H9.99992C9.7698 32.0834 9.58325 31.8969 9.58325 31.6667V28.3334Z" fill="#373737"/>
</svg>
