<svg width="40" height="44" viewBox="0 0 40 44" fill="none" xmlns="http://www.w3.org/2000/svg">
<g clip-path="url(#clip0_438_761)">
<path d="M14.1124 9.31955C8.44604 8.28755 3.96581 9.36795 2.18025 12.4603C0.847827 14.7679 1.22819 17.8279 3.10338 21.0987C3.14131 21.165 3.19194 21.2231 3.25235 21.2698C3.31277 21.3165 3.38179 21.3508 3.45548 21.3708C3.52916 21.3908 3.60607 21.396 3.68179 21.3863C3.75751 21.3765 3.83057 21.352 3.89679 21.314C4.03052 21.2372 4.12831 21.1105 4.16867 20.9617C4.20903 20.8129 4.18866 20.6542 4.11203 20.5204C2.4227 17.5744 2.09347 14.9336 3.18674 13.0413C4.66982 10.4724 8.66561 9.50871 13.9037 10.4629C13.9984 10.4816 14.0963 10.4765 14.1885 10.4479C14.2807 10.4194 14.3643 10.3683 14.4318 10.2993C14.4994 10.2304 14.5487 10.1457 14.5753 10.0529C14.6019 9.96012 14.605 9.86218 14.5843 9.76791C14.5593 9.65456 14.5009 9.5513 14.4167 9.47141C14.3325 9.39153 14.2263 9.33867 14.1118 9.31966L14.1124 9.31955ZM6.04996 25.074C8.34093 27.5919 11.3176 29.9535 14.7123 31.9136C22.9315 36.6591 31.6818 37.9275 35.994 34.987C36.1182 34.8989 36.2029 34.7656 36.2298 34.6157C36.2568 34.4659 36.2238 34.3114 36.1381 34.1856C36.0523 34.0598 35.9206 33.9727 35.7713 33.943C35.622 33.9132 35.4669 33.9433 35.3395 34.0267C31.4798 36.6585 23.1678 35.4536 15.2934 30.9072C11.9998 29.0054 9.11772 26.7189 6.90966 24.2922C6.83287 24.2051 6.73178 24.143 6.61938 24.1138C6.50698 24.0846 6.38843 24.0898 6.27898 24.1286C6.188 24.1609 6.10651 24.2154 6.04187 24.2871C5.97724 24.3588 5.93149 24.4455 5.90876 24.5393C5.88603 24.6332 5.88703 24.7312 5.91169 24.8245C5.93634 24.9179 5.98386 25.0036 6.04996 25.074Z" fill="#2DD0ED"/>
<path d="M34.6189 24.3671C38.3289 19.9842 39.6246 15.5758 37.8429 12.4896C36.5317 10.2188 33.7597 9.0198 30.0763 8.97197C29.9223 8.96999 29.7737 9.02926 29.6633 9.13675C29.5529 9.24425 29.4896 9.39117 29.4875 9.54525C29.4858 9.66021 29.5183 9.77308 29.5809 9.86952C29.6435 9.96596 29.7333 10.0416 29.839 10.0869C29.9091 10.117 29.9845 10.1331 30.0609 10.1341C33.3738 10.177 35.7621 11.2101 36.8365 13.0707C38.3162 15.6342 37.1612 19.5655 33.732 23.6165C33.6809 23.6745 33.6419 23.742 33.6173 23.8153C33.5927 23.8885 33.5829 23.9659 33.5886 24.0429C33.5943 24.12 33.6153 24.1951 33.6503 24.2639C33.6854 24.3328 33.7339 24.3939 33.7929 24.4437C33.8519 24.4935 33.9202 24.5311 33.9939 24.5542C34.0675 24.5773 34.1451 24.5856 34.2219 24.5784C34.2988 24.5713 34.3735 24.5489 34.4416 24.5127C34.5098 24.4764 34.57 24.4269 34.6189 24.3671ZM25.084 9.51302C21.7292 10.232 18.1588 11.6372 14.73 13.6168C6.24457 18.5157 0.709445 25.7389 1.47849 30.977C1.48805 31.0538 1.51286 31.1279 1.55145 31.195C1.59005 31.2621 1.64165 31.3208 1.70323 31.3676C1.76481 31.4145 1.83513 31.4486 1.91006 31.4679C1.98499 31.4872 2.06303 31.4913 2.13958 31.4801C2.21614 31.4688 2.28968 31.4424 2.35588 31.4023C2.42208 31.3623 2.47962 31.3094 2.5251 31.2468C2.57059 31.1842 2.60311 31.1131 2.62077 31.0378C2.63842 30.9624 2.64085 30.8843 2.6279 30.808C1.94564 26.1577 7.19207 19.3103 15.3106 14.6232C18.637 12.7026 22.0946 11.3424 25.3276 10.649C25.4737 10.6123 25.5998 10.5203 25.6794 10.3924C25.759 10.2645 25.7858 10.1107 25.7542 9.9634C25.7227 9.81611 25.6351 9.68683 25.5101 9.60282C25.3851 9.5188 25.2323 9.48661 25.084 9.51302Z" fill="#2DD0ED"/>
<path d="M11.3375 34.6083C13.2782 40.0244 16.4512 43.3597 20.02 43.3597C22.6223 43.3597 25.0301 41.5859 26.9079 38.4624C26.95 38.397 26.9786 38.3238 26.9919 38.2471C27.0052 38.1705 27.003 38.0919 26.9854 38.0161C26.9634 37.9212 26.9178 37.8333 26.8529 37.7606C26.788 37.6878 26.7059 37.6326 26.6141 37.6C26.5222 37.5673 26.4236 37.5583 26.3274 37.5738C26.2312 37.5893 26.1404 37.6287 26.0634 37.6885C26.0019 37.7362 25.9507 37.7957 25.9126 37.8635C24.2249 40.6706 22.1519 42.1981 20.02 42.1981C17.0561 42.1981 14.2252 39.2232 12.4319 34.2163C12.4073 34.143 12.3684 34.0753 12.3173 34.0172C12.2663 33.9591 12.2041 33.9117 12.1346 33.8779C12.065 33.8441 11.9894 33.8246 11.9122 33.8204C11.835 33.8163 11.7577 33.8277 11.6849 33.8538C11.6121 33.8799 11.5453 33.9203 11.4883 33.9726C11.4313 34.0248 11.3853 34.0879 11.353 34.1582C11.3207 34.2284 11.3027 34.3044 11.3001 34.3817C11.2975 34.459 11.3105 34.5361 11.3381 34.6083H11.3375ZM29.0571 33.5484C30.0613 30.34 30.6002 26.6377 30.6002 22.7797C30.6002 13.1542 27.2316 4.85601 22.4327 2.72516C22.2925 2.66616 22.1347 2.66451 21.9932 2.72058C21.8518 2.77664 21.738 2.88593 21.6762 3.02499C21.6145 3.16405 21.6097 3.32177 21.663 3.46429C21.7163 3.60681 21.8233 3.72276 21.9611 3.78722C26.2412 5.68792 29.4386 13.5629 29.4386 22.7797C29.4386 26.522 28.9159 30.1076 27.9484 33.2015C27.9233 33.2749 27.9132 33.3525 27.9187 33.4298C27.9242 33.5072 27.9451 33.5826 27.9803 33.6517C28.0331 33.7558 28.1161 33.8416 28.2185 33.8978C28.3208 33.9541 28.4377 33.9782 28.5539 33.967C28.6701 33.9559 28.7803 33.91 28.8701 33.8353C28.9598 33.7607 29.025 33.6607 29.0571 33.5484ZM39.9999 32.9796C40.0023 32.6129 39.9321 32.2494 39.7934 31.9099C39.6547 31.5705 39.4502 31.2618 39.1917 31.0017C38.9333 30.7416 38.6259 30.5352 38.2874 30.3943C37.9488 30.2535 37.5857 30.1809 37.2191 30.1809C36.8524 30.181 36.4893 30.2535 36.1507 30.3944C35.8122 30.5352 35.5049 30.7417 35.2464 31.0018C34.9879 31.2619 34.7835 31.5706 34.6448 31.91C34.5061 32.2495 34.4359 32.613 34.4383 32.9797C34.443 33.7141 34.7381 34.4169 35.2591 34.9345C35.7801 35.4522 36.4847 35.7427 37.2192 35.7427C37.9536 35.7427 38.6582 35.4521 39.1792 34.9345C39.7002 34.4168 39.9953 33.714 39.9999 32.9796ZM38.8378 32.9796C38.8377 33.4089 38.6671 33.8205 38.3636 34.1241C38.06 34.4276 37.6483 34.5982 37.2191 34.5983C36.8989 34.5983 36.586 34.5033 36.3198 34.3255C36.0537 34.1476 35.8462 33.8948 35.7238 33.599C35.6013 33.3033 35.5692 32.9779 35.6317 32.6639C35.6941 32.3499 35.8483 32.0615 36.0746 31.8352C36.301 31.6088 36.5894 31.4546 36.9034 31.3922C37.2173 31.3297 37.5428 31.3618 37.8385 31.4843C38.1343 31.6068 38.3871 31.8142 38.5649 32.0804C38.7428 32.3465 38.8377 32.6595 38.8378 32.9796ZM2.78089 35.7605C3.14609 35.7605 3.50773 35.6886 3.84514 35.5489C4.18255 35.4091 4.48913 35.2043 4.74737 34.9461C5.00561 34.6878 5.21045 34.3812 5.35018 34.0438C5.48992 33.7064 5.56182 33.3448 5.56177 32.9796C5.5618 32.6144 5.48989 32.2527 5.35014 31.9153C5.21039 31.5779 5.00554 31.2713 4.7473 31.0131C4.48905 30.7548 4.18246 30.55 3.84504 30.4103C3.50762 30.2705 3.14598 30.1986 2.78077 30.1987C2.41558 30.1987 2.05397 30.2706 1.71657 30.4103C1.37918 30.5501 1.07262 30.7549 0.814396 31.0132C0.556173 31.2714 0.351346 31.578 0.211611 31.9154C0.0718757 32.2528 -2.99037e-05 32.6144 9.32972e-09 32.9796C-2.99054e-05 33.3448 0.0718794 33.7064 0.211621 34.0438C0.351364 34.3812 0.556201 34.6878 0.814436 34.946C1.07267 35.2043 1.37925 35.4091 1.71665 35.5488C2.05406 35.6886 2.41569 35.7605 2.78089 35.7605ZM2.78089 34.5983C2.35148 34.5983 1.93967 34.4277 1.63604 34.1241C1.3324 33.8204 1.16182 33.4086 1.16182 32.9792C1.16182 32.5498 1.3324 32.138 1.63604 31.8344C1.93967 31.5307 2.35148 31.3602 2.78089 31.3602C3.21029 31.3602 3.6221 31.5307 3.92574 31.8344C4.22937 32.138 4.39995 32.5498 4.39995 32.9792C4.39995 33.4086 4.22937 33.8204 3.92574 34.1241C3.6221 34.4277 3.21029 34.5983 2.78089 34.5983Z" fill="#2DD0ED"/>
<path d="M20.02 5.56177C20.5701 5.56181 21.1077 5.39873 21.5651 5.09314C22.0224 4.78755 22.3788 4.35318 22.5892 3.845C22.7641 3.42249 22.8321 2.96338 22.7873 2.50831C22.7424 2.05324 22.586 1.61625 22.332 1.23605C22.0779 0.855836 21.734 0.544133 21.3308 0.328534C20.9275 0.112936 20.4773 9.38956e-05 20.02 4.01467e-08C19.47 -9.34052e-05 18.9323 0.162943 18.4749 0.468486C18.0175 0.774029 17.6611 1.20835 17.4506 1.71652C17.2401 2.22468 17.185 2.78386 17.2924 3.32332C17.3997 3.86278 17.6646 4.35829 18.0536 4.74717C18.3119 5.0054 18.6184 5.21024 18.9558 5.34999C19.2932 5.48974 19.6548 5.56166 20.02 5.56165V5.56177ZM20.02 4.39949C19.6999 4.39945 19.387 4.3045 19.1208 4.12665C18.8546 3.9488 18.6471 3.69603 18.5245 3.40029C18.4431 3.20391 18.4012 2.99341 18.4012 2.78083C18.4012 2.56824 18.4431 2.35774 18.5245 2.16136C18.6058 1.96497 18.725 1.78652 18.8754 1.63621C19.0257 1.48591 19.2041 1.3667 19.4005 1.28539C19.6217 1.19378 19.8604 1.15237 20.0995 1.16412C20.3386 1.17587 20.5721 1.24049 20.7832 1.35334C20.9943 1.46619 21.1778 1.62445 21.3204 1.81672C21.463 2.009 21.5612 2.2305 21.6079 2.46528C21.6546 2.70007 21.6486 2.94228 21.5904 3.17449C21.5323 3.4067 21.4233 3.62312 21.2715 3.80816C21.1196 3.9932 20.9286 4.14227 20.7122 4.24462C20.4958 4.34697 20.2594 4.40005 20.02 4.40006V4.39949ZM20.4448 24.747C19.9231 24.8596 19.3781 24.7604 18.9295 24.4713C18.5949 24.2556 18.3318 23.9456 18.1734 23.5804C18.0151 23.2152 17.9686 22.8113 18.0398 22.4196C18.1111 22.028 18.2969 21.6663 18.5737 21.3803C18.8506 21.0943 19.206 20.8968 19.5951 20.8128C20.1132 20.7093 20.6513 20.8137 21.0931 21.1034C21.535 21.393 21.8452 21.8449 21.9568 22.3613C22.0683 22.8777 21.9722 23.4173 21.6893 23.8635C21.4064 24.3098 20.9594 24.6269 20.4448 24.7464V24.747Z" fill="#2DD0ED"/>
</g>
<defs>
<clipPath id="clip0_438_761">
<rect width="40" height="43.3598" fill="white"/>
</clipPath>
</defs>
</svg>
