<svg width="40" height="41" viewBox="0 0 40 41" fill="none" xmlns="http://www.w3.org/2000/svg">
<g clip-path="url(#clip0_30_379)">
<path d="M13.3854 40.9415C17.0654 40.9415 20.0521 37.9587 20.0521 34.2835V27.6255H13.3854C9.70542 27.6255 6.71875 30.6083 6.71875 34.2835C6.71875 37.9587 9.70542 40.9415 13.3854 40.9415Z" fill="#0ACF83"/>
<path d="M6.71875 20.9673C6.71875 17.2921 9.70542 14.3093 13.3854 14.3093H20.0521V27.6253H13.3854C9.70542 27.6253 6.71875 24.6425 6.71875 20.9673Z" fill="#A259FF"/>
<path d="M6.71875 7.65141C6.71875 3.97619 9.70542 0.993408 13.3854 0.993408H20.0521V14.3094H13.3854C9.70542 14.3094 6.71875 11.3266 6.71875 7.65141Z" fill="#F24E1E"/>
<path d="M20.052 0.993408H26.7187C30.3987 0.993408 33.3853 3.97619 33.3853 7.65141C33.3853 11.3266 30.3987 14.3094 26.7187 14.3094H20.052V0.993408Z" fill="#FF7262"/>
<path d="M33.3853 20.9673C33.3853 24.6425 30.3987 27.6253 26.7187 27.6253C23.0387 27.6253 20.052 24.6425 20.052 20.9673C20.052 17.2921 23.0387 14.3093 26.7187 14.3093C30.3987 14.3093 33.3853 17.2921 33.3853 20.9673Z" fill="#1ABCFE"/>
</g>
<defs>
<clipPath id="clip0_30_379">
<rect width="40" height="39.948" fill="white" transform="translate(0 0.993408)"/>
</clipPath>
</defs>
</svg>
