<svg width="30" height="40" viewBox="0 0 30 40" fill="none" xmlns="http://www.w3.org/2000/svg">
<path d="M0 32.2866L0.242153 31.9476L11.6971 10.2122L11.7213 9.98214L6.67173 0.497209C6.24867 -0.297325 5.05767 -0.0964392 4.91883 0.79298L0 32.2866Z" fill="#FFC24A"/>
<path d="M0.142822 32.0281L0.326003 31.6709L11.661 10.1633L6.624 0.639795C6.20538 -0.146414 5.14232 0.054007 5.00493 0.934107L0.142822 32.0281Z" fill="#FFA712"/>
<path d="M15.4025 17.1566L19.1623 13.306L15.4014 6.1264C15.0444 5.4468 14.0476 5.44484 13.6943 6.1264L11.6851 9.95848V10.2848L15.4025 17.1566Z" fill="#F4BD62"/>
<path d="M15.3355 16.9961L18.9907 13.2526L15.3355 6.29244C14.9884 5.63175 14.1452 5.56253 13.8018 6.22513L11.7818 10.1166L11.7214 10.3155L15.3355 16.9961Z" fill="#FFA50E"/>
<path d="M0 32.2868L0.109764 32.1764L0.508572 32.0143L15.1663 17.411L15.352 16.9055L11.6955 9.93774L0 32.2868Z" fill="#F6820C"/>
<path d="M15.872 39.6515L29.1376 32.2532L25.3494 8.92283C25.2309 8.19288 24.3354 7.9043 23.8129 8.4277L0 32.2868L13.1895 39.6509C14.0231 40.1163 15.0382 40.1165 15.872 39.6515Z" fill="#FDE068"/>
<path d="M29.0187 32.191L25.2593 9.03777C25.1417 8.31336 24.397 8.0136 23.8785 8.53302L0.147095 32.2413L13.1917 39.5325C14.019 39.9944 15.0264 39.9946 15.8539 39.5332L29.0187 32.191Z" fill="#FCCA3F"/>
<path d="M15.872 39.4335C15.0382 39.8984 14.0231 39.8982 13.1895 39.4328L0.106234 32.1745L0 32.2867L13.1895 39.6508C14.0231 40.1162 15.0382 40.1164 15.872 39.6514L29.1376 32.2531L29.1051 32.0532L15.872 39.4335Z" fill="#EEAB37"/>
</svg>
