<svg width="45" height="45" viewBox="0 0 45 45" fill="none" xmlns="http://www.w3.org/2000/svg">
<path fill-rule="evenodd" clip-rule="evenodd" d="M22.5 1.40625C10.5867 1.40625 0.9375 11.0555 0.9375 22.9687C0.9375 32.5102 7.10977 40.5691 15.6809 43.4262C16.759 43.6148 17.1633 42.968 17.1633 42.402C17.1633 41.8898 17.1363 40.1918 17.1363 38.3859C11.7188 39.3832 10.3172 37.0652 9.88594 35.8523C9.64336 35.2324 8.59219 33.3187 7.67578 32.8066C6.92109 32.4023 5.84297 31.4051 7.64883 31.3781C9.34688 31.3512 10.5598 32.9414 10.9641 33.5883C12.9047 36.8496 16.0043 35.9332 17.2441 35.3672C17.4328 33.9656 17.9988 33.0223 18.6188 32.4832C13.8211 31.9441 8.80781 30.0844 8.80781 21.8367C8.80781 19.4918 9.64336 17.5512 11.018 16.0418C10.8023 15.5027 10.0477 13.2926 11.2336 10.3277C11.2336 10.3277 13.0395 9.76172 17.1633 12.5379C18.8883 12.0527 20.7211 11.8102 22.5539 11.8102C24.3867 11.8102 26.2195 12.0527 27.9445 12.5379C32.0684 9.73477 33.8742 10.3277 33.8742 10.3277C35.0602 13.2926 34.3055 15.5027 34.0898 16.0418C35.4645 17.5512 36.3 19.4648 36.3 21.8367C36.3 30.1113 31.2598 31.9441 26.4621 32.4832C27.2438 33.157 27.9176 34.4508 27.9176 36.4723C27.9176 39.3562 27.8906 41.6742 27.8906 42.402C27.8906 42.968 28.2949 43.6418 29.373 43.4262C37.8902 40.5691 44.0625 32.4832 44.0625 22.9687C44.0625 11.0555 34.4133 1.40625 22.5 1.40625Z" fill="#E1E1E1"/>
</svg>
