<svg width="50" height="50" viewBox="0 0 50 50" fill="none" xmlns="http://www.w3.org/2000/svg">
<path fill-rule="evenodd" clip-rule="evenodd" d="M49 25.5682C49 23.7955 48.8409 22.091 48.5455 20.4546H25V30.125H38.4545C37.875 33.25 36.1136 35.8978 33.4659 37.6705V43.9432H41.5455C46.2727 39.591 49 33.1819 49 25.5682Z" fill="#4285F4"/>
<path fill-rule="evenodd" clip-rule="evenodd" d="M25.0001 50C31.7501 50 37.4092 47.7614 41.5455 43.9432L33.466 37.6705C31.2274 39.1705 28.3637 40.0568 25.0001 40.0568C18.4887 40.0568 12.9774 35.6591 11.0115 29.75H2.65918V36.2273C6.77282 44.3977 15.2274 50 25.0001 50Z" fill="#34A853"/>
<path fill-rule="evenodd" clip-rule="evenodd" d="M11.0114 29.75C10.5114 28.25 10.2273 26.6477 10.2273 25C10.2273 23.3522 10.5114 21.75 11.0114 20.25V13.7727H2.65909C0.965909 17.1477 0 20.9659 0 25C0 29.0341 0.965909 32.8523 2.65909 36.2273L11.0114 29.75Z" fill="#FBBC05"/>
<path fill-rule="evenodd" clip-rule="evenodd" d="M25.0001 9.94318C28.6705 9.94318 31.966 11.2045 34.5569 13.6818L41.7274 6.51136C37.3978 2.47727 31.7387 0 25.0001 0C15.2274 0 6.77282 5.60227 2.65918 13.7727L11.0115 20.25C12.9774 14.3409 18.4887 9.94318 25.0001 9.94318Z" fill="#EA4335"/>
</svg>
