<svg width="40" height="41" viewBox="0 0 40 41" fill="none" xmlns="http://www.w3.org/2000/svg">
<path fill-rule="evenodd" clip-rule="evenodd" d="M20.0001 10.4302C17.0085 10.4302 14.5834 12.8585 14.5834 15.8539C14.5834 18.8494 17.0085 21.2777 20.0001 21.2777C22.9916 21.2777 25.4168 18.8494 25.4168 15.8539C25.4168 12.8585 22.9916 10.4302 20.0001 10.4302ZM17.0834 15.8539C17.0834 14.241 18.3893 12.9335 20.0001 12.9335C21.6109 12.9335 22.9168 14.241 22.9168 15.8539C22.9168 17.4669 21.6109 18.7744 20.0001 18.7744C18.3893 18.7744 17.0834 17.4669 17.0834 15.8539Z" fill="#FF0000"/>
<path fill-rule="evenodd" clip-rule="evenodd" d="M20.0001 3.75488C13.3266 3.75488 7.91676 9.17182 7.91676 15.8539C7.91676 18.304 8.64406 20.584 9.89428 22.4892L5.58422 29.9642C5.33911 30.3893 5.36478 30.9186 5.64988 31.3179C5.93497 31.7172 6.42685 31.9128 6.90786 31.8181L11.2643 30.9606L12.7009 35.1671C12.8595 35.6315 13.2746 35.9603 13.7625 36.0078C14.2504 36.0554 14.7211 35.813 14.9662 35.3879L19.2658 27.931C19.5087 27.9456 19.7535 27.953 20.0001 27.953C20.2467 27.953 20.4915 27.9456 20.7344 27.931L25.034 35.3879C25.2794 35.8134 25.7507 36.0558 26.239 36.0077C26.7274 35.9596 27.1424 35.6298 27.3002 35.1645L28.7295 30.9495L33.0897 31.8176C33.5709 31.9134 34.0637 31.7184 34.3495 31.319C34.6353 30.9196 34.6613 30.3897 34.416 29.9642L30.1059 22.4892C31.3561 20.584 32.0834 18.304 32.0834 15.8539C32.0834 9.17182 26.6735 3.75488 20.0001 3.75488ZM10.4168 15.8539C10.4168 10.5543 14.7074 6.25814 20.0001 6.25814C25.2928 6.25814 29.5834 10.5543 29.5834 15.8539C29.5834 21.1536 25.2928 25.4498 20.0001 25.4498C14.7074 25.4498 10.4168 21.1536 10.4168 15.8539ZM16.6397 27.479C14.718 26.923 12.9934 25.9023 11.5949 24.5463L9.12458 28.8306L11.8529 28.2936C12.4663 28.1728 13.0745 28.5244 13.2767 29.1167L14.1764 31.7511L16.6397 27.479ZM25.8198 31.7442L23.3605 27.479C25.2821 26.923 27.0068 25.9023 28.4053 24.5463L30.8716 28.8237L28.142 28.2803C27.5268 28.1578 26.9162 28.5108 26.7146 29.1055L25.8198 31.7442Z" fill="#FF0000"/>
</svg>
