<svg width="40" height="41" viewBox="0 0 40 41" fill="none" xmlns="http://www.w3.org/2000/svg">
<path fill-rule="evenodd" clip-rule="evenodd" d="M0.46875 1.4624H39.5312V40.5249H0.46875V1.4624V1.4624Z" fill="#F7DF1E"/>
<path fill-rule="evenodd" clip-rule="evenodd" d="M10.7398 34.106L13.7291 32.2969C14.3058 33.3194 14.8305 34.1846 16.0888 34.1846C17.2951 34.1846 18.0555 33.7127 18.0555 31.8774V19.396H21.7264V31.9293C21.7264 35.7314 19.4977 37.462 16.2462 37.462C13.3096 37.462 11.605 35.9411 10.7397 34.1057" fill="black"/>
<path fill-rule="evenodd" clip-rule="evenodd" d="M23.7202 33.7126L26.7092 31.982C27.496 33.267 28.5186 34.2108 30.3278 34.2108C31.8488 34.2108 32.8187 33.4504 32.8187 32.4015C32.8187 31.1429 31.8224 30.6971 30.1442 29.9631L29.2267 29.5695C26.5782 28.4422 24.8213 27.0263 24.8213 24.037C24.8213 21.2838 26.919 19.186 30.1968 19.186C32.5305 19.186 34.2086 19.999 35.4147 22.1229L32.5565 23.9583C31.9272 22.8309 31.2456 22.3852 30.1968 22.3852C29.1218 22.3852 28.44 23.0669 28.44 23.9583C28.44 25.0596 29.1218 25.5055 30.6949 26.1873L31.6125 26.5806C34.7329 27.9179 36.4897 29.2813 36.4897 32.349C36.4897 35.6531 33.8939 37.4622 30.4065 37.4622C26.9978 37.4622 24.7952 35.8366 23.7203 33.7126" fill="black"/>
</svg>
