<svg width="40" height="41" viewBox="0 0 40 41" fill="none" xmlns="http://www.w3.org/2000/svg">
<g clip-path="url(#clip0_30_372)">
<path d="M14.8134 31.8877C14.8134 31.8877 13.2849 32.7755 15.9013 33.0759C19.071 33.437 20.691 33.3852 24.184 32.725C24.184 32.725 25.1023 33.3 26.3849 33.7981C18.5544 37.1498 8.66304 33.604 14.8134 31.8877Z" fill="#5382A1"/>
<path d="M13.8569 27.5139C13.8569 27.5139 12.1425 28.7813 14.7608 29.0518C18.1468 29.4007 20.8208 29.4292 25.4478 28.5394C25.4478 28.5394 26.0878 29.1874 27.0941 29.5417C17.6266 32.3065 7.08155 29.7598 13.8569 27.5139Z" fill="#5382A1"/>
<path d="M21.9233 20.0947C23.8527 22.3132 21.4163 24.3096 21.4163 24.3096C21.4163 24.3096 26.3154 21.7838 24.0655 18.6209C21.9641 15.6713 20.3526 14.2058 29.0765 9.15283C29.0765 9.15283 15.3829 12.5684 21.9233 20.0947Z" fill="#E76F00"/>
<path d="M32.2796 35.1225C32.2796 35.1225 33.4108 36.0534 31.0338 36.7735C26.514 38.1409 12.2218 38.5539 8.25145 36.828C6.82423 36.2079 9.50068 35.3474 10.3426 35.1668C11.2206 34.9766 11.7224 35.0121 11.7224 35.0121C10.1352 33.8954 1.46323 37.2047 7.31747 38.1525C23.2828 40.7382 36.4208 36.9881 32.2796 35.1225Z" fill="#5382A1"/>
<path d="M15.5487 22.9823C15.5487 22.9823 8.27878 24.7068 12.9742 25.333C14.9568 25.5981 18.909 25.5382 22.5904 25.2301C25.599 24.9766 28.6201 24.4377 28.6201 24.4377C28.6201 24.4377 27.5592 24.8915 26.7917 25.4149C19.4092 27.3539 5.14758 26.4519 9.25331 24.4684C12.7255 22.7922 15.5487 22.9823 15.5487 22.9823Z" fill="#5382A1"/>
<path d="M28.59 30.2626C36.0947 26.3679 32.6248 22.6252 30.2029 23.1295C29.6093 23.2529 29.3446 23.3598 29.3446 23.3598C29.3446 23.3598 29.565 23.015 29.9859 22.8658C34.7772 21.1835 38.462 27.8274 28.4392 30.4588C28.4392 30.4589 28.5553 30.3553 28.59 30.2626Z" fill="#5382A1"/>
<path d="M24.0657 0.993652C24.0657 0.993652 28.2219 5.14583 20.1237 11.5307C13.6299 16.6525 18.6429 19.5728 20.1211 22.9093C16.3305 19.4937 13.5487 16.487 15.4149 13.6886C18.1541 9.58076 25.7426 7.58914 24.0657 0.993652Z" fill="#E76F00"/>
<path d="M16.286 40.8161C23.4895 41.2766 34.5513 40.5606 34.8133 37.1565C34.8133 37.1565 34.3097 38.447 28.86 39.4718C22.7116 40.6273 15.1285 40.4924 10.6309 39.7518C10.631 39.7517 11.5516 40.5129 16.286 40.8161Z" fill="#5382A1"/>
</g>
<defs>
<clipPath id="clip0_30_372">
<rect width="40" height="39.948" fill="white" transform="translate(0 0.993652)"/>
</clipPath>
</defs>
</svg>
