<svg width="24" height="24" viewBox="0 0 24 24" fill="none" xmlns="http://www.w3.org/2000/svg">
<path fill-rule="evenodd" clip-rule="evenodd" d="M8.92906 4.47027C7.65784 4.32819 6.34193 4.32819 5.07071 4.47027C4.76182 4.50479 4.51823 4.74938 4.48348 5.04644C4.33168 6.34438 4.33168 7.65559 4.48348 8.95353C4.51823 9.25059 4.76182 9.49518 5.07071 9.5297C6.34193 9.67178 7.65784 9.67178 8.92906 9.5297C9.23795 9.49518 9.48154 9.25059 9.51629 8.95353C9.66809 7.65559 9.66809 6.34438 9.51629 5.04644C9.48154 4.74938 9.23795 4.50479 8.92906 4.47027ZM4.9041 2.97955C6.28605 2.8251 7.71372 2.8251 9.09567 2.97955C10.0865 3.09029 10.889 3.87028 11.0061 4.87219C11.1715 6.2859 11.1715 7.71407 11.0061 9.12778C10.889 10.1297 10.0865 10.9097 9.09567 11.0204C7.71372 11.1749 6.28605 11.1749 4.90411 11.0204C3.91327 10.9097 3.11082 10.1297 2.99364 9.12778C2.82829 7.71407 2.82829 6.2859 2.99364 4.87219C3.11082 3.87028 3.91326 3.09029 4.9041 2.97955Z" fill="#BC5B5B"/>
<path fill-rule="evenodd" clip-rule="evenodd" d="M8.92906 14.4703C7.65784 14.3282 6.34193 14.3282 5.07071 14.4703C4.76182 14.5048 4.51823 14.7494 4.48348 15.0464C4.33168 16.3444 4.33168 17.6556 4.48348 18.9535C4.51823 19.2506 4.76182 19.4952 5.07071 19.5297C6.34193 19.6718 7.65784 19.6718 8.92906 19.5297C9.23795 19.4952 9.48154 19.2506 9.51629 18.9535C9.66809 17.6556 9.66809 16.3444 9.51629 15.0464C9.48154 14.7494 9.23795 14.5048 8.92906 14.4703ZM4.9041 12.9795C6.28605 12.8251 7.71372 12.8251 9.09567 12.9795C10.0865 13.0903 10.889 13.8703 11.0061 14.8722C11.1715 16.2859 11.1715 17.7141 11.0061 19.1278C10.889 20.1297 10.0865 20.9097 9.09567 21.0204C7.71372 21.1749 6.28605 21.1749 4.90411 21.0204C3.91327 20.9097 3.11082 20.1297 2.99364 19.1278C2.82829 17.7141 2.82829 16.2859 2.99364 14.8722C3.11082 13.8703 3.91326 13.0903 4.9041 12.9795Z" fill="#BC5B5B"/>
<path fill-rule="evenodd" clip-rule="evenodd" d="M18.9291 4.47027C17.6578 4.32819 16.3419 4.32819 15.0707 4.47027C14.7618 4.50479 14.5182 4.74938 14.4835 5.04644C14.3317 6.34438 14.3317 7.65559 14.4835 8.95353C14.5182 9.25059 14.7618 9.49518 15.0707 9.5297C16.3419 9.67178 17.6578 9.67178 18.9291 9.5297C19.2379 9.49518 19.4815 9.25059 19.5163 8.95353C19.6681 7.65559 19.6681 6.34438 19.5163 5.04644C19.4815 4.74938 19.2379 4.50479 18.9291 4.47027ZM14.9041 2.97955C16.2861 2.8251 17.7137 2.8251 19.0957 2.97955C20.0865 3.09029 20.889 3.87028 21.0061 4.87219C21.1715 6.2859 21.1715 7.71407 21.0061 9.12778C20.889 10.1297 20.0865 10.9097 19.0957 11.0204C17.7137 11.1749 16.2861 11.1749 14.9041 11.0204C13.9133 10.9097 13.1108 10.1297 12.9936 9.12778C12.8283 7.71407 12.8283 6.2859 12.9936 4.87219C13.1108 3.87028 13.9133 3.09029 14.9041 2.97955Z" fill="#BC5B5B"/>
<path fill-rule="evenodd" clip-rule="evenodd" d="M18.9291 14.4703C17.6578 14.3282 16.3419 14.3282 15.0707 14.4703C14.7618 14.5048 14.5182 14.7494 14.4835 15.0464C14.3317 16.3444 14.3317 17.6556 14.4835 18.9535C14.5182 19.2506 14.7618 19.4952 15.0707 19.5297C16.3419 19.6718 17.6578 19.6718 18.9291 19.5297C19.2379 19.4952 19.4815 19.2506 19.5163 18.9535C19.6681 17.6556 19.6681 16.3444 19.5163 15.0464C19.4815 14.7494 19.2379 14.5048 18.9291 14.4703ZM14.9041 12.9795C16.2861 12.8251 17.7137 12.8251 19.0957 12.9795C20.0865 13.0903 20.889 13.8703 21.0061 14.8722C21.1715 16.2859 21.1715 17.7141 21.0061 19.1278C20.889 20.1297 20.0865 20.9097 19.0957 21.0204C17.7137 21.1749 16.2861 21.1749 14.9041 21.0204C13.9133 20.9097 13.1108 20.1297 12.9936 19.1278C12.8283 17.7141 12.8283 16.2859 12.9936 14.8722C13.1108 13.8703 13.9133 13.0903 14.9041 12.9795Z" fill="#BC5B5B"/>
</svg>
