<svg width="40" height="41" viewBox="0 0 40 41" fill="none" xmlns="http://www.w3.org/2000/svg">
<g clip-path="url(#clip0_30_356)">
<path fill-rule="evenodd" clip-rule="evenodd" d="M20.0354 40.4015C19.4981 40.4015 18.9966 40.2584 18.531 40.008L13.7669 37.1819C13.0505 36.7884 13.4087 36.6453 13.6236 36.5737C14.5908 36.2518 14.7699 36.1802 15.7728 35.6078C15.8803 35.5363 16.0236 35.5721 16.131 35.6436L19.7847 37.8258C19.928 37.8973 20.1071 37.8973 20.2145 37.8258L34.5067 29.5621C34.65 29.4906 34.7216 29.3475 34.7216 29.1686V12.6771C34.7216 12.4982 34.65 12.3552 34.5067 12.2836L20.2145 4.05573C20.0712 3.98418 19.8921 3.98418 19.7847 4.05573L5.49251 12.2836C5.34923 12.3552 5.27759 12.534 5.27759 12.6771V29.1686C5.27759 29.3117 5.34923 29.4906 5.49251 29.5621L9.39689 31.8159C11.5103 32.8891 12.8356 31.637 12.8356 30.3849V14.108C12.8356 13.8934 13.0147 13.6788 13.2654 13.6788H15.0923C15.3072 13.6788 15.5221 13.8576 15.5221 14.108V30.3849C15.5221 33.211 13.9818 34.8566 11.2953 34.8566C10.4715 34.8566 9.82673 34.8566 7.99991 33.9623L4.23881 31.8159C3.30749 31.2793 2.73438 30.2776 2.73438 29.2044V12.7129C2.73438 11.6397 3.30749 10.638 4.23881 10.1014L18.531 1.83778C19.4265 1.33695 20.6444 1.33695 21.5399 1.83778L35.832 10.1014C36.7633 10.638 37.3365 11.6397 37.3365 12.7129V29.2044C37.3365 30.2776 36.7633 31.2793 35.832 31.8159L21.5399 40.0795C21.0742 40.2942 20.5369 40.4015 20.0354 40.4015ZM24.4413 29.0613C18.1728 29.0613 16.8833 26.1994 16.8833 23.7669C16.8833 23.5522 17.0624 23.3376 17.3131 23.3376H19.1757C19.3907 23.3376 19.5698 23.4807 19.5698 23.6953C19.8563 25.5913 20.6802 26.5214 24.4771 26.5214C27.486 26.5214 28.7755 25.8417 28.7755 24.2319C28.7755 23.3018 28.4173 22.6221 23.7249 22.1571C19.8205 21.7635 17.3847 20.905 17.3847 17.7927C17.3847 14.8951 19.8205 13.1779 23.904 13.1779C28.4889 13.1779 30.7456 14.752 31.0321 18.1862C31.0321 18.2935 30.9963 18.4009 30.9247 18.5082C30.853 18.5797 30.7456 18.6513 30.6381 18.6513H28.7755C28.5964 18.6513 28.4173 18.5082 28.3815 18.3293C27.9516 16.3618 26.8412 15.7178 23.904 15.7178C20.6085 15.7178 20.2145 16.8626 20.2145 17.7212C20.2145 18.7586 20.6802 19.0805 25.1218 19.6529C29.5277 20.2253 31.6053 21.0481 31.6053 24.1246C31.5694 27.2726 28.9904 29.0613 24.4413 29.0613Z" fill="#539E43"/>
</g>
<defs>
<clipPath id="clip0_30_356">
<rect width="40" height="39.948" fill="white" transform="translate(0 0.993896)"/>
</clipPath>
</defs>
</svg>
