<svg width="24" height="24" viewBox="0 0 24 24" fill="none" xmlns="http://www.w3.org/2000/svg">
<path fill-rule="evenodd" clip-rule="evenodd" d="M5.84027 9.85638C7.62759 13.7483 10.8081 16.8424 14.7618 18.519L14.7743 18.5243L15.5381 18.8648C16.5108 19.2981 17.654 18.9904 18.2776 18.1273L19.552 16.3635C19.6298 16.2558 19.6097 16.106 19.5063 16.0225L17.2816 14.2277C17.171 14.1385 17.0083 14.1593 16.9237 14.2735L16.0579 15.4418C15.8476 15.7256 15.4678 15.8242 15.1461 15.6786C12.1897 14.3407 9.81396 11.9649 8.47603 9.00854C8.33041 8.68678 8.42901 8.30702 8.71276 8.09674L9.88114 7.23088C9.99531 7.14628 10.0161 6.98365 9.92686 6.87305L8.13182 4.64801C8.04839 4.54459 7.89865 4.52451 7.79092 4.60228L6.01762 5.88244C5.14883 6.50963 4.84288 7.66247 5.28634 8.63792L5.83968 9.85508C5.83988 9.85552 5.84008 9.85595 5.84027 9.85638ZM14.1699 19.8973C9.87391 18.0737 6.41854 14.7107 4.4765 10.481L4.47533 10.4784L3.92083 9.25871C3.18173 7.63296 3.69165 5.71155 5.13964 4.66624L6.91293 3.38608C7.66705 2.84167 8.71528 2.98228 9.29927 3.70617L11.0943 5.93122C11.7189 6.70539 11.5734 7.84378 10.7742 8.43602L10.1047 8.93218C11.2357 11.1266 13.028 12.919 15.2224 14.0499L15.7186 13.3804C16.3108 12.5812 17.4492 12.4357 18.2234 13.0603L20.4481 14.8551C21.1722 15.4393 21.3127 16.4879 20.7678 17.242L19.4934 19.0058C18.4541 20.4442 16.5487 20.9572 14.9277 20.2349L14.1699 19.8973Z" fill="#FF0000"/>
</svg>
