<svg width="40" height="41" viewBox="0 0 40 41" fill="none" xmlns="http://www.w3.org/2000/svg">
<ellipse cx="20" cy="20.924" rx="19.5312" ry="10.2558" fill="url(#paint0_radial_30_397)"/>
<ellipse cx="20" cy="20.924" rx="18.7683" ry="9.49386" fill="#6181B6"/>
<path fill-rule="evenodd" clip-rule="evenodd" d="M23.7993 24.0024L24.7301 19.2173C24.9437 18.1354 24.7606 17.3277 24.2113 16.8248C23.6773 16.3372 22.7617 16.0934 21.419 16.0934H19.8015L20.2593 13.7161C20.2745 13.6246 20.2593 13.5332 20.1983 13.457C20.1372 13.3808 20.0609 13.3503 19.9694 13.3503H17.7416C17.589 13.3503 17.4669 13.457 17.4364 13.5942L16.4446 18.6687C16.353 18.0897 16.1394 17.602 15.7732 17.2058C15.1171 16.4591 14.0947 16.0781 12.7062 16.0781H8.41847C8.26588 16.0781 8.14381 16.1848 8.11329 16.3219L6.11439 26.6235C6.09913 26.7149 6.11439 26.8063 6.17543 26.8825C6.23646 26.9587 6.31275 26.9892 6.40431 26.9892H8.64735C8.79994 26.9892 8.92201 26.8825 8.95253 26.7454L9.44081 24.2614H11.104C11.9738 24.2614 12.7214 24.17 13.286 23.9871C13.8811 23.789 14.4152 23.469 14.8882 23.0271C15.2697 22.6766 15.5901 22.2804 15.8342 21.8537L15.4375 23.9109C15.4223 24.0024 15.4375 24.0938 15.4985 24.17C15.5596 24.2462 15.6359 24.2767 15.7274 24.2767H17.9552C18.1078 24.2767 18.2299 24.17 18.2604 24.0328L19.359 18.3944H20.8849C21.541 18.3944 21.7241 18.5163 21.7852 18.5773C21.8309 18.623 21.9225 18.8059 21.8157 19.3697L20.9307 23.9262C20.9154 24.0176 20.9307 24.109 20.9917 24.1852C21.0527 24.2614 21.129 24.2919 21.2206 24.2919H23.5094C23.6467 24.2462 23.7688 24.1395 23.7993 24.0024ZM13.4844 20.0402C13.3471 20.7565 13.0877 21.2746 12.7062 21.5641C12.3247 21.8537 11.6991 22.0061 10.8751 22.0061H9.88331L10.6005 18.3182H11.8822C12.8283 18.3182 13.2097 18.5163 13.3623 18.684C13.5607 18.9278 13.6065 19.4002 13.4844 20.0402Z" fill="#2C2C2C"/>
<path fill-rule="evenodd" clip-rule="evenodd" d="M33.3208 17.2058C32.6647 16.4591 31.6423 16.0781 30.2538 16.0781H25.9356C25.783 16.0781 25.6609 16.1848 25.6304 16.3219L23.6315 26.6082C23.6162 26.6997 23.6315 26.7911 23.6925 26.8673C23.7536 26.9435 23.8298 26.974 23.9214 26.974H26.1644C26.317 26.974 26.4391 26.8673 26.4696 26.7301L26.9579 24.2462H28.6211C29.4909 24.2462 30.2385 24.1548 30.8031 23.9719C31.3982 23.7738 31.9323 23.4538 32.4053 23.0118C32.802 22.6461 33.1377 22.2347 33.3818 21.7927C33.626 21.3508 33.8091 20.8632 33.9159 20.3298C34.1753 19.004 33.9769 17.9678 33.3208 17.2058ZM30.9862 20.0403C30.8489 20.7565 30.5895 21.2746 30.208 21.5641C29.8265 21.8537 29.2009 22.0061 28.377 22.0061H27.3851L28.1023 18.3183H29.384C30.3301 18.3183 30.7115 18.5164 30.8641 18.684C31.0778 18.9278 31.1235 19.4002 30.9862 20.0403Z" fill="#2C2C2C"/>
<path fill-rule="evenodd" clip-rule="evenodd" d="M11.8823 18.0136C12.7368 18.0136 13.3014 18.166 13.5913 18.486C13.8812 18.8061 13.9423 19.3394 13.7897 20.1014C13.6371 20.8938 13.3319 21.4729 12.8894 21.8081C12.4469 22.1434 11.7755 22.311 10.8752 22.311H9.51721L10.3564 18.0136H11.8823ZM6.41968 26.6693H8.66272L9.19678 23.9416H11.1194C11.9739 23.9416 12.6605 23.8501 13.2098 23.6673C13.7592 23.4844 14.2474 23.1949 14.7052 22.7682C15.0867 22.4177 15.3918 22.0367 15.6207 21.6253C15.8496 21.2138 16.0175 20.7566 16.109 20.2537C16.3531 19.0346 16.17 18.0898 15.575 17.4041C14.9799 16.7183 14.0338 16.3831 12.7368 16.3831H8.41858L6.41968 26.6693Z" fill="#000004"/>
<path fill-rule="evenodd" clip-rule="evenodd" d="M17.757 13.6553H19.9847L19.4507 16.383H21.4343C22.6855 16.383 23.54 16.5964 24.0131 17.0383C24.4861 17.4802 24.6234 18.1812 24.4403 19.1565L23.5095 23.9416H21.2512L22.1362 19.3851C22.243 18.867 22.1973 18.5165 22.0294 18.3336C21.8616 18.1508 21.4801 18.0441 20.9155 18.0441H19.1302L17.9858 23.9416H15.7581L17.757 13.6553Z" fill="#000004"/>
<path fill-rule="evenodd" clip-rule="evenodd" d="M29.384 18.0136C30.2385 18.0136 30.8031 18.166 31.093 18.486C31.3829 18.8061 31.444 19.3394 31.2914 20.1014C31.1388 20.8938 30.8336 21.4729 30.3911 21.8081C29.9486 22.1434 29.2772 22.311 28.377 22.311H27.0189L27.8582 18.0136H29.384ZM23.9214 26.6693H26.1644L26.6985 23.9416H28.6211C29.4756 23.9416 30.1622 23.8501 30.7115 23.6673C31.2609 23.4844 31.7491 23.1949 32.2069 22.7682C32.5884 22.4177 32.8936 22.0367 33.1224 21.6253C33.3513 21.2138 33.5192 20.7566 33.6107 20.2537C33.8549 19.0346 33.6718 18.0898 33.0767 17.4041C32.4816 16.7183 31.5355 16.3831 30.2385 16.3831H25.9203L23.9214 26.6693Z" fill="#000004"/>
<defs>
<radialGradient id="paint0_radial_30_397" cx="0" cy="0" r="1" gradientUnits="userSpaceOnUse" gradientTransform="translate(12.1954 14.2749) scale(55.398 29.0894)">
<stop stop-color="white"/>
<stop offset="0.5" stop-color="#4C6B97"/>
<stop offset="1" stop-color="#231F20"/>
</radialGradient>
</defs>
</svg>
