<svg width="40" height="41" viewBox="0 0 40 41" fill="none" xmlns="http://www.w3.org/2000/svg">
<g clip-path="url(#clip0_30_402)">
<path d="M19.808 1.14941C9.67797 1.14941 10.3106 5.5367 10.3106 5.5367L10.3219 10.0819H19.9887V11.4466H6.48221C6.48221 11.4466 0 10.7124 0 20.9204C-7.225e-07 31.1284 5.65782 30.7664 5.65782 30.7664H9.03444V26.0295C9.03444 26.0295 8.85244 20.379 14.6019 20.379H24.1897C24.1897 20.379 29.5765 20.466 29.5765 15.1797V6.43897C29.5765 6.43897 30.3944 1.14941 19.808 1.14941ZM14.4777 4.20585C15.4395 4.20585 16.2168 4.98219 16.2168 5.94272C16.2168 6.90325 15.4395 7.67959 14.4777 7.67959C13.5159 7.67959 12.7386 6.90325 12.7386 5.94272C12.7386 4.98219 13.5159 4.20585 14.4777 4.20585Z" fill="url(#paint0_linear_30_402)"/>
<path d="M20.0956 40.7939C30.2257 40.7939 29.5931 36.4066 29.5931 36.4066L29.5818 31.8614H19.915V30.4967H33.4214C33.4214 30.4967 39.9037 31.2309 39.9037 21.0229C39.9037 10.8149 34.2458 11.1769 34.2458 11.1769H30.8692V15.9138C30.8692 15.9138 31.0512 21.5643 25.3017 21.5643H15.7139C15.7139 21.5643 10.3271 21.4773 10.3271 26.7636V35.5043C10.3271 35.5043 9.50929 40.7939 20.0956 40.7939ZM25.426 37.7374C24.4642 37.7374 23.6868 36.9611 23.6868 36.0006C23.6868 35.04 24.4642 34.2637 25.426 34.2637C26.3877 34.2637 27.1651 35.04 27.1651 36.0006C27.1651 36.9611 26.3877 37.7374 25.426 37.7374Z" fill="url(#paint1_linear_30_402)"/>
</g>
<defs>
<linearGradient id="paint0_linear_30_402" x1="3.83482" y1="4.71531" x2="23.5842" y2="24.2931" gradientUnits="userSpaceOnUse">
<stop stop-color="#387EB8"/>
<stop offset="1" stop-color="#366994"/>
</linearGradient>
<linearGradient id="paint1_linear_30_402" x1="15.9726" y1="17.2706" x2="37.1825" y2="37.3471" gradientUnits="userSpaceOnUse">
<stop stop-color="#FFE052"/>
<stop offset="1" stop-color="#FFC331"/>
</linearGradient>
<clipPath id="clip0_30_402">
<rect width="40" height="39.948" fill="white" transform="translate(0 0.993408)"/>
</clipPath>
</defs>
</svg>
