<svg width="40" height="41" viewBox="0 0 40 41" fill="none" xmlns="http://www.w3.org/2000/svg">
<path d="M32.888 14.6984C32.4731 14.5558 32.0431 14.4208 31.6004 14.2932C31.6732 13.9966 31.7399 13.7038 31.7993 13.4161C32.774 8.6908 32.1367 4.8841 29.9605 3.63077C27.8738 2.42899 24.4611 3.68204 21.0145 6.67763C20.6831 6.96568 20.3507 7.27066 20.0185 7.59028C19.7972 7.37881 19.5762 7.17445 19.3557 6.97898C15.7436 3.7759 12.1229 2.42607 9.94884 3.68303C7.86412 4.88829 7.24675 8.46696 8.12414 12.9451C8.20887 13.3777 8.30791 13.8194 8.41991 14.2685C7.90748 14.4138 7.41279 14.5686 6.93946 14.7334C2.70458 16.2079 0 18.5189 0 20.916C0 23.3917 2.90337 25.8749 7.31432 27.3806C7.66242 27.4994 8.02361 27.6118 8.39584 27.7184C8.27501 28.2042 8.16992 28.6802 8.08171 29.1444C7.24511 33.5449 7.89844 37.039 9.97761 38.2366C12.1252 39.4735 15.7295 38.2021 19.2391 35.1383C19.5165 34.8961 19.7949 34.6393 20.0738 34.3701C20.4352 34.7177 20.7962 35.0467 21.1551 35.3553C24.5546 38.2769 27.9122 39.4566 29.9894 38.2556C32.1349 37.0152 32.8321 33.2617 31.9269 28.6949C31.8578 28.3462 31.7773 27.9898 31.687 27.6272C31.9401 27.5525 32.1886 27.4753 32.4309 27.3951C37.0165 25.8778 40 23.4248 40 20.916C40 18.5102 37.2082 16.1837 32.888 14.6984ZM31.8934 25.7752C31.6747 25.8475 31.4503 25.9174 31.2216 25.9852C30.7154 24.3847 30.0321 22.6827 29.1961 20.9243C29.9939 19.2078 30.6507 17.5276 31.1428 15.9374C31.552 16.0557 31.9491 16.1804 32.3318 16.312C36.0333 17.5846 38.2912 19.4662 38.2912 20.916C38.2912 22.4603 35.8528 24.465 31.8934 25.7752ZM30.2506 29.0264C30.6509 31.0457 30.708 32.8715 30.4429 34.2987C30.2047 35.5812 29.7256 36.4363 29.1332 36.7787C27.8726 37.5074 25.1768 36.5602 22.2696 34.0617C21.9363 33.7752 21.6006 33.4694 21.2638 33.1457C22.3909 31.9147 23.5173 30.4835 24.6167 28.894C26.5504 28.7227 28.3773 28.4425 30.0341 28.06C30.1157 28.3888 30.1881 28.7112 30.2506 29.0264ZM13.6369 36.6528C12.4053 37.0872 11.4244 37.0996 10.8314 36.7582C9.56971 36.0314 9.04518 33.2259 9.76066 29.4627C9.84261 29.0317 9.94016 28.589 10.0526 28.1365C11.6912 28.4983 13.5047 28.7587 15.443 28.9157C16.5498 30.471 17.7088 31.9006 18.8768 33.1523C18.6216 33.3984 18.3674 33.6326 18.1146 33.8533C16.5627 35.2081 15.0075 36.1693 13.6369 36.6528ZM7.86697 25.7658C5.91653 25.1 4.30579 24.2347 3.2017 23.2905C2.2096 22.4419 1.70872 21.5995 1.70872 20.916C1.70872 19.4614 3.88023 17.606 7.50193 16.3449C7.94137 16.1919 8.40139 16.0477 8.87879 15.9122C9.37932 17.5383 10.0359 19.2384 10.8283 20.9575C10.0257 22.7022 9.35974 24.4294 8.85429 26.0745C8.51396 25.9768 8.18424 25.874 7.86697 25.7658ZM9.8011 12.6174C9.04938 8.78061 9.54863 5.88628 10.8049 5.15999C12.1431 4.38628 15.1023 5.48943 18.2211 8.25513C18.4204 8.4319 18.6206 8.61692 18.8213 8.80834C17.6591 10.0546 16.5107 11.4735 15.4138 13.0196C13.5325 13.1938 11.7317 13.4735 10.0761 13.8481C9.97198 13.4299 9.87978 13.0191 9.8011 12.6174ZM27.0553 16.8724C26.6595 16.1896 26.2532 15.523 25.8389 14.8745C27.1152 15.0357 28.338 15.2496 29.4863 15.5113C29.1415 16.6147 28.7118 17.7684 28.206 18.9512C27.8432 18.2632 27.4594 17.5696 27.0553 16.8724ZM20.0191 10.028C20.8073 10.8808 21.5966 11.8329 22.3729 12.8659C21.5906 12.829 20.7986 12.8098 20 12.8098C19.209 12.8098 18.4228 12.8286 17.6453 12.8648C18.4224 11.8414 19.2186 10.8906 20.0191 10.028ZM12.9378 16.8842C12.5424 17.5689 12.1658 18.2587 11.8086 18.9499C11.311 17.7713 10.8853 16.6123 10.5376 15.4932C11.6788 15.2382 12.8959 15.0296 14.164 14.8716C13.7439 15.526 13.3342 16.1975 12.9378 16.884V16.8842ZM14.2005 27.0822C12.8903 26.9362 11.655 26.7384 10.514 26.4903C10.8673 25.3513 11.3024 24.1676 11.8106 22.9636C12.1686 23.6542 12.5468 24.3444 12.9446 25.0306H12.9446C13.3498 25.7296 13.7696 26.4144 14.2005 27.0822ZM20.0664 31.9243C19.2565 31.0516 18.4486 30.0863 17.6597 29.0479C18.4256 29.0779 19.2064 29.0933 20 29.0933C20.8153 29.0933 21.6213 29.0749 22.4146 29.0397C21.6357 30.0967 20.8492 31.0636 20.0664 31.9243ZM28.2223 22.9022C28.757 24.1192 29.2077 25.2967 29.5655 26.4164C28.4057 26.6806 27.1536 26.8935 25.8342 27.0516C26.2495 26.3944 26.6594 25.7163 27.0621 25.0189C27.4696 24.3132 27.8565 23.6065 28.2223 22.9022ZM25.582 24.1663C24.9567 25.249 24.3148 26.2826 23.6631 27.2583C22.4761 27.3431 21.2498 27.3867 20 27.3867C18.7552 27.3867 17.5444 27.3481 16.3784 27.2725C15.7005 26.2841 15.0446 25.2474 14.4233 24.1756H14.4234C13.8038 23.1067 13.2335 22.0288 12.7167 20.957C13.2333 19.8826 13.8022 18.8035 14.4182 17.7365L14.4181 17.7367C15.0358 16.6669 15.686 15.6353 16.3576 14.653C17.5473 14.5632 18.7671 14.5164 19.9999 14.5164H20C21.2384 14.5164 22.4598 14.5636 23.649 14.6542C24.3105 15.6293 24.9562 16.6575 25.5763 17.7275C26.2035 18.8095 26.7797 19.8814 27.3007 20.9327C26.7813 22.0021 26.2064 23.0848 25.582 24.1663ZM29.107 5.10922C30.4465 5.88066 30.9674 8.99187 30.1258 13.0716C30.0721 13.3319 30.0116 13.5971 29.946 13.8658C28.2865 13.4834 26.4844 13.1988 24.5977 13.0221C23.4986 11.4589 22.3596 10.0379 21.2164 8.80756C21.5237 8.51225 21.8307 8.23067 22.1363 7.96494C25.0894 5.39834 27.8495 4.385 29.107 5.10922ZM20 17.3488C21.9727 17.3488 23.5719 18.9458 23.5719 20.916C23.5719 22.8861 21.9727 24.4832 20 24.4832C18.0273 24.4832 16.4281 22.8861 16.4281 20.916C16.4281 18.9458 18.0273 17.3488 20 17.3488Z" fill="#00D8FF"/>
</svg>
