<svg width="20" height="20" viewBox="0 0 20 20" fill="none" xmlns="http://www.w3.org/2000/svg">
<path fill-rule="evenodd" clip-rule="evenodd" d="M10.0001 0.625C4.70529 0.625 0.416748 4.91354 0.416748 10.2083C0.416748 14.449 3.15998 18.0307 6.96935 19.3005C7.44852 19.3844 7.62821 19.0969 7.62821 18.8453C7.62821 18.6177 7.61623 17.863 7.61623 17.0604C5.20842 17.5036 4.5855 16.4734 4.39383 15.9344C4.28602 15.6589 3.81883 14.8083 3.41154 14.5807C3.07612 14.401 2.59696 13.9578 3.39956 13.9458C4.15425 13.9339 4.69331 14.6406 4.873 14.9281C5.7355 16.3776 7.1131 15.9703 7.66414 15.7187C7.748 15.0958 7.99956 14.6766 8.27508 14.437C6.14279 14.1974 3.91466 13.3708 3.91466 9.70521C3.91466 8.66302 4.28602 7.80052 4.89696 7.12969C4.80112 6.8901 4.46571 5.90781 4.99279 4.5901C4.99279 4.5901 5.79539 4.33854 7.62821 5.5724C8.39487 5.35677 9.20946 5.24896 10.024 5.24896C10.8386 5.24896 11.6532 5.35677 12.4199 5.5724C14.2527 4.32656 15.0553 4.5901 15.0553 4.5901C15.5824 5.90781 15.247 6.8901 15.1511 7.12969C15.7621 7.80052 16.1334 8.65104 16.1334 9.70521C16.1334 13.3828 13.8933 14.1974 11.761 14.437C12.1084 14.7365 12.4079 15.3115 12.4079 16.2099C12.4079 17.4917 12.3959 18.5219 12.3959 18.8453C12.3959 19.0969 12.5756 19.3964 13.0548 19.3005C16.8402 18.0307 19.5834 14.437 19.5834 10.2083C19.5834 4.91354 15.2949 0.625 10.0001 0.625Z" fill="#373737"/>
</svg>
