<svg width="40" height="40" viewBox="0 0 40 40" fill="none" xmlns="http://www.w3.org/2000/svg">
<path d="M35.323 20.118C35.323 19.6492 34.9766 19.3789 34.5514 19.5132L5.30286 28.7879C4.87685 28.9231 4.53125 29.4133 4.53125 29.8812V39.3604C4.53125 39.8292 4.87685 40.1004 5.30286 39.9652L34.5514 30.6913C34.9766 30.5562 35.323 30.066 35.323 29.5972V20.118Z" fill="url(#paint0_linear_435_2265)"/>
<path d="M4.53125 19.816C4.53125 20.2847 4.87685 20.7749 5.30286 20.9101L34.5557 30.1857C34.9817 30.3208 35.3273 30.0497 35.3273 29.5817V20.1017C35.3273 19.6337 34.9817 19.1436 34.5557 19.0084L5.30286 9.73281C4.87685 9.59765 4.53125 9.86797 4.53125 10.3368V19.816Z" fill="#FF9800"/>
<path d="M35.323 0.639547C35.323 0.170762 34.9766 -0.100414 34.5514 0.0347466L5.30286 9.30864C4.87685 9.4438 4.53125 9.93397 4.53125 10.4028V19.8819C4.53125 20.3507 4.87685 20.6211 5.30286 20.4867L34.5514 11.212C34.9766 11.0768 35.323 10.5867 35.323 10.1187V0.639547Z" fill="#FF9800"/>
<defs>
<linearGradient id="paint0_linear_435_2265" x1="21.5028" y1="31.5205" x2="22.7942" y2="27.2022" gradientUnits="userSpaceOnUse">
<stop stop-color="#FF9700"/>
<stop offset="0.53" stop-color="#F48E00"/>
<stop offset="1" stop-color="#D06F00"/>
</linearGradient>
</defs>
</svg>
