<svg width="40" height="40" viewBox="0 0 40 40" fill="none" xmlns="http://www.w3.org/2000/svg">
<g clip-path="url(#clip0_30_338)">
<path d="M39.9434 19.9505C39.9434 30.9682 31.0113 39.9005 19.9929 39.9005C8.9742 39.9005 0.0422363 30.9682 0.0422363 19.9505C0.0422363 8.93208 8.97432 0 19.9929 0C31.0114 0 39.9434 8.93208 39.9434 19.9505Z" fill="#DD4814"/>
<path d="M6.4271 17.2864C4.95531 17.2864 3.76294 18.4789 3.76294 19.9506C3.76294 21.4215 4.95531 22.6139 6.4271 22.6139C7.89807 22.6139 9.09045 21.4215 9.09045 19.9506C9.09045 18.4789 7.89807 17.2864 6.4271 17.2864ZM25.4451 29.3924C24.171 30.1283 23.7342 31.7564 24.4702 33.0297C25.2052 34.3038 26.8333 34.7405 28.1073 34.0046C29.3812 33.2696 29.8181 31.6415 29.0822 30.3673C28.3472 29.0941 26.7181 28.6574 25.4451 29.3924ZM12.2128 19.9506C12.2128 17.3183 13.5202 14.9928 15.5208 13.5846L13.5735 10.323C11.2431 11.8808 9.5091 14.2612 8.78851 17.0491C9.62933 17.7352 10.1675 18.7796 10.1675 19.9504C10.1675 21.1205 9.62933 22.165 8.78851 22.8511C9.50816 25.6398 11.2421 28.0204 13.5735 29.5781L15.5208 26.3157C13.5202 24.9083 12.2128 22.5829 12.2128 19.9506ZM19.9929 12.1697C24.0574 12.1697 27.392 15.286 27.7421 19.2604L31.5375 19.2044C31.3507 16.2703 30.069 13.6363 28.0995 11.6994C27.0867 12.0821 25.9168 12.0235 24.9057 11.4406C23.8928 10.8561 23.2577 9.87009 23.0841 8.79971C22.0997 8.52804 21.0637 8.3793 19.9926 8.3793C18.1513 8.3793 16.4104 8.81179 14.8648 9.57683L16.7155 12.8934C17.7112 12.4301 18.8219 12.1697 19.9929 12.1697ZM19.9929 27.7306C18.8219 27.7306 17.7112 27.4701 16.7157 27.0069L14.8649 30.3233C16.4106 31.0893 18.1514 31.5219 19.9929 31.5219C21.0639 31.5219 22.0999 31.3731 23.0842 31.1006C23.2578 30.0302 23.8931 29.0451 24.9058 28.4595C25.9177 27.8757 27.0868 27.8182 28.0996 28.2009C30.0691 26.264 31.3509 23.63 31.5376 20.6959L27.7412 20.6399C27.392 24.6153 24.0575 27.7306 19.9929 27.7306ZM25.4441 10.507C26.7181 11.2428 28.3464 10.807 29.0814 9.53296C29.8172 8.25895 29.3815 6.63068 28.1073 5.89472C26.8333 5.15971 25.2052 5.59642 24.4691 6.87044C23.7342 8.14376 24.1709 9.77202 25.4441 10.507Z" fill="#2C2C2C"/>
</g>
<defs>
<clipPath id="clip0_30_338">
<rect width="40" height="40" fill="white"/>
</clipPath>
</defs>
</svg>
