<svg width="40" height="41" viewBox="0 0 40 41" fill="none" xmlns="http://www.w3.org/2000/svg">
<path fill-rule="evenodd" clip-rule="evenodd" d="M19.3525 5.51065C19.7583 5.39501 20.1864 5.39491 20.5921 5.51021C21.4547 5.75531 22.3252 5.98264 23.1986 6.21073C27.3 7.28181 31.4653 8.36959 35.1712 11.3919L36.8777 12.7837C37.57 13.3482 37.9163 14.1839 37.9166 15.0196V26.7015C37.9166 27.3928 37.3569 27.9531 36.6666 27.9531C35.9762 27.9531 35.4166 27.3928 35.4166 26.7015V18.4519L35.145 18.6738C33.8609 19.723 32.5212 20.5377 31.148 21.1991C31.2136 21.3512 31.2499 21.5188 31.2499 21.695V28.8608C31.2499 30.7521 30.0912 32.4497 28.3314 33.1367L21.6647 35.7392C20.5941 36.1571 19.4057 36.1571 18.3351 35.7392L11.6684 33.1367C9.90862 32.4497 8.74992 30.7521 8.74992 28.8609V21.695C8.74992 21.5144 8.78813 21.3427 8.85689 21.1876C7.47297 20.5223 6.1228 19.7028 4.82866 18.6474L3.12209 17.2556C1.73766 16.1265 1.73693 13.9131 3.12016 12.7829L4.85479 11.3655C8.53386 8.35937 12.6698 7.27808 16.7408 6.21377C17.6161 5.98494 18.4884 5.75688 19.3525 5.51065ZM35.4166 15.0206C35.4165 14.8703 35.3559 14.771 35.2989 14.7246L33.5924 13.3328C29.9999 10.8475 26.7988 9.75144 22.7331 8.68166C21.8391 8.44643 20.9198 8.20454 19.9732 7.93641C19.0224 8.20648 18.0997 8.44953 17.2028 8.68582C13.1696 9.74826 9.6553 10.674 6.43539 13.305L4.70076 14.7223C4.64377 14.7689 4.58319 14.8683 4.58325 15.0186C4.58331 15.169 4.64397 15.2683 4.70089 15.3147L6.40746 16.7065C9.65466 19.3547 13.201 20.2878 17.2668 21.3576C18.1608 21.5929 19.08 21.8347 20.0266 22.1029C20.9774 21.8328 21.8999 21.5898 22.7969 21.3535C26.83 20.2911 30.3445 19.3653 33.5645 16.7343L35.2991 15.317C35.356 15.2705 35.4165 15.1707 35.4166 15.0206ZM23.259 23.8255C25.092 23.3463 26.9382 22.8636 28.7499 22.2034V28.8608C28.7499 29.7205 28.2232 30.4922 27.4233 30.8044L20.7567 33.4069C20.27 33.5969 19.7298 33.5969 19.2432 33.4069L12.5765 30.8044C11.7766 30.4922 11.2499 29.7205 11.2499 28.8609V22.1892C13.0812 22.8571 14.9477 23.3445 16.8012 23.8285C17.6746 24.0566 18.5451 24.284 19.4077 24.5291C19.8135 24.6444 20.2415 24.6443 20.6473 24.5286C21.5114 24.2824 22.3838 24.0543 23.259 23.8255Z" fill="#FF0000"/>
</svg>
