<svg width="40" height="40" viewBox="0 0 40 40" fill="none" xmlns="http://www.w3.org/2000/svg">
<g clip-path="url(#clip0_30_330)">
<path d="M5.77917 31.3134C5.30125 31.7218 4.63423 31.8265 4.05417 31.5842L1.025 30.3134C0.407284 30.0557 0.00362944 29.4535 0 28.7842V11.0092C0.00362944 10.34 0.407284 9.73775 1.025 9.48008L4.05417 8.23008C4.63423 7.98782 5.30125 8.09255 5.77917 8.50091L6.45833 9.06341C6.17751 8.86153 5.80725 8.83403 5.49969 8.99221C5.19212 9.15038 4.99913 9.46756 5 9.81341V29.9801C4.99913 30.3259 5.19212 30.6431 5.49969 30.8013C5.80725 30.9595 6.17751 30.932 6.45833 30.7301L5.77917 31.3134Z" fill="#52218A"/>
<path d="M1.025 30.3134C0.407284 30.0558 0.00362944 29.4536 0 28.7843V28.6468C0.00420209 29.0404 0.247644 29.3917 0.614674 29.534C0.981703 29.6762 1.39835 29.5806 1.66667 29.2926L27.5 0.730105C28.2497 -0.0158236 29.3876 -0.209368 30.3417 0.246772L38.5833 4.21344C39.4497 4.62998 40.0004 5.50635 40 6.4676V6.56344C39.9995 5.95351 39.6477 5.39841 39.0965 5.13746C38.5452 4.87651 37.8929 4.95637 37.4208 5.3426L6.45833 30.7301L5.77917 31.3134C5.30125 31.7218 4.63423 31.8265 4.05417 31.5843L1.025 30.3134Z" fill="#6C33AF"/>
<path d="M1.025 9.48021C0.407284 9.73788 0.00362944 10.3401 0 11.0094V11.1469C0.00420209 10.7533 0.247644 10.4019 0.614674 10.2597C0.981703 10.1175 1.39835 10.213 1.66667 10.501L27.5 39.0635C28.2497 39.8095 29.3876 40.003 30.3417 39.5469L38.5833 35.5802C39.4497 35.1637 40.0004 34.2873 40 33.326V33.2302C39.9995 33.8401 39.6477 34.3952 39.0965 34.6562C38.5452 34.9171 37.8929 34.8373 37.4208 34.451L6.45833 9.06354L5.77917 8.48021C5.29703 8.07889 4.63039 7.98227 4.05417 8.23021L1.025 9.48021Z" fill="#854CC7"/>
<path d="M30.3417 39.5468C29.3876 40.0029 28.2497 39.8094 27.5 39.0634C27.9199 39.4803 28.5491 39.604 29.0955 39.3773C29.642 39.1505 29.9987 38.6176 30 38.0259V1.77594C30.002 1.18278 29.6466 0.646801 29.0994 0.417885C28.5522 0.18897 27.9209 0.312193 27.5 0.730105C28.2497 -0.0158236 29.3876 -0.209368 30.3417 0.246772L38.5833 4.20927C39.4497 4.62582 40.0004 5.50218 40 6.46344V33.3301C40.0004 34.2914 39.4497 35.1677 38.5833 35.5843L30.3417 39.5468Z" fill="#B179F1"/>
<path d="M28.7042 39.7301C29.255 39.8558 29.8322 39.7912 30.3417 39.5468L38.5833 35.5843C39.4497 35.1678 40.0004 34.2914 40 33.3301V6.46347C40.0004 5.50221 39.4497 4.62585 38.5833 4.2093L30.3417 0.246804C29.7585 -0.0335087 29.0894 -0.0768216 28.475 0.125971C28.1076 0.249075 27.7738 0.455907 27.5 0.730138L14.2167 15.4218L6.45833 9.06347L5.77917 8.48014C5.36458 8.12566 4.80277 7.99649 4.275 8.1343C4.19886 8.15112 4.1248 8.17628 4.05417 8.2093L1.025 9.48014C0.446948 9.71882 0.0511616 10.261 0 10.8843C0 10.926 0 10.9676 0 11.0093V28.7843C0 28.826 0 28.8676 0 28.9093C0.0511616 29.5326 0.446948 30.0748 1.025 30.3135L4.05417 31.5635C4.1248 31.5965 4.19886 31.6217 4.275 31.6385C4.80277 31.7763 5.36458 31.6471 5.77917 31.2926L6.45833 30.7301L14.2167 24.3718L27.5 39.0635C27.8311 39.394 28.2483 39.625 28.7042 39.7301ZM30 11.4301L19.6708 19.8968L30 28.3635V11.4301ZM5 14.176L10.1708 19.8968L5 25.6176V14.176Z" fill="url(#paint0_linear_30_330)" fill-opacity="0.25"/>
</g>
<defs>
<linearGradient id="paint0_linear_30_330" x1="20" y1="0.000971155" x2="20" y2="39.7926" gradientUnits="userSpaceOnUse">
<stop stop-color="white"/>
<stop offset="1" stop-color="white" stop-opacity="0"/>
</linearGradient>
<clipPath id="clip0_30_330">
<rect width="40" height="40" fill="white"/>
</clipPath>
</defs>
</svg>
